solid CATIA STL
  facet normal  0.000000e+000  0.000000e+000 -9.999999e-001
    outer loop
      vertex  3.000000e+001  1.200000e+001  0.000000e+000
      vertex  1.750000e+001  2.500000e+000  0.000000e+000
      vertex  1.676777e+001  4.267767e+000  0.000000e+000
    endloop
  endfacet
  facet normal  0.000000e+000  0.000000e+000 -1.000000e+000
    outer loop
      vertex  3.000000e+001 -1.200000e+001  0.000000e+000
      vertex  0.000000e+000 -1.200000e+001  0.000000e+000
      vertex  1.676777e+001 -4.267767e+000  0.000000e+000
    endloop
  endfacet
  facet normal  0.000000e+000  0.000000e+000 -9.999999e-001
    outer loop
      vertex  3.000000e+001 -1.200000e+001  0.000000e+000
      vertex  1.676777e+001 -4.267767e+000  0.000000e+000
      vertex  1.750000e+001 -2.500000e+000  0.000000e+000
    endloop
  endfacet
  facet normal  0.000000e+000  0.000000e+000 -1.000000e+000
    outer loop
      vertex  3.000000e+001 -1.200000e+001  0.000000e+000
      vertex  1.750000e+001 -2.500000e+000  0.000000e+000
      vertex  1.750000e+001  2.500000e+000  0.000000e+000
    endloop
  endfacet
  facet normal  0.000000e+000  0.000000e+000 -1.000000e+000
    outer loop
      vertex  3.000000e+001 -1.200000e+001  0.000000e+000
      vertex  1.750000e+001  2.500000e+000  0.000000e+000
      vertex  3.000000e+001  1.200000e+001  0.000000e+000
    endloop
  endfacet
  facet normal  0.000000e+000  0.000000e+000 -1.000000e+000
    outer loop
      vertex  0.000000e+000 -1.200000e+001  0.000000e+000
      vertex  0.000000e+000  1.200000e+001  0.000000e+000
      vertex  1.250000e+001  2.500000e+000  0.000000e+000
    endloop
  endfacet
  facet normal  0.000000e+000  -0.000000e+000 -1.000000e+000
    outer loop
      vertex  0.000000e+000 -1.200000e+001  0.000000e+000
      vertex  1.250000e+001  2.500000e+000  0.000000e+000
      vertex  1.250000e+001 -2.500000e+000  0.000000e+000
    endloop
  endfacet
  facet normal  0.000000e+000  -0.000000e+000 -9.999999e-001
    outer loop
      vertex  0.000000e+000 -1.200000e+001  0.000000e+000
      vertex  1.250000e+001 -2.500000e+000  0.000000e+000
      vertex  1.323223e+001 -4.267767e+000  0.000000e+000
    endloop
  endfacet
  facet normal  0.000000e+000  -0.000000e+000 -9.999999e-001
    outer loop
      vertex  0.000000e+000 -1.200000e+001  0.000000e+000
      vertex  1.323223e+001 -4.267767e+000  0.000000e+000
      vertex  1.500000e+001 -5.000000e+000  0.000000e+000
    endloop
  endfacet
  facet normal  0.000000e+000  -0.000000e+000 -1.000000e+000
    outer loop
      vertex  0.000000e+000 -1.200000e+001  0.000000e+000
      vertex  1.500000e+001 -5.000000e+000  0.000000e+000
      vertex  1.676777e+001 -4.267767e+000  0.000000e+000
    endloop
  endfacet
  facet normal  -0.000000e+000  0.000000e+000 -1.000000e+000
    outer loop
      vertex  0.000000e+000  1.200000e+001  0.000000e+000
      vertex  3.000000e+001  1.200000e+001  0.000000e+000
      vertex  1.676777e+001  4.267767e+000  0.000000e+000
    endloop
  endfacet
  facet normal  0.000000e+000  0.000000e+000 -1.000000e+000
    outer loop
      vertex  0.000000e+000  1.200000e+001  0.000000e+000
      vertex  1.676777e+001  4.267767e+000  0.000000e+000
      vertex  1.500000e+001  5.000000e+000  0.000000e+000
    endloop
  endfacet
  facet normal  -0.000000e+000  0.000000e+000 -9.999999e-001
    outer loop
      vertex  0.000000e+000  1.200000e+001  0.000000e+000
      vertex  1.500000e+001  5.000000e+000  0.000000e+000
      vertex  1.323223e+001  4.267767e+000  0.000000e+000
    endloop
  endfacet
  facet normal  -0.000000e+000  0.000000e+000 -9.999999e-001
    outer loop
      vertex  0.000000e+000  1.200000e+001  0.000000e+000
      vertex  1.323223e+001  4.267767e+000  0.000000e+000
      vertex  1.250000e+001  2.500000e+000  0.000000e+000
    endloop
  endfacet
  facet normal  -0.000000e+000  0.000000e+000  1.000000e+000
    outer loop
      vertex  3.000000e+001  1.200000e+001  4.000000e+000
      vertex  0.000000e+000  1.200000e+001  4.000000e+000
      vertex  1.676777e+001  4.267767e+000  4.000000e+000
    endloop
  endfacet
  facet normal  -0.000000e+000  0.000000e+000  9.999999e-001
    outer loop
      vertex  3.000000e+001  1.200000e+001  4.000000e+000
      vertex  1.676777e+001  4.267767e+000  4.000000e+000
      vertex  1.750000e+001  2.500000e+000  4.000000e+000
    endloop
  endfacet
  facet normal  -0.000000e+000  0.000000e+000  1.000000e+000
    outer loop
      vertex  3.000000e+001  1.200000e+001  4.000000e+000
      vertex  1.750000e+001  2.500000e+000  4.000000e+000
      vertex  1.750000e+001 -2.500000e+000  4.000000e+000
    endloop
  endfacet
  facet normal  -0.000000e+000  0.000000e+000  1.000000e+000
    outer loop
      vertex  3.000000e+001  1.200000e+001  4.000000e+000
      vertex  1.750000e+001 -2.500000e+000  4.000000e+000
      vertex  3.000000e+001 -1.600000e+001  4.000000e+000
    endloop
  endfacet
  facet normal  0.000000e+000  0.000000e+000  1.000000e+000
    outer loop
      vertex  0.000000e+000  1.200000e+001  4.000000e+000
      vertex  0.000000e+000 -1.600000e+001  4.000000e+000
      vertex  1.250000e+001 -2.500000e+000  4.000000e+000
    endloop
  endfacet
  facet normal  0.000000e+000  -0.000000e+000  1.000000e+000
    outer loop
      vertex  0.000000e+000  1.200000e+001  4.000000e+000
      vertex  1.250000e+001 -2.500000e+000  4.000000e+000
      vertex  1.250000e+001  2.500000e+000  4.000000e+000
    endloop
  endfacet
  facet normal  0.000000e+000  -0.000000e+000  9.999999e-001
    outer loop
      vertex  0.000000e+000  1.200000e+001  4.000000e+000
      vertex  1.250000e+001  2.500000e+000  4.000000e+000
      vertex  1.323223e+001  4.267767e+000  4.000000e+000
    endloop
  endfacet
  facet normal  0.000000e+000  -0.000000e+000  9.999999e-001
    outer loop
      vertex  0.000000e+000  1.200000e+001  4.000000e+000
      vertex  1.323223e+001  4.267767e+000  4.000000e+000
      vertex  1.500000e+001  5.000000e+000  4.000000e+000
    endloop
  endfacet
  facet normal  -0.000000e+000  -0.000000e+000  1.000000e+000
    outer loop
      vertex  0.000000e+000  1.200000e+001  4.000000e+000
      vertex  1.500000e+001  5.000000e+000  4.000000e+000
      vertex  1.676777e+001  4.267767e+000  4.000000e+000
    endloop
  endfacet
  facet normal  0.000000e+000  0.000000e+000  1.000000e+000
    outer loop
      vertex  3.000000e+001 -1.600000e+001  4.000000e+000
      vertex  1.750000e+001 -2.500000e+000  4.000000e+000
      vertex  1.500000e+001 -1.600000e+001  4.000000e+000
    endloop
  endfacet
  facet normal  0.000000e+000  0.000000e+000  1.000000e+000
    outer loop
      vertex  1.500000e+001 -1.600000e+001  4.000000e+000
      vertex  1.750000e+001 -2.500000e+000  4.000000e+000
      vertex  1.676777e+001 -4.267767e+000  4.000000e+000
    endloop
  endfacet
  facet normal  0.000000e+000  0.000000e+000  1.000000e+000
    outer loop
      vertex  1.500000e+001 -1.600000e+001  4.000000e+000
      vertex  1.676777e+001 -4.267767e+000  4.000000e+000
      vertex  1.500000e+001 -5.000000e+000  4.000000e+000
    endloop
  endfacet
  facet normal  0.000000e+000  0.000000e+000  9.999999e-001
    outer loop
      vertex  1.500000e+001 -1.600000e+001  4.000000e+000
      vertex  1.500000e+001 -5.000000e+000  4.000000e+000
      vertex  0.000000e+000 -1.600000e+001  4.000000e+000
    endloop
  endfacet
  facet normal  0.000000e+000  0.000000e+000  1.000000e+000
    outer loop
      vertex  0.000000e+000 -1.600000e+001  4.000000e+000
      vertex  1.500000e+001 -5.000000e+000  4.000000e+000
      vertex  1.323223e+001 -4.267767e+000  4.000000e+000
    endloop
  endfacet
  facet normal  0.000000e+000  0.000000e+000  1.000000e+000
    outer loop
      vertex  0.000000e+000 -1.600000e+001  4.000000e+000
      vertex  1.323223e+001 -4.267767e+000  4.000000e+000
      vertex  1.250000e+001 -2.500000e+000  4.000000e+000
    endloop
  endfacet
  facet normal  9.238794e-001 -3.826834e-001  0.000000e+000
    outer loop
      vertex  1.250000e+001  2.500000e+000  4.000000e+000
      vertex  1.250000e+001  2.500000e+000  0.000000e+000
      vertex  1.323223e+001  4.267767e+000  4.000000e+000
    endloop
  endfacet
  facet normal  9.238794e-001 -3.826834e-001  0.000000e+000
    outer loop
      vertex  1.323223e+001  4.267767e+000  4.000000e+000
      vertex  1.250000e+001  2.500000e+000  0.000000e+000
      vertex  1.323223e+001  4.267767e+000  0.000000e+000
    endloop
  endfacet
  facet normal  3.826834e-001 -9.238794e-001  0.000000e+000
    outer loop
      vertex  1.323223e+001  4.267767e+000  4.000000e+000
      vertex  1.323223e+001  4.267767e+000  0.000000e+000
      vertex  1.500000e+001  5.000000e+000  4.000000e+000
    endloop
  endfacet
  facet normal  3.826834e-001 -9.238794e-001  0.000000e+000
    outer loop
      vertex  1.500000e+001  5.000000e+000  4.000000e+000
      vertex  1.323223e+001  4.267767e+000  0.000000e+000
      vertex  1.500000e+001  5.000000e+000  0.000000e+000
    endloop
  endfacet
  facet normal -3.826834e-001 -9.238794e-001  0.000000e+000
    outer loop
      vertex  1.500000e+001  5.000000e+000  4.000000e+000
      vertex  1.500000e+001  5.000000e+000  0.000000e+000
      vertex  1.676777e+001  4.267767e+000  4.000000e+000
    endloop
  endfacet
  facet normal -3.826834e-001 -9.238794e-001  -0.000000e+000
    outer loop
      vertex  1.676777e+001  4.267767e+000  4.000000e+000
      vertex  1.500000e+001  5.000000e+000  0.000000e+000
      vertex  1.676777e+001  4.267767e+000  0.000000e+000
    endloop
  endfacet
  facet normal -9.238794e-001 -3.826834e-001  0.000000e+000
    outer loop
      vertex  1.676777e+001  4.267767e+000  4.000000e+000
      vertex  1.676777e+001  4.267767e+000  0.000000e+000
      vertex  1.750000e+001  2.500000e+000  4.000000e+000
    endloop
  endfacet
  facet normal -9.238794e-001 -3.826834e-001  -0.000000e+000
    outer loop
      vertex  1.750000e+001  2.500000e+000  4.000000e+000
      vertex  1.676777e+001  4.267767e+000  0.000000e+000
      vertex  1.750000e+001  2.500000e+000  0.000000e+000
    endloop
  endfacet
  facet normal  1.000000e+000  -0.000000e+000  0.000000e+000
    outer loop
      vertex  1.250000e+001  2.500000e+000  4.000000e+000
      vertex  1.250000e+001 -2.500000e+000  4.000000e+000
      vertex  1.250000e+001  2.500000e+000  0.000000e+000
    endloop
  endfacet
  facet normal  1.000000e+000  0.000000e+000  0.000000e+000
    outer loop
      vertex  1.250000e+001  2.500000e+000  0.000000e+000
      vertex  1.250000e+001 -2.500000e+000  4.000000e+000
      vertex  1.250000e+001 -2.500000e+000  0.000000e+000
    endloop
  endfacet
  facet normal -9.238794e-001  3.826834e-001  0.000000e+000
    outer loop
      vertex  1.750000e+001 -2.500000e+000  4.000000e+000
      vertex  1.750000e+001 -2.500000e+000  0.000000e+000
      vertex  1.676777e+001 -4.267767e+000  4.000000e+000
    endloop
  endfacet
  facet normal -9.238794e-001  3.826834e-001  0.000000e+000
    outer loop
      vertex  1.676777e+001 -4.267767e+000  4.000000e+000
      vertex  1.750000e+001 -2.500000e+000  0.000000e+000
      vertex  1.676777e+001 -4.267767e+000  0.000000e+000
    endloop
  endfacet
  facet normal -3.826834e-001  9.238794e-001  0.000000e+000
    outer loop
      vertex  1.676777e+001 -4.267767e+000  4.000000e+000
      vertex  1.676777e+001 -4.267767e+000  0.000000e+000
      vertex  1.500000e+001 -5.000000e+000  4.000000e+000
    endloop
  endfacet
  facet normal -3.826834e-001  9.238794e-001  0.000000e+000
    outer loop
      vertex  1.500000e+001 -5.000000e+000  4.000000e+000
      vertex  1.676777e+001 -4.267767e+000  0.000000e+000
      vertex  1.500000e+001 -5.000000e+000  0.000000e+000
    endloop
  endfacet
  facet normal  3.826834e-001  9.238794e-001  -0.000000e+000
    outer loop
      vertex  1.500000e+001 -5.000000e+000  4.000000e+000
      vertex  1.500000e+001 -5.000000e+000  0.000000e+000
      vertex  1.323223e+001 -4.267767e+000  4.000000e+000
    endloop
  endfacet
  facet normal  3.826834e-001  9.238794e-001  0.000000e+000
    outer loop
      vertex  1.323223e+001 -4.267767e+000  4.000000e+000
      vertex  1.500000e+001 -5.000000e+000  0.000000e+000
      vertex  1.323223e+001 -4.267767e+000  0.000000e+000
    endloop
  endfacet
  facet normal  9.238794e-001  3.826834e-001  -0.000000e+000
    outer loop
      vertex  1.323223e+001 -4.267767e+000  4.000000e+000
      vertex  1.323223e+001 -4.267767e+000  0.000000e+000
      vertex  1.250000e+001 -2.500000e+000  4.000000e+000
    endloop
  endfacet
  facet normal  9.238794e-001  3.826834e-001  0.000000e+000
    outer loop
      vertex  1.250000e+001 -2.500000e+000  4.000000e+000
      vertex  1.323223e+001 -4.267767e+000  0.000000e+000
      vertex  1.250000e+001 -2.500000e+000  0.000000e+000
    endloop
  endfacet
  facet normal -1.000000e+000  -0.000000e+000  0.000000e+000
    outer loop
      vertex  1.750000e+001 -2.500000e+000  4.000000e+000
      vertex  1.750000e+001  2.500000e+000  4.000000e+000
      vertex  1.750000e+001 -2.500000e+000  0.000000e+000
    endloop
  endfacet
  facet normal -1.000000e+000  0.000000e+000  0.000000e+000
    outer loop
      vertex  1.750000e+001 -2.500000e+000  0.000000e+000
      vertex  1.750000e+001  2.500000e+000  4.000000e+000
      vertex  1.750000e+001  2.500000e+000  0.000000e+000
    endloop
  endfacet
  facet normal  0.000000e+000 -9.999999e-001  0.000000e+000
    outer loop
      vertex  1.573909e+001 -3.100000e+001 -1.568875e+000
      vertex  1.790859e+001 -3.100000e+001 -2.754080e+000
      vertex  2.175727e+001 -3.100000e+001 -2.245872e+000
    endloop
  endfacet
  facet normal  0.000000e+000 -1.000000e+000  0.000000e+000
    outer loop
      vertex  1.032383e+001 -3.100000e+001 -1.136374e+001
      vertex  1.333109e+001 -3.100000e+001 -1.281196e+001
      vertex  1.426091e+001 -3.100000e+001 -9.431125e+000
    endloop
  endfacet
  facet normal  0.000000e+000 -1.000000e+000  -0.000000e+000
    outer loop
      vertex  1.426091e+001 -3.100000e+001 -9.431125e+000
      vertex  1.333109e+001 -3.100000e+001 -1.281196e+001
      vertex  1.666891e+001 -3.100000e+001 -1.281196e+001
    endloop
  endfacet
  facet normal  0.000000e+000 -1.000000e+000  0.000000e+000
    outer loop
      vertex  1.426091e+001 -3.100000e+001 -9.431125e+000
      vertex  1.666891e+001 -3.100000e+001 -1.281196e+001
      vertex  1.671272e+001 -3.100000e+001 -9.114774e+000
    endloop
  endfacet
  facet normal  0.000000e+000 -1.000000e+000  -0.000000e+000
    outer loop
      vertex  1.671272e+001 -3.100000e+001 -9.114774e+000
      vertex  1.666891e+001 -3.100000e+001 -1.281196e+001
      vertex  1.967617e+001 -3.100000e+001 -1.136374e+001
    endloop
  endfacet
  facet normal  0.000000e+000 -9.999999e-001  0.000000e+000
    outer loop
      vertex  1.671272e+001 -3.100000e+001 -9.114774e+000
      vertex  1.967617e+001 -3.100000e+001 -1.136374e+001
      vertex  2.175727e+001 -3.100000e+001 -8.754128e+000
    endloop
  endfacet
  facet normal  0.000000e+000 -1.000000e+000  -0.000000e+000
    outer loop
      vertex  1.573909e+001 -3.100000e+001 -1.568875e+000
      vertex  1.333109e+001 -3.100000e+001  1.811959e+000
      vertex  1.328728e+001 -3.100000e+001 -1.885226e+000
    endloop
  endfacet
  facet normal  0.000000e+000 -1.000000e+000  0.000000e+000
    outer loop
      vertex  1.328728e+001 -3.100000e+001 -1.885226e+000
      vertex  1.333109e+001 -3.100000e+001  1.811959e+000
      vertex  1.032383e+001 -3.100000e+001  3.637361e-001
    endloop
  endfacet
  facet normal  0.000000e+000 -1.000000e+000  -0.000000e+000
    outer loop
      vertex  1.328728e+001 -3.100000e+001 -1.885226e+000
      vertex  1.032383e+001 -3.100000e+001  3.637361e-001
      vertex  8.242734e+000 -3.100000e+001 -2.245872e+000
    endloop
  endfacet
  facet normal  0.000000e+000 -1.000000e+000  0.000000e+000
    outer loop
      vertex  1.328728e+001 -3.100000e+001 -1.885226e+000
      vertex  8.242734e+000 -3.100000e+001 -2.245872e+000
      vertex  1.148967e+001 -3.100000e+001 -3.582298e+000
    endloop
  endfacet
  facet normal  -0.000000e+000 -1.000000e+000  0.000000e+000
    outer loop
      vertex  1.148967e+001 -3.100000e+001 -3.582298e+000
      vertex  8.242734e+000 -3.100000e+001 -2.245872e+000
      vertex  7.500000e+000 -3.100000e+001 -5.500000e+000
    endloop
  endfacet
  facet normal  0.000000e+000 -1.000000e+000  0.000000e+000
    outer loop
      vertex  1.148967e+001 -3.100000e+001 -3.582298e+000
      vertex  7.500000e+000 -3.100000e+001 -5.500000e+000
      vertex  1.103289e+001 -3.100000e+001 -6.011867e+000
    endloop
  endfacet
  facet normal  0.000000e+000 -1.000000e+000  0.000000e+000
    outer loop
      vertex  1.103289e+001 -3.100000e+001 -6.011867e+000
      vertex  7.500000e+000 -3.100000e+001 -5.500000e+000
      vertex  1.209140e+001 -3.100000e+001 -8.245920e+000
    endloop
  endfacet
  facet normal  -0.000000e+000 -1.000000e+000  0.000000e+000
    outer loop
      vertex  1.209140e+001 -3.100000e+001 -8.245920e+000
      vertex  7.500000e+000 -3.100000e+001 -5.500000e+000
      vertex  8.242734e+000 -3.100000e+001 -8.754128e+000
    endloop
  endfacet
  facet normal  0.000000e+000 -9.999999e-001  0.000000e+000
    outer loop
      vertex  1.209140e+001 -3.100000e+001 -8.245920e+000
      vertex  8.242734e+000 -3.100000e+001 -8.754128e+000
      vertex  1.426091e+001 -3.100000e+001 -9.431125e+000
    endloop
  endfacet
  facet normal  -0.000000e+000 -1.000000e+000  0.000000e+000
    outer loop
      vertex  1.426091e+001 -3.100000e+001 -9.431125e+000
      vertex  8.242734e+000 -3.100000e+001 -8.754128e+000
      vertex  1.032383e+001 -3.100000e+001 -1.136374e+001
    endloop
  endfacet
  facet normal  0.000000e+000 -9.999999e-001  -0.000000e+000
    outer loop
      vertex  2.175727e+001 -3.100000e+001 -2.245872e+000
      vertex  1.967617e+001 -3.100000e+001  3.637361e-001
      vertex  1.573909e+001 -3.100000e+001 -1.568875e+000
    endloop
  endfacet
  facet normal  0.000000e+000 -1.000000e+000  0.000000e+000
    outer loop
      vertex  1.573909e+001 -3.100000e+001 -1.568875e+000
      vertex  1.967617e+001 -3.100000e+001  3.637361e-001
      vertex  1.666891e+001 -3.100000e+001  1.811959e+000
    endloop
  endfacet
  facet normal  -0.000000e+000 -1.000000e+000  0.000000e+000
    outer loop
      vertex  1.573909e+001 -3.100000e+001 -1.568875e+000
      vertex  1.666891e+001 -3.100000e+001  1.811959e+000
      vertex  1.333109e+001 -3.100000e+001  1.811959e+000
    endloop
  endfacet
  facet normal  0.000000e+000 -1.000000e+000  0.000000e+000
    outer loop
      vertex  2.175727e+001 -3.100000e+001 -2.245872e+000
      vertex  1.790859e+001 -3.100000e+001 -2.754080e+000
      vertex  2.250000e+001 -3.100000e+001 -5.500000e+000
    endloop
  endfacet
  facet normal  0.000000e+000 -1.000000e+000  0.000000e+000
    outer loop
      vertex  2.250000e+001 -3.100000e+001 -5.500000e+000
      vertex  1.790859e+001 -3.100000e+001 -2.754080e+000
      vertex  1.896711e+001 -3.100000e+001 -4.988133e+000
    endloop
  endfacet
  facet normal  0.000000e+000 -1.000000e+000  0.000000e+000
    outer loop
      vertex  2.250000e+001 -3.100000e+001 -5.500000e+000
      vertex  1.896711e+001 -3.100000e+001 -4.988133e+000
      vertex  2.175727e+001 -3.100000e+001 -8.754128e+000
    endloop
  endfacet
  facet normal  0.000000e+000 -1.000000e+000  0.000000e+000
    outer loop
      vertex  2.175727e+001 -3.100000e+001 -8.754128e+000
      vertex  1.896711e+001 -3.100000e+001 -4.988133e+000
      vertex  1.851033e+001 -3.100000e+001 -7.417702e+000
    endloop
  endfacet
  facet normal  0.000000e+000 -9.999999e-001  -0.000000e+000
    outer loop
      vertex  2.175727e+001 -3.100000e+001 -8.754128e+000
      vertex  1.851033e+001 -3.100000e+001 -7.417702e+000
      vertex  1.671272e+001 -3.100000e+001 -9.114774e+000
    endloop
  endfacet
  facet normal  0.000000e+000  1.000000e+000  0.000000e+000
    outer loop
      vertex  0.000000e+000 -1.200000e+001  0.000000e+000
      vertex  1.573909e+001 -1.200000e+001 -1.568875e+000
      vertex  1.328728e+001 -1.200000e+001 -1.885226e+000
    endloop
  endfacet
  facet normal  0.000000e+000  1.000000e+000  0.000000e+000
    outer loop
      vertex  0.000000e+000 -1.200000e+001  0.000000e+000
      vertex  1.328728e+001 -1.200000e+001 -1.885226e+000
      vertex  1.148967e+001 -1.200000e+001 -3.582298e+000
    endloop
  endfacet
  facet normal  0.000000e+000  1.000000e+000  0.000000e+000
    outer loop
      vertex  0.000000e+000 -1.200000e+001  0.000000e+000
      vertex  1.148967e+001 -1.200000e+001 -3.582298e+000
      vertex  1.103289e+001 -1.200000e+001 -6.011867e+000
    endloop
  endfacet
  facet normal  0.000000e+000  1.000000e+000  0.000000e+000
    outer loop
      vertex  0.000000e+000 -1.200000e+001  0.000000e+000
      vertex  1.103289e+001 -1.200000e+001 -6.011867e+000
      vertex  0.000000e+000 -1.200000e+001 -1.500000e+001
    endloop
  endfacet
  facet normal  0.000000e+000  9.999999e-001  0.000000e+000
    outer loop
      vertex  3.000000e+001 -1.200000e+001 -1.500000e+001
      vertex  0.000000e+000 -1.200000e+001 -1.500000e+001
      vertex  1.671272e+001 -1.200000e+001 -9.114774e+000
    endloop
  endfacet
  facet normal  -0.000000e+000  1.000000e+000  0.000000e+000
    outer loop
      vertex  3.000000e+001 -1.200000e+001 -1.500000e+001
      vertex  1.671272e+001 -1.200000e+001 -9.114774e+000
      vertex  1.851033e+001 -1.200000e+001 -7.417702e+000
    endloop
  endfacet
  facet normal  -0.000000e+000  1.000000e+000  0.000000e+000
    outer loop
      vertex  3.000000e+001 -1.200000e+001 -1.500000e+001
      vertex  1.851033e+001 -1.200000e+001 -7.417702e+000
      vertex  1.896711e+001 -1.200000e+001 -4.988133e+000
    endloop
  endfacet
  facet normal  -0.000000e+000  1.000000e+000  0.000000e+000
    outer loop
      vertex  3.000000e+001 -1.200000e+001 -1.500000e+001
      vertex  1.896711e+001 -1.200000e+001 -4.988133e+000
      vertex  3.000000e+001 -1.200000e+001  0.000000e+000
    endloop
  endfacet
  facet normal  0.000000e+000  1.000000e+000  0.000000e+000
    outer loop
      vertex  0.000000e+000 -1.200000e+001 -1.500000e+001
      vertex  1.103289e+001 -1.200000e+001 -6.011867e+000
      vertex  1.209140e+001 -1.200000e+001 -8.245920e+000
    endloop
  endfacet
  facet normal  0.000000e+000  9.999999e-001  0.000000e+000
    outer loop
      vertex  0.000000e+000 -1.200000e+001 -1.500000e+001
      vertex  1.209140e+001 -1.200000e+001 -8.245920e+000
      vertex  1.426091e+001 -1.200000e+001 -9.431125e+000
    endloop
  endfacet
  facet normal  -0.000000e+000  1.000000e+000  0.000000e+000
    outer loop
      vertex  0.000000e+000 -1.200000e+001 -1.500000e+001
      vertex  1.426091e+001 -1.200000e+001 -9.431125e+000
      vertex  1.671272e+001 -1.200000e+001 -9.114774e+000
    endloop
  endfacet
  facet normal  0.000000e+000  1.000000e+000  -0.000000e+000
    outer loop
      vertex  3.000000e+001 -1.200000e+001  0.000000e+000
      vertex  1.896711e+001 -1.200000e+001 -4.988133e+000
      vertex  1.790859e+001 -1.200000e+001 -2.754080e+000
    endloop
  endfacet
  facet normal  0.000000e+000  9.999999e-001  -0.000000e+000
    outer loop
      vertex  3.000000e+001 -1.200000e+001  0.000000e+000
      vertex  1.790859e+001 -1.200000e+001 -2.754080e+000
      vertex  1.573909e+001 -1.200000e+001 -1.568875e+000
    endloop
  endfacet
  facet normal  0.000000e+000  1.000000e+000  -0.000000e+000
    outer loop
      vertex  3.000000e+001 -1.200000e+001  0.000000e+000
      vertex  1.573909e+001 -1.200000e+001 -1.568875e+000
      vertex  0.000000e+000 -1.200000e+001  0.000000e+000
    endloop
  endfacet
  facet normal  9.827813e-001  0.000000e+000 -1.847727e-001
    outer loop
      vertex  1.148967e+001 -1.200000e+001 -3.582298e+000
      vertex  1.148967e+001 -3.100000e+001 -3.582298e+000
      vertex  1.103289e+001 -1.200000e+001 -6.011867e+000
    endloop
  endfacet
  facet normal  9.827813e-001  0.000000e+000 -1.847727e-001
    outer loop
      vertex  1.103289e+001 -1.200000e+001 -6.011867e+000
      vertex  1.148967e+001 -3.100000e+001 -3.582298e+000
      vertex  1.103289e+001 -3.100000e+001 -6.011867e+000
    endloop
  endfacet
  facet normal  9.036936e-001  -0.000000e+000  4.281797e-001
    outer loop
      vertex  1.103289e+001 -1.200000e+001 -6.011867e+000
      vertex  1.103289e+001 -3.100000e+001 -6.011867e+000
      vertex  1.209140e+001 -1.200000e+001 -8.245920e+000
    endloop
  endfacet
  facet normal  9.036936e-001  0.000000e+000  4.281797e-001
    outer loop
      vertex  1.209140e+001 -1.200000e+001 -8.245920e+000
      vertex  1.103289e+001 -3.100000e+001 -6.011867e+000
      vertex  1.209140e+001 -3.100000e+001 -8.245920e+000
    endloop
  endfacet
  facet normal  4.794254e-001  -0.000000e+000  8.775827e-001
    outer loop
      vertex  1.209140e+001 -1.200000e+001 -8.245920e+000
      vertex  1.209140e+001 -3.100000e+001 -8.245920e+000
      vertex  1.426091e+001 -1.200000e+001 -9.431125e+000
    endloop
  endfacet
  facet normal  4.794254e-001  0.000000e+000  8.775827e-001
    outer loop
      vertex  1.426091e+001 -1.200000e+001 -9.431125e+000
      vertex  1.209140e+001 -3.100000e+001 -8.245920e+000
      vertex  1.426091e+001 -3.100000e+001 -9.431125e+000
    endloop
  endfacet
  facet normal -1.279667e-001  0.000000e+000  9.917785e-001
    outer loop
      vertex  1.426091e+001 -1.200000e+001 -9.431125e+000
      vertex  1.426091e+001 -3.100000e+001 -9.431125e+000
      vertex  1.671272e+001 -1.200000e+001 -9.114774e+000
    endloop
  endfacet
  facet normal -1.279667e-001  0.000000e+000  9.917785e-001
    outer loop
      vertex  1.671272e+001 -1.200000e+001 -9.114774e+000
      vertex  1.426091e+001 -3.100000e+001 -9.431125e+000
      vertex  1.671272e+001 -3.100000e+001 -9.114774e+000
    endloop
  endfacet
  facet normal -6.864797e-001  0.000000e+000  7.271490e-001
    outer loop
      vertex  1.671272e+001 -1.200000e+001 -9.114774e+000
      vertex  1.671272e+001 -3.100000e+001 -9.114774e+000
      vertex  1.851033e+001 -1.200000e+001 -7.417702e+000
    endloop
  endfacet
  facet normal -6.864797e-001  0.000000e+000  7.271490e-001
    outer loop
      vertex  1.851033e+001 -1.200000e+001 -7.417702e+000
      vertex  1.671272e+001 -3.100000e+001 -9.114774e+000
      vertex  1.851033e+001 -3.100000e+001 -7.417702e+000
    endloop
  endfacet
  facet normal -9.827813e-001  0.000000e+000  1.847727e-001
    outer loop
      vertex  1.851033e+001 -1.200000e+001 -7.417702e+000
      vertex  1.851033e+001 -3.100000e+001 -7.417702e+000
      vertex  1.896711e+001 -1.200000e+001 -4.988133e+000
    endloop
  endfacet
  facet normal -9.827813e-001  0.000000e+000  1.847727e-001
    outer loop
      vertex  1.896711e+001 -1.200000e+001 -4.988133e+000
      vertex  1.851033e+001 -3.100000e+001 -7.417702e+000
      vertex  1.896711e+001 -3.100000e+001 -4.988133e+000
    endloop
  endfacet
  facet normal -9.036935e-001  0.000000e+000 -4.281800e-001
    outer loop
      vertex  1.896711e+001 -1.200000e+001 -4.988133e+000
      vertex  1.896711e+001 -3.100000e+001 -4.988133e+000
      vertex  1.790859e+001 -1.200000e+001 -2.754080e+000
    endloop
  endfacet
  facet normal -9.036935e-001  -0.000000e+000 -4.281800e-001
    outer loop
      vertex  1.790859e+001 -1.200000e+001 -2.754080e+000
      vertex  1.896711e+001 -3.100000e+001 -4.988133e+000
      vertex  1.790859e+001 -3.100000e+001 -2.754080e+000
    endloop
  endfacet
  facet normal -4.794257e-001  0.000000e+000 -8.775824e-001
    outer loop
      vertex  1.790859e+001 -1.200000e+001 -2.754080e+000
      vertex  1.790859e+001 -3.100000e+001 -2.754080e+000
      vertex  1.573909e+001 -1.200000e+001 -1.568875e+000
    endloop
  endfacet
  facet normal -4.794257e-001  -0.000000e+000 -8.775824e-001
    outer loop
      vertex  1.573909e+001 -1.200000e+001 -1.568875e+000
      vertex  1.790859e+001 -3.100000e+001 -2.754080e+000
      vertex  1.573909e+001 -3.100000e+001 -1.568875e+000
    endloop
  endfacet
  facet normal  1.279667e-001  0.000000e+000 -9.917785e-001
    outer loop
      vertex  1.573909e+001 -1.200000e+001 -1.568875e+000
      vertex  1.573909e+001 -3.100000e+001 -1.568875e+000
      vertex  1.328728e+001 -1.200000e+001 -1.885226e+000
    endloop
  endfacet
  facet normal  1.279667e-001  0.000000e+000 -9.917785e-001
    outer loop
      vertex  1.328728e+001 -1.200000e+001 -1.885226e+000
      vertex  1.573909e+001 -3.100000e+001 -1.568875e+000
      vertex  1.328728e+001 -3.100000e+001 -1.885226e+000
    endloop
  endfacet
  facet normal  6.864800e-001  0.000000e+000 -7.271487e-001
    outer loop
      vertex  1.328728e+001 -1.200000e+001 -1.885226e+000
      vertex  1.328728e+001 -3.100000e+001 -1.885226e+000
      vertex  1.148967e+001 -1.200000e+001 -3.582298e+000
    endloop
  endfacet
  facet normal  6.864800e-001  0.000000e+000 -7.271487e-001
    outer loop
      vertex  1.148967e+001 -1.200000e+001 -3.582298e+000
      vertex  1.328728e+001 -3.100000e+001 -1.885226e+000
      vertex  1.148967e+001 -3.100000e+001 -3.582298e+000
    endloop
  endfacet
  facet normal  0.000000e+000 -1.000000e+000  0.000000e+000
    outer loop
      vertex  0.000000e+000 -1.600000e+001 -1.500000e+001
      vertex  1.500000e+001 -1.600000e+001 -1.500000e+001
      vertex  1.136451e+001 -1.600000e+001 -1.427686e+001
    endloop
  endfacet
  facet normal  -0.000000e+000 -9.999999e-001  0.000000e+000
    outer loop
      vertex  0.000000e+000 -1.600000e+001 -1.500000e+001
      vertex  1.136451e+001 -1.600000e+001 -1.427686e+001
      vertex  8.282486e+000 -1.600000e+001 -1.221751e+001
    endloop
  endfacet
  facet normal  -0.000000e+000 -9.999999e-001  0.000000e+000
    outer loop
      vertex  0.000000e+000 -1.600000e+001 -1.500000e+001
      vertex  8.282486e+000 -1.600000e+001 -1.221751e+001
      vertex  6.223145e+000 -1.600000e+001 -9.135492e+000
    endloop
  endfacet
  facet normal  -0.000000e+000 -1.000000e+000  0.000000e+000
    outer loop
      vertex  0.000000e+000 -1.600000e+001 -1.500000e+001
      vertex  6.223145e+000 -1.600000e+001 -9.135492e+000
      vertex  5.500000e+000 -1.600000e+001 -5.500000e+000
    endloop
  endfacet
  facet normal  -0.000000e+000 -9.999999e-001  0.000000e+000
    outer loop
      vertex  0.000000e+000 -1.600000e+001 -1.500000e+001
      vertex  5.500000e+000 -1.600000e+001 -5.500000e+000
      vertex  0.000000e+000 -1.600000e+001  4.000000e+000
    endloop
  endfacet
  facet normal  0.000000e+000 -1.000000e+000  0.000000e+000
    outer loop
      vertex  0.000000e+000 -1.600000e+001  4.000000e+000
      vertex  5.500000e+000 -1.600000e+001 -5.500000e+000
      vertex  6.223145e+000 -1.600000e+001 -1.864507e+000
    endloop
  endfacet
  facet normal  0.000000e+000 -9.999999e-001  0.000000e+000
    outer loop
      vertex  0.000000e+000 -1.600000e+001  4.000000e+000
      vertex  6.223145e+000 -1.600000e+001 -1.864507e+000
      vertex  8.282486e+000 -1.600000e+001  1.217514e+000
    endloop
  endfacet
  facet normal  0.000000e+000 -1.000000e+000  0.000000e+000
    outer loop
      vertex  0.000000e+000 -1.600000e+001  4.000000e+000
      vertex  8.282486e+000 -1.600000e+001  1.217514e+000
      vertex  1.136451e+001 -1.600000e+001  3.276855e+000
    endloop
  endfacet
  facet normal  0.000000e+000 -1.000000e+000  0.000000e+000
    outer loop
      vertex  0.000000e+000 -1.600000e+001  4.000000e+000
      vertex  1.136451e+001 -1.600000e+001  3.276855e+000
      vertex  1.500000e+001 -1.600000e+001  4.000000e+000
    endloop
  endfacet
  facet normal  0.000000e+000 -1.000000e+000  0.000000e+000
    outer loop
      vertex  3.000000e+001 -1.600000e+001  4.000000e+000
      vertex  1.500000e+001 -1.600000e+001  4.000000e+000
      vertex  1.863549e+001 -1.600000e+001  3.276855e+000
    endloop
  endfacet
  facet normal  0.000000e+000 -1.000000e+000  0.000000e+000
    outer loop
      vertex  3.000000e+001 -1.600000e+001  4.000000e+000
      vertex  1.863549e+001 -1.600000e+001  3.276855e+000
      vertex  2.171751e+001 -1.600000e+001  1.217514e+000
    endloop
  endfacet
  facet normal  0.000000e+000 -9.999999e-001  0.000000e+000
    outer loop
      vertex  3.000000e+001 -1.600000e+001  4.000000e+000
      vertex  2.171751e+001 -1.600000e+001  1.217514e+000
      vertex  2.377686e+001 -1.600000e+001 -1.864507e+000
    endloop
  endfacet
  facet normal  0.000000e+000 -1.000000e+000  0.000000e+000
    outer loop
      vertex  3.000000e+001 -1.600000e+001  4.000000e+000
      vertex  2.377686e+001 -1.600000e+001 -1.864507e+000
      vertex  2.450000e+001 -1.600000e+001 -5.500000e+000
    endloop
  endfacet
  facet normal  0.000000e+000 -9.999999e-001  0.000000e+000
    outer loop
      vertex  3.000000e+001 -1.600000e+001  4.000000e+000
      vertex  2.450000e+001 -1.600000e+001 -5.500000e+000
      vertex  3.000000e+001 -1.600000e+001 -1.500000e+001
    endloop
  endfacet
  facet normal  0.000000e+000 -1.000000e+000  -0.000000e+000
    outer loop
      vertex  3.000000e+001 -1.600000e+001 -1.500000e+001
      vertex  2.450000e+001 -1.600000e+001 -5.500000e+000
      vertex  2.377686e+001 -1.600000e+001 -9.135492e+000
    endloop
  endfacet
  facet normal  0.000000e+000 -9.999999e-001  -0.000000e+000
    outer loop
      vertex  3.000000e+001 -1.600000e+001 -1.500000e+001
      vertex  2.377686e+001 -1.600000e+001 -9.135492e+000
      vertex  2.171751e+001 -1.600000e+001 -1.221751e+001
    endloop
  endfacet
  facet normal  0.000000e+000 -9.999999e-001  -0.000000e+000
    outer loop
      vertex  3.000000e+001 -1.600000e+001 -1.500000e+001
      vertex  2.171751e+001 -1.600000e+001 -1.221751e+001
      vertex  1.863549e+001 -1.600000e+001 -1.427686e+001
    endloop
  endfacet
  facet normal  0.000000e+000 -1.000000e+000  -0.000000e+000
    outer loop
      vertex  3.000000e+001 -1.600000e+001 -1.500000e+001
      vertex  1.863549e+001 -1.600000e+001 -1.427686e+001
      vertex  1.500000e+001 -1.600000e+001 -1.500000e+001
    endloop
  endfacet
  facet normal  9.749280e-001  0.000000e+000 -2.225208e-001
    outer loop
      vertex  2.250000e+001 -1.800000e+001 -5.500000e+000
      vertex  2.250000e+001 -3.100000e+001 -5.500000e+000
      vertex  2.175727e+001 -1.800000e+001 -8.754128e+000
    endloop
  endfacet
  facet normal  9.749280e-001  0.000000e+000 -2.225208e-001
    outer loop
      vertex  2.175727e+001 -1.800000e+001 -8.754128e+000
      vertex  2.250000e+001 -3.100000e+001 -5.500000e+000
      vertex  2.175727e+001 -3.100000e+001 -8.754128e+000
    endloop
  endfacet
  facet normal  7.818314e-001  0.000000e+000 -6.234898e-001
    outer loop
      vertex  2.175727e+001 -1.800000e+001 -8.754128e+000
      vertex  2.175727e+001 -3.100000e+001 -8.754128e+000
      vertex  1.967617e+001 -1.800000e+001 -1.136374e+001
    endloop
  endfacet
  facet normal  7.818314e-001  0.000000e+000 -6.234898e-001
    outer loop
      vertex  1.967617e+001 -1.800000e+001 -1.136374e+001
      vertex  2.175727e+001 -3.100000e+001 -8.754128e+000
      vertex  1.967617e+001 -3.100000e+001 -1.136374e+001
    endloop
  endfacet
  facet normal  4.338837e-001  0.000000e+000 -9.009689e-001
    outer loop
      vertex  1.967617e+001 -1.800000e+001 -1.136374e+001
      vertex  1.967617e+001 -3.100000e+001 -1.136374e+001
      vertex  1.666891e+001 -1.800000e+001 -1.281196e+001
    endloop
  endfacet
  facet normal  4.338837e-001  0.000000e+000 -9.009689e-001
    outer loop
      vertex  1.666891e+001 -1.800000e+001 -1.281196e+001
      vertex  1.967617e+001 -3.100000e+001 -1.136374e+001
      vertex  1.666891e+001 -3.100000e+001 -1.281196e+001
    endloop
  endfacet
  facet normal  0.000000e+000  0.000000e+000 -1.000000e+000
    outer loop
      vertex  1.666891e+001 -1.800000e+001 -1.281196e+001
      vertex  1.666891e+001 -3.100000e+001 -1.281196e+001
      vertex  1.333109e+001 -1.800000e+001 -1.281196e+001
    endloop
  endfacet
  facet normal  0.000000e+000  0.000000e+000 -1.000000e+000
    outer loop
      vertex  1.333109e+001 -1.800000e+001 -1.281196e+001
      vertex  1.666891e+001 -3.100000e+001 -1.281196e+001
      vertex  1.333109e+001 -3.100000e+001 -1.281196e+001
    endloop
  endfacet
  facet normal -4.338837e-001  0.000000e+000 -9.009688e-001
    outer loop
      vertex  1.333109e+001 -1.800000e+001 -1.281196e+001
      vertex  1.333109e+001 -3.100000e+001 -1.281196e+001
      vertex  1.032383e+001 -1.800000e+001 -1.136374e+001
    endloop
  endfacet
  facet normal -4.338837e-001  -0.000000e+000 -9.009688e-001
    outer loop
      vertex  1.032383e+001 -1.800000e+001 -1.136374e+001
      vertex  1.333109e+001 -3.100000e+001 -1.281196e+001
      vertex  1.032383e+001 -3.100000e+001 -1.136374e+001
    endloop
  endfacet
  facet normal -7.818314e-001  0.000000e+000 -6.234898e-001
    outer loop
      vertex  1.032383e+001 -1.800000e+001 -1.136374e+001
      vertex  1.032383e+001 -3.100000e+001 -1.136374e+001
      vertex  8.242734e+000 -1.800000e+001 -8.754128e+000
    endloop
  endfacet
  facet normal -7.818314e-001  -0.000000e+000 -6.234898e-001
    outer loop
      vertex  8.242734e+000 -1.800000e+001 -8.754128e+000
      vertex  1.032383e+001 -3.100000e+001 -1.136374e+001
      vertex  8.242734e+000 -3.100000e+001 -8.754128e+000
    endloop
  endfacet
  facet normal -9.749279e-001  0.000000e+000 -2.225211e-001
    outer loop
      vertex  8.242734e+000 -1.800000e+001 -8.754128e+000
      vertex  8.242734e+000 -3.100000e+001 -8.754128e+000
      vertex  7.500000e+000 -1.800000e+001 -5.500000e+000
    endloop
  endfacet
  facet normal -9.749279e-001  -0.000000e+000 -2.225211e-001
    outer loop
      vertex  7.500000e+000 -1.800000e+001 -5.500000e+000
      vertex  8.242734e+000 -3.100000e+001 -8.754128e+000
      vertex  7.500000e+000 -3.100000e+001 -5.500000e+000
    endloop
  endfacet
  facet normal -9.749279e-001  0.000000e+000  2.225211e-001
    outer loop
      vertex  7.500000e+000 -1.800000e+001 -5.500000e+000
      vertex  7.500000e+000 -3.100000e+001 -5.500000e+000
      vertex  8.242734e+000 -1.800000e+001 -2.245872e+000
    endloop
  endfacet
  facet normal -9.749279e-001  0.000000e+000  2.225211e-001
    outer loop
      vertex  8.242734e+000 -1.800000e+001 -2.245872e+000
      vertex  7.500000e+000 -3.100000e+001 -5.500000e+000
      vertex  8.242734e+000 -3.100000e+001 -2.245872e+000
    endloop
  endfacet
  facet normal -7.818315e-001  0.000000e+000  6.234897e-001
    outer loop
      vertex  8.242734e+000 -1.800000e+001 -2.245872e+000
      vertex  8.242734e+000 -3.100000e+001 -2.245872e+000
      vertex  1.032383e+001 -1.800000e+001  3.637361e-001
    endloop
  endfacet
  facet normal -7.818315e-001  0.000000e+000  6.234897e-001
    outer loop
      vertex  1.032383e+001 -1.800000e+001  3.637361e-001
      vertex  8.242734e+000 -3.100000e+001 -2.245872e+000
      vertex  1.032383e+001 -3.100000e+001  3.637361e-001
    endloop
  endfacet
  facet normal -4.338838e-001  0.000000e+000  9.009688e-001
    outer loop
      vertex  1.032383e+001 -1.800000e+001  3.637361e-001
      vertex  1.032383e+001 -3.100000e+001  3.637361e-001
      vertex  1.333109e+001 -1.800000e+001  1.811959e+000
    endloop
  endfacet
  facet normal -4.338838e-001  0.000000e+000  9.009688e-001
    outer loop
      vertex  1.333109e+001 -1.800000e+001  1.811959e+000
      vertex  1.032383e+001 -3.100000e+001  3.637361e-001
      vertex  1.333109e+001 -3.100000e+001  1.811959e+000
    endloop
  endfacet
  facet normal  0.000000e+000  0.000000e+000  1.000000e+000
    outer loop
      vertex  1.333109e+001 -1.800000e+001  1.811959e+000
      vertex  1.333109e+001 -3.100000e+001  1.811959e+000
      vertex  1.666891e+001 -1.800000e+001  1.811959e+000
    endloop
  endfacet
  facet normal  0.000000e+000  0.000000e+000  1.000000e+000
    outer loop
      vertex  1.666891e+001 -1.800000e+001  1.811959e+000
      vertex  1.333109e+001 -3.100000e+001  1.811959e+000
      vertex  1.666891e+001 -3.100000e+001  1.811959e+000
    endloop
  endfacet
  facet normal  4.338837e-001  -0.000000e+000  9.009688e-001
    outer loop
      vertex  1.666891e+001 -1.800000e+001  1.811959e+000
      vertex  1.666891e+001 -3.100000e+001  1.811959e+000
      vertex  1.967617e+001 -1.800000e+001  3.637361e-001
    endloop
  endfacet
  facet normal  4.338837e-001  0.000000e+000  9.009688e-001
    outer loop
      vertex  1.967617e+001 -1.800000e+001  3.637361e-001
      vertex  1.666891e+001 -3.100000e+001  1.811959e+000
      vertex  1.967617e+001 -3.100000e+001  3.637361e-001
    endloop
  endfacet
  facet normal  7.818315e-001  -0.000000e+000  6.234897e-001
    outer loop
      vertex  1.967617e+001 -1.800000e+001  3.637361e-001
      vertex  1.967617e+001 -3.100000e+001  3.637361e-001
      vertex  2.175727e+001 -1.800000e+001 -2.245872e+000
    endloop
  endfacet
  facet normal  7.818315e-001  0.000000e+000  6.234897e-001
    outer loop
      vertex  2.175727e+001 -1.800000e+001 -2.245872e+000
      vertex  1.967617e+001 -3.100000e+001  3.637361e-001
      vertex  2.175727e+001 -3.100000e+001 -2.245872e+000
    endloop
  endfacet
  facet normal  9.749279e-001  -0.000000e+000  2.225208e-001
    outer loop
      vertex  2.175727e+001 -1.800000e+001 -2.245872e+000
      vertex  2.175727e+001 -3.100000e+001 -2.245872e+000
      vertex  2.250000e+001 -1.800000e+001 -5.500000e+000
    endloop
  endfacet
  facet normal  9.749279e-001  0.000000e+000  2.225208e-001
    outer loop
      vertex  2.250000e+001 -1.800000e+001 -5.500000e+000
      vertex  2.175727e+001 -3.100000e+001 -2.245872e+000
      vertex  2.250000e+001 -3.100000e+001 -5.500000e+000
    endloop
  endfacet
  facet normal  0.000000e+000  0.000000e+000 -1.000000e+000
    outer loop
      vertex  3.000000e+001 -1.200000e+001 -1.500000e+001
      vertex  3.000000e+001 -1.600000e+001 -1.500000e+001
      vertex  0.000000e+000 -1.200000e+001 -1.500000e+001
    endloop
  endfacet
  facet normal  0.000000e+000  0.000000e+000 -1.000000e+000
    outer loop
      vertex  0.000000e+000 -1.200000e+001 -1.500000e+001
      vertex  3.000000e+001 -1.600000e+001 -1.500000e+001
      vertex  1.500000e+001 -1.600000e+001 -1.500000e+001
    endloop
  endfacet
  facet normal  0.000000e+000  0.000000e+000 -1.000000e+000
    outer loop
      vertex  0.000000e+000 -1.200000e+001 -1.500000e+001
      vertex  1.500000e+001 -1.600000e+001 -1.500000e+001
      vertex  0.000000e+000 -1.600000e+001 -1.500000e+001
    endloop
  endfacet
  facet normal -3.963850e-001 -9.146925e-001  7.884590e-002
    outer loop
      vertex  7.401846e+000 -1.658579e+001 -2.734498e+000
      vertex  6.223145e+000 -1.600000e+001 -1.864507e+000
      vertex  5.500000e+000 -1.600000e+001 -5.500000e+000
    endloop
  endfacet
  facet normal -3.818154e-001 -9.217833e-001  6.732431e-002
    outer loop
      vertex  6.914214e+000 -1.658579e+001 -5.500000e+000
      vertex  7.401846e+000 -1.658579e+001 -2.734498e+000
      vertex  5.500000e+000 -1.600000e+001 -5.500000e+000
    endloop
  endfacet
  facet normal  3.818155e-001 -9.217833e-001  6.732440e-002
    outer loop
      vertex  2.259815e+001 -1.658579e+001 -2.734498e+000
      vertex  2.308579e+001 -1.658579e+001 -5.500000e+000
      vertex  2.450000e+001 -1.600000e+001 -5.500000e+000
    endloop
  endfacet
  facet normal  3.963850e-001 -9.146925e-001  7.884590e-002
    outer loop
      vertex  2.377686e+001 -1.600000e+001 -1.864507e+000
      vertex  2.259815e+001 -1.658579e+001 -2.734498e+000
      vertex  2.450000e+001 -1.600000e+001 -5.500000e+000
    endloop
  endfacet
  facet normal  8.710222e-001 -4.492179e-001  1.988050e-001
    outer loop
      vertex  2.259815e+001 -1.658579e+001 -2.734498e+000
      vertex  2.175727e+001 -1.800000e+001 -2.245872e+000
      vertex  2.250000e+001 -1.800000e+001 -5.500000e+000
    endloop
  endfacet
  facet normal  9.118593e-001 -3.777048e-001  1.607855e-001
    outer loop
      vertex  2.308579e+001 -1.658579e+001 -5.500000e+000
      vertex  2.259815e+001 -1.658579e+001 -2.734498e+000
      vertex  2.250000e+001 -1.800000e+001 -5.500000e+000
    endloop
  endfacet
  facet normal -9.118593e-001 -3.777045e-001  1.607853e-001
    outer loop
      vertex  7.401846e+000 -1.658579e+001 -2.734498e+000
      vertex  6.914214e+000 -1.658579e+001 -5.500000e+000
      vertex  7.500000e+000 -1.800000e+001 -5.500000e+000
    endloop
  endfacet
  facet normal -8.710220e-001 -4.492183e-001  1.988052e-001
    outer loop
      vertex  8.242734e+000 -1.800000e+001 -2.245872e+000
      vertex  7.401846e+000 -1.658579e+001 -2.734498e+000
      vertex  7.500000e+000 -1.800000e+001 -5.500000e+000
    endloop
  endfacet
  facet normal  8.193830e-001 -3.237514e-001  4.730714e-001
    outer loop
      vertex  2.259815e+001 -1.658579e+001 -2.734498e+000
      vertex  2.119407e+001 -1.658579e+001 -3.025567e-001
      vertex  2.175727e+001 -1.800000e+001 -2.245872e+000
    endloop
  endfacet
  facet normal  6.105911e-001 -3.125202e-001  7.276741e-001
    outer loop
      vertex  2.119407e+001 -1.658579e+001 -3.025567e-001
      vertex  1.904289e+001 -1.658579e+001  1.502496e+000
      vertex  1.967617e+001 -1.800000e+001  3.637361e-001
    endloop
  endfacet
  facet normal  6.863820e-001 -4.788156e-001  5.473713e-001
    outer loop
      vertex  2.175727e+001 -1.800000e+001 -2.245872e+000
      vertex  2.119407e+001 -1.658579e+001 -3.025567e-001
      vertex  1.967617e+001 -1.800000e+001  3.637361e-001
    endloop
  endfacet
  facet normal  3.460658e-001 -9.092687e-001  2.312338e-001
    outer loop
      vertex  2.377686e+001 -1.600000e+001 -1.864507e+000
      vertex  2.171751e+001 -1.600000e+001  1.217514e+000
      vertex  2.119407e+001 -1.658579e+001 -3.025567e-001
    endloop
  endfacet
  facet normal  3.232861e-001 -9.277112e-001  1.866494e-001
    outer loop
      vertex  2.259815e+001 -1.658579e+001 -2.734498e+000
      vertex  2.377686e+001 -1.600000e+001 -1.864507e+000
      vertex  2.119407e+001 -1.658579e+001 -3.025567e-001
    endloop
  endfacet
  facet normal  3.209231e-001 -3.457783e-001  8.817289e-001
    outer loop
      vertex  1.904289e+001 -1.658579e+001  1.502496e+000
      vertex  1.640408e+001 -1.658579e+001  2.462945e+000
      vertex  1.666891e+001 -1.800000e+001  1.811959e+000
    endloop
  endfacet
  facet normal  3.831789e-001 -4.691145e-001  7.956793e-001
    outer loop
      vertex  1.967617e+001 -1.800000e+001  3.637361e-001
      vertex  1.904289e+001 -1.658579e+001  1.502496e+000
      vertex  1.666891e+001 -1.800000e+001  1.811959e+000
    endloop
  endfacet
  facet normal  2.359100e-001 -9.053684e-001  3.530642e-001
    outer loop
      vertex  2.171751e+001 -1.600000e+001  1.217514e+000
      vertex  1.863549e+001 -1.600000e+001  3.276855e+000
      vertex  1.904289e+001 -1.658579e+001  1.502496e+000
    endloop
  endfacet
  facet normal  2.337041e-001 -9.315634e-001  2.785178e-001
    outer loop
      vertex  2.119407e+001 -1.658579e+001 -3.025567e-001
      vertex  2.171751e+001 -1.600000e+001  1.217514e+000
      vertex  1.904289e+001 -1.658579e+001  1.502496e+000
    endloop
  endfacet
  facet normal  1.224302e-001 -9.337362e-001  3.363741e-001
    outer loop
      vertex  1.904289e+001 -1.658579e+001  1.502496e+000
      vertex  1.863549e+001 -1.600000e+001  3.276855e+000
      vertex  1.640408e+001 -1.658579e+001  2.462945e+000
    endloop
  endfacet
  facet normal -3.209230e-001 -3.457785e-001  8.817288e-001
    outer loop
      vertex  1.359592e+001 -1.658579e+001  2.462945e+000
      vertex  1.095711e+001 -1.658579e+001  1.502496e+000
      vertex  1.333109e+001 -1.800000e+001  1.811959e+000
    endloop
  endfacet
  facet normal  0.000000e+000 -4.181430e-001  9.083812e-001
    outer loop
      vertex  1.666891e+001 -1.800000e+001  1.811959e+000
      vertex  1.359592e+001 -1.658579e+001  2.462945e+000
      vertex  1.333109e+001 -1.800000e+001  1.811959e+000
    endloop
  endfacet
  facet normal  0.000000e+000 -4.181430e-001  9.083813e-001
    outer loop
      vertex  1.640408e+001 -1.658579e+001  2.462945e+000
      vertex  1.359592e+001 -1.658579e+001  2.462945e+000
      vertex  1.666891e+001 -1.800000e+001  1.811959e+000
    endloop
  endfacet
  facet normal -6.105909e-001 -3.125210e-001  7.276739e-001
    outer loop
      vertex  1.095711e+001 -1.658579e+001  1.502496e+000
      vertex  8.805928e+000 -1.658579e+001 -3.025567e-001
      vertex  1.032383e+001 -1.800000e+001  3.637361e-001
    endloop
  endfacet
  facet normal -3.831789e-001 -4.691148e-001  7.956790e-001
    outer loop
      vertex  1.333109e+001 -1.800000e+001  1.811959e+000
      vertex  1.095711e+001 -1.658579e+001  1.502496e+000
      vertex  1.032383e+001 -1.800000e+001  3.637361e-001
    endloop
  endfacet
  facet normal -2.359101e-001 -9.053684e-001  3.530644e-001
    outer loop
      vertex  1.136451e+001 -1.600000e+001  3.276855e+000
      vertex  8.282486e+000 -1.600000e+001  1.217514e+000
      vertex  1.095711e+001 -1.658579e+001  1.502496e+000
    endloop
  endfacet
  facet normal -1.224302e-001 -9.337361e-001  3.363742e-001
    outer loop
      vertex  1.359592e+001 -1.658579e+001  2.462945e+000
      vertex  1.136451e+001 -1.600000e+001  3.276855e+000
      vertex  1.095711e+001 -1.658579e+001  1.502496e+000
    endloop
  endfacet
  facet normal -8.193830e-001 -3.237520e-001  4.730710e-001
    outer loop
      vertex  8.805928e+000 -1.658579e+001 -3.025567e-001
      vertex  7.401846e+000 -1.658579e+001 -2.734498e+000
      vertex  8.242734e+000 -1.800000e+001 -2.245872e+000
    endloop
  endfacet
  facet normal -6.863816e-001 -4.788163e-001  5.473711e-001
    outer loop
      vertex  1.032383e+001 -1.800000e+001  3.637361e-001
      vertex  8.805928e+000 -1.658579e+001 -3.025567e-001
      vertex  8.242734e+000 -1.800000e+001 -2.245872e+000
    endloop
  endfacet
  facet normal -3.460659e-001 -9.092685e-001  2.312339e-001
    outer loop
      vertex  8.282486e+000 -1.600000e+001  1.217514e+000
      vertex  6.223145e+000 -1.600000e+001 -1.864507e+000
      vertex  8.805928e+000 -1.658579e+001 -3.025567e-001
    endloop
  endfacet
  facet normal -2.337042e-001 -9.315633e-001  2.785178e-001
    outer loop
      vertex  1.095711e+001 -1.658579e+001  1.502496e+000
      vertex  8.282486e+000 -1.600000e+001  1.217514e+000
      vertex  8.805928e+000 -1.658579e+001 -3.025567e-001
    endloop
  endfacet
  facet normal -3.232861e-001 -9.277112e-001  1.866493e-001
    outer loop
      vertex  8.805928e+000 -1.658579e+001 -3.025567e-001
      vertex  6.223145e+000 -1.600000e+001 -1.864507e+000
      vertex  7.401846e+000 -1.658579e+001 -2.734498e+000
    endloop
  endfacet
  facet normal -8.368479e-002 -9.033264e-001  4.207117e-001
    outer loop
      vertex  1.500000e+001 -1.600000e+001  4.000000e+000
      vertex  1.136451e+001 -1.600000e+001  3.276855e+000
      vertex  1.359592e+001 -1.658579e+001  2.462945e+000
    endloop
  endfacet
  facet normal  0.000000e+000 -9.344388e-001  3.561239e-001
    outer loop
      vertex  1.500000e+001 -1.600000e+001  4.000000e+000
      vertex  1.359592e+001 -1.658579e+001  2.462945e+000
      vertex  1.640408e+001 -1.658579e+001  2.462945e+000
    endloop
  endfacet
  facet normal  8.368477e-002 -9.033263e-001  4.207117e-001
    outer loop
      vertex  1.500000e+001 -1.600000e+001  4.000000e+000
      vertex  1.640408e+001 -1.658579e+001  2.462945e+000
      vertex  1.863549e+001 -1.600000e+001  3.276855e+000
    endloop
  endfacet
  facet normal  3.963850e-001 -9.146925e-001 -7.884590e-002
    outer loop
      vertex  2.259815e+001 -1.658579e+001 -8.265502e+000
      vertex  2.377686e+001 -1.600000e+001 -9.135492e+000
      vertex  2.450000e+001 -1.600000e+001 -5.500000e+000
    endloop
  endfacet
  facet normal  3.818155e-001 -9.217832e-001 -6.732439e-002
    outer loop
      vertex  2.308579e+001 -1.658579e+001 -5.500000e+000
      vertex  2.259815e+001 -1.658579e+001 -8.265502e+000
      vertex  2.450000e+001 -1.600000e+001 -5.500000e+000
    endloop
  endfacet
  facet normal -3.818153e-001 -9.217833e-001 -6.732430e-002
    outer loop
      vertex  7.401846e+000 -1.658579e+001 -8.265502e+000
      vertex  6.914214e+000 -1.658579e+001 -5.500000e+000
      vertex  5.500000e+000 -1.600000e+001 -5.500000e+000
    endloop
  endfacet
  facet normal -3.963850e-001 -9.146925e-001 -7.884590e-002
    outer loop
      vertex  6.223145e+000 -1.600000e+001 -9.135492e+000
      vertex  7.401846e+000 -1.658579e+001 -8.265502e+000
      vertex  5.500000e+000 -1.600000e+001 -5.500000e+000
    endloop
  endfacet
  facet normal -8.710220e-001 -4.492183e-001 -1.988052e-001
    outer loop
      vertex  7.401846e+000 -1.658579e+001 -8.265502e+000
      vertex  8.242734e+000 -1.800000e+001 -8.754128e+000
      vertex  7.500000e+000 -1.800000e+001 -5.500000e+000
    endloop
  endfacet
  facet normal -9.118593e-001 -3.777045e-001 -1.607853e-001
    outer loop
      vertex  6.914214e+000 -1.658579e+001 -5.500000e+000
      vertex  7.401846e+000 -1.658579e+001 -8.265502e+000
      vertex  7.500000e+000 -1.800000e+001 -5.500000e+000
    endloop
  endfacet
  facet normal  9.118592e-001 -3.777048e-001 -1.607854e-001
    outer loop
      vertex  2.259815e+001 -1.658579e+001 -8.265502e+000
      vertex  2.308579e+001 -1.658579e+001 -5.500000e+000
      vertex  2.250000e+001 -1.800000e+001 -5.500000e+000
    endloop
  endfacet
  facet normal  8.710222e-001 -4.492179e-001 -1.988050e-001
    outer loop
      vertex  2.175727e+001 -1.800000e+001 -8.754128e+000
      vertex  2.259815e+001 -1.658579e+001 -8.265502e+000
      vertex  2.250000e+001 -1.800000e+001 -5.500000e+000
    endloop
  endfacet
  facet normal -8.193829e-001 -3.237519e-001 -4.730711e-001
    outer loop
      vertex  7.401846e+000 -1.658579e+001 -8.265502e+000
      vertex  8.805928e+000 -1.658579e+001 -1.069744e+001
      vertex  8.242734e+000 -1.800000e+001 -8.754128e+000
    endloop
  endfacet
  facet normal -6.105911e-001 -3.125209e-001 -7.276738e-001
    outer loop
      vertex  8.805928e+000 -1.658579e+001 -1.069744e+001
      vertex  1.095711e+001 -1.658579e+001 -1.250250e+001
      vertex  1.032383e+001 -1.800000e+001 -1.136374e+001
    endloop
  endfacet
  facet normal -6.863818e-001 -4.788162e-001 -5.473712e-001
    outer loop
      vertex  8.242734e+000 -1.800000e+001 -8.754128e+000
      vertex  8.805928e+000 -1.658579e+001 -1.069744e+001
      vertex  1.032383e+001 -1.800000e+001 -1.136374e+001
    endloop
  endfacet
  facet normal -3.460659e-001 -9.092685e-001 -2.312339e-001
    outer loop
      vertex  6.223145e+000 -1.600000e+001 -9.135492e+000
      vertex  8.282486e+000 -1.600000e+001 -1.221751e+001
      vertex  8.805928e+000 -1.658579e+001 -1.069744e+001
    endloop
  endfacet
  facet normal -3.232861e-001 -9.277112e-001 -1.866494e-001
    outer loop
      vertex  7.401846e+000 -1.658579e+001 -8.265502e+000
      vertex  6.223145e+000 -1.600000e+001 -9.135492e+000
      vertex  8.805928e+000 -1.658579e+001 -1.069744e+001
    endloop
  endfacet
  facet normal -3.209229e-001 -3.457785e-001 -8.817288e-001
    outer loop
      vertex  1.095711e+001 -1.658579e+001 -1.250250e+001
      vertex  1.359592e+001 -1.658579e+001 -1.346294e+001
      vertex  1.333109e+001 -1.800000e+001 -1.281196e+001
    endloop
  endfacet
  facet normal -3.831789e-001 -4.691149e-001 -7.956790e-001
    outer loop
      vertex  1.032383e+001 -1.800000e+001 -1.136374e+001
      vertex  1.095711e+001 -1.658579e+001 -1.250250e+001
      vertex  1.333109e+001 -1.800000e+001 -1.281196e+001
    endloop
  endfacet
  facet normal -2.359101e-001 -9.053684e-001 -3.530644e-001
    outer loop
      vertex  8.282486e+000 -1.600000e+001 -1.221751e+001
      vertex  1.136451e+001 -1.600000e+001 -1.427686e+001
      vertex  1.095711e+001 -1.658579e+001 -1.250250e+001
    endloop
  endfacet
  facet normal -2.337043e-001 -9.315633e-001 -2.785178e-001
    outer loop
      vertex  8.805928e+000 -1.658579e+001 -1.069744e+001
      vertex  8.282486e+000 -1.600000e+001 -1.221751e+001
      vertex  1.095711e+001 -1.658579e+001 -1.250250e+001
    endloop
  endfacet
  facet normal -1.224302e-001 -9.337362e-001 -3.363742e-001
    outer loop
      vertex  1.095711e+001 -1.658579e+001 -1.250250e+001
      vertex  1.136451e+001 -1.600000e+001 -1.427686e+001
      vertex  1.359592e+001 -1.658579e+001 -1.346294e+001
    endloop
  endfacet
  facet normal  3.209229e-001 -3.457783e-001 -8.817289e-001
    outer loop
      vertex  1.640408e+001 -1.658579e+001 -1.346294e+001
      vertex  1.904289e+001 -1.658579e+001 -1.250250e+001
      vertex  1.666891e+001 -1.800000e+001 -1.281196e+001
    endloop
  endfacet
  facet normal  0.000000e+000 -4.181429e-001 -9.083812e-001
    outer loop
      vertex  1.333109e+001 -1.800000e+001 -1.281196e+001
      vertex  1.640408e+001 -1.658579e+001 -1.346294e+001
      vertex  1.666891e+001 -1.800000e+001 -1.281196e+001
    endloop
  endfacet
  facet normal  -0.000000e+000 -4.181429e-001 -9.083813e-001
    outer loop
      vertex  1.359592e+001 -1.658579e+001 -1.346294e+001
      vertex  1.640408e+001 -1.658579e+001 -1.346294e+001
      vertex  1.333109e+001 -1.800000e+001 -1.281196e+001
    endloop
  endfacet
  facet normal  6.105912e-001 -3.125202e-001 -7.276740e-001
    outer loop
      vertex  1.904289e+001 -1.658579e+001 -1.250250e+001
      vertex  2.119407e+001 -1.658579e+001 -1.069744e+001
      vertex  1.967617e+001 -1.800000e+001 -1.136374e+001
    endloop
  endfacet
  facet normal  3.831788e-001 -4.691145e-001 -7.956793e-001
    outer loop
      vertex  1.666891e+001 -1.800000e+001 -1.281196e+001
      vertex  1.904289e+001 -1.658579e+001 -1.250250e+001
      vertex  1.967617e+001 -1.800000e+001 -1.136374e+001
    endloop
  endfacet
  facet normal  2.359101e-001 -9.053684e-001 -3.530643e-001
    outer loop
      vertex  1.863549e+001 -1.600000e+001 -1.427686e+001
      vertex  2.171751e+001 -1.600000e+001 -1.221751e+001
      vertex  1.904289e+001 -1.658579e+001 -1.250250e+001
    endloop
  endfacet
  facet normal  1.224301e-001 -9.337362e-001 -3.363742e-001
    outer loop
      vertex  1.640408e+001 -1.658579e+001 -1.346294e+001
      vertex  1.863549e+001 -1.600000e+001 -1.427686e+001
      vertex  1.904289e+001 -1.658579e+001 -1.250250e+001
    endloop
  endfacet
  facet normal  8.193830e-001 -3.237513e-001 -4.730715e-001
    outer loop
      vertex  2.119407e+001 -1.658579e+001 -1.069744e+001
      vertex  2.259815e+001 -1.658579e+001 -8.265502e+000
      vertex  2.175727e+001 -1.800000e+001 -8.754128e+000
    endloop
  endfacet
  facet normal  6.863819e-001 -4.788154e-001 -5.473714e-001
    outer loop
      vertex  1.967617e+001 -1.800000e+001 -1.136374e+001
      vertex  2.119407e+001 -1.658579e+001 -1.069744e+001
      vertex  2.175727e+001 -1.800000e+001 -8.754128e+000
    endloop
  endfacet
  facet normal  3.460658e-001 -9.092687e-001 -2.312338e-001
    outer loop
      vertex  2.171751e+001 -1.600000e+001 -1.221751e+001
      vertex  2.377686e+001 -1.600000e+001 -9.135492e+000
      vertex  2.119407e+001 -1.658579e+001 -1.069744e+001
    endloop
  endfacet
  facet normal  2.337042e-001 -9.315633e-001 -2.785177e-001
    outer loop
      vertex  1.904289e+001 -1.658579e+001 -1.250250e+001
      vertex  2.171751e+001 -1.600000e+001 -1.221751e+001
      vertex  2.119407e+001 -1.658579e+001 -1.069744e+001
    endloop
  endfacet
  facet normal  3.232861e-001 -9.277112e-001 -1.866495e-001
    outer loop
      vertex  2.119407e+001 -1.658579e+001 -1.069744e+001
      vertex  2.377686e+001 -1.600000e+001 -9.135492e+000
      vertex  2.259815e+001 -1.658579e+001 -8.265502e+000
    endloop
  endfacet
  facet normal  8.368476e-002 -9.033264e-001 -4.207116e-001
    outer loop
      vertex  1.500000e+001 -1.600000e+001 -1.500000e+001
      vertex  1.863549e+001 -1.600000e+001 -1.427686e+001
      vertex  1.640408e+001 -1.658579e+001 -1.346294e+001
    endloop
  endfacet
  facet normal  -0.000000e+000 -9.344388e-001 -3.561238e-001
    outer loop
      vertex  1.500000e+001 -1.600000e+001 -1.500000e+001
      vertex  1.640408e+001 -1.658579e+001 -1.346294e+001
      vertex  1.359592e+001 -1.658579e+001 -1.346294e+001
    endloop
  endfacet
  facet normal -8.368477e-002 -9.033264e-001 -4.207116e-001
    outer loop
      vertex  1.500000e+001 -1.600000e+001 -1.500000e+001
      vertex  1.359592e+001 -1.658579e+001 -1.346294e+001
      vertex  1.136451e+001 -1.600000e+001 -1.427686e+001
    endloop
  endfacet
  facet normal  1.000000e+000  0.000000e+000  0.000000e+000
    outer loop
      vertex  3.000000e+001 -1.600000e+001 -1.500000e+001
      vertex  3.000000e+001 -1.200000e+001 -1.500000e+001
      vertex  3.000000e+001 -1.600000e+001  4.000000e+000
    endloop
  endfacet
  facet normal  1.000000e+000  0.000000e+000  0.000000e+000
    outer loop
      vertex  3.000000e+001 -1.600000e+001  4.000000e+000
      vertex  3.000000e+001 -1.200000e+001 -1.500000e+001
      vertex  3.000000e+001 -1.200000e+001  0.000000e+000
    endloop
  endfacet
  facet normal  1.000000e+000  0.000000e+000  -0.000000e+000
    outer loop
      vertex  3.000000e+001 -1.600000e+001  4.000000e+000
      vertex  3.000000e+001 -1.200000e+001  0.000000e+000
      vertex  3.000000e+001  1.200000e+001  4.000000e+000
    endloop
  endfacet
  facet normal  1.000000e+000  0.000000e+000  0.000000e+000
    outer loop
      vertex  3.000000e+001  1.200000e+001  4.000000e+000
      vertex  3.000000e+001 -1.200000e+001  0.000000e+000
      vertex  3.000000e+001  1.200000e+001  0.000000e+000
    endloop
  endfacet
  facet normal -1.000000e+000  0.000000e+000  0.000000e+000
    outer loop
      vertex  0.000000e+000 -1.200000e+001 -1.500000e+001
      vertex  0.000000e+000 -1.600000e+001 -1.500000e+001
      vertex  0.000000e+000 -1.200000e+001  0.000000e+000
    endloop
  endfacet
  facet normal -1.000000e+000  -0.000000e+000  0.000000e+000
    outer loop
      vertex  0.000000e+000 -1.200000e+001  0.000000e+000
      vertex  0.000000e+000 -1.600000e+001 -1.500000e+001
      vertex  0.000000e+000 -1.600000e+001  4.000000e+000
    endloop
  endfacet
  facet normal -1.000000e+000  0.000000e+000  0.000000e+000
    outer loop
      vertex  0.000000e+000 -1.200000e+001  0.000000e+000
      vertex  0.000000e+000 -1.600000e+001  4.000000e+000
      vertex  0.000000e+000  1.200000e+001  0.000000e+000
    endloop
  endfacet
  facet normal -1.000000e+000  0.000000e+000  0.000000e+000
    outer loop
      vertex  0.000000e+000  1.200000e+001  0.000000e+000
      vertex  0.000000e+000 -1.600000e+001  4.000000e+000
      vertex  0.000000e+000  1.200000e+001  4.000000e+000
    endloop
  endfacet
  facet normal  0.000000e+000  1.000000e+000  0.000000e+000
    outer loop
      vertex  0.000000e+000  1.200000e+001  0.000000e+000
      vertex  0.000000e+000  1.200000e+001  4.000000e+000
      vertex  3.000000e+001  1.200000e+001  0.000000e+000
    endloop
  endfacet
  facet normal  0.000000e+000  1.000000e+000  -0.000000e+000
    outer loop
      vertex  3.000000e+001  1.200000e+001  0.000000e+000
      vertex  0.000000e+000  1.200000e+001  4.000000e+000
      vertex  3.000000e+001  1.200000e+001  4.000000e+000
    endloop
  endfacet
endsolid CATIA STL
