solid CATIA STL
  facet normal  -0.000000e+000 -1.000000e+000  0.000000e+000
    outer loop
      vertex  2.601033e+001 -1.600000e+001  7.082298e+000
      vertex  3.000000e+001 -1.600000e+001  9.000000e+000
      vertex  2.646711e+001 -1.600000e+001  9.511867e+000
    endloop
  endfacet
  facet normal  -0.000000e+000 -1.000000e+000  -0.000000e+000
    outer loop
      vertex  4.500000e+001 -1.600000e+001 -1.000000e+001
      vertex  4.500000e+001 -1.600000e+001  4.000000e+000
      vertex  3.200000e+001 -1.600000e+001  4.000000e+000
    endloop
  endfacet
  facet normal  -0.000000e+000 -1.000000e+000  -0.000000e+000
    outer loop
      vertex  4.500000e+001 -1.600000e+001 -1.000000e+001
      vertex  3.200000e+001 -1.600000e+001  4.000000e+000
      vertex  1.300000e+001 -1.600000e+001  4.000000e+000
    endloop
  endfacet
  facet normal  -0.000000e+000 -1.000000e+000  -0.000000e+000
    outer loop
      vertex  4.500000e+001 -1.600000e+001 -1.000000e+001
      vertex  1.300000e+001 -1.600000e+001  4.000000e+000
      vertex  0.000000e+000 -1.600000e+001  4.000000e+000
    endloop
  endfacet
  facet normal  0.000000e+000 -1.000000e+000  0.000000e+000
    outer loop
      vertex  4.500000e+001 -1.600000e+001 -1.000000e+001
      vertex  0.000000e+000 -1.600000e+001  4.000000e+000
      vertex  0.000000e+000 -1.600000e+001 -1.000000e+001
    endloop
  endfacet
  facet normal  0.000000e+000 -1.000000e+000  0.000000e+000
    outer loop
      vertex  1.782383e+001 -1.600000e+001  1.486374e+001
      vertex  1.574273e+001 -1.600000e+001  1.225413e+001
      vertex  1.898967e+001 -1.600000e+001  1.091770e+001
    endloop
  endfacet
  facet normal  0.000000e+000 -1.000000e+000  0.000000e+000
    outer loop
      vertex  1.782383e+001 -1.600000e+001  1.486374e+001
      vertex  1.898967e+001 -1.600000e+001  1.091770e+001
      vertex  2.078728e+001 -1.600000e+001  1.261477e+001
    endloop
  endfacet
  facet normal  0.000000e+000 -1.000000e+000  0.000000e+000
    outer loop
      vertex  1.782383e+001 -1.600000e+001  1.486374e+001
      vertex  2.078728e+001 -1.600000e+001  1.261477e+001
      vertex  2.083109e+001 -1.600000e+001  1.631196e+001
    endloop
  endfacet
  facet normal  0.000000e+000 -1.000000e+000  0.000000e+000
    outer loop
      vertex  1.300000e+001 -1.600000e+001  4.000000e+000
      vertex  3.200000e+001 -1.600000e+001  4.000000e+000
      vertex  3.058579e+001 -1.600000e+001  4.585786e+000
    endloop
  endfacet
  facet normal  -0.000000e+000 -1.000000e+000  0.000000e+000
    outer loop
      vertex  1.300000e+001 -1.600000e+001  4.000000e+000
      vertex  3.058579e+001 -1.600000e+001  4.585786e+000
      vertex  3.000000e+001 -1.600000e+001  6.000000e+000
    endloop
  endfacet
  facet normal  0.000000e+000 -1.000000e+000  0.000000e+000
    outer loop
      vertex  1.300000e+001 -1.600000e+001  4.000000e+000
      vertex  3.000000e+001 -1.600000e+001  6.000000e+000
      vertex  2.176091e+001 -1.600000e+001  5.068875e+000
    endloop
  endfacet
  facet normal  0.000000e+000 -1.000000e+000  0.000000e+000
    outer loop
      vertex  1.898967e+001 -1.600000e+001  1.091770e+001
      vertex  1.574273e+001 -1.600000e+001  1.225413e+001
      vertex  1.853289e+001 -1.600000e+001  8.488133e+000
    endloop
  endfacet
  facet normal  0.000000e+000 -1.000000e+000  0.000000e+000
    outer loop
      vertex  1.853289e+001 -1.600000e+001  8.488133e+000
      vertex  1.574273e+001 -1.600000e+001  1.225413e+001
      vertex  1.500000e+001 -1.600000e+001  9.000000e+000
    endloop
  endfacet
  facet normal  0.000000e+000 -1.000000e+000  0.000000e+000
    outer loop
      vertex  1.853289e+001 -1.600000e+001  8.488133e+000
      vertex  1.500000e+001 -1.600000e+001  9.000000e+000
      vertex  1.500000e+001 -1.600000e+001  6.000000e+000
    endloop
  endfacet
  facet normal  0.000000e+000 -1.000000e+000  -0.000000e+000
    outer loop
      vertex  3.000000e+001 -1.600000e+001  9.000000e+000
      vertex  2.925727e+001 -1.600000e+001  1.225413e+001
      vertex  2.646711e+001 -1.600000e+001  9.511867e+000
    endloop
  endfacet
  facet normal  0.000000e+000 -1.000000e+000  0.000000e+000
    outer loop
      vertex  2.646711e+001 -1.600000e+001  9.511867e+000
      vertex  2.925727e+001 -1.600000e+001  1.225413e+001
      vertex  2.717617e+001 -1.600000e+001  1.486374e+001
    endloop
  endfacet
  facet normal  0.000000e+000 -1.000000e+000  0.000000e+000
    outer loop
      vertex  2.646711e+001 -1.600000e+001  9.511867e+000
      vertex  2.717617e+001 -1.600000e+001  1.486374e+001
      vertex  2.540859e+001 -1.600000e+001  1.174592e+001
    endloop
  endfacet
  facet normal  0.000000e+000 -9.999999e-001  0.000000e+000
    outer loop
      vertex  2.540859e+001 -1.600000e+001  1.174592e+001
      vertex  2.717617e+001 -1.600000e+001  1.486374e+001
      vertex  2.416891e+001 -1.600000e+001  1.631196e+001
    endloop
  endfacet
  facet normal  0.000000e+000 -1.000000e+000  -0.000000e+000
    outer loop
      vertex  2.540859e+001 -1.600000e+001  1.174592e+001
      vertex  2.416891e+001 -1.600000e+001  1.631196e+001
      vertex  2.323909e+001 -1.600000e+001  1.293112e+001
    endloop
  endfacet
  facet normal  0.000000e+000 -1.000000e+000  0.000000e+000
    outer loop
      vertex  2.083109e+001 -1.600000e+001  1.631196e+001
      vertex  2.078728e+001 -1.600000e+001  1.261477e+001
      vertex  2.416891e+001 -1.600000e+001  1.631196e+001
    endloop
  endfacet
  facet normal  0.000000e+000 -1.000000e+000  0.000000e+000
    outer loop
      vertex  2.416891e+001 -1.600000e+001  1.631196e+001
      vertex  2.078728e+001 -1.600000e+001  1.261477e+001
      vertex  2.323909e+001 -1.600000e+001  1.293112e+001
    endloop
  endfacet
  facet normal  0.000000e+000 -1.000000e+000  0.000000e+000
    outer loop
      vertex  1.300000e+001 -1.600000e+001  4.000000e+000
      vertex  2.176091e+001 -1.600000e+001  5.068875e+000
      vertex  1.441421e+001 -1.600000e+001  4.585786e+000
    endloop
  endfacet
  facet normal  0.000000e+000 -1.000000e+000  0.000000e+000
    outer loop
      vertex  1.441421e+001 -1.600000e+001  4.585786e+000
      vertex  2.176091e+001 -1.600000e+001  5.068875e+000
      vertex  1.959141e+001 -1.600000e+001  6.254080e+000
    endloop
  endfacet
  facet normal  0.000000e+000 -1.000000e+000  0.000000e+000
    outer loop
      vertex  1.441421e+001 -1.600000e+001  4.585786e+000
      vertex  1.959141e+001 -1.600000e+001  6.254080e+000
      vertex  1.500000e+001 -1.600000e+001  6.000000e+000
    endloop
  endfacet
  facet normal  0.000000e+000 -1.000000e+000  0.000000e+000
    outer loop
      vertex  1.500000e+001 -1.600000e+001  6.000000e+000
      vertex  1.959141e+001 -1.600000e+001  6.254080e+000
      vertex  1.853289e+001 -1.600000e+001  8.488133e+000
    endloop
  endfacet
  facet normal  0.000000e+000 -1.000000e+000  0.000000e+000
    outer loop
      vertex  3.000000e+001 -1.600000e+001  9.000000e+000
      vertex  2.601033e+001 -1.600000e+001  7.082298e+000
      vertex  3.000000e+001 -1.600000e+001  6.000000e+000
    endloop
  endfacet
  facet normal  -0.000000e+000 -1.000000e+000  0.000000e+000
    outer loop
      vertex  3.000000e+001 -1.600000e+001  6.000000e+000
      vertex  2.601033e+001 -1.600000e+001  7.082298e+000
      vertex  2.421272e+001 -1.600000e+001  5.385226e+000
    endloop
  endfacet
  facet normal  0.000000e+000 -1.000000e+000  -0.000000e+000
    outer loop
      vertex  3.000000e+001 -1.600000e+001  6.000000e+000
      vertex  2.421272e+001 -1.600000e+001  5.385226e+000
      vertex  2.176091e+001 -1.600000e+001  5.068875e+000
    endloop
  endfacet
  facet normal  9.827813e-001  0.000000e+000 -1.847728e-001
    outer loop
      vertex  1.898967e+001  4.000000e+000  1.091770e+001
      vertex  1.898967e+001 -1.600000e+001  1.091770e+001
      vertex  1.853289e+001  4.000000e+000  8.488133e+000
    endloop
  endfacet
  facet normal  9.827813e-001  0.000000e+000 -1.847728e-001
    outer loop
      vertex  1.853289e+001  4.000000e+000  8.488133e+000
      vertex  1.898967e+001 -1.600000e+001  1.091770e+001
      vertex  1.853289e+001 -1.600000e+001  8.488133e+000
    endloop
  endfacet
  facet normal  9.036934e-001  -0.000000e+000  4.281801e-001
    outer loop
      vertex  1.853289e+001  4.000000e+000  8.488133e+000
      vertex  1.853289e+001 -1.600000e+001  8.488133e+000
      vertex  1.959141e+001  4.000000e+000  6.254080e+000
    endloop
  endfacet
  facet normal  9.036934e-001  0.000000e+000  4.281801e-001
    outer loop
      vertex  1.959141e+001  4.000000e+000  6.254080e+000
      vertex  1.853289e+001 -1.600000e+001  8.488133e+000
      vertex  1.959141e+001 -1.600000e+001  6.254080e+000
    endloop
  endfacet
  facet normal  4.794258e-001  -0.000000e+000  8.775824e-001
    outer loop
      vertex  1.959141e+001  4.000000e+000  6.254080e+000
      vertex  1.959141e+001 -1.600000e+001  6.254080e+000
      vertex  2.176091e+001  4.000000e+000  5.068875e+000
    endloop
  endfacet
  facet normal  4.794258e-001  0.000000e+000  8.775824e-001
    outer loop
      vertex  2.176091e+001  4.000000e+000  5.068875e+000
      vertex  1.959141e+001 -1.600000e+001  6.254080e+000
      vertex  2.176091e+001 -1.600000e+001  5.068875e+000
    endloop
  endfacet
  facet normal -1.279669e-001  0.000000e+000  9.917785e-001
    outer loop
      vertex  2.176091e+001  4.000000e+000  5.068875e+000
      vertex  2.176091e+001 -1.600000e+001  5.068875e+000
      vertex  2.421272e+001  4.000000e+000  5.385226e+000
    endloop
  endfacet
  facet normal -1.279669e-001  0.000000e+000  9.917785e-001
    outer loop
      vertex  2.421272e+001  4.000000e+000  5.385226e+000
      vertex  2.176091e+001 -1.600000e+001  5.068875e+000
      vertex  2.421272e+001 -1.600000e+001  5.385226e+000
    endloop
  endfacet
  facet normal -6.864797e-001  0.000000e+000  7.271490e-001
    outer loop
      vertex  2.421272e+001  4.000000e+000  5.385226e+000
      vertex  2.421272e+001 -1.600000e+001  5.385226e+000
      vertex  2.601033e+001  4.000000e+000  7.082298e+000
    endloop
  endfacet
  facet normal -6.864797e-001  0.000000e+000  7.271490e-001
    outer loop
      vertex  2.601033e+001  4.000000e+000  7.082298e+000
      vertex  2.421272e+001 -1.600000e+001  5.385226e+000
      vertex  2.601033e+001 -1.600000e+001  7.082298e+000
    endloop
  endfacet
  facet normal -9.827812e-001  0.000000e+000  1.847727e-001
    outer loop
      vertex  2.601033e+001  4.000000e+000  7.082298e+000
      vertex  2.601033e+001 -1.600000e+001  7.082298e+000
      vertex  2.646711e+001  4.000000e+000  9.511867e+000
    endloop
  endfacet
  facet normal -9.827812e-001  0.000000e+000  1.847727e-001
    outer loop
      vertex  2.646711e+001  4.000000e+000  9.511867e+000
      vertex  2.601033e+001 -1.600000e+001  7.082298e+000
      vertex  2.646711e+001 -1.600000e+001  9.511867e+000
    endloop
  endfacet
  facet normal -9.036935e-001  0.000000e+000 -4.281800e-001
    outer loop
      vertex  2.646711e+001  4.000000e+000  9.511867e+000
      vertex  2.646711e+001 -1.600000e+001  9.511867e+000
      vertex  2.540859e+001  4.000000e+000  1.174592e+001
    endloop
  endfacet
  facet normal -9.036935e-001  -0.000000e+000 -4.281800e-001
    outer loop
      vertex  2.540859e+001  4.000000e+000  1.174592e+001
      vertex  2.646711e+001 -1.600000e+001  9.511867e+000
      vertex  2.540859e+001 -1.600000e+001  1.174592e+001
    endloop
  endfacet
  facet normal -4.794255e-001  0.000000e+000 -8.775826e-001
    outer loop
      vertex  2.540859e+001  4.000000e+000  1.174592e+001
      vertex  2.540859e+001 -1.600000e+001  1.174592e+001
      vertex  2.323909e+001  4.000000e+000  1.293112e+001
    endloop
  endfacet
  facet normal -4.794255e-001  -0.000000e+000 -8.775826e-001
    outer loop
      vertex  2.323909e+001  4.000000e+000  1.293112e+001
      vertex  2.540859e+001 -1.600000e+001  1.174592e+001
      vertex  2.323909e+001 -1.600000e+001  1.293112e+001
    endloop
  endfacet
  facet normal  1.279667e-001  0.000000e+000 -9.917785e-001
    outer loop
      vertex  2.323909e+001  4.000000e+000  1.293112e+001
      vertex  2.323909e+001 -1.600000e+001  1.293112e+001
      vertex  2.078728e+001  4.000000e+000  1.261477e+001
    endloop
  endfacet
  facet normal  1.279667e-001  0.000000e+000 -9.917785e-001
    outer loop
      vertex  2.078728e+001  4.000000e+000  1.261477e+001
      vertex  2.323909e+001 -1.600000e+001  1.293112e+001
      vertex  2.078728e+001 -1.600000e+001  1.261477e+001
    endloop
  endfacet
  facet normal  6.864799e-001  0.000000e+000 -7.271488e-001
    outer loop
      vertex  2.078728e+001  4.000000e+000  1.261477e+001
      vertex  2.078728e+001 -1.600000e+001  1.261477e+001
      vertex  1.898967e+001  4.000000e+000  1.091770e+001
    endloop
  endfacet
  facet normal  6.864799e-001  0.000000e+000 -7.271488e-001
    outer loop
      vertex  1.898967e+001  4.000000e+000  1.091770e+001
      vertex  2.078728e+001 -1.600000e+001  1.261477e+001
      vertex  1.898967e+001 -1.600000e+001  1.091770e+001
    endloop
  endfacet
  facet normal  -0.000000e+000 -1.000000e+000  0.000000e+000
    outer loop
      vertex  2.176091e+001  4.000000e+000  5.068875e+000
      vertex  2.421272e+001  4.000000e+000  5.385226e+000
      vertex  1.959141e+001  4.000000e+000  6.254080e+000
    endloop
  endfacet
  facet normal  0.000000e+000 -1.000000e+000  0.000000e+000
    outer loop
      vertex  1.959141e+001  4.000000e+000  6.254080e+000
      vertex  2.421272e+001  4.000000e+000  5.385226e+000
      vertex  2.601033e+001  4.000000e+000  7.082298e+000
    endloop
  endfacet
  facet normal  -0.000000e+000 -9.999999e-001  0.000000e+000
    outer loop
      vertex  1.959141e+001  4.000000e+000  6.254080e+000
      vertex  2.601033e+001  4.000000e+000  7.082298e+000
      vertex  1.853289e+001  4.000000e+000  8.488133e+000
    endloop
  endfacet
  facet normal  0.000000e+000 -1.000000e+000  0.000000e+000
    outer loop
      vertex  1.853289e+001  4.000000e+000  8.488133e+000
      vertex  2.601033e+001  4.000000e+000  7.082298e+000
      vertex  2.646711e+001  4.000000e+000  9.511867e+000
    endloop
  endfacet
  facet normal  -0.000000e+000 -1.000000e+000  0.000000e+000
    outer loop
      vertex  1.853289e+001  4.000000e+000  8.488133e+000
      vertex  2.646711e+001  4.000000e+000  9.511867e+000
      vertex  1.898967e+001  4.000000e+000  1.091770e+001
    endloop
  endfacet
  facet normal  0.000000e+000 -1.000000e+000  0.000000e+000
    outer loop
      vertex  1.898967e+001  4.000000e+000  1.091770e+001
      vertex  2.646711e+001  4.000000e+000  9.511867e+000
      vertex  2.540859e+001  4.000000e+000  1.174592e+001
    endloop
  endfacet
  facet normal  -0.000000e+000 -9.999999e-001  0.000000e+000
    outer loop
      vertex  1.898967e+001  4.000000e+000  1.091770e+001
      vertex  2.540859e+001  4.000000e+000  1.174592e+001
      vertex  2.078728e+001  4.000000e+000  1.261477e+001
    endloop
  endfacet
  facet normal  0.000000e+000 -1.000000e+000  0.000000e+000
    outer loop
      vertex  2.078728e+001  4.000000e+000  1.261477e+001
      vertex  2.540859e+001  4.000000e+000  1.174592e+001
      vertex  2.323909e+001  4.000000e+000  1.293112e+001
    endloop
  endfacet
  facet normal  1.000000e+000  0.000000e+000  0.000000e+000
    outer loop
      vertex  3.000000e+001 -1.600000e+001  9.000000e+000
      vertex  3.000000e+001 -1.600000e+001  6.000000e+000
      vertex  3.000000e+001  1.200000e+001  9.000000e+000
    endloop
  endfacet
  facet normal  1.000000e+000  0.000000e+000  0.000000e+000
    outer loop
      vertex  3.000000e+001  1.200000e+001  9.000000e+000
      vertex  3.000000e+001 -1.600000e+001  6.000000e+000
      vertex  3.000000e+001  1.200000e+001  6.000000e+000
    endloop
  endfacet
  facet normal  -0.000000e+000  0.000000e+000  1.000000e+000
    outer loop
      vertex  4.500000e+001  1.200000e+001  4.000000e+000
      vertex  3.200000e+001  1.200000e+001  4.000000e+000
      vertex  3.969396e+001  1.415188e+000  4.000000e+000
    endloop
  endfacet
  facet normal  -0.000000e+000  0.000000e+000  1.000000e+000
    outer loop
      vertex  4.500000e+001  1.200000e+001  4.000000e+000
      vertex  3.969396e+001  1.415188e+000  4.000000e+000
      vertex  3.989887e+001 -4.872247e-001  4.000000e+000
    endloop
  endfacet
  facet normal  -0.000000e+000  0.000000e+000  1.000000e+000
    outer loop
      vertex  4.500000e+001  1.200000e+001  4.000000e+000
      vertex  3.989887e+001 -4.872247e-001  4.000000e+000
      vertex  4.500000e+001 -1.600000e+001  4.000000e+000
    endloop
  endfacet
  facet normal  0.000000e+000  0.000000e+000  1.000000e+000
    outer loop
      vertex  3.200000e+001  1.200000e+001  4.000000e+000
      vertex  3.200000e+001 -1.600000e+001  4.000000e+000
      vertex  3.530604e+001 -9.819397e-001  4.000000e+000
    endloop
  endfacet
  facet normal  0.000000e+000  0.000000e+000  9.999999e-001
    outer loop
      vertex  3.200000e+001  1.200000e+001  4.000000e+000
      vertex  3.530604e+001 -9.819397e-001  4.000000e+000
      vertex  3.510113e+001  9.204730e-001  4.000000e+000
    endloop
  endfacet
  facet normal  0.000000e+000  -0.000000e+000  1.000000e+000
    outer loop
      vertex  3.200000e+001  1.200000e+001  4.000000e+000
      vertex  3.510113e+001  9.204730e-001  4.000000e+000
      vertex  3.630144e+001  2.410581e+000  4.000000e+000
    endloop
  endfacet
  facet normal  0.000000e+000  -0.000000e+000  1.000000e+000
    outer loop
      vertex  3.200000e+001  1.200000e+001  4.000000e+000
      vertex  3.630144e+001  2.410581e+000  4.000000e+000
      vertex  3.820385e+001  2.615498e+000  4.000000e+000
    endloop
  endfacet
  facet normal  -0.000000e+000  -0.000000e+000  1.000000e+000
    outer loop
      vertex  3.200000e+001  1.200000e+001  4.000000e+000
      vertex  3.820385e+001  2.615498e+000  4.000000e+000
      vertex  3.969396e+001  1.415188e+000  4.000000e+000
    endloop
  endfacet
  facet normal  0.000000e+000  0.000000e+000  9.999999e-001
    outer loop
      vertex  3.200000e+001 -1.600000e+001  4.000000e+000
      vertex  4.500000e+001 -1.600000e+001  4.000000e+000
      vertex  3.989887e+001 -4.872247e-001  4.000000e+000
    endloop
  endfacet
  facet normal  0.000000e+000  0.000000e+000  9.999999e-001
    outer loop
      vertex  3.200000e+001 -1.600000e+001  4.000000e+000
      vertex  3.989887e+001 -4.872247e-001  4.000000e+000
      vertex  3.869856e+001 -1.977332e+000  4.000000e+000
    endloop
  endfacet
  facet normal  0.000000e+000  0.000000e+000  1.000000e+000
    outer loop
      vertex  3.200000e+001 -1.600000e+001  4.000000e+000
      vertex  3.869856e+001 -1.977332e+000  4.000000e+000
      vertex  3.679615e+001 -2.182250e+000  4.000000e+000
    endloop
  endfacet
  facet normal  0.000000e+000  0.000000e+000  9.999999e-001
    outer loop
      vertex  3.200000e+001 -1.600000e+001  4.000000e+000
      vertex  3.679615e+001 -2.182250e+000  4.000000e+000
      vertex  3.530604e+001 -9.819397e-001  4.000000e+000
    endloop
  endfacet
  facet normal  0.000000e+000  1.000000e+000  0.000000e+000
    outer loop
      vertex  3.200000e+001  1.200000e+001  4.000000e+000
      vertex  4.500000e+001  1.200000e+001  4.000000e+000
      vertex  4.500000e+001  1.200000e+001  0.000000e+000
    endloop
  endfacet
  facet normal  -0.000000e+000  1.000000e+000  0.000000e+000
    outer loop
      vertex  1.500000e+001  1.200000e+001  6.000000e+000
      vertex  1.500000e+001  1.200000e+001  9.000000e+000
      vertex  1.574273e+001  1.200000e+001  1.225413e+001
    endloop
  endfacet
  facet normal  -0.000000e+000  1.000000e+000  0.000000e+000
    outer loop
      vertex  1.500000e+001  1.200000e+001  6.000000e+000
      vertex  1.574273e+001  1.200000e+001  1.225413e+001
      vertex  1.782383e+001  1.200000e+001  1.486374e+001
    endloop
  endfacet
  facet normal  -0.000000e+000  1.000000e+000  0.000000e+000
    outer loop
      vertex  1.500000e+001  1.200000e+001  6.000000e+000
      vertex  1.782383e+001  1.200000e+001  1.486374e+001
      vertex  2.083109e+001  1.200000e+001  1.631196e+001
    endloop
  endfacet
  facet normal  -0.000000e+000  1.000000e+000  0.000000e+000
    outer loop
      vertex  1.441421e+001  1.200000e+001  4.585786e+000
      vertex  1.500000e+001  1.200000e+001  6.000000e+000
      vertex  2.083109e+001  1.200000e+001  1.631196e+001
    endloop
  endfacet
  facet normal  -0.000000e+000  1.000000e+000  0.000000e+000
    outer loop
      vertex  1.441421e+001  1.200000e+001  4.585786e+000
      vertex  2.083109e+001  1.200000e+001  1.631196e+001
      vertex  2.416891e+001  1.200000e+001  1.631196e+001
    endloop
  endfacet
  facet normal  0.000000e+000  1.000000e+000  0.000000e+000
    outer loop
      vertex  1.441421e+001  1.200000e+001  4.585786e+000
      vertex  2.416891e+001  1.200000e+001  1.631196e+001
      vertex  2.717617e+001  1.200000e+001  1.486374e+001
    endloop
  endfacet
  facet normal  0.000000e+000  9.999999e-001  0.000000e+000
    outer loop
      vertex  1.441421e+001  1.200000e+001  4.585786e+000
      vertex  2.717617e+001  1.200000e+001  1.486374e+001
      vertex  2.925727e+001  1.200000e+001  1.225413e+001
    endloop
  endfacet
  facet normal  0.000000e+000  1.000000e+000  0.000000e+000
    outer loop
      vertex  1.441421e+001  1.200000e+001  4.585786e+000
      vertex  2.925727e+001  1.200000e+001  1.225413e+001
      vertex  3.000000e+001  1.200000e+001  9.000000e+000
    endloop
  endfacet
  facet normal  -0.000000e+000  1.000000e+000  0.000000e+000
    outer loop
      vertex  1.300000e+001  1.200000e+001  4.000000e+000
      vertex  1.441421e+001  1.200000e+001  4.585786e+000
      vertex  3.000000e+001  1.200000e+001  9.000000e+000
    endloop
  endfacet
  facet normal  0.000000e+000  1.000000e+000  0.000000e+000
    outer loop
      vertex  1.300000e+001  1.200000e+001  4.000000e+000
      vertex  3.000000e+001  1.200000e+001  9.000000e+000
      vertex  3.000000e+001  1.200000e+001  6.000000e+000
    endloop
  endfacet
  facet normal  0.000000e+000  1.000000e+000  0.000000e+000
    outer loop
      vertex  1.300000e+001  1.200000e+001  4.000000e+000
      vertex  3.000000e+001  1.200000e+001  6.000000e+000
      vertex  3.058579e+001  1.200000e+001  4.585786e+000
    endloop
  endfacet
  facet normal  0.000000e+000  1.000000e+000  0.000000e+000
    outer loop
      vertex  1.300000e+001  1.200000e+001  4.000000e+000
      vertex  3.058579e+001  1.200000e+001  4.585786e+000
      vertex  3.200000e+001  1.200000e+001  4.000000e+000
    endloop
  endfacet
  facet normal  0.000000e+000  1.000000e+000  0.000000e+000
    outer loop
      vertex  1.300000e+001  1.200000e+001  4.000000e+000
      vertex  3.200000e+001  1.200000e+001  4.000000e+000
      vertex  4.500000e+001  1.200000e+001  0.000000e+000
    endloop
  endfacet
  facet normal  0.000000e+000  1.000000e+000  0.000000e+000
    outer loop
      vertex  1.300000e+001  1.200000e+001  4.000000e+000
      vertex  4.500000e+001  1.200000e+001  0.000000e+000
      vertex  0.000000e+000  1.200000e+001  0.000000e+000
    endloop
  endfacet
  facet normal  0.000000e+000  1.000000e+000  0.000000e+000
    outer loop
      vertex  1.300000e+001  1.200000e+001  4.000000e+000
      vertex  0.000000e+000  1.200000e+001  0.000000e+000
      vertex  0.000000e+000  1.200000e+001  4.000000e+000
    endloop
  endfacet
  facet normal  9.238794e-001  -0.000000e+000  3.826836e-001
    outer loop
      vertex  3.000000e+001  1.200000e+001  6.000000e+000
      vertex  3.000000e+001 -1.600000e+001  6.000000e+000
      vertex  3.058579e+001  1.200000e+001  4.585786e+000
    endloop
  endfacet
  facet normal  9.238794e-001  0.000000e+000  3.826836e-001
    outer loop
      vertex  3.058579e+001  1.200000e+001  4.585786e+000
      vertex  3.000000e+001 -1.600000e+001  6.000000e+000
      vertex  3.058579e+001 -1.600000e+001  4.585786e+000
    endloop
  endfacet
  facet normal  3.826835e-001  -0.000000e+000  9.238795e-001
    outer loop
      vertex  3.058579e+001  1.200000e+001  4.585786e+000
      vertex  3.058579e+001 -1.600000e+001  4.585786e+000
      vertex  3.200000e+001  1.200000e+001  4.000000e+000
    endloop
  endfacet
  facet normal  3.826835e-001  0.000000e+000  9.238795e-001
    outer loop
      vertex  3.200000e+001  1.200000e+001  4.000000e+000
      vertex  3.058579e+001 -1.600000e+001  4.585786e+000
      vertex  3.200000e+001 -1.600000e+001  4.000000e+000
    endloop
  endfacet
  facet normal -1.000000e+000  0.000000e+000  0.000000e+000
    outer loop
      vertex  1.500000e+001 -1.600000e+001  6.000000e+000
      vertex  1.500000e+001 -1.600000e+001  9.000000e+000
      vertex  1.500000e+001  1.200000e+001  6.000000e+000
    endloop
  endfacet
  facet normal -1.000000e+000  0.000000e+000  0.000000e+000
    outer loop
      vertex  1.500000e+001  1.200000e+001  6.000000e+000
      vertex  1.500000e+001 -1.600000e+001  9.000000e+000
      vertex  1.500000e+001  1.200000e+001  9.000000e+000
    endloop
  endfacet
  facet normal  -0.000000e+000  0.000000e+000  1.000000e+000
    outer loop
      vertex  1.300000e+001  1.200000e+001  4.000000e+000
      vertex  0.000000e+000  1.200000e+001  4.000000e+000
      vertex  9.693956e+000  1.198564e+000  4.000000e+000
    endloop
  endfacet
  facet normal  -0.000000e+000  0.000000e+000  1.000000e+000
    outer loop
      vertex  1.300000e+001  1.200000e+001  4.000000e+000
      vertex  9.693956e+000  1.198564e+000  4.000000e+000
      vertex  9.898874e+000 -7.038488e-001  4.000000e+000
    endloop
  endfacet
  facet normal  -0.000000e+000  0.000000e+000  1.000000e+000
    outer loop
      vertex  1.300000e+001  1.200000e+001  4.000000e+000
      vertex  9.898874e+000 -7.038488e-001  4.000000e+000
      vertex  1.300000e+001 -1.600000e+001  4.000000e+000
    endloop
  endfacet
  facet normal  0.000000e+000  0.000000e+000  1.000000e+000
    outer loop
      vertex  0.000000e+000  1.200000e+001  4.000000e+000
      vertex  0.000000e+000 -1.600000e+001  4.000000e+000
      vertex  5.306044e+000 -1.198564e+000  4.000000e+000
    endloop
  endfacet
  facet normal  0.000000e+000  0.000000e+000  1.000000e+000
    outer loop
      vertex  0.000000e+000  1.200000e+001  4.000000e+000
      vertex  5.306044e+000 -1.198564e+000  4.000000e+000
      vertex  5.101126e+000  7.038488e-001  4.000000e+000
    endloop
  endfacet
  facet normal  0.000000e+000  -0.000000e+000  1.000000e+000
    outer loop
      vertex  0.000000e+000  1.200000e+001  4.000000e+000
      vertex  5.101126e+000  7.038488e-001  4.000000e+000
      vertex  6.301436e+000  2.193956e+000  4.000000e+000
    endloop
  endfacet
  facet normal  0.000000e+000  -0.000000e+000  1.000000e+000
    outer loop
      vertex  0.000000e+000  1.200000e+001  4.000000e+000
      vertex  6.301436e+000  2.193956e+000  4.000000e+000
      vertex  8.203849e+000  2.398874e+000  4.000000e+000
    endloop
  endfacet
  facet normal  -0.000000e+000  -0.000000e+000  1.000000e+000
    outer loop
      vertex  0.000000e+000  1.200000e+001  4.000000e+000
      vertex  8.203849e+000  2.398874e+000  4.000000e+000
      vertex  9.693956e+000  1.198564e+000  4.000000e+000
    endloop
  endfacet
  facet normal  0.000000e+000  0.000000e+000  1.000000e+000
    outer loop
      vertex  0.000000e+000 -1.600000e+001  4.000000e+000
      vertex  1.300000e+001 -1.600000e+001  4.000000e+000
      vertex  9.898874e+000 -7.038488e-001  4.000000e+000
    endloop
  endfacet
  facet normal  0.000000e+000  0.000000e+000  1.000000e+000
    outer loop
      vertex  0.000000e+000 -1.600000e+001  4.000000e+000
      vertex  9.898874e+000 -7.038488e-001  4.000000e+000
      vertex  8.698564e+000 -2.193956e+000  4.000000e+000
    endloop
  endfacet
  facet normal  0.000000e+000  0.000000e+000  1.000000e+000
    outer loop
      vertex  0.000000e+000 -1.600000e+001  4.000000e+000
      vertex  8.698564e+000 -2.193956e+000  4.000000e+000
      vertex  6.796151e+000 -2.398874e+000  4.000000e+000
    endloop
  endfacet
  facet normal  0.000000e+000  0.000000e+000  1.000000e+000
    outer loop
      vertex  0.000000e+000 -1.600000e+001  4.000000e+000
      vertex  6.796151e+000 -2.398874e+000  4.000000e+000
      vertex  5.306044e+000 -1.198564e+000  4.000000e+000
    endloop
  endfacet
  facet normal -9.238794e-001  0.000000e+000  3.826836e-001
    outer loop
      vertex  1.500000e+001 -1.600000e+001  6.000000e+000
      vertex  1.500000e+001  1.200000e+001  6.000000e+000
      vertex  1.441421e+001 -1.600000e+001  4.585786e+000
    endloop
  endfacet
  facet normal -9.238794e-001  0.000000e+000  3.826836e-001
    outer loop
      vertex  1.441421e+001 -1.600000e+001  4.585786e+000
      vertex  1.500000e+001  1.200000e+001  6.000000e+000
      vertex  1.441421e+001  1.200000e+001  4.585786e+000
    endloop
  endfacet
  facet normal -3.826835e-001  0.000000e+000  9.238795e-001
    outer loop
      vertex  1.441421e+001 -1.600000e+001  4.585786e+000
      vertex  1.441421e+001  1.200000e+001  4.585786e+000
      vertex  1.300000e+001 -1.600000e+001  4.000000e+000
    endloop
  endfacet
  facet normal -3.826835e-001  0.000000e+000  9.238795e-001
    outer loop
      vertex  1.300000e+001 -1.600000e+001  4.000000e+000
      vertex  1.441421e+001  1.200000e+001  4.585786e+000
      vertex  1.300000e+001  1.200000e+001  4.000000e+000
    endloop
  endfacet
  facet normal -9.749279e-001  0.000000e+000  2.225210e-001
    outer loop
      vertex  1.500000e+001  1.200000e+001  9.000000e+000
      vertex  1.500000e+001 -1.600000e+001  9.000000e+000
      vertex  1.574273e+001  1.200000e+001  1.225413e+001
    endloop
  endfacet
  facet normal -9.749279e-001  0.000000e+000  2.225210e-001
    outer loop
      vertex  1.574273e+001  1.200000e+001  1.225413e+001
      vertex  1.500000e+001 -1.600000e+001  9.000000e+000
      vertex  1.574273e+001 -1.600000e+001  1.225413e+001
    endloop
  endfacet
  facet normal -7.818316e-001  0.000000e+000  6.234897e-001
    outer loop
      vertex  1.574273e+001  1.200000e+001  1.225413e+001
      vertex  1.574273e+001 -1.600000e+001  1.225413e+001
      vertex  1.782383e+001  1.200000e+001  1.486374e+001
    endloop
  endfacet
  facet normal -7.818316e-001  0.000000e+000  6.234897e-001
    outer loop
      vertex  1.782383e+001  1.200000e+001  1.486374e+001
      vertex  1.574273e+001 -1.600000e+001  1.225413e+001
      vertex  1.782383e+001 -1.600000e+001  1.486374e+001
    endloop
  endfacet
  facet normal -4.338839e-001  0.000000e+000  9.009688e-001
    outer loop
      vertex  1.782383e+001  1.200000e+001  1.486374e+001
      vertex  1.782383e+001 -1.600000e+001  1.486374e+001
      vertex  2.083109e+001  1.200000e+001  1.631196e+001
    endloop
  endfacet
  facet normal -4.338839e-001  0.000000e+000  9.009688e-001
    outer loop
      vertex  2.083109e+001  1.200000e+001  1.631196e+001
      vertex  1.782383e+001 -1.600000e+001  1.486374e+001
      vertex  2.083109e+001 -1.600000e+001  1.631196e+001
    endloop
  endfacet
  facet normal  0.000000e+000  0.000000e+000  1.000000e+000
    outer loop
      vertex  2.083109e+001  1.200000e+001  1.631196e+001
      vertex  2.083109e+001 -1.600000e+001  1.631196e+001
      vertex  2.416891e+001  1.200000e+001  1.631196e+001
    endloop
  endfacet
  facet normal  0.000000e+000  0.000000e+000  1.000000e+000
    outer loop
      vertex  2.416891e+001  1.200000e+001  1.631196e+001
      vertex  2.083109e+001 -1.600000e+001  1.631196e+001
      vertex  2.416891e+001 -1.600000e+001  1.631196e+001
    endloop
  endfacet
  facet normal  4.338839e-001  -0.000000e+000  9.009688e-001
    outer loop
      vertex  2.416891e+001  1.200000e+001  1.631196e+001
      vertex  2.416891e+001 -1.600000e+001  1.631196e+001
      vertex  2.717617e+001  1.200000e+001  1.486374e+001
    endloop
  endfacet
  facet normal  4.338839e-001  0.000000e+000  9.009688e-001
    outer loop
      vertex  2.717617e+001  1.200000e+001  1.486374e+001
      vertex  2.416891e+001 -1.600000e+001  1.631196e+001
      vertex  2.717617e+001 -1.600000e+001  1.486374e+001
    endloop
  endfacet
  facet normal  7.818315e-001  -0.000000e+000  6.234899e-001
    outer loop
      vertex  2.717617e+001  1.200000e+001  1.486374e+001
      vertex  2.717617e+001 -1.600000e+001  1.486374e+001
      vertex  2.925727e+001  1.200000e+001  1.225413e+001
    endloop
  endfacet
  facet normal  7.818315e-001  0.000000e+000  6.234899e-001
    outer loop
      vertex  2.925727e+001  1.200000e+001  1.225413e+001
      vertex  2.717617e+001 -1.600000e+001  1.486374e+001
      vertex  2.925727e+001 -1.600000e+001  1.225413e+001
    endloop
  endfacet
  facet normal  9.749280e-001  -0.000000e+000  2.225208e-001
    outer loop
      vertex  2.925727e+001  1.200000e+001  1.225413e+001
      vertex  2.925727e+001 -1.600000e+001  1.225413e+001
      vertex  3.000000e+001  1.200000e+001  9.000000e+000
    endloop
  endfacet
  facet normal  9.749280e-001  0.000000e+000  2.225208e-001
    outer loop
      vertex  3.000000e+001  1.200000e+001  9.000000e+000
      vertex  2.925727e+001 -1.600000e+001  1.225413e+001
      vertex  3.000000e+001 -1.600000e+001  9.000000e+000
    endloop
  endfacet
  facet normal -3.529209e-017  2.555813e-017 -1.000000e+000
    outer loop
      vertex  4.500000e+001  1.200000e+001  0.000000e+000
      vertex  3.969396e+001  1.415188e+000 -8.326673e-017
      vertex  3.820385e+001  2.615498e+000  0.000000e+000
    endloop
  endfacet
  facet normal  0.000000e+000  0.000000e+000 -1.000000e+000
    outer loop
      vertex  4.500000e+001 -1.200000e+001  0.000000e+000
      vertex  0.000000e+000 -1.200000e+001  0.000000e+000
      vertex  3.869856e+001 -1.977332e+000  0.000000e+000
    endloop
  endfacet
  facet normal  0.000000e+000  0.000000e+000 -1.000000e+000
    outer loop
      vertex  4.500000e+001 -1.200000e+001  0.000000e+000
      vertex  3.869856e+001 -1.977332e+000  0.000000e+000
      vertex  3.989887e+001 -4.872247e-001  0.000000e+000
    endloop
  endfacet
  facet normal -1.305091e-016 -5.782651e-017 -9.999999e-001
    outer loop
      vertex  4.500000e+001 -1.200000e+001  0.000000e+000
      vertex  3.989887e+001 -4.872247e-001  0.000000e+000
      vertex  3.969396e+001  1.415188e+000 -8.326673e-017
    endloop
  endfacet
  facet normal  1.569281e-017  0.000000e+000 -1.000000e+000
    outer loop
      vertex  4.500000e+001 -1.200000e+001  0.000000e+000
      vertex  3.969396e+001  1.415188e+000 -8.326673e-017
      vertex  4.500000e+001  1.200000e+001  0.000000e+000
    endloop
  endfacet
  facet normal  0.000000e+000  0.000000e+000 -1.000000e+000
    outer loop
      vertex  0.000000e+000 -1.200000e+001  0.000000e+000
      vertex  0.000000e+000  1.200000e+001  0.000000e+000
      vertex  5.101126e+000  7.038488e-001  0.000000e+000
    endloop
  endfacet
  facet normal -8.594688e-017  3.451127e-017 -1.000000e+000
    outer loop
      vertex  0.000000e+000 -1.200000e+001  0.000000e+000
      vertex  5.101126e+000  7.038488e-001  0.000000e+000
      vertex  5.306044e+000 -1.198564e+000 -8.326673e-017
    endloop
  endfacet
  facet normal  3.558793e-017 -2.519089e-017 -1.000000e+000
    outer loop
      vertex  0.000000e+000 -1.200000e+001  0.000000e+000
      vertex  5.306044e+000 -1.198564e+000 -8.326673e-017
      vertex  6.796151e+000 -2.398874e+000  0.000000e+000
    endloop
  endfacet
  facet normal  0.000000e+000  -0.000000e+000 -1.000000e+000
    outer loop
      vertex  0.000000e+000 -1.200000e+001  0.000000e+000
      vertex  6.796151e+000 -2.398874e+000  0.000000e+000
      vertex  8.698564e+000 -2.193956e+000  0.000000e+000
    endloop
  endfacet
  facet normal -3.261225e-018  2.892907e-018 -1.000000e+000
    outer loop
      vertex  0.000000e+000 -1.200000e+001  0.000000e+000
      vertex  8.698564e+000 -2.193956e+000  0.000000e+000
      vertex  3.530604e+001 -9.819397e-001 -8.326673e-017
    endloop
  endfacet
  facet normal  1.390380e-017 -5.211032e-017 -1.000000e+000
    outer loop
      vertex  0.000000e+000 -1.200000e+001  0.000000e+000
      vertex  3.530604e+001 -9.819397e-001 -8.326673e-017
      vertex  3.679615e+001 -2.182250e+000  0.000000e+000
    endloop
  endfacet
  facet normal  0.000000e+000  -0.000000e+000 -1.000000e+000
    outer loop
      vertex  0.000000e+000 -1.200000e+001  0.000000e+000
      vertex  3.679615e+001 -2.182250e+000  0.000000e+000
      vertex  3.869856e+001 -1.977332e+000  0.000000e+000
    endloop
  endfacet
  facet normal  -0.000000e+000  0.000000e+000 -1.000000e+000
    outer loop
      vertex  0.000000e+000  1.200000e+001  0.000000e+000
      vertex  4.500000e+001  1.200000e+001  0.000000e+000
      vertex  3.820385e+001  2.615498e+000  0.000000e+000
    endloop
  endfacet
  facet normal  -0.000000e+000  0.000000e+000 -1.000000e+000
    outer loop
      vertex  0.000000e+000  1.200000e+001  0.000000e+000
      vertex  3.820385e+001  2.615498e+000  0.000000e+000
      vertex  3.630144e+001  2.410581e+000  0.000000e+000
    endloop
  endfacet
  facet normal  -0.000000e+000  0.000000e+000 -1.000000e+000
    outer loop
      vertex  0.000000e+000  1.200000e+001  0.000000e+000
      vertex  3.630144e+001  2.410581e+000  0.000000e+000
      vertex  3.510113e+001  9.204730e-001  0.000000e+000
    endloop
  endfacet
  facet normal  3.395018e-018  1.075578e-017 -1.000000e+000
    outer loop
      vertex  0.000000e+000  1.200000e+001  0.000000e+000
      vertex  3.510113e+001  9.204730e-001  0.000000e+000
      vertex  9.693956e+000  1.198564e+000 -8.326673e-017
    endloop
  endfacet
  facet normal -1.792681e-016 -1.531787e-016 -1.000000e+000
    outer loop
      vertex  0.000000e+000  1.200000e+001  0.000000e+000
      vertex  9.693956e+000  1.198564e+000 -8.326673e-017
      vertex  8.203849e+000  2.398874e+000  0.000000e+000
    endloop
  endfacet
  facet normal  -0.000000e+000  0.000000e+000 -1.000000e+000
    outer loop
      vertex  0.000000e+000  1.200000e+001  0.000000e+000
      vertex  8.203849e+000  2.398874e+000  0.000000e+000
      vertex  6.301436e+000  2.193956e+000  0.000000e+000
    endloop
  endfacet
  facet normal  -0.000000e+000  0.000000e+000 -1.000000e+000
    outer loop
      vertex  0.000000e+000  1.200000e+001  0.000000e+000
      vertex  6.301436e+000  2.193956e+000  0.000000e+000
      vertex  5.101126e+000  7.038488e-001  0.000000e+000
    endloop
  endfacet
  facet normal  2.801527e-018 -4.346725e-017 -1.000000e+000
    outer loop
      vertex  9.693956e+000  1.198564e+000 -8.326673e-017
      vertex  3.510113e+001  9.204730e-001  0.000000e+000
      vertex  9.898874e+000 -7.038488e-001  0.000000e+000
    endloop
  endfacet
  facet normal -2.801528e-018  4.346726e-017 -1.000000e+000
    outer loop
      vertex  9.898874e+000 -7.038488e-001  0.000000e+000
      vertex  3.510113e+001  9.204730e-001  0.000000e+000
      vertex  3.530604e+001 -9.819397e-001 -8.326673e-017
    endloop
  endfacet
  facet normal -3.248650e-018  2.616853e-018 -1.000000e+000
    outer loop
      vertex  9.898874e+000 -7.038488e-001  0.000000e+000
      vertex  3.530604e+001 -9.819397e-001 -8.326673e-017
      vertex  8.698564e+000 -2.193956e+000  0.000000e+000
    endloop
  endfacet
  facet normal  9.942487e-001  1.070952e-001  -0.000000e+000
    outer loop
      vertex  5.306044e+000 -1.198564e+000  4.000000e+000
      vertex  5.306044e+000 -1.198564e+000 -8.326673e-017
      vertex  5.101126e+000  7.038488e-001  4.000000e+000
    endloop
  endfacet
  facet normal  9.942487e-001  1.070952e-001  0.000000e+000
    outer loop
      vertex  5.101126e+000  7.038488e-001  4.000000e+000
      vertex  5.306044e+000 -1.198564e+000 -8.326673e-017
      vertex  5.101126e+000  7.038488e-001  0.000000e+000
    endloop
  endfacet
  facet normal  7.787676e-001 -6.273123e-001  0.000000e+000
    outer loop
      vertex  5.101126e+000  7.038488e-001  4.000000e+000
      vertex  5.101126e+000  7.038488e-001  0.000000e+000
      vertex  6.301436e+000  2.193956e+000  4.000000e+000
    endloop
  endfacet
  facet normal  7.787676e-001 -6.273123e-001  0.000000e+000
    outer loop
      vertex  6.301436e+000  2.193956e+000  4.000000e+000
      vertex  5.101126e+000  7.038488e-001  0.000000e+000
      vertex  6.301436e+000  2.193956e+000  0.000000e+000
    endloop
  endfacet
  facet normal  1.070951e-001 -9.942488e-001  0.000000e+000
    outer loop
      vertex  6.301436e+000  2.193956e+000  4.000000e+000
      vertex  6.301436e+000  2.193956e+000  0.000000e+000
      vertex  8.203849e+000  2.398874e+000  4.000000e+000
    endloop
  endfacet
  facet normal  1.070951e-001 -9.942488e-001  0.000000e+000
    outer loop
      vertex  8.203849e+000  2.398874e+000  4.000000e+000
      vertex  6.301436e+000  2.193956e+000  0.000000e+000
      vertex  8.203849e+000  2.398874e+000  0.000000e+000
    endloop
  endfacet
  facet normal -6.273123e-001 -7.787676e-001  0.000000e+000
    outer loop
      vertex  8.203849e+000  2.398874e+000  4.000000e+000
      vertex  8.203849e+000  2.398874e+000  0.000000e+000
      vertex  9.693956e+000  1.198564e+000  4.000000e+000
    endloop
  endfacet
  facet normal -6.273123e-001 -7.787676e-001  -0.000000e+000
    outer loop
      vertex  9.693956e+000  1.198564e+000  4.000000e+000
      vertex  8.203849e+000  2.398874e+000  0.000000e+000
      vertex  9.693956e+000  1.198564e+000 -8.326673e-017
    endloop
  endfacet
  facet normal -9.942487e-001 -1.070952e-001  0.000000e+000
    outer loop
      vertex  9.693956e+000  1.198564e+000  4.000000e+000
      vertex  9.693956e+000  1.198564e+000 -8.326673e-017
      vertex  9.898874e+000 -7.038488e-001  4.000000e+000
    endloop
  endfacet
  facet normal -9.942487e-001 -1.070952e-001  -0.000000e+000
    outer loop
      vertex  9.898874e+000 -7.038488e-001  4.000000e+000
      vertex  9.693956e+000  1.198564e+000 -8.326673e-017
      vertex  9.898874e+000 -7.038488e-001  0.000000e+000
    endloop
  endfacet
  facet normal -7.787676e-001  6.273125e-001  0.000000e+000
    outer loop
      vertex  9.898874e+000 -7.038488e-001  4.000000e+000
      vertex  9.898874e+000 -7.038488e-001  0.000000e+000
      vertex  8.698564e+000 -2.193956e+000  4.000000e+000
    endloop
  endfacet
  facet normal -7.787676e-001  6.273125e-001  0.000000e+000
    outer loop
      vertex  8.698564e+000 -2.193956e+000  4.000000e+000
      vertex  9.898874e+000 -7.038488e-001  0.000000e+000
      vertex  8.698564e+000 -2.193956e+000  0.000000e+000
    endloop
  endfacet
  facet normal -1.070952e-001  9.942488e-001  0.000000e+000
    outer loop
      vertex  8.698564e+000 -2.193956e+000  4.000000e+000
      vertex  8.698564e+000 -2.193956e+000  0.000000e+000
      vertex  6.796151e+000 -2.398874e+000  4.000000e+000
    endloop
  endfacet
  facet normal -1.070952e-001  9.942488e-001  0.000000e+000
    outer loop
      vertex  6.796151e+000 -2.398874e+000  4.000000e+000
      vertex  8.698564e+000 -2.193956e+000  0.000000e+000
      vertex  6.796151e+000 -2.398874e+000  0.000000e+000
    endloop
  endfacet
  facet normal  6.273123e-001  7.787676e-001  -0.000000e+000
    outer loop
      vertex  6.796151e+000 -2.398874e+000  4.000000e+000
      vertex  6.796151e+000 -2.398874e+000  0.000000e+000
      vertex  5.306044e+000 -1.198564e+000  4.000000e+000
    endloop
  endfacet
  facet normal  6.273123e-001  7.787676e-001  0.000000e+000
    outer loop
      vertex  5.306044e+000 -1.198564e+000  4.000000e+000
      vertex  6.796151e+000 -2.398874e+000  0.000000e+000
      vertex  5.306044e+000 -1.198564e+000 -8.326673e-017
    endloop
  endfacet
  facet normal  9.942490e-001  1.070933e-001  -0.000000e+000
    outer loop
      vertex  3.530604e+001 -9.819397e-001  4.000000e+000
      vertex  3.530604e+001 -9.819397e-001 -8.326673e-017
      vertex  3.510113e+001  9.204730e-001  4.000000e+000
    endloop
  endfacet
  facet normal  9.942490e-001  1.070933e-001  0.000000e+000
    outer loop
      vertex  3.510113e+001  9.204730e-001  4.000000e+000
      vertex  3.530604e+001 -9.819397e-001 -8.326673e-017
      vertex  3.510113e+001  9.204730e-001  0.000000e+000
    endloop
  endfacet
  facet normal  7.787679e-001 -6.273122e-001  0.000000e+000
    outer loop
      vertex  3.510113e+001  9.204730e-001  4.000000e+000
      vertex  3.510113e+001  9.204730e-001  0.000000e+000
      vertex  3.630144e+001  2.410581e+000  4.000000e+000
    endloop
  endfacet
  facet normal  7.787679e-001 -6.273122e-001  0.000000e+000
    outer loop
      vertex  3.630144e+001  2.410581e+000  4.000000e+000
      vertex  3.510113e+001  9.204730e-001  0.000000e+000
      vertex  3.630144e+001  2.410581e+000  0.000000e+000
    endloop
  endfacet
  facet normal  1.070952e-001 -9.942488e-001  0.000000e+000
    outer loop
      vertex  3.630144e+001  2.410581e+000  4.000000e+000
      vertex  3.630144e+001  2.410581e+000  0.000000e+000
      vertex  3.820385e+001  2.615498e+000  4.000000e+000
    endloop
  endfacet
  facet normal  1.070952e-001 -9.942488e-001  0.000000e+000
    outer loop
      vertex  3.820385e+001  2.615498e+000  4.000000e+000
      vertex  3.630144e+001  2.410581e+000  0.000000e+000
      vertex  3.820385e+001  2.615498e+000  0.000000e+000
    endloop
  endfacet
  facet normal -6.273122e-001 -7.787679e-001  0.000000e+000
    outer loop
      vertex  3.820385e+001  2.615498e+000  4.000000e+000
      vertex  3.820385e+001  2.615498e+000  0.000000e+000
      vertex  3.969396e+001  1.415188e+000  4.000000e+000
    endloop
  endfacet
  facet normal -6.273122e-001 -7.787679e-001  -0.000000e+000
    outer loop
      vertex  3.969396e+001  1.415188e+000  4.000000e+000
      vertex  3.820385e+001  2.615498e+000  0.000000e+000
      vertex  3.969396e+001  1.415188e+000 -8.326673e-017
    endloop
  endfacet
  facet normal -9.942490e-001 -1.070933e-001  0.000000e+000
    outer loop
      vertex  3.969396e+001  1.415188e+000  4.000000e+000
      vertex  3.969396e+001  1.415188e+000 -8.326673e-017
      vertex  3.989887e+001 -4.872247e-001  4.000000e+000
    endloop
  endfacet
  facet normal -9.942490e-001 -1.070933e-001  -0.000000e+000
    outer loop
      vertex  3.989887e+001 -4.872247e-001  4.000000e+000
      vertex  3.969396e+001  1.415188e+000 -8.326673e-017
      vertex  3.989887e+001 -4.872247e-001  0.000000e+000
    endloop
  endfacet
  facet normal -7.787678e-001  6.273122e-001  0.000000e+000
    outer loop
      vertex  3.989887e+001 -4.872247e-001  4.000000e+000
      vertex  3.989887e+001 -4.872247e-001  0.000000e+000
      vertex  3.869856e+001 -1.977332e+000  4.000000e+000
    endloop
  endfacet
  facet normal -7.787678e-001  6.273122e-001  0.000000e+000
    outer loop
      vertex  3.869856e+001 -1.977332e+000  4.000000e+000
      vertex  3.989887e+001 -4.872247e-001  0.000000e+000
      vertex  3.869856e+001 -1.977332e+000  0.000000e+000
    endloop
  endfacet
  facet normal -1.070952e-001  9.942488e-001  0.000000e+000
    outer loop
      vertex  3.869856e+001 -1.977332e+000  4.000000e+000
      vertex  3.869856e+001 -1.977332e+000  0.000000e+000
      vertex  3.679615e+001 -2.182250e+000  4.000000e+000
    endloop
  endfacet
  facet normal -1.070952e-001  9.942488e-001  0.000000e+000
    outer loop
      vertex  3.679615e+001 -2.182250e+000  4.000000e+000
      vertex  3.869856e+001 -1.977332e+000  0.000000e+000
      vertex  3.679615e+001 -2.182250e+000  0.000000e+000
    endloop
  endfacet
  facet normal  6.273122e-001  7.787679e-001  -0.000000e+000
    outer loop
      vertex  3.679615e+001 -2.182250e+000  4.000000e+000
      vertex  3.679615e+001 -2.182250e+000  0.000000e+000
      vertex  3.530604e+001 -9.819397e-001  4.000000e+000
    endloop
  endfacet
  facet normal  6.273122e-001  7.787679e-001  0.000000e+000
    outer loop
      vertex  3.530604e+001 -9.819397e-001  4.000000e+000
      vertex  3.679615e+001 -2.182250e+000  0.000000e+000
      vertex  3.530604e+001 -9.819397e-001 -8.326673e-017
    endloop
  endfacet
  facet normal  1.000000e+000  0.000000e+000  0.000000e+000
    outer loop
      vertex  4.500000e+001 -1.600000e+001 -1.000000e+001
      vertex  4.500000e+001 -1.200000e+001 -1.000000e+001
      vertex  4.500000e+001 -1.600000e+001  4.000000e+000
    endloop
  endfacet
  facet normal  1.000000e+000  0.000000e+000  0.000000e+000
    outer loop
      vertex  4.500000e+001 -1.600000e+001  4.000000e+000
      vertex  4.500000e+001 -1.200000e+001 -1.000000e+001
      vertex  4.500000e+001 -1.200000e+001  0.000000e+000
    endloop
  endfacet
  facet normal  1.000000e+000  0.000000e+000  -0.000000e+000
    outer loop
      vertex  4.500000e+001 -1.600000e+001  4.000000e+000
      vertex  4.500000e+001 -1.200000e+001  0.000000e+000
      vertex  4.500000e+001  1.200000e+001  4.000000e+000
    endloop
  endfacet
  facet normal  1.000000e+000  0.000000e+000  0.000000e+000
    outer loop
      vertex  4.500000e+001  1.200000e+001  4.000000e+000
      vertex  4.500000e+001 -1.200000e+001  0.000000e+000
      vertex  4.500000e+001  1.200000e+001  0.000000e+000
    endloop
  endfacet
  facet normal -1.000000e+000  0.000000e+000  0.000000e+000
    outer loop
      vertex  0.000000e+000 -1.200000e+001 -1.000000e+001
      vertex  0.000000e+000 -1.600000e+001 -1.000000e+001
      vertex  0.000000e+000 -1.200000e+001  0.000000e+000
    endloop
  endfacet
  facet normal -1.000000e+000  -0.000000e+000  0.000000e+000
    outer loop
      vertex  0.000000e+000 -1.200000e+001  0.000000e+000
      vertex  0.000000e+000 -1.600000e+001 -1.000000e+001
      vertex  0.000000e+000 -1.600000e+001  4.000000e+000
    endloop
  endfacet
  facet normal -1.000000e+000  0.000000e+000  0.000000e+000
    outer loop
      vertex  0.000000e+000 -1.200000e+001  0.000000e+000
      vertex  0.000000e+000 -1.600000e+001  4.000000e+000
      vertex  0.000000e+000  1.200000e+001  0.000000e+000
    endloop
  endfacet
  facet normal -1.000000e+000  0.000000e+000  0.000000e+000
    outer loop
      vertex  0.000000e+000  1.200000e+001  0.000000e+000
      vertex  0.000000e+000 -1.600000e+001  4.000000e+000
      vertex  0.000000e+000  1.200000e+001  4.000000e+000
    endloop
  endfacet
  facet normal  0.000000e+000  1.000000e+000  0.000000e+000
    outer loop
      vertex  0.000000e+000 -1.200000e+001 -1.000000e+001
      vertex  0.000000e+000 -1.200000e+001  0.000000e+000
      vertex  4.500000e+001 -1.200000e+001 -1.000000e+001
    endloop
  endfacet
  facet normal  0.000000e+000  1.000000e+000  -0.000000e+000
    outer loop
      vertex  4.500000e+001 -1.200000e+001 -1.000000e+001
      vertex  0.000000e+000 -1.200000e+001  0.000000e+000
      vertex  4.500000e+001 -1.200000e+001  0.000000e+000
    endloop
  endfacet
  facet normal  0.000000e+000  0.000000e+000 -1.000000e+000
    outer loop
      vertex  0.000000e+000 -1.600000e+001 -1.000000e+001
      vertex  0.000000e+000 -1.200000e+001 -1.000000e+001
      vertex  4.500000e+001 -1.600000e+001 -1.000000e+001
    endloop
  endfacet
  facet normal  0.000000e+000  0.000000e+000 -1.000000e+000
    outer loop
      vertex  4.500000e+001 -1.600000e+001 -1.000000e+001
      vertex  0.000000e+000 -1.200000e+001 -1.000000e+001
      vertex  4.500000e+001 -1.200000e+001 -1.000000e+001
    endloop
  endfacet
endsolid CATIA STL
