solid CATIA STL
  facet normal  0.000000e+000  0.000000e+000 -1.000000e+000
    outer loop
      vertex  8.260908e+000  4.568875e+000  0.000000e+000
      vertex  1.071272e+001  4.885226e+000  0.000000e+000
      vertex  5.000000e+000  8.881784e-016  0.000000e+000
    endloop
  endfacet
  facet normal  0.000000e+000  0.000000e+000 -9.999999e-001
    outer loop
      vertex -4.656577e-016  5.000000e+000  0.000000e+000
      vertex -4.656577e-016  1.200000e+001  0.000000e+000
      vertex  5.489670e+000  1.041770e+001  0.000000e+000
    endloop
  endfacet
  facet normal  0.000000e+000  0.000000e+000 -1.000000e+000
    outer loop
      vertex -4.656577e-016  5.000000e+000  0.000000e+000
      vertex  5.489670e+000  1.041770e+001  0.000000e+000
      vertex  5.032886e+000  7.988133e+000  0.000000e+000
    endloop
  endfacet
  facet normal  0.000000e+000  -0.000000e+000 -9.999999e-001
    outer loop
      vertex -4.656577e-016  5.000000e+000  0.000000e+000
      vertex  5.032886e+000  7.988133e+000  0.000000e+000
      vertex  6.091405e+000  5.754080e+000  0.000000e+000
    endloop
  endfacet
  facet normal  0.000000e+000  -0.000000e+000 -1.000000e+000
    outer loop
      vertex -4.656577e-016  5.000000e+000  0.000000e+000
      vertex  6.091405e+000  5.754080e+000  0.000000e+000
      vertex  8.260908e+000  4.568875e+000  0.000000e+000
    endloop
  endfacet
  facet normal  -0.000000e+000  0.000000e+000 -1.000000e+000
    outer loop
      vertex -4.656577e-016  5.000000e+000  0.000000e+000
      vertex  8.260908e+000  4.568875e+000  0.000000e+000
      vertex  5.000000e+000  8.881784e-016  0.000000e+000
    endloop
  endfacet
  facet normal  0.000000e+000  0.000000e+000 -1.000000e+000
    outer loop
      vertex  3.800000e+001  4.000000e+000  0.000000e+000
      vertex  3.400000e+001  8.014422e-016  0.000000e+000
      vertex  5.000000e+000  8.881784e-016  0.000000e+000
    endloop
  endfacet
  facet normal  0.000000e+000  0.000000e+000 -1.000000e+000
    outer loop
      vertex  3.800000e+001  4.000000e+000  0.000000e+000
      vertex  5.000000e+000  8.881784e-016  0.000000e+000
      vertex  1.071272e+001  4.885226e+000  0.000000e+000
    endloop
  endfacet
  facet normal  0.000000e+000  0.000000e+000 -1.000000e+000
    outer loop
      vertex  3.800000e+001  4.000000e+000  0.000000e+000
      vertex  1.071272e+001  4.885226e+000  0.000000e+000
      vertex  1.251033e+001  6.582298e+000  0.000000e+000
    endloop
  endfacet
  facet normal  0.000000e+000  0.000000e+000 -9.999999e-001
    outer loop
      vertex  3.800000e+001  4.000000e+000  0.000000e+000
      vertex  1.251033e+001  6.582298e+000  0.000000e+000
      vertex  1.296711e+001  9.011867e+000  0.000000e+000
    endloop
  endfacet
  facet normal  0.000000e+000  0.000000e+000 -1.000000e+000
    outer loop
      vertex  3.800000e+001  4.000000e+000  0.000000e+000
      vertex  1.296711e+001  9.011867e+000  0.000000e+000
      vertex  1.190860e+001  1.124592e+001  0.000000e+000
    endloop
  endfacet
  facet normal  0.000000e+000  0.000000e+000 -1.000000e+000
    outer loop
      vertex  3.800000e+001  4.000000e+000  0.000000e+000
      vertex  1.190860e+001  1.124592e+001  0.000000e+000
      vertex  9.739092e+000  1.243112e+001  0.000000e+000
    endloop
  endfacet
  facet normal  0.000000e+000  0.000000e+000 -9.999999e-001
    outer loop
      vertex  3.800000e+001  4.000000e+000  0.000000e+000
      vertex  9.739092e+000  1.243112e+001  0.000000e+000
      vertex  3.000000e+000  1.500000e+001  0.000000e+000
    endloop
  endfacet
  facet normal  0.000000e+000  0.000000e+000 -1.000000e+000
    outer loop
      vertex  3.800000e+001  4.000000e+000  0.000000e+000
      vertex  3.000000e+000  1.500000e+001  0.000000e+000
      vertex  3.000000e+001  1.500000e+001  0.000000e+000
    endloop
  endfacet
  facet normal  0.000000e+000  0.000000e+000 -1.000000e+000
    outer loop
      vertex  3.800000e+001  4.000000e+000  0.000000e+000
      vertex  3.000000e+001  1.500000e+001  0.000000e+000
      vertex  3.000000e+001  6.100000e+001  0.000000e+000
    endloop
  endfacet
  facet normal  0.000000e+000  0.000000e+000 -1.000000e+000
    outer loop
      vertex  3.800000e+001  4.000000e+000  0.000000e+000
      vertex  3.000000e+001  6.100000e+001  0.000000e+000
      vertex  3.400000e+001  6.500000e+001  0.000000e+000
    endloop
  endfacet
  facet normal  0.000000e+000  0.000000e+000 -9.999999e-001
    outer loop
      vertex  3.800000e+001  4.000000e+000  0.000000e+000
      vertex  3.400000e+001  6.500000e+001  0.000000e+000
      vertex  3.800000e+001  6.500000e+001  0.000000e+000
    endloop
  endfacet
  facet normal  -0.000000e+000  0.000000e+000 -9.999999e-001
    outer loop
      vertex  3.000000e+000  1.500000e+001  0.000000e+000
      vertex  9.739092e+000  1.243112e+001  0.000000e+000
      vertex -4.656577e-016  1.200000e+001  0.000000e+000
    endloop
  endfacet
  facet normal  0.000000e+000  0.000000e+000 -1.000000e+000
    outer loop
      vertex -4.656577e-016  1.200000e+001  0.000000e+000
      vertex  9.739092e+000  1.243112e+001  0.000000e+000
      vertex  7.287280e+000  1.211477e+001  0.000000e+000
    endloop
  endfacet
  facet normal  0.000000e+000  0.000000e+000 -1.000000e+000
    outer loop
      vertex -4.656577e-016  1.200000e+001  0.000000e+000
      vertex  7.287280e+000  1.211477e+001  0.000000e+000
      vertex  5.489670e+000  1.041770e+001  0.000000e+000
    endloop
  endfacet
  facet normal  0.000000e+000  0.000000e+000  9.999999e-001
    outer loop
      vertex  3.800000e+001  4.000000e+000  1.600000e+001
      vertex  3.800000e+001  6.500000e+001  1.600000e+001
      vertex  3.400000e+001  6.500000e+001  1.600000e+001
    endloop
  endfacet
  facet normal  0.000000e+000  0.000000e+000  1.000000e+000
    outer loop
      vertex  3.800000e+001  4.000000e+000  1.600000e+001
      vertex  3.400000e+001  6.500000e+001  1.600000e+001
      vertex  3.400000e+001  6.125000e+001  1.600000e+001
    endloop
  endfacet
  facet normal  0.000000e+000  0.000000e+000  1.000000e+000
    outer loop
      vertex  3.800000e+001  4.000000e+000  1.600000e+001
      vertex  3.400000e+001  6.125000e+001  1.600000e+001
      vertex  3.400000e+001  5.425000e+001  1.600000e+001
    endloop
  endfacet
  facet normal  0.000000e+000  0.000000e+000  1.000000e+000
    outer loop
      vertex  3.800000e+001  4.000000e+000  1.600000e+001
      vertex  3.400000e+001  5.425000e+001  1.600000e+001
      vertex  3.400000e+001  3.625000e+001  1.600000e+001
    endloop
  endfacet
  facet normal  0.000000e+000  0.000000e+000  1.000000e+000
    outer loop
      vertex  3.800000e+001  4.000000e+000  1.600000e+001
      vertex  3.400000e+001  3.625000e+001  1.600000e+001
      vertex  3.400000e+001  2.925000e+001  1.600000e+001
    endloop
  endfacet
  facet normal  0.000000e+000  0.000000e+000  1.000000e+000
    outer loop
      vertex  3.800000e+001  4.000000e+000  1.600000e+001
      vertex  3.400000e+001  2.925000e+001  1.600000e+001
      vertex  3.400000e+001  8.014422e-016  1.600000e+001
    endloop
  endfacet
  facet normal  0.000000e+000 -1.000000e+000  0.000000e+000
    outer loop
      vertex  3.400000e+001  8.014422e-016  1.600000e+001
      vertex  3.000000e+001  8.014422e-016  1.200000e+001
      vertex  3.400000e+001  8.014422e-016  0.000000e+000
    endloop
  endfacet
  facet normal  0.000000e+000 -1.000000e+000  0.000000e+000
    outer loop
      vertex  3.000000e+001  8.014422e-016  1.200000e+001
      vertex  1.463496e+001  8.014422e-016  1.200000e+001
      vertex  3.400000e+001  8.014422e-016  0.000000e+000
    endloop
  endfacet
  facet normal  0.000000e+000 -1.000000e+000  0.000000e+000
    outer loop
      vertex  3.400000e+001  8.014422e-016  0.000000e+000
      vertex  1.463496e+001  8.014422e-016  1.200000e+001
      vertex  1.063496e+001  8.014422e-016  8.000000e+000
    endloop
  endfacet
  facet normal -2.990902e-018 -1.000000e+000 -8.735319e-018
    outer loop
      vertex  3.400000e+001  8.014422e-016  0.000000e+000
      vertex  1.063496e+001  8.014422e-016  8.000000e+000
      vertex  5.000000e+000  8.881784e-016  0.000000e+000
    endloop
  endfacet
  facet normal  0.000000e+000 -1.000000e+000 -1.084202e-017
    outer loop
      vertex  5.000000e+000  8.881784e-016  0.000000e+000
      vertex  1.063496e+001  8.014422e-016  8.000000e+000
      vertex  5.000000e+000  8.014422e-016  8.000000e+000
    endloop
  endfacet
  facet normal  9.999999e-001  0.000000e+000  0.000000e+000
    outer loop
      vertex  3.800000e+001  6.500000e+001  0.000000e+000
      vertex  3.800000e+001  6.014887e+001  8.796151e+000
      vertex  3.800000e+001  5.894856e+001  7.306044e+000
    endloop
  endfacet
  facet normal  1.000000e+000  0.000000e+000  0.000000e+000
    outer loop
      vertex  3.800000e+001  6.500000e+001  0.000000e+000
      vertex  3.800000e+001  5.894856e+001  7.306044e+000
      vertex  3.800000e+001  4.000000e+000  0.000000e+000
    endloop
  endfacet
  facet normal  9.999999e-001  0.000000e+000  0.000000e+000
    outer loop
      vertex  3.800000e+001  3.494396e+001  1.069856e+001
      vertex  3.800000e+001  5.535113e+001  1.020385e+001
      vertex  3.800000e+001  3.345385e+001  1.189887e+001
    endloop
  endfacet
  facet normal  1.000000e+000  0.000000e+000  0.000000e+000
    outer loop
      vertex  3.800000e+001  4.000000e+000  0.000000e+000
      vertex  3.800000e+001  5.894856e+001  7.306044e+000
      vertex  3.800000e+001  5.704615e+001  7.101126e+000
    endloop
  endfacet
  facet normal  9.999999e-001  0.000000e+000  0.000000e+000
    outer loop
      vertex  3.800000e+001  4.000000e+000  0.000000e+000
      vertex  3.800000e+001  5.704615e+001  7.101126e+000
      vertex  3.800000e+001  5.555604e+001  8.301436e+000
    endloop
  endfacet
  facet normal  1.000000e+000  0.000000e+000  0.000000e+000
    outer loop
      vertex  3.800000e+001  4.000000e+000  0.000000e+000
      vertex  3.800000e+001  5.555604e+001  8.301436e+000
      vertex  3.800000e+001  3.394856e+001  7.306044e+000
    endloop
  endfacet
  facet normal  9.999999e-001  0.000000e+000  0.000000e+000
    outer loop
      vertex  3.800000e+001  4.000000e+000  0.000000e+000
      vertex  3.800000e+001  3.394856e+001  7.306044e+000
      vertex  3.800000e+001  3.204615e+001  7.101126e+000
    endloop
  endfacet
  facet normal  1.000000e+000  0.000000e+000  0.000000e+000
    outer loop
      vertex  3.800000e+001  4.000000e+000  0.000000e+000
      vertex  3.800000e+001  3.204615e+001  7.101126e+000
      vertex  3.800000e+001  3.055604e+001  8.301436e+000
    endloop
  endfacet
  facet normal  9.999999e-001  0.000000e+000  0.000000e+000
    outer loop
      vertex  3.800000e+001  4.000000e+000  0.000000e+000
      vertex  3.800000e+001  3.055604e+001  8.301436e+000
      vertex  3.800000e+001  3.035113e+001  1.020385e+001
    endloop
  endfacet
  facet normal  1.000000e+000  0.000000e+000  0.000000e+000
    outer loop
      vertex  3.800000e+001  4.000000e+000  1.600000e+001
      vertex  3.800000e+001  4.000000e+000  0.000000e+000
      vertex  3.800000e+001  3.035113e+001  1.020385e+001
    endloop
  endfacet
  facet normal  9.999999e-001  0.000000e+000  -0.000000e+000
    outer loop
      vertex  3.800000e+001  4.000000e+000  1.600000e+001
      vertex  3.800000e+001  3.035113e+001  1.020385e+001
      vertex  3.800000e+001  3.155144e+001  1.169396e+001
    endloop
  endfacet
  facet normal  9.999999e-001  0.000000e+000  -0.000000e+000
    outer loop
      vertex  3.800000e+001  4.000000e+000  1.600000e+001
      vertex  3.800000e+001  3.155144e+001  1.169396e+001
      vertex  3.800000e+001  3.345385e+001  1.189887e+001
    endloop
  endfacet
  facet normal  1.000000e+000  -0.000000e+000  -0.000000e+000
    outer loop
      vertex  3.800000e+001  4.000000e+000  1.600000e+001
      vertex  3.800000e+001  3.345385e+001  1.189887e+001
      vertex  3.800000e+001  5.535113e+001  1.020385e+001
    endloop
  endfacet
  facet normal  1.000000e+000  0.000000e+000  -0.000000e+000
    outer loop
      vertex  3.800000e+001  4.000000e+000  1.600000e+001
      vertex  3.800000e+001  5.535113e+001  1.020385e+001
      vertex  3.800000e+001  5.655144e+001  1.169396e+001
    endloop
  endfacet
  facet normal  1.000000e+000  0.000000e+000  -0.000000e+000
    outer loop
      vertex  3.800000e+001  4.000000e+000  1.600000e+001
      vertex  3.800000e+001  5.655144e+001  1.169396e+001
      vertex  3.800000e+001  5.845385e+001  1.189887e+001
    endloop
  endfacet
  facet normal  1.000000e+000  -0.000000e+000  0.000000e+000
    outer loop
      vertex  3.800000e+001  6.500000e+001  1.600000e+001
      vertex  3.800000e+001  4.000000e+000  1.600000e+001
      vertex  3.800000e+001  5.845385e+001  1.189887e+001
    endloop
  endfacet
  facet normal  1.000000e+000  -0.000000e+000  0.000000e+000
    outer loop
      vertex  3.800000e+001  6.500000e+001  1.600000e+001
      vertex  3.800000e+001  5.845385e+001  1.189887e+001
      vertex  3.800000e+001  5.994396e+001  1.069856e+001
    endloop
  endfacet
  facet normal  1.000000e+000  -0.000000e+000  0.000000e+000
    outer loop
      vertex  3.800000e+001  6.500000e+001  1.600000e+001
      vertex  3.800000e+001  5.994396e+001  1.069856e+001
      vertex  3.800000e+001  6.014887e+001  8.796151e+000
    endloop
  endfacet
  facet normal  1.000000e+000  -0.000000e+000  0.000000e+000
    outer loop
      vertex  3.800000e+001  6.500000e+001  1.600000e+001
      vertex  3.800000e+001  6.014887e+001  8.796151e+000
      vertex  3.800000e+001  6.500000e+001  0.000000e+000
    endloop
  endfacet
  facet normal  1.000000e+000  0.000000e+000  0.000000e+000
    outer loop
      vertex  3.800000e+001  3.394856e+001  7.306044e+000
      vertex  3.800000e+001  5.555604e+001  8.301436e+000
      vertex  3.800000e+001  3.514887e+001  8.796151e+000
    endloop
  endfacet
  facet normal  1.000000e+000  -0.000000e+000  0.000000e+000
    outer loop
      vertex  3.800000e+001  3.514887e+001  8.796151e+000
      vertex  3.800000e+001  5.555604e+001  8.301436e+000
      vertex  3.800000e+001  5.535113e+001  1.020385e+001
    endloop
  endfacet
  facet normal  1.000000e+000  0.000000e+000  0.000000e+000
    outer loop
      vertex  3.800000e+001  3.514887e+001  8.796151e+000
      vertex  3.800000e+001  5.535113e+001  1.020385e+001
      vertex  3.800000e+001  3.494396e+001  1.069856e+001
    endloop
  endfacet
  facet normal -7.071068e-001  0.000000e+000  7.071068e-001
    outer loop
      vertex  3.400000e+001  2.925000e+001  1.600000e+001
      vertex  3.000000e+001  2.925000e+001  1.200000e+001
      vertex  3.000000e+001  1.500000e+001  1.200000e+001
    endloop
  endfacet
  facet normal -7.071068e-001  0.000000e+000  7.071068e-001
    outer loop
      vertex  3.400000e+001  2.925000e+001  1.600000e+001
      vertex  3.000000e+001  1.500000e+001  1.200000e+001
      vertex  3.000000e+001  1.200000e+001  1.200000e+001
    endloop
  endfacet
  facet normal -7.071068e-001  0.000000e+000  7.071068e-001
    outer loop
      vertex  3.400000e+001  2.925000e+001  1.600000e+001
      vertex  3.000000e+001  1.200000e+001  1.200000e+001
      vertex  3.000000e+001  5.000000e+000  1.200000e+001
    endloop
  endfacet
  facet normal -7.071068e-001  0.000000e+000  7.071068e-001
    outer loop
      vertex  3.400000e+001  2.925000e+001  1.600000e+001
      vertex  3.000000e+001  5.000000e+000  1.200000e+001
      vertex  3.000000e+001  8.014422e-016  1.200000e+001
    endloop
  endfacet
  facet normal -7.071068e-001  0.000000e+000  7.071068e-001
    outer loop
      vertex  3.400000e+001  2.925000e+001  1.600000e+001
      vertex  3.000000e+001  8.014422e-016  1.200000e+001
      vertex  3.400000e+001  8.014422e-016  1.600000e+001
    endloop
  endfacet
  facet normal  7.071068e-001 -7.071068e-001  0.000000e+000
    outer loop
      vertex  3.800000e+001  4.000000e+000  1.600000e+001
      vertex  3.400000e+001  8.014422e-016  1.600000e+001
      vertex  3.800000e+001  4.000000e+000  0.000000e+000
    endloop
  endfacet
  facet normal  7.071068e-001 -7.071068e-001  0.000000e+000
    outer loop
      vertex  3.800000e+001  4.000000e+000  0.000000e+000
      vertex  3.400000e+001  8.014422e-016  1.600000e+001
      vertex  3.400000e+001  8.014422e-016  0.000000e+000
    endloop
  endfacet
  facet normal -7.071068e-001  0.000000e+000  7.071068e-001
    outer loop
      vertex  3.025000e+001  6.125000e+001  1.225000e+001
      vertex  3.400000e+001  6.125000e+001  1.600000e+001
      vertex  3.400000e+001  6.500000e+001  1.600000e+001
    endloop
  endfacet
  facet normal -1.000000e+000  0.000000e+000  0.000000e+000
    outer loop
      vertex  3.000000e+001  3.625000e+001  9.500000e+000
      vertex  3.000000e+001  3.625000e+001  1.200000e+001
      vertex  3.000000e+001  5.425000e+001  1.200000e+001
    endloop
  endfacet
  facet normal -1.000000e+000  0.000000e+000  -0.000000e+000
    outer loop
      vertex  3.000000e+001  3.558156e+001  7.442751e+000
      vertex  3.000000e+001  3.625000e+001  9.500000e+000
      vertex  3.000000e+001  5.425000e+001  1.200000e+001
    endloop
  endfacet
  facet normal -1.000000e+000  0.000000e+000  0.000000e+000
    outer loop
      vertex  3.000000e+001  6.100000e+001  0.000000e+000
      vertex  3.000000e+001  1.500000e+001  0.000000e+000
      vertex  3.000000e+001  3.166844e+001  6.171302e+000
    endloop
  endfacet
  facet normal -1.000000e+000  0.000000e+000  0.000000e+000
    outer loop
      vertex  3.000000e+001  6.100000e+001  0.000000e+000
      vertex  3.000000e+001  3.166844e+001  6.171302e+000
      vertex  3.000000e+001  3.383156e+001  6.171302e+000
    endloop
  endfacet
  facet normal -1.000000e+000  0.000000e+000  0.000000e+000
    outer loop
      vertex  3.000000e+001  6.100000e+001  0.000000e+000
      vertex  3.000000e+001  3.383156e+001  6.171302e+000
      vertex  3.000000e+001  5.805066e+001  6.012938e+000
    endloop
  endfacet
  facet normal -1.000000e+000  0.000000e+000  0.000000e+000
    outer loop
      vertex  3.000000e+001  6.100000e+001  0.000000e+000
      vertex  3.000000e+001  5.805066e+001  6.012938e+000
      vertex  3.000000e+001  5.983534e+001  6.689067e+000
    endloop
  endfacet
  facet normal -1.000000e+000  0.000000e+000  0.000000e+000
    outer loop
      vertex  3.000000e+001  6.100000e+001  0.000000e+000
      vertex  3.000000e+001  5.983534e+001  6.689067e+000
      vertex  3.000000e+001  6.100000e+001  8.200962e+000
    endloop
  endfacet
  facet normal -1.000000e+000  0.000000e+000  -0.000000e+000
    outer loop
      vertex  3.000000e+001  3.383156e+001  6.171302e+000
      vertex  3.000000e+001  3.558156e+001  7.442751e+000
      vertex  3.000000e+001  5.425000e+001  1.200000e+001
    endloop
  endfacet
  facet normal -1.000000e+000  0.000000e+000  -0.000000e+000
    outer loop
      vertex  3.000000e+001  3.383156e+001  6.171302e+000
      vertex  3.000000e+001  5.425000e+001  1.200000e+001
      vertex  3.000000e+001  5.425000e+001  9.500000e+000
    endloop
  endfacet
  facet normal -1.000000e+000  0.000000e+000  -0.000000e+000
    outer loop
      vertex  3.000000e+001  3.383156e+001  6.171302e+000
      vertex  3.000000e+001  5.425000e+001  9.500000e+000
      vertex  3.000000e+001  5.477032e+001  7.663831e+000
    endloop
  endfacet
  facet normal -1.000000e+000  0.000000e+000  -0.000000e+000
    outer loop
      vertex  3.000000e+001  3.383156e+001  6.171302e+000
      vertex  3.000000e+001  5.477032e+001  7.663831e+000
      vertex  3.000000e+001  5.617658e+001  6.373604e+000
    endloop
  endfacet
  facet normal -1.000000e+000  0.000000e+000  -0.000000e+000
    outer loop
      vertex  3.000000e+001  3.383156e+001  6.171302e+000
      vertex  3.000000e+001  5.617658e+001  6.373604e+000
      vertex  3.000000e+001  5.805066e+001  6.012938e+000
    endloop
  endfacet
  facet normal -1.000000e+000  0.000000e+000  0.000000e+000
    outer loop
      vertex  3.000000e+001  1.500000e+001  0.000000e+000
      vertex  3.000000e+001  1.500000e+001  1.200000e+001
      vertex  3.000000e+001  2.925000e+001  1.200000e+001
    endloop
  endfacet
  facet normal -1.000000e+000  0.000000e+000  -0.000000e+000
    outer loop
      vertex  3.000000e+001  1.500000e+001  0.000000e+000
      vertex  3.000000e+001  2.925000e+001  1.200000e+001
      vertex  3.000000e+001  2.925000e+001  9.500000e+000
    endloop
  endfacet
  facet normal -1.000000e+000  0.000000e+000  -0.000000e+000
    outer loop
      vertex  3.000000e+001  1.500000e+001  0.000000e+000
      vertex  3.000000e+001  2.925000e+001  9.500000e+000
      vertex  3.000000e+001  2.991844e+001  7.442751e+000
    endloop
  endfacet
  facet normal -9.999999e-001  0.000000e+000  -0.000000e+000
    outer loop
      vertex  3.000000e+001  1.500000e+001  0.000000e+000
      vertex  3.000000e+001  2.991844e+001  7.442751e+000
      vertex  3.000000e+001  3.166844e+001  6.171302e+000
    endloop
  endfacet
  facet normal  0.000000e+000  1.000000e+000  0.000000e+000
    outer loop
      vertex  3.800000e+001  6.500000e+001  0.000000e+000
      vertex  3.400000e+001  6.500000e+001  0.000000e+000
      vertex  3.800000e+001  6.500000e+001  1.600000e+001
    endloop
  endfacet
  facet normal  0.000000e+000  1.000000e+000  0.000000e+000
    outer loop
      vertex  3.800000e+001  6.500000e+001  1.600000e+001
      vertex  3.400000e+001  6.500000e+001  0.000000e+000
      vertex  3.400000e+001  6.500000e+001  1.600000e+001
    endloop
  endfacet
  facet normal  0.000000e+000 -9.999999e-001  0.000000e+000
    outer loop
      vertex  3.025000e+001  6.125000e+001  1.225000e+001
      vertex  3.025000e+001  6.125000e+001  9.500000e+000
      vertex  3.400000e+001  6.125000e+001  1.600000e+001
    endloop
  endfacet
  facet normal  0.000000e+000 -1.000000e+000  -0.000000e+000
    outer loop
      vertex  3.400000e+001  6.125000e+001  1.600000e+001
      vertex  3.025000e+001  6.125000e+001  9.500000e+000
      vertex  3.400000e+001  6.125000e+001  9.500000e+000
    endloop
  endfacet
  facet normal -3.134507e-002  5.874963e-001  8.086196e-001
    outer loop
      vertex  3.400000e+001  5.666844e+001  6.171302e+000
      vertex  3.000000e+001  5.617658e+001  6.373604e+000
      vertex  3.400000e+001  5.491844e+001  7.442751e+000
    endloop
  endfacet
  facet normal  2.641672e-002  1.889165e-001  9.816378e-001
    outer loop
      vertex  3.000000e+001  5.805066e+001  6.012938e+000
      vertex  3.000000e+001  5.617658e+001  6.373604e+000
      vertex  3.400000e+001  5.666844e+001  6.171302e+000
    endloop
  endfacet
  facet normal -3.956020e-002  0.000000e+000  9.992172e-001
    outer loop
      vertex  3.400000e+001  5.883156e+001  6.171302e+000
      vertex  3.000000e+001  5.805066e+001  6.012938e+000
      vertex  3.400000e+001  5.666844e+001  6.171302e+000
    endloop
  endfacet
  facet normal  3.212416e-002 -3.540962e-001  9.346571e-001
    outer loop
      vertex  3.000000e+001  5.983534e+001  6.689067e+000
      vertex  3.000000e+001  5.805066e+001  6.012938e+000
      vertex  3.400000e+001  5.883156e+001  6.171302e+000
    endloop
  endfacet
  facet normal -4.274307e-002 -5.872480e-001  8.082777e-001
    outer loop
      vertex  3.400000e+001  6.058156e+001  7.442751e+000
      vertex  3.000000e+001  5.983534e+001  6.689067e+000
      vertex  3.400000e+001  5.883156e+001  6.171302e+000
    endloop
  endfacet
  facet normal  0.000000e+000  9.621166e-001  2.726380e-001
    outer loop
      vertex  3.000000e+001  5.425000e+001  9.500000e+000
      vertex  3.400000e+001  5.425000e+001  9.500000e+000
      vertex  3.000000e+001  5.477032e+001  7.663831e+000
    endloop
  endfacet
  facet normal -1.813546e-002  9.509000e-001  3.089667e-001
    outer loop
      vertex  3.000000e+001  5.477032e+001  7.663831e+000
      vertex  3.400000e+001  5.425000e+001  9.500000e+000
      vertex  3.400000e+001  5.491844e+001  7.442751e+000
    endloop
  endfacet
  facet normal  1.568950e-002  6.759698e-001  7.367621e-001
    outer loop
      vertex  3.000000e+001  5.477032e+001  7.663831e+000
      vertex  3.400000e+001  5.491844e+001  7.442751e+000
      vertex  3.000000e+001  5.617658e+001  6.373604e+000
    endloop
  endfacet
  facet normal  0.000000e+000 -9.510564e-001  3.090175e-001
    outer loop
      vertex  3.400000e+001  6.125000e+001  9.500000e+000
      vertex  3.025000e+001  6.125000e+001  9.500000e+000
      vertex  3.400000e+001  6.058156e+001  7.442751e+000
    endloop
  endfacet
  facet normal -6.425959e-002 -9.775834e-001  2.005028e-001
    outer loop
      vertex  3.400000e+001  6.058156e+001  7.442751e+000
      vertex  3.025000e+001  6.125000e+001  9.500000e+000
      vertex  3.000000e+001  6.100000e+001  8.200962e+000
    endloop
  endfacet
  facet normal  3.278561e-002 -7.917772e-001  6.099296e-001
    outer loop
      vertex  3.400000e+001  6.058156e+001  7.442751e+000
      vertex  3.000000e+001  6.100000e+001  8.200962e+000
      vertex  3.000000e+001  5.983534e+001  6.689067e+000
    endloop
  endfacet
  facet normal -7.071068e-001  7.071068e-001  0.000000e+000
    outer loop
      vertex  3.025000e+001  6.125000e+001  9.500000e+000
      vertex  3.025000e+001  6.125000e+001  1.225000e+001
      vertex  3.400000e+001  6.500000e+001  1.600000e+001
    endloop
  endfacet
  facet normal -7.071068e-001  7.071068e-001  0.000000e+000
    outer loop
      vertex  3.400000e+001  6.500000e+001  0.000000e+000
      vertex  3.000000e+001  6.100000e+001  0.000000e+000
      vertex  3.400000e+001  6.500000e+001  1.600000e+001
    endloop
  endfacet
  facet normal -7.071068e-001  7.071068e-001  0.000000e+000
    outer loop
      vertex  3.400000e+001  6.500000e+001  1.600000e+001
      vertex  3.000000e+001  6.100000e+001  0.000000e+000
      vertex  3.000000e+001  6.100000e+001  8.200962e+000
    endloop
  endfacet
  facet normal -7.071068e-001  7.071068e-001  0.000000e+000
    outer loop
      vertex  3.400000e+001  6.500000e+001  1.600000e+001
      vertex  3.000000e+001  6.100000e+001  8.200962e+000
      vertex  3.025000e+001  6.125000e+001  9.500000e+000
    endloop
  endfacet
  facet normal  0.000000e+000 -1.000000e+000  0.000000e+000
    outer loop
      vertex  3.000000e+001  3.625000e+001  1.200000e+001
      vertex  3.000000e+001  3.625000e+001  9.500000e+000
      vertex  3.400000e+001  3.625000e+001  1.600000e+001
    endloop
  endfacet
  facet normal  0.000000e+000 -1.000000e+000  -0.000000e+000
    outer loop
      vertex  3.400000e+001  3.625000e+001  1.600000e+001
      vertex  3.000000e+001  3.625000e+001  9.500000e+000
      vertex  3.400000e+001  3.625000e+001  9.500000e+000
    endloop
  endfacet
  facet normal  0.000000e+000  1.000000e+000  0.000000e+000
    outer loop
      vertex  3.000000e+001  5.425000e+001  9.500000e+000
      vertex  3.000000e+001  5.425000e+001  1.200000e+001
      vertex  3.400000e+001  5.425000e+001  9.500000e+000
    endloop
  endfacet
  facet normal  0.000000e+000  1.000000e+000  -0.000000e+000
    outer loop
      vertex  3.400000e+001  5.425000e+001  9.500000e+000
      vertex  3.000000e+001  5.425000e+001  1.200000e+001
      vertex  3.400000e+001  5.425000e+001  1.600000e+001
    endloop
  endfacet
  facet normal -1.000000e+000  0.000000e+000  0.000000e+000
    outer loop
      vertex  3.400000e+001  5.555604e+001  8.301436e+000
      vertex  3.400000e+001  5.704615e+001  7.101126e+000
      vertex  3.400000e+001  5.491844e+001  7.442751e+000
    endloop
  endfacet
  facet normal -1.000000e+000  -0.000000e+000  0.000000e+000
    outer loop
      vertex  3.400000e+001  5.491844e+001  7.442751e+000
      vertex  3.400000e+001  5.704615e+001  7.101126e+000
      vertex  3.400000e+001  5.666844e+001  6.171302e+000
    endloop
  endfacet
  facet normal -1.000000e+000  -0.000000e+000  0.000000e+000
    outer loop
      vertex  3.400000e+001  6.125000e+001  9.500000e+000
      vertex  3.400000e+001  6.058156e+001  7.442751e+000
      vertex  3.400000e+001  5.894856e+001  7.306044e+000
    endloop
  endfacet
  facet normal -9.999999e-001  0.000000e+000  0.000000e+000
    outer loop
      vertex  3.400000e+001  6.125000e+001  9.500000e+000
      vertex  3.400000e+001  5.894856e+001  7.306044e+000
      vertex  3.400000e+001  6.014887e+001  8.796151e+000
    endloop
  endfacet
  facet normal -1.000000e+000  0.000000e+000  0.000000e+000
    outer loop
      vertex  3.400000e+001  6.125000e+001  9.500000e+000
      vertex  3.400000e+001  6.014887e+001  8.796151e+000
      vertex  3.400000e+001  5.994396e+001  1.069856e+001
    endloop
  endfacet
  facet normal -1.000000e+000  0.000000e+000  0.000000e+000
    outer loop
      vertex  3.400000e+001  6.125000e+001  9.500000e+000
      vertex  3.400000e+001  5.994396e+001  1.069856e+001
      vertex  3.400000e+001  6.125000e+001  1.600000e+001
    endloop
  endfacet
  facet normal -1.000000e+000  0.000000e+000  -0.000000e+000
    outer loop
      vertex  3.400000e+001  5.666844e+001  6.171302e+000
      vertex  3.400000e+001  5.704615e+001  7.101126e+000
      vertex  3.400000e+001  5.883156e+001  6.171302e+000
    endloop
  endfacet
  facet normal -1.000000e+000  0.000000e+000  0.000000e+000
    outer loop
      vertex  3.400000e+001  5.883156e+001  6.171302e+000
      vertex  3.400000e+001  5.704615e+001  7.101126e+000
      vertex  3.400000e+001  5.894856e+001  7.306044e+000
    endloop
  endfacet
  facet normal -1.000000e+000  0.000000e+000  -0.000000e+000
    outer loop
      vertex  3.400000e+001  5.883156e+001  6.171302e+000
      vertex  3.400000e+001  5.894856e+001  7.306044e+000
      vertex  3.400000e+001  6.058156e+001  7.442751e+000
    endloop
  endfacet
  facet normal -1.000000e+000  0.000000e+000  0.000000e+000
    outer loop
      vertex  3.400000e+001  5.555604e+001  8.301436e+000
      vertex  3.400000e+001  5.491844e+001  7.442751e+000
      vertex  3.400000e+001  5.535113e+001  1.020385e+001
    endloop
  endfacet
  facet normal -9.999999e-001  0.000000e+000  0.000000e+000
    outer loop
      vertex  3.400000e+001  5.535113e+001  1.020385e+001
      vertex  3.400000e+001  5.491844e+001  7.442751e+000
      vertex  3.400000e+001  5.425000e+001  9.500000e+000
    endloop
  endfacet
  facet normal -9.999999e-001  0.000000e+000  0.000000e+000
    outer loop
      vertex  3.400000e+001  5.535113e+001  1.020385e+001
      vertex  3.400000e+001  5.425000e+001  9.500000e+000
      vertex  3.400000e+001  5.655144e+001  1.169396e+001
    endloop
  endfacet
  facet normal -9.999999e-001  -0.000000e+000  0.000000e+000
    outer loop
      vertex  3.400000e+001  5.655144e+001  1.169396e+001
      vertex  3.400000e+001  5.425000e+001  9.500000e+000
      vertex  3.400000e+001  5.425000e+001  1.600000e+001
    endloop
  endfacet
  facet normal -1.000000e+000  0.000000e+000  0.000000e+000
    outer loop
      vertex  3.400000e+001  5.655144e+001  1.169396e+001
      vertex  3.400000e+001  5.425000e+001  1.600000e+001
      vertex  3.400000e+001  5.845385e+001  1.189887e+001
    endloop
  endfacet
  facet normal -9.999999e-001  0.000000e+000  0.000000e+000
    outer loop
      vertex  3.400000e+001  5.845385e+001  1.189887e+001
      vertex  3.400000e+001  5.425000e+001  1.600000e+001
      vertex  3.400000e+001  6.125000e+001  1.600000e+001
    endloop
  endfacet
  facet normal -1.000000e+000  0.000000e+000  0.000000e+000
    outer loop
      vertex  3.400000e+001  5.845385e+001  1.189887e+001
      vertex  3.400000e+001  6.125000e+001  1.600000e+001
      vertex  3.400000e+001  5.994396e+001  1.069856e+001
    endloop
  endfacet
  facet normal -7.071067e-001  0.000000e+000  7.071067e-001
    outer loop
      vertex  3.400000e+001  5.425000e+001  1.600000e+001
      vertex  3.000000e+001  5.425000e+001  1.200000e+001
      vertex  3.400000e+001  3.625000e+001  1.600000e+001
    endloop
  endfacet
  facet normal -7.071067e-001  0.000000e+000  7.071067e-001
    outer loop
      vertex  3.400000e+001  3.625000e+001  1.600000e+001
      vertex  3.000000e+001  5.425000e+001  1.200000e+001
      vertex  3.000000e+001  3.625000e+001  1.200000e+001
    endloop
  endfacet
  facet normal  0.000000e+000  1.000000e+000  0.000000e+000
    outer loop
      vertex  3.000000e+001  2.925000e+001  9.500000e+000
      vertex  3.000000e+001  2.925000e+001  1.200000e+001
      vertex  3.400000e+001  2.925000e+001  9.500000e+000
    endloop
  endfacet
  facet normal  0.000000e+000  1.000000e+000  -0.000000e+000
    outer loop
      vertex  3.400000e+001  2.925000e+001  9.500000e+000
      vertex  3.000000e+001  2.925000e+001  1.200000e+001
      vertex  3.400000e+001  2.925000e+001  1.600000e+001
    endloop
  endfacet
  facet normal -1.000000e+000  0.000000e+000  0.000000e+000
    outer loop
      vertex  3.000000e+001  5.000000e+000  8.000000e+000
      vertex  3.000000e+001  5.000000e+000  1.200000e+001
      vertex  3.000000e+001  1.200000e+001  8.000000e+000
    endloop
  endfacet
  facet normal -1.000000e+000  0.000000e+000  0.000000e+000
    outer loop
      vertex  3.000000e+001  1.200000e+001  8.000000e+000
      vertex  3.000000e+001  5.000000e+000  1.200000e+001
      vertex  3.000000e+001  1.200000e+001  1.200000e+001
    endloop
  endfacet
  facet normal -1.000000e+000  -0.000000e+000  0.000000e+000
    outer loop
      vertex  3.400000e+001  2.991844e+001  7.442751e+000
      vertex  3.400000e+001  3.204615e+001  7.101126e+000
      vertex  3.400000e+001  3.166844e+001  6.171302e+000
    endloop
  endfacet
  facet normal -1.000000e+000  0.000000e+000  0.000000e+000
    outer loop
      vertex  3.400000e+001  3.625000e+001  1.600000e+001
      vertex  3.400000e+001  3.625000e+001  9.500000e+000
      vertex  3.400000e+001  3.494396e+001  1.069856e+001
    endloop
  endfacet
  facet normal -1.000000e+000  0.000000e+000  0.000000e+000
    outer loop
      vertex  3.400000e+001  3.625000e+001  1.600000e+001
      vertex  3.400000e+001  3.494396e+001  1.069856e+001
      vertex  3.400000e+001  3.345385e+001  1.189887e+001
    endloop
  endfacet
  facet normal -1.000000e+000  -0.000000e+000  0.000000e+000
    outer loop
      vertex  3.400000e+001  3.625000e+001  1.600000e+001
      vertex  3.400000e+001  3.345385e+001  1.189887e+001
      vertex  3.400000e+001  3.155144e+001  1.169396e+001
    endloop
  endfacet
  facet normal -1.000000e+000  0.000000e+000  0.000000e+000
    outer loop
      vertex  3.400000e+001  3.625000e+001  1.600000e+001
      vertex  3.400000e+001  3.155144e+001  1.169396e+001
      vertex  3.400000e+001  2.925000e+001  1.600000e+001
    endloop
  endfacet
  facet normal -1.000000e+000  0.000000e+000  -0.000000e+000
    outer loop
      vertex  3.400000e+001  3.166844e+001  6.171302e+000
      vertex  3.400000e+001  3.204615e+001  7.101126e+000
      vertex  3.400000e+001  3.383156e+001  6.171302e+000
    endloop
  endfacet
  facet normal -1.000000e+000  0.000000e+000  0.000000e+000
    outer loop
      vertex  3.400000e+001  3.383156e+001  6.171302e+000
      vertex  3.400000e+001  3.204615e+001  7.101126e+000
      vertex  3.400000e+001  3.394856e+001  7.306044e+000
    endloop
  endfacet
  facet normal -1.000000e+000  0.000000e+000  -0.000000e+000
    outer loop
      vertex  3.400000e+001  3.383156e+001  6.171302e+000
      vertex  3.400000e+001  3.394856e+001  7.306044e+000
      vertex  3.400000e+001  3.558156e+001  7.442751e+000
    endloop
  endfacet
  facet normal -1.000000e+000  0.000000e+000  0.000000e+000
    outer loop
      vertex  3.400000e+001  3.558156e+001  7.442751e+000
      vertex  3.400000e+001  3.394856e+001  7.306044e+000
      vertex  3.400000e+001  3.625000e+001  9.500000e+000
    endloop
  endfacet
  facet normal -9.999999e-001  0.000000e+000  0.000000e+000
    outer loop
      vertex  3.400000e+001  3.625000e+001  9.500000e+000
      vertex  3.400000e+001  3.394856e+001  7.306044e+000
      vertex  3.400000e+001  3.514887e+001  8.796151e+000
    endloop
  endfacet
  facet normal -1.000000e+000  0.000000e+000  0.000000e+000
    outer loop
      vertex  3.400000e+001  3.625000e+001  9.500000e+000
      vertex  3.400000e+001  3.514887e+001  8.796151e+000
      vertex  3.400000e+001  3.494396e+001  1.069856e+001
    endloop
  endfacet
  facet normal -1.000000e+000  -0.000000e+000  0.000000e+000
    outer loop
      vertex  3.400000e+001  2.925000e+001  1.600000e+001
      vertex  3.400000e+001  3.155144e+001  1.169396e+001
      vertex  3.400000e+001  2.925000e+001  9.500000e+000
    endloop
  endfacet
  facet normal -1.000000e+000  0.000000e+000  0.000000e+000
    outer loop
      vertex  3.400000e+001  2.925000e+001  9.500000e+000
      vertex  3.400000e+001  3.155144e+001  1.169396e+001
      vertex  3.400000e+001  3.035113e+001  1.020385e+001
    endloop
  endfacet
  facet normal -1.000000e+000  0.000000e+000  0.000000e+000
    outer loop
      vertex  3.400000e+001  2.925000e+001  9.500000e+000
      vertex  3.400000e+001  3.035113e+001  1.020385e+001
      vertex  3.400000e+001  2.991844e+001  7.442751e+000
    endloop
  endfacet
  facet normal -1.000000e+000  0.000000e+000  0.000000e+000
    outer loop
      vertex  3.400000e+001  2.991844e+001  7.442751e+000
      vertex  3.400000e+001  3.035113e+001  1.020385e+001
      vertex  3.400000e+001  3.055604e+001  8.301436e+000
    endloop
  endfacet
  facet normal -1.000000e+000  0.000000e+000  -0.000000e+000
    outer loop
      vertex  3.400000e+001  2.991844e+001  7.442751e+000
      vertex  3.400000e+001  3.055604e+001  8.301436e+000
      vertex  3.400000e+001  3.204615e+001  7.101126e+000
    endloop
  endfacet
  facet normal  -0.000000e+000  1.000000e+000  0.000000e+000
    outer loop
      vertex  1.000000e+001  1.500000e+001  1.500000e+000
      vertex  1.000000e+001  1.500000e+001  8.000000e+000
      vertex  1.063496e+001  1.500000e+001  8.000000e+000
    endloop
  endfacet
  facet normal  0.000000e+000  1.000000e+000  0.000000e+000
    outer loop
      vertex  1.463496e+001  1.500000e+001  1.200000e+001
      vertex  1.000000e+001  1.500000e+001  1.500000e+000
      vertex  1.063496e+001  1.500000e+001  8.000000e+000
    endloop
  endfacet
  facet normal  0.000000e+000  1.000000e+000  0.000000e+000
    outer loop
      vertex  1.463496e+001  1.500000e+001  1.200000e+001
      vertex  3.000000e+001  1.500000e+001  1.200000e+001
      vertex  1.000000e+001  1.500000e+001  1.500000e+000
    endloop
  endfacet
  facet normal  -0.000000e+000  1.000000e+000  0.000000e+000
    outer loop
      vertex  1.000000e+001  1.500000e+001  1.500000e+000
      vertex  3.000000e+001  1.500000e+001  1.200000e+001
      vertex  3.000000e+001  1.500000e+001  0.000000e+000
    endloop
  endfacet
  facet normal  0.000000e+000  1.000000e+000  0.000000e+000
    outer loop
      vertex  1.000000e+001  1.500000e+001  1.500000e+000
      vertex  3.000000e+001  1.500000e+001  0.000000e+000
      vertex  8.000000e+000  1.500000e+001  1.500000e+000
    endloop
  endfacet
  facet normal  0.000000e+000  1.000000e+000  0.000000e+000
    outer loop
      vertex  8.000000e+000  1.500000e+001  1.500000e+000
      vertex  3.000000e+001  1.500000e+001  0.000000e+000
      vertex  3.000000e+000  1.500000e+001  0.000000e+000
    endloop
  endfacet
  facet normal  0.000000e+000  1.000000e+000  0.000000e+000
    outer loop
      vertex  8.000000e+000  1.500000e+001  1.500000e+000
      vertex  3.000000e+000  1.500000e+001  0.000000e+000
      vertex  8.000000e+000  1.500000e+001  8.000000e+000
    endloop
  endfacet
  facet normal  0.000000e+000  1.000000e+000  0.000000e+000
    outer loop
      vertex  8.000000e+000  1.500000e+001  8.000000e+000
      vertex  3.000000e+000  1.500000e+001  0.000000e+000
      vertex  3.000000e+000  1.500000e+001  8.000000e+000
    endloop
  endfacet
  facet normal  0.000000e+000  0.000000e+000  1.000000e+000
    outer loop
      vertex  1.463496e+001  8.014422e-016  1.200000e+001
      vertex  3.000000e+001  8.014422e-016  1.200000e+001
      vertex  1.463496e+001  5.000000e+000  1.200000e+001
    endloop
  endfacet
  facet normal  -0.000000e+000  0.000000e+000  1.000000e+000
    outer loop
      vertex  1.463496e+001  5.000000e+000  1.200000e+001
      vertex  3.000000e+001  8.014422e-016  1.200000e+001
      vertex  3.000000e+001  5.000000e+000  1.200000e+001
    endloop
  endfacet
  facet normal  0.000000e+000  1.000000e+000  -0.000000e+000
    outer loop
      vertex  3.000000e+001  5.000000e+000  1.200000e+001
      vertex  3.000000e+001  5.000000e+000  8.000000e+000
      vertex  1.463496e+001  5.000000e+000  1.200000e+001
    endloop
  endfacet
  facet normal  0.000000e+000  1.000000e+000  0.000000e+000
    outer loop
      vertex  1.463496e+001  5.000000e+000  1.200000e+001
      vertex  3.000000e+001  5.000000e+000  8.000000e+000
      vertex  1.093649e+001  5.000000e+000  8.000000e+000
    endloop
  endfacet
  facet normal  0.000000e+000  1.000000e+000  0.000000e+000
    outer loop
      vertex  1.463496e+001  5.000000e+000  1.200000e+001
      vertex  1.093649e+001  5.000000e+000  8.000000e+000
      vertex  1.093649e+001  5.000000e+000  8.301530e+000
    endloop
  endfacet
  facet normal  0.000000e+000  0.000000e+000  1.000000e+000
    outer loop
      vertex  1.463496e+001  1.200000e+001  1.200000e+001
      vertex  3.000000e+001  1.200000e+001  1.200000e+001
      vertex  1.463496e+001  1.500000e+001  1.200000e+001
    endloop
  endfacet
  facet normal  -0.000000e+000  0.000000e+000  1.000000e+000
    outer loop
      vertex  1.463496e+001  1.500000e+001  1.200000e+001
      vertex  3.000000e+001  1.200000e+001  1.200000e+001
      vertex  3.000000e+001  1.500000e+001  1.200000e+001
    endloop
  endfacet
  facet normal  0.000000e+000 -1.000000e+000  -0.000000e+000
    outer loop
      vertex  3.000000e+001  1.200000e+001  8.000000e+000
      vertex  3.000000e+001  1.200000e+001  1.200000e+001
      vertex  1.093649e+001  1.200000e+001  8.000000e+000
    endloop
  endfacet
  facet normal  0.000000e+000 -1.000000e+000  0.000000e+000
    outer loop
      vertex  1.093649e+001  1.200000e+001  8.000000e+000
      vertex  3.000000e+001  1.200000e+001  1.200000e+001
      vertex  1.463496e+001  1.200000e+001  1.200000e+001
    endloop
  endfacet
  facet normal  0.000000e+000 -1.000000e+000  0.000000e+000
    outer loop
      vertex  1.093649e+001  1.200000e+001  8.000000e+000
      vertex  1.463496e+001  1.200000e+001  1.200000e+001
      vertex  1.093649e+001  1.200000e+001  8.301530e+000
    endloop
  endfacet
  facet normal  -0.000000e+000  9.942490e-001  1.070933e-001
    outer loop
      vertex  3.800000e+001  5.555604e+001  8.301436e+000
      vertex  3.400000e+001  5.555604e+001  8.301436e+000
      vertex  3.800000e+001  5.535113e+001  1.020385e+001
    endloop
  endfacet
  facet normal  0.000000e+000  9.942490e-001  1.070933e-001
    outer loop
      vertex  3.800000e+001  5.535113e+001  1.020385e+001
      vertex  3.400000e+001  5.555604e+001  8.301436e+000
      vertex  3.400000e+001  5.535113e+001  1.020385e+001
    endloop
  endfacet
  facet normal  0.000000e+000  7.787678e-001 -6.273122e-001
    outer loop
      vertex  3.800000e+001  5.535113e+001  1.020385e+001
      vertex  3.400000e+001  5.535113e+001  1.020385e+001
      vertex  3.800000e+001  5.655144e+001  1.169396e+001
    endloop
  endfacet
  facet normal  0.000000e+000  7.787678e-001 -6.273122e-001
    outer loop
      vertex  3.800000e+001  5.655144e+001  1.169396e+001
      vertex  3.400000e+001  5.535113e+001  1.020385e+001
      vertex  3.400000e+001  5.655144e+001  1.169396e+001
    endloop
  endfacet
  facet normal  0.000000e+000  1.070953e-001 -9.942488e-001
    outer loop
      vertex  3.800000e+001  5.655144e+001  1.169396e+001
      vertex  3.400000e+001  5.655144e+001  1.169396e+001
      vertex  3.800000e+001  5.845385e+001  1.189887e+001
    endloop
  endfacet
  facet normal  0.000000e+000  1.070953e-001 -9.942488e-001
    outer loop
      vertex  3.800000e+001  5.845385e+001  1.189887e+001
      vertex  3.400000e+001  5.655144e+001  1.169396e+001
      vertex  3.400000e+001  5.845385e+001  1.189887e+001
    endloop
  endfacet
  facet normal  0.000000e+000 -6.273123e-001 -7.787678e-001
    outer loop
      vertex  3.800000e+001  5.845385e+001  1.189887e+001
      vertex  3.400000e+001  5.845385e+001  1.189887e+001
      vertex  3.800000e+001  5.994396e+001  1.069856e+001
    endloop
  endfacet
  facet normal  -0.000000e+000 -6.273123e-001 -7.787678e-001
    outer loop
      vertex  3.800000e+001  5.994396e+001  1.069856e+001
      vertex  3.400000e+001  5.845385e+001  1.189887e+001
      vertex  3.400000e+001  5.994396e+001  1.069856e+001
    endloop
  endfacet
  facet normal  0.000000e+000 -9.942490e-001 -1.070933e-001
    outer loop
      vertex  3.800000e+001  5.994396e+001  1.069856e+001
      vertex  3.400000e+001  5.994396e+001  1.069856e+001
      vertex  3.800000e+001  6.014887e+001  8.796151e+000
    endloop
  endfacet
  facet normal  -0.000000e+000 -9.942490e-001 -1.070933e-001
    outer loop
      vertex  3.800000e+001  6.014887e+001  8.796151e+000
      vertex  3.400000e+001  5.994396e+001  1.069856e+001
      vertex  3.400000e+001  6.014887e+001  8.796151e+000
    endloop
  endfacet
  facet normal  0.000000e+000 -7.787678e-001  6.273122e-001
    outer loop
      vertex  3.800000e+001  6.014887e+001  8.796151e+000
      vertex  3.400000e+001  6.014887e+001  8.796151e+000
      vertex  3.800000e+001  5.894856e+001  7.306044e+000
    endloop
  endfacet
  facet normal  0.000000e+000 -7.787678e-001  6.273122e-001
    outer loop
      vertex  3.800000e+001  5.894856e+001  7.306044e+000
      vertex  3.400000e+001  6.014887e+001  8.796151e+000
      vertex  3.400000e+001  5.894856e+001  7.306044e+000
    endloop
  endfacet
  facet normal  0.000000e+000 -1.070953e-001  9.942488e-001
    outer loop
      vertex  3.800000e+001  5.894856e+001  7.306044e+000
      vertex  3.400000e+001  5.894856e+001  7.306044e+000
      vertex  3.800000e+001  5.704615e+001  7.101126e+000
    endloop
  endfacet
  facet normal  0.000000e+000 -1.070953e-001  9.942488e-001
    outer loop
      vertex  3.800000e+001  5.704615e+001  7.101126e+000
      vertex  3.400000e+001  5.894856e+001  7.306044e+000
      vertex  3.400000e+001  5.704615e+001  7.101126e+000
    endloop
  endfacet
  facet normal  -0.000000e+000  6.273123e-001  7.787678e-001
    outer loop
      vertex  3.800000e+001  5.704615e+001  7.101126e+000
      vertex  3.400000e+001  5.704615e+001  7.101126e+000
      vertex  3.800000e+001  5.555604e+001  8.301436e+000
    endloop
  endfacet
  facet normal  0.000000e+000  6.273123e-001  7.787678e-001
    outer loop
      vertex  3.800000e+001  5.555604e+001  8.301436e+000
      vertex  3.400000e+001  5.704615e+001  7.101126e+000
      vertex  3.400000e+001  5.555604e+001  8.301436e+000
    endloop
  endfacet
  facet normal  -0.000000e+000  9.942488e-001  1.070953e-001
    outer loop
      vertex  3.800000e+001  3.055604e+001  8.301436e+000
      vertex  3.400000e+001  3.055604e+001  8.301436e+000
      vertex  3.800000e+001  3.035113e+001  1.020385e+001
    endloop
  endfacet
  facet normal  0.000000e+000  9.942488e-001  1.070953e-001
    outer loop
      vertex  3.800000e+001  3.035113e+001  1.020385e+001
      vertex  3.400000e+001  3.055604e+001  8.301436e+000
      vertex  3.400000e+001  3.035113e+001  1.020385e+001
    endloop
  endfacet
  facet normal  0.000000e+000  7.787678e-001 -6.273122e-001
    outer loop
      vertex  3.800000e+001  3.035113e+001  1.020385e+001
      vertex  3.400000e+001  3.035113e+001  1.020385e+001
      vertex  3.800000e+001  3.155144e+001  1.169396e+001
    endloop
  endfacet
  facet normal  0.000000e+000  7.787678e-001 -6.273122e-001
    outer loop
      vertex  3.800000e+001  3.155144e+001  1.169396e+001
      vertex  3.400000e+001  3.035113e+001  1.020385e+001
      vertex  3.400000e+001  3.155144e+001  1.169396e+001
    endloop
  endfacet
  facet normal  0.000000e+000  1.070952e-001 -9.942487e-001
    outer loop
      vertex  3.800000e+001  3.155144e+001  1.169396e+001
      vertex  3.400000e+001  3.155144e+001  1.169396e+001
      vertex  3.800000e+001  3.345385e+001  1.189887e+001
    endloop
  endfacet
  facet normal  0.000000e+000  1.070952e-001 -9.942487e-001
    outer loop
      vertex  3.800000e+001  3.345385e+001  1.189887e+001
      vertex  3.400000e+001  3.155144e+001  1.169396e+001
      vertex  3.400000e+001  3.345385e+001  1.189887e+001
    endloop
  endfacet
  facet normal  0.000000e+000 -6.273123e-001 -7.787678e-001
    outer loop
      vertex  3.800000e+001  3.345385e+001  1.189887e+001
      vertex  3.400000e+001  3.345385e+001  1.189887e+001
      vertex  3.800000e+001  3.494396e+001  1.069856e+001
    endloop
  endfacet
  facet normal  -0.000000e+000 -6.273123e-001 -7.787678e-001
    outer loop
      vertex  3.800000e+001  3.494396e+001  1.069856e+001
      vertex  3.400000e+001  3.345385e+001  1.189887e+001
      vertex  3.400000e+001  3.494396e+001  1.069856e+001
    endloop
  endfacet
  facet normal  0.000000e+000 -9.942490e-001 -1.070933e-001
    outer loop
      vertex  3.800000e+001  3.494396e+001  1.069856e+001
      vertex  3.400000e+001  3.494396e+001  1.069856e+001
      vertex  3.800000e+001  3.514887e+001  8.796151e+000
    endloop
  endfacet
  facet normal  -0.000000e+000 -9.942490e-001 -1.070933e-001
    outer loop
      vertex  3.800000e+001  3.514887e+001  8.796151e+000
      vertex  3.400000e+001  3.494396e+001  1.069856e+001
      vertex  3.400000e+001  3.514887e+001  8.796151e+000
    endloop
  endfacet
  facet normal  0.000000e+000 -7.787678e-001  6.273122e-001
    outer loop
      vertex  3.800000e+001  3.514887e+001  8.796151e+000
      vertex  3.400000e+001  3.514887e+001  8.796151e+000
      vertex  3.800000e+001  3.394856e+001  7.306044e+000
    endloop
  endfacet
  facet normal  0.000000e+000 -7.787678e-001  6.273122e-001
    outer loop
      vertex  3.800000e+001  3.394856e+001  7.306044e+000
      vertex  3.400000e+001  3.514887e+001  8.796151e+000
      vertex  3.400000e+001  3.394856e+001  7.306044e+000
    endloop
  endfacet
  facet normal  0.000000e+000 -1.070953e-001  9.942488e-001
    outer loop
      vertex  3.800000e+001  3.394856e+001  7.306044e+000
      vertex  3.400000e+001  3.394856e+001  7.306044e+000
      vertex  3.800000e+001  3.204615e+001  7.101126e+000
    endloop
  endfacet
  facet normal  0.000000e+000 -1.070953e-001  9.942488e-001
    outer loop
      vertex  3.800000e+001  3.204615e+001  7.101126e+000
      vertex  3.400000e+001  3.394856e+001  7.306044e+000
      vertex  3.400000e+001  3.204615e+001  7.101126e+000
    endloop
  endfacet
  facet normal  -0.000000e+000  6.273128e-001  7.787675e-001
    outer loop
      vertex  3.800000e+001  3.204615e+001  7.101126e+000
      vertex  3.400000e+001  3.204615e+001  7.101126e+000
      vertex  3.800000e+001  3.055604e+001  8.301436e+000
    endloop
  endfacet
  facet normal  0.000000e+000  6.273128e-001  7.787675e-001
    outer loop
      vertex  3.800000e+001  3.055604e+001  8.301436e+000
      vertex  3.400000e+001  3.204615e+001  7.101126e+000
      vertex  3.400000e+001  3.055604e+001  8.301436e+000
    endloop
  endfacet
  facet normal  -0.000000e+000 -9.992496e-001 -3.873206e-002
    outer loop
      vertex  9.739092e+000  1.243112e+001  0.000000e+000
      vertex  1.000000e+001  1.237298e+001  1.500000e+000
      vertex  8.000000e+000  1.237298e+001  1.500000e+000
    endloop
  endfacet
  facet normal  1.272005e-001 -9.858406e-001  1.092632e-001
    outer loop
      vertex  7.287280e+000  1.211477e+001  0.000000e+000
      vertex  9.739092e+000  1.243112e+001  0.000000e+000
      vertex  8.000000e+000  1.237298e+001  1.500000e+000
    endloop
  endfacet
  facet normal -3.700101e-001 -9.290277e-001  0.000000e+000
    outer loop
      vertex  1.000000e+001  1.237298e+001  1.500000e+000
      vertex  1.093649e+001  1.200000e+001  8.000000e+000
      vertex  1.093649e+001  1.200000e+001  8.301530e+000
    endloop
  endfacet
  facet normal -4.582364e-001 -8.887144e-001  1.435844e-002
    outer loop
      vertex  1.000000e+001  1.237298e+001  1.500000e+000
      vertex  1.093649e+001  1.200000e+001  8.301530e+000
      vertex  1.063496e+001  1.215060e+001  8.000000e+000
    endloop
  endfacet
  facet normal -3.305410e-001 -9.437916e-001  0.000000e+000
    outer loop
      vertex  1.000000e+001  1.237298e+001  1.500000e+000
      vertex  1.063496e+001  1.215060e+001  8.000000e+000
      vertex  1.000000e+001  1.237298e+001  8.000000e+000
    endloop
  endfacet
  facet normal -9.034767e-001 -4.280769e-001  2.191104e-002
    outer loop
      vertex  1.190860e+001  1.124592e+001  0.000000e+000
      vertex  1.296711e+001  9.011867e+000  0.000000e+000
      vertex  1.242336e+001  1.056896e+001  8.000000e+000
    endloop
  endfacet
  facet normal -6.933575e-001 -7.204084e-001 -1.634620e-002
    outer loop
      vertex  1.190860e+001  1.124592e+001  0.000000e+000
      vertex  1.242336e+001  1.056896e+001  8.000000e+000
      vertex  1.093649e+001  1.200000e+001  8.000000e+000
    endloop
  endfacet
  facet normal -4.957202e-001 -8.682136e-001  2.160140e-002
    outer loop
      vertex  1.190860e+001  1.124592e+001  0.000000e+000
      vertex  1.093649e+001  1.200000e+001  8.000000e+000
      vertex  1.000000e+001  1.237298e+001  1.500000e+000
    endloop
  endfacet
  facet normal -4.788420e-001 -8.765149e-001  4.931448e-002
    outer loop
      vertex  1.190860e+001  1.124592e+001  0.000000e+000
      vertex  1.000000e+001  1.237298e+001  1.500000e+000
      vertex  9.739092e+000  1.243112e+001  0.000000e+000
    endloop
  endfacet
  facet normal  3.406224e-001 -9.402002e-001  0.000000e+000
    outer loop
      vertex  8.000000e+000  1.237298e+001  1.500000e+000
      vertex  8.000000e+000  1.237298e+001  8.000000e+000
      vertex  7.287280e+000  1.211477e+001  0.000000e+000
    endloop
  endfacet
  facet normal  4.414220e-001 -8.972397e-001 -1.036683e-002
    outer loop
      vertex  7.287280e+000  1.211477e+001  0.000000e+000
      vertex  8.000000e+000  1.237298e+001  8.000000e+000
      vertex  6.542043e+000  1.165570e+001  8.000000e+000
    endloop
  endfacet
  facet normal  6.863106e-001 -7.269691e-001  2.221650e-002
    outer loop
      vertex  7.287280e+000  1.211477e+001  0.000000e+000
      vertex  6.542043e+000  1.165570e+001  8.000000e+000
      vertex  5.489670e+000  1.041770e+001  0.000000e+000
    endloop
  endfacet
  facet normal  7.619168e-001 -6.476750e-001  0.000000e+000
    outer loop
      vertex  5.489670e+000  1.041770e+001  0.000000e+000
      vertex  6.542043e+000  1.165570e+001  8.000000e+000
      vertex  5.489670e+000  1.041770e+001  8.000000e+000
    endloop
  endfacet
  facet normal -9.827813e-001  1.847727e-001  0.000000e+000
    outer loop
      vertex  1.251033e+001  6.582298e+000  0.000000e+000
      vertex  1.251033e+001  6.582298e+000  8.000000e+000
      vertex  1.296711e+001  9.011867e+000  0.000000e+000
    endloop
  endfacet
  facet normal -9.714216e-001  2.367903e-001  1.644616e-002
    outer loop
      vertex  1.296711e+001  9.011867e+000  0.000000e+000
      vertex  1.251033e+001  6.582298e+000  8.000000e+000
      vertex  1.299905e+001  8.587241e+000  8.000000e+000
    endloop
  endfacet
  facet normal -9.602430e-001 -2.789497e-001 -1.097300e-002
    outer loop
      vertex  1.296711e+001  9.011867e+000  0.000000e+000
      vertex  1.299905e+001  8.587241e+000  8.000000e+000
      vertex  1.242336e+001  1.056896e+001  8.000000e+000
    endloop
  endfacet
  facet normal  0.000000e+000  0.000000e+000  1.000000e+000
    outer loop
      vertex  1.000000e+001  1.237298e+001  8.000000e+000
      vertex  1.063496e+001  1.215060e+001  8.000000e+000
      vertex  1.000000e+001  1.500000e+001  8.000000e+000
    endloop
  endfacet
  facet normal  -0.000000e+000  0.000000e+000  1.000000e+000
    outer loop
      vertex  1.000000e+001  1.500000e+001  8.000000e+000
      vertex  1.063496e+001  1.215060e+001  8.000000e+000
      vertex  1.063496e+001  1.500000e+001  8.000000e+000
    endloop
  endfacet
  facet normal  -0.000000e+000  0.000000e+000  9.999999e-001
    outer loop
      vertex  1.063496e+001  4.849398e+000  8.000000e+000
      vertex  8.197900e+000  4.581246e+000  8.000000e+000
      vertex  1.063496e+001  8.014422e-016  8.000000e+000
    endloop
  endfacet
  facet normal  0.000000e+000  -0.000000e+000  1.000000e+000
    outer loop
      vertex -4.656577e-016  5.000000e+000  8.000000e+000
      vertex  5.000000e+000  8.014422e-016  8.000000e+000
      vertex  1.063496e+001  8.014422e-016  8.000000e+000
    endloop
  endfacet
  facet normal  0.000000e+000  0.000000e+000  1.000000e+000
    outer loop
      vertex -4.656577e-016  5.000000e+000  8.000000e+000
      vertex  1.063496e+001  8.014422e-016  8.000000e+000
      vertex  8.197900e+000  4.581246e+000  8.000000e+000
    endloop
  endfacet
  facet normal  0.000000e+000  0.000000e+000  1.000000e+000
    outer loop
      vertex -4.656577e-016  5.000000e+000  8.000000e+000
      vertex  8.197900e+000  4.581246e+000  8.000000e+000
      vertex  6.062185e+000  5.785365e+000  8.000000e+000
    endloop
  endfacet
  facet normal  0.000000e+000  0.000000e+000  1.000000e+000
    outer loop
      vertex -4.656577e-016  5.000000e+000  8.000000e+000
      vertex  6.062185e+000  5.785365e+000  8.000000e+000
      vertex  5.030204e+000  8.009369e+000  8.000000e+000
    endloop
  endfacet
  facet normal  0.000000e+000  -0.000000e+000  1.000000e+000
    outer loop
      vertex -4.656577e-016  5.000000e+000  8.000000e+000
      vertex  5.030204e+000  8.009369e+000  8.000000e+000
      vertex  5.489670e+000  1.041770e+001  8.000000e+000
    endloop
  endfacet
  facet normal  0.000000e+000  -0.000000e+000  1.000000e+000
    outer loop
      vertex -4.656577e-016  5.000000e+000  8.000000e+000
      vertex  5.489670e+000  1.041770e+001  8.000000e+000
      vertex  6.542043e+000  1.165570e+001  8.000000e+000
    endloop
  endfacet
  facet normal  0.000000e+000  0.000000e+000  9.999999e-001
    outer loop
      vertex -4.656577e-016  5.000000e+000  8.000000e+000
      vertex  6.542043e+000  1.165570e+001  8.000000e+000
      vertex -4.656577e-016  1.200000e+001  8.000000e+000
    endloop
  endfacet
  facet normal  -0.000000e+000  0.000000e+000  1.000000e+000
    outer loop
      vertex  8.000000e+000  1.500000e+001  8.000000e+000
      vertex  3.000000e+000  1.500000e+001  8.000000e+000
      vertex  8.000000e+000  1.237298e+001  8.000000e+000
    endloop
  endfacet
  facet normal  0.000000e+000  0.000000e+000  9.999999e-001
    outer loop
      vertex  8.000000e+000  1.237298e+001  8.000000e+000
      vertex  3.000000e+000  1.500000e+001  8.000000e+000
      vertex -4.656577e-016  1.200000e+001  8.000000e+000
    endloop
  endfacet
  facet normal  -0.000000e+000  0.000000e+000  1.000000e+000
    outer loop
      vertex  8.000000e+000  1.237298e+001  8.000000e+000
      vertex -4.656577e-016  1.200000e+001  8.000000e+000
      vertex  6.542043e+000  1.165570e+001  8.000000e+000
    endloop
  endfacet
  facet normal  1.000000e+000  -0.000000e+000  0.000000e+000
    outer loop
      vertex  8.000000e+000  1.500000e+001  8.000000e+000
      vertex  8.000000e+000  1.237298e+001  8.000000e+000
      vertex  8.000000e+000  1.500000e+001  1.500000e+000
    endloop
  endfacet
  facet normal  1.000000e+000  0.000000e+000  0.000000e+000
    outer loop
      vertex  8.000000e+000  1.500000e+001  1.500000e+000
      vertex  8.000000e+000  1.237298e+001  8.000000e+000
      vertex  8.000000e+000  1.237298e+001  1.500000e+000
    endloop
  endfacet
  facet normal -1.000000e+000  -0.000000e+000  0.000000e+000
    outer loop
      vertex  1.000000e+001  1.237298e+001  8.000000e+000
      vertex  1.000000e+001  1.500000e+001  8.000000e+000
      vertex  1.000000e+001  1.237298e+001  1.500000e+000
    endloop
  endfacet
  facet normal -1.000000e+000  0.000000e+000  0.000000e+000
    outer loop
      vertex  1.000000e+001  1.237298e+001  1.500000e+000
      vertex  1.000000e+001  1.500000e+001  8.000000e+000
      vertex  1.000000e+001  1.500000e+001  1.500000e+000
    endloop
  endfacet
  facet normal  0.000000e+000  0.000000e+000  1.000000e+000
    outer loop
      vertex  8.000000e+000  1.237298e+001  1.500000e+000
      vertex  1.000000e+001  1.237298e+001  1.500000e+000
      vertex  8.000000e+000  1.500000e+001  1.500000e+000
    endloop
  endfacet
  facet normal  -0.000000e+000  0.000000e+000  1.000000e+000
    outer loop
      vertex  8.000000e+000  1.500000e+001  1.500000e+000
      vertex  1.000000e+001  1.237298e+001  1.500000e+000
      vertex  1.000000e+001  1.500000e+001  1.500000e+000
    endloop
  endfacet
  facet normal -7.071068e-001  0.000000e+000  7.071068e-001
    outer loop
      vertex  1.063496e+001  8.014422e-016  8.000000e+000
      vertex  1.463496e+001  8.014422e-016  1.200000e+001
      vertex  1.063496e+001  4.849398e+000  8.000000e+000
    endloop
  endfacet
  facet normal -7.071068e-001  0.000000e+000  7.071068e-001
    outer loop
      vertex  1.063496e+001  4.849398e+000  8.000000e+000
      vertex  1.463496e+001  8.014422e-016  1.200000e+001
      vertex  1.463496e+001  5.000000e+000  1.200000e+001
    endloop
  endfacet
  facet normal -7.071068e-001  0.000000e+000  7.071068e-001
    outer loop
      vertex  1.063496e+001  4.849398e+000  8.000000e+000
      vertex  1.463496e+001  5.000000e+000  1.200000e+001
      vertex  1.093649e+001  5.000000e+000  8.301530e+000
    endloop
  endfacet
  facet normal -7.071068e-001  0.000000e+000  7.071068e-001
    outer loop
      vertex  1.463496e+001  1.500000e+001  1.200000e+001
      vertex  1.063496e+001  1.500000e+001  8.000000e+000
      vertex  1.463496e+001  1.200000e+001  1.200000e+001
    endloop
  endfacet
  facet normal -7.071068e-001  0.000000e+000  7.071068e-001
    outer loop
      vertex  1.463496e+001  1.200000e+001  1.200000e+001
      vertex  1.063496e+001  1.500000e+001  8.000000e+000
      vertex  1.063496e+001  1.215060e+001  8.000000e+000
    endloop
  endfacet
  facet normal -7.071068e-001  0.000000e+000  7.071068e-001
    outer loop
      vertex  1.463496e+001  1.200000e+001  1.200000e+001
      vertex  1.063496e+001  1.215060e+001  8.000000e+000
      vertex  1.093649e+001  1.200000e+001  8.301530e+000
    endloop
  endfacet
  facet normal  0.000000e+000  0.000000e+000  1.000000e+000
    outer loop
      vertex  3.000000e+001  5.000000e+000  8.000000e+000
      vertex  3.000000e+001  1.200000e+001  8.000000e+000
      vertex  1.093649e+001  1.200000e+001  8.000000e+000
    endloop
  endfacet
  facet normal  0.000000e+000  0.000000e+000  1.000000e+000
    outer loop
      vertex  3.000000e+001  5.000000e+000  8.000000e+000
      vertex  1.093649e+001  1.200000e+001  8.000000e+000
      vertex  1.242336e+001  1.056896e+001  8.000000e+000
    endloop
  endfacet
  facet normal  0.000000e+000  0.000000e+000  1.000000e+000
    outer loop
      vertex  3.000000e+001  5.000000e+000  8.000000e+000
      vertex  1.242336e+001  1.056896e+001  8.000000e+000
      vertex  1.299905e+001  8.587241e+000  8.000000e+000
    endloop
  endfacet
  facet normal  0.000000e+000  0.000000e+000  1.000000e+000
    outer loop
      vertex  3.000000e+001  5.000000e+000  8.000000e+000
      vertex  1.299905e+001  8.587241e+000  8.000000e+000
      vertex  1.251033e+001  6.582298e+000  8.000000e+000
    endloop
  endfacet
  facet normal  0.000000e+000  0.000000e+000  9.999999e-001
    outer loop
      vertex  3.000000e+001  5.000000e+000  8.000000e+000
      vertex  1.251033e+001  6.582298e+000  8.000000e+000
      vertex  1.093649e+001  5.000000e+000  8.000000e+000
    endloop
  endfacet
  facet normal -1.093704e-001  9.939982e-001 -2.398507e-003
    outer loop
      vertex  8.260908e+000  4.568875e+000  0.000000e+000
      vertex  8.197900e+000  4.581246e+000  8.000000e+000
      vertex  1.063496e+001  4.849398e+000  8.000000e+000
    endloop
  endfacet
  facet normal -1.279662e-001  9.917734e-001  3.197934e-003
    outer loop
      vertex  1.071272e+001  4.885226e+000  0.000000e+000
      vertex  8.260908e+000  4.568875e+000  0.000000e+000
      vertex  1.063496e+001  4.849398e+000  8.000000e+000
    endloop
  endfacet
  facet normal  9.036922e-001  4.281795e-001  1.626334e-003
    outer loop
      vertex  6.062185e+000  5.785365e+000  8.000000e+000
      vertex  6.091405e+000  5.754080e+000  0.000000e+000
      vertex  5.032886e+000  7.988133e+000  0.000000e+000
    endloop
  endfacet
  facet normal  4.911215e-001  8.710896e-001 -1.612604e-003
    outer loop
      vertex  6.091405e+000  5.754080e+000  0.000000e+000
      vertex  6.062185e+000  5.785365e+000  8.000000e+000
      vertex  8.197900e+000  4.581246e+000  8.000000e+000
    endloop
  endfacet
  facet normal  4.794244e-001  8.775799e-001  2.418890e-003
    outer loop
      vertex  8.197900e+000  4.581246e+000  8.000000e+000
      vertex  8.260908e+000  4.568875e+000  0.000000e+000
      vertex  6.091405e+000  5.754080e+000  0.000000e+000
    endloop
  endfacet
  facet normal -7.089995e-001  7.052089e-001  0.000000e+000
    outer loop
      vertex  1.093649e+001  5.000000e+000  8.000000e+000
      vertex  1.251033e+001  6.582298e+000  8.000000e+000
      vertex  1.251033e+001  6.582298e+000  0.000000e+000
    endloop
  endfacet
  facet normal -6.864536e-001  7.271208e-001  8.769343e-003
    outer loop
      vertex  1.093649e+001  5.000000e+000  8.000000e+000
      vertex  1.251033e+001  6.582298e+000  0.000000e+000
      vertex  1.071272e+001  4.885226e+000  0.000000e+000
    endloop
  endfacet
  facet normal -4.468276e-001  8.946201e-001 -3.364214e-004
    outer loop
      vertex  1.093649e+001  5.000000e+000  8.000000e+000
      vertex  1.071272e+001  4.885226e+000  0.000000e+000
      vertex  1.063496e+001  4.849398e+000  8.000000e+000
    endloop
  endfacet
  facet normal -4.468276e-001  8.946201e-001  0.000000e+000
    outer loop
      vertex  1.093649e+001  5.000000e+000  8.000000e+000
      vertex  1.063496e+001  4.849398e+000  8.000000e+000
      vertex  1.093649e+001  5.000000e+000  8.301530e+000
    endloop
  endfacet
  facet normal  9.827812e-001 -1.847730e-001  0.000000e+000
    outer loop
      vertex  5.489670e+000  1.041770e+001  0.000000e+000
      vertex  5.489670e+000  1.041770e+001  8.000000e+000
      vertex  5.032886e+000  7.988133e+000  0.000000e+000
    endloop
  endfacet
  facet normal  9.822831e-001 -1.874017e-001  8.267813e-004
    outer loop
      vertex  5.032886e+000  7.988133e+000  0.000000e+000
      vertex  5.489670e+000  1.041770e+001  8.000000e+000
      vertex  5.030204e+000  8.009369e+000  8.000000e+000
    endloop
  endfacet
  facet normal  9.071009e-001  4.209126e-001 -8.131550e-004
    outer loop
      vertex  5.032886e+000  7.988133e+000  0.000000e+000
      vertex  5.030204e+000  8.009369e+000  8.000000e+000
      vertex  6.062185e+000  5.785365e+000  8.000000e+000
    endloop
  endfacet
  facet normal -1.000000e+000  0.000000e+000  0.000000e+000
    outer loop
      vertex -4.656577e-016  5.000000e+000  0.000000e+000
      vertex -4.656577e-016  5.000000e+000  8.000000e+000
      vertex -4.656577e-016  1.200000e+001  0.000000e+000
    endloop
  endfacet
  facet normal -1.000000e+000  0.000000e+000  0.000000e+000
    outer loop
      vertex -4.656577e-016  1.200000e+001  0.000000e+000
      vertex -4.656577e-016  5.000000e+000  8.000000e+000
      vertex -4.656577e-016  1.200000e+001  8.000000e+000
    endloop
  endfacet
  facet normal -7.071068e-001 -7.071068e-001  0.000000e+000
    outer loop
      vertex -4.656577e-016  5.000000e+000  0.000000e+000
      vertex  5.000000e+000  8.881784e-016  0.000000e+000
      vertex -4.656577e-016  5.000000e+000  8.000000e+000
    endloop
  endfacet
  facet normal -7.071068e-001 -7.071068e-001  0.000000e+000
    outer loop
      vertex -4.656577e-016  5.000000e+000  8.000000e+000
      vertex  5.000000e+000  8.881784e-016  0.000000e+000
      vertex  5.000000e+000  8.014422e-016  8.000000e+000
    endloop
  endfacet
  facet normal -7.071068e-001  7.071068e-001  0.000000e+000
    outer loop
      vertex  3.000000e+000  1.500000e+001  0.000000e+000
      vertex -4.656577e-016  1.200000e+001  0.000000e+000
      vertex  3.000000e+000  1.500000e+001  8.000000e+000
    endloop
  endfacet
  facet normal -7.071068e-001  7.071068e-001  0.000000e+000
    outer loop
      vertex  3.000000e+000  1.500000e+001  8.000000e+000
      vertex -4.656577e-016  1.200000e+001  0.000000e+000
      vertex -4.656577e-016  1.200000e+001  8.000000e+000
    endloop
  endfacet
  facet normal  0.000000e+000  9.510566e-001  3.090167e-001
    outer loop
      vertex  3.000000e+001  2.925000e+001  9.500000e+000
      vertex  3.400000e+001  2.925000e+001  9.500000e+000
      vertex  3.000000e+001  2.991844e+001  7.442751e+000
    endloop
  endfacet
  facet normal  -0.000000e+000  9.510566e-001  3.090167e-001
    outer loop
      vertex  3.000000e+001  2.991844e+001  7.442751e+000
      vertex  3.400000e+001  2.925000e+001  9.500000e+000
      vertex  3.400000e+001  2.991844e+001  7.442751e+000
    endloop
  endfacet
  facet normal  0.000000e+000  5.877851e-001  8.090170e-001
    outer loop
      vertex  3.000000e+001  2.991844e+001  7.442751e+000
      vertex  3.400000e+001  2.991844e+001  7.442751e+000
      vertex  3.000000e+001  3.166844e+001  6.171302e+000
    endloop
  endfacet
  facet normal  -0.000000e+000  5.877851e-001  8.090170e-001
    outer loop
      vertex  3.000000e+001  3.166844e+001  6.171302e+000
      vertex  3.400000e+001  2.991844e+001  7.442751e+000
      vertex  3.400000e+001  3.166844e+001  6.171302e+000
    endloop
  endfacet
  facet normal  0.000000e+000  0.000000e+000  1.000000e+000
    outer loop
      vertex  3.000000e+001  3.166844e+001  6.171302e+000
      vertex  3.400000e+001  3.166844e+001  6.171302e+000
      vertex  3.000000e+001  3.383156e+001  6.171302e+000
    endloop
  endfacet
  facet normal  -0.000000e+000  0.000000e+000  1.000000e+000
    outer loop
      vertex  3.000000e+001  3.383156e+001  6.171302e+000
      vertex  3.400000e+001  3.166844e+001  6.171302e+000
      vertex  3.400000e+001  3.383156e+001  6.171302e+000
    endloop
  endfacet
  facet normal  0.000000e+000 -5.877851e-001  8.090170e-001
    outer loop
      vertex  3.000000e+001  3.383156e+001  6.171302e+000
      vertex  3.400000e+001  3.383156e+001  6.171302e+000
      vertex  3.000000e+001  3.558156e+001  7.442751e+000
    endloop
  endfacet
  facet normal  0.000000e+000 -5.877851e-001  8.090170e-001
    outer loop
      vertex  3.000000e+001  3.558156e+001  7.442751e+000
      vertex  3.400000e+001  3.383156e+001  6.171302e+000
      vertex  3.400000e+001  3.558156e+001  7.442751e+000
    endloop
  endfacet
  facet normal  0.000000e+000 -9.510564e-001  3.090175e-001
    outer loop
      vertex  3.000000e+001  3.558156e+001  7.442751e+000
      vertex  3.400000e+001  3.558156e+001  7.442751e+000
      vertex  3.000000e+001  3.625000e+001  9.500000e+000
    endloop
  endfacet
  facet normal  0.000000e+000 -9.510564e-001  3.090175e-001
    outer loop
      vertex  3.000000e+001  3.625000e+001  9.500000e+000
      vertex  3.400000e+001  3.558156e+001  7.442751e+000
      vertex  3.400000e+001  3.625000e+001  9.500000e+000
    endloop
  endfacet
endsolid CATIA STL
