solid CATIA STL
  facet normal -9.999999e-001  0.000000e+000  0.000000e+000
    outer loop
      vertex  3.400000e+001  1.850000e+001  1.600000e+001
      vertex  3.400000e+001  1.850000e+001  9.500000e+000
      vertex  3.400000e+001  1.675517e+001  1.095885e+001
    endloop
  endfacet
  facet normal -9.999999e-001  0.000000e+000  0.000000e+000
    outer loop
      vertex  3.400000e+001  1.850000e+001  1.600000e+001
      vertex  3.400000e+001  1.675517e+001  1.095885e+001
      vertex  3.400000e+001  1.556308e+001  1.191910e+001
    endloop
  endfacet
  facet normal -1.000000e+000  -0.000000e+000  0.000000e+000
    outer loop
      vertex  3.400000e+001  1.850000e+001  1.600000e+001
      vertex  3.400000e+001  1.556308e+001  1.191910e+001
      vertex  3.400000e+001  1.404115e+001  1.175517e+001
    endloop
  endfacet
  facet normal -1.000000e+000  0.000000e+000  0.000000e+000
    outer loop
      vertex  3.400000e+001  1.850000e+001  1.600000e+001
      vertex  3.400000e+001  1.404115e+001  1.175517e+001
      vertex  3.400000e+001  1.150000e+001  1.600000e+001
    endloop
  endfacet
  facet normal -1.000000e+000  0.000000e+000  0.000000e+000
    outer loop
      vertex  3.400000e+001  1.391844e+001  6.171302e+000
      vertex  3.400000e+001  1.216844e+001  7.442751e+000
      vertex  3.400000e+001  1.608156e+001  6.171302e+000
    endloop
  endfacet
  facet normal -1.000000e+000  0.000000e+000  0.000000e+000
    outer loop
      vertex  3.400000e+001  1.608156e+001  6.171302e+000
      vertex  3.400000e+001  1.216844e+001  7.442751e+000
      vertex  3.400000e+001  1.443692e+001  8.080901e+000
    endloop
  endfacet
  facet normal -1.000000e+000  0.000000e+000  0.000000e+000
    outer loop
      vertex  3.400000e+001  1.608156e+001  6.171302e+000
      vertex  3.400000e+001  1.443692e+001  8.080901e+000
      vertex  3.400000e+001  1.783156e+001  7.442751e+000
    endloop
  endfacet
  facet normal -1.000000e+000  0.000000e+000  0.000000e+000
    outer loop
      vertex  3.400000e+001  1.783156e+001  7.442751e+000
      vertex  3.400000e+001  1.443692e+001  8.080901e+000
      vertex  3.400000e+001  1.595885e+001  8.244835e+000
    endloop
  endfacet
  facet normal -1.000000e+000  0.000000e+000  0.000000e+000
    outer loop
      vertex  3.400000e+001  1.783156e+001  7.442751e+000
      vertex  3.400000e+001  1.595885e+001  8.244835e+000
      vertex  3.400000e+001  1.850000e+001  9.500000e+000
    endloop
  endfacet
  facet normal -1.000000e+000  0.000000e+000  0.000000e+000
    outer loop
      vertex  3.400000e+001  1.850000e+001  9.500000e+000
      vertex  3.400000e+001  1.595885e+001  8.244835e+000
      vertex  3.400000e+001  1.691910e+001  9.436921e+000
    endloop
  endfacet
  facet normal -1.000000e+000  0.000000e+000  0.000000e+000
    outer loop
      vertex  3.400000e+001  1.850000e+001  9.500000e+000
      vertex  3.400000e+001  1.691910e+001  9.436921e+000
      vertex  3.400000e+001  1.675517e+001  1.095885e+001
    endloop
  endfacet
  facet normal -1.000000e+000  -0.000000e+000  0.000000e+000
    outer loop
      vertex  3.400000e+001  1.150000e+001  1.600000e+001
      vertex  3.400000e+001  1.404115e+001  1.175517e+001
      vertex  3.400000e+001  1.150000e+001  9.500000e+000
    endloop
  endfacet
  facet normal -1.000000e+000  0.000000e+000  0.000000e+000
    outer loop
      vertex  3.400000e+001  1.150000e+001  9.500000e+000
      vertex  3.400000e+001  1.404115e+001  1.175517e+001
      vertex  3.400000e+001  1.308090e+001  1.056308e+001
    endloop
  endfacet
  facet normal -9.999999e-001  0.000000e+000  -0.000000e+000
    outer loop
      vertex  3.400000e+001  1.150000e+001  9.500000e+000
      vertex  3.400000e+001  1.308090e+001  1.056308e+001
      vertex  3.400000e+001  1.324483e+001  9.041149e+000
    endloop
  endfacet
  facet normal -9.999999e-001  0.000000e+000  0.000000e+000
    outer loop
      vertex  3.400000e+001  1.324483e+001  9.041149e+000
      vertex  3.400000e+001  1.443692e+001  8.080901e+000
      vertex  3.400000e+001  1.150000e+001  9.500000e+000
    endloop
  endfacet
  facet normal -1.000000e+000  0.000000e+000  0.000000e+000
    outer loop
      vertex  3.400000e+001  1.150000e+001  9.500000e+000
      vertex  3.400000e+001  1.443692e+001  8.080901e+000
      vertex  3.400000e+001  1.216844e+001  7.442751e+000
    endloop
  endfacet
  facet normal  1.000000e+000  0.000000e+000  0.000000e+000
    outer loop
      vertex  3.800000e+001  1.443692e+001  8.080901e+000
      vertex  3.800000e+001  1.324483e+001  9.041149e+000
      vertex  3.800000e+001  6.000000e+000  0.000000e+000
    endloop
  endfacet
  facet normal  1.000000e+000  0.000000e+000  0.000000e+000
    outer loop
      vertex  3.800000e+001  6.000000e+000  1.600000e+001
      vertex  3.800000e+001  6.000000e+000  0.000000e+000
      vertex  3.800000e+001  1.324483e+001  9.041149e+000
    endloop
  endfacet
  facet normal  1.000000e+000  0.000000e+000  0.000000e+000
    outer loop
      vertex  3.800000e+001  6.000000e+000  1.600000e+001
      vertex  3.800000e+001  1.324483e+001  9.041149e+000
      vertex  3.800000e+001  1.308090e+001  1.056308e+001
    endloop
  endfacet
  facet normal  1.000000e+000  0.000000e+000  -0.000000e+000
    outer loop
      vertex  3.800000e+001  6.000000e+000  1.600000e+001
      vertex  3.800000e+001  1.308090e+001  1.056308e+001
      vertex  3.800000e+001  1.404115e+001  1.175517e+001
    endloop
  endfacet
  facet normal  1.000000e+000  0.000000e+000  -0.000000e+000
    outer loop
      vertex  3.800000e+001  6.000000e+000  1.600000e+001
      vertex  3.800000e+001  1.404115e+001  1.175517e+001
      vertex  3.800000e+001  4.414214e+001  1.600000e+001
    endloop
  endfacet
  facet normal  1.000000e+000  0.000000e+000  0.000000e+000
    outer loop
      vertex  3.800000e+001  4.414214e+001  1.600000e+001
      vertex  3.800000e+001  1.404115e+001  1.175517e+001
      vertex  3.800000e+001  1.556308e+001  1.191910e+001
    endloop
  endfacet
  facet normal  1.000000e+000  -0.000000e+000  0.000000e+000
    outer loop
      vertex  3.800000e+001  4.414214e+001  1.600000e+001
      vertex  3.800000e+001  1.556308e+001  1.191910e+001
      vertex  3.800000e+001  1.675517e+001  1.095885e+001
    endloop
  endfacet
  facet normal  1.000000e+000  0.000000e+000  0.000000e+000
    outer loop
      vertex  3.800000e+001  4.414214e+001  1.600000e+001
      vertex  3.800000e+001  1.675517e+001  1.095885e+001
      vertex  3.800000e+001  3.404115e+001  1.175517e+001
    endloop
  endfacet
  facet normal  1.000000e+000  0.000000e+000  0.000000e+000
    outer loop
      vertex  3.800000e+001  4.414214e+001  1.600000e+001
      vertex  3.800000e+001  3.404115e+001  1.175517e+001
      vertex  3.800000e+001  3.556308e+001  1.191910e+001
    endloop
  endfacet
  facet normal  1.000000e+000  -0.000000e+000  0.000000e+000
    outer loop
      vertex  3.800000e+001  4.414214e+001  1.600000e+001
      vertex  3.800000e+001  3.556308e+001  1.191910e+001
      vertex  3.800000e+001  3.675517e+001  1.095885e+001
    endloop
  endfacet
  facet normal  1.000000e+000  -0.000000e+000  0.000000e+000
    outer loop
      vertex  3.800000e+001  4.414214e+001  1.600000e+001
      vertex  3.800000e+001  3.675517e+001  1.095885e+001
      vertex  3.800000e+001  3.691910e+001  9.436921e+000
    endloop
  endfacet
  facet normal  9.999999e-001  -0.000000e+000  0.000000e+000
    outer loop
      vertex  3.800000e+001  4.414214e+001  1.600000e+001
      vertex  3.800000e+001  3.691910e+001  9.436921e+000
      vertex  3.800000e+001  4.414214e+001  0.000000e+000
    endloop
  endfacet
  facet normal  1.000000e+000  0.000000e+000  0.000000e+000
    outer loop
      vertex  3.800000e+001  4.414214e+001  0.000000e+000
      vertex  3.800000e+001  3.691910e+001  9.436921e+000
      vertex  3.800000e+001  3.595885e+001  8.244835e+000
    endloop
  endfacet
  facet normal  1.000000e+000  0.000000e+000  0.000000e+000
    outer loop
      vertex  3.800000e+001  4.414214e+001  0.000000e+000
      vertex  3.800000e+001  3.595885e+001  8.244835e+000
      vertex  3.800000e+001  3.443692e+001  8.080901e+000
    endloop
  endfacet
  facet normal  1.000000e+000  0.000000e+000  0.000000e+000
    outer loop
      vertex  3.800000e+001  4.414214e+001  0.000000e+000
      vertex  3.800000e+001  3.443692e+001  8.080901e+000
      vertex  3.800000e+001  3.324483e+001  9.041149e+000
    endloop
  endfacet
  facet normal  1.000000e+000  0.000000e+000  0.000000e+000
    outer loop
      vertex  3.800000e+001  4.414214e+001  0.000000e+000
      vertex  3.800000e+001  3.324483e+001  9.041149e+000
      vertex  3.800000e+001  1.691910e+001  9.436921e+000
    endloop
  endfacet
  facet normal  1.000000e+000  0.000000e+000  0.000000e+000
    outer loop
      vertex  3.800000e+001  4.414214e+001  0.000000e+000
      vertex  3.800000e+001  1.691910e+001  9.436921e+000
      vertex  3.800000e+001  1.595885e+001  8.244835e+000
    endloop
  endfacet
  facet normal  1.000000e+000  0.000000e+000  0.000000e+000
    outer loop
      vertex  3.800000e+001  4.414214e+001  0.000000e+000
      vertex  3.800000e+001  1.595885e+001  8.244835e+000
      vertex  3.800000e+001  1.443692e+001  8.080901e+000
    endloop
  endfacet
  facet normal  1.000000e+000  0.000000e+000  0.000000e+000
    outer loop
      vertex  3.800000e+001  4.414214e+001  0.000000e+000
      vertex  3.800000e+001  1.443692e+001  8.080901e+000
      vertex  3.800000e+001  6.000000e+000  0.000000e+000
    endloop
  endfacet
  facet normal  1.000000e+000  -0.000000e+000  0.000000e+000
    outer loop
      vertex  3.800000e+001  3.404115e+001  1.175517e+001
      vertex  3.800000e+001  1.675517e+001  1.095885e+001
      vertex  3.800000e+001  3.308090e+001  1.056308e+001
    endloop
  endfacet
  facet normal  1.000000e+000  0.000000e+000  0.000000e+000
    outer loop
      vertex  3.800000e+001  3.308090e+001  1.056308e+001
      vertex  3.800000e+001  1.675517e+001  1.095885e+001
      vertex  3.800000e+001  1.691910e+001  9.436921e+000
    endloop
  endfacet
  facet normal  1.000000e+000  -0.000000e+000  0.000000e+000
    outer loop
      vertex  3.800000e+001  3.308090e+001  1.056308e+001
      vertex  3.800000e+001  1.691910e+001  9.436921e+000
      vertex  3.800000e+001  3.324483e+001  9.041149e+000
    endloop
  endfacet
  facet normal  -0.000000e+000  9.942487e-001  1.070949e-001
    outer loop
      vertex  3.800000e+001  1.324483e+001  9.041149e+000
      vertex  3.400000e+001  1.324483e+001  9.041149e+000
      vertex  3.800000e+001  1.308090e+001  1.056308e+001
    endloop
  endfacet
  facet normal  0.000000e+000  9.942487e-001  1.070949e-001
    outer loop
      vertex  3.800000e+001  1.308090e+001  1.056308e+001
      vertex  3.400000e+001  1.324483e+001  9.041149e+000
      vertex  3.400000e+001  1.308090e+001  1.056308e+001
    endloop
  endfacet
  facet normal  0.000000e+000  7.787679e-001 -6.273122e-001
    outer loop
      vertex  3.800000e+001  1.308090e+001  1.056308e+001
      vertex  3.400000e+001  1.308090e+001  1.056308e+001
      vertex  3.800000e+001  1.404115e+001  1.175517e+001
    endloop
  endfacet
  facet normal  0.000000e+000  7.787679e-001 -6.273122e-001
    outer loop
      vertex  3.800000e+001  1.404115e+001  1.175517e+001
      vertex  3.400000e+001  1.308090e+001  1.056308e+001
      vertex  3.400000e+001  1.404115e+001  1.175517e+001
    endloop
  endfacet
  facet normal  0.000000e+000  1.070949e-001 -9.942487e-001
    outer loop
      vertex  3.800000e+001  1.404115e+001  1.175517e+001
      vertex  3.400000e+001  1.404115e+001  1.175517e+001
      vertex  3.800000e+001  1.556308e+001  1.191910e+001
    endloop
  endfacet
  facet normal  0.000000e+000  1.070949e-001 -9.942487e-001
    outer loop
      vertex  3.800000e+001  1.556308e+001  1.191910e+001
      vertex  3.400000e+001  1.404115e+001  1.175517e+001
      vertex  3.400000e+001  1.556308e+001  1.191910e+001
    endloop
  endfacet
  facet normal  0.000000e+000 -6.273122e-001 -7.787679e-001
    outer loop
      vertex  3.800000e+001  1.556308e+001  1.191910e+001
      vertex  3.400000e+001  1.556308e+001  1.191910e+001
      vertex  3.800000e+001  1.675517e+001  1.095885e+001
    endloop
  endfacet
  facet normal  -0.000000e+000 -6.273122e-001 -7.787679e-001
    outer loop
      vertex  3.800000e+001  1.675517e+001  1.095885e+001
      vertex  3.400000e+001  1.556308e+001  1.191910e+001
      vertex  3.400000e+001  1.675517e+001  1.095885e+001
    endloop
  endfacet
  facet normal  0.000000e+000 -9.942487e-001 -1.070955e-001
    outer loop
      vertex  3.800000e+001  1.675517e+001  1.095885e+001
      vertex  3.400000e+001  1.675517e+001  1.095885e+001
      vertex  3.800000e+001  1.691910e+001  9.436921e+000
    endloop
  endfacet
  facet normal  -0.000000e+000 -9.942487e-001 -1.070955e-001
    outer loop
      vertex  3.800000e+001  1.691910e+001  9.436921e+000
      vertex  3.400000e+001  1.675517e+001  1.095885e+001
      vertex  3.400000e+001  1.691910e+001  9.436921e+000
    endloop
  endfacet
  facet normal  0.000000e+000 -7.787675e-001  6.273126e-001
    outer loop
      vertex  3.800000e+001  1.691910e+001  9.436921e+000
      vertex  3.400000e+001  1.691910e+001  9.436921e+000
      vertex  3.800000e+001  1.595885e+001  8.244835e+000
    endloop
  endfacet
  facet normal  0.000000e+000 -7.787675e-001  6.273126e-001
    outer loop
      vertex  3.800000e+001  1.595885e+001  8.244835e+000
      vertex  3.400000e+001  1.691910e+001  9.436921e+000
      vertex  3.400000e+001  1.595885e+001  8.244835e+000
    endloop
  endfacet
  facet normal  0.000000e+000 -1.070949e-001  9.942487e-001
    outer loop
      vertex  3.800000e+001  1.595885e+001  8.244835e+000
      vertex  3.400000e+001  1.595885e+001  8.244835e+000
      vertex  3.800000e+001  1.443692e+001  8.080901e+000
    endloop
  endfacet
  facet normal  0.000000e+000 -1.070949e-001  9.942487e-001
    outer loop
      vertex  3.800000e+001  1.443692e+001  8.080901e+000
      vertex  3.400000e+001  1.595885e+001  8.244835e+000
      vertex  3.400000e+001  1.443692e+001  8.080901e+000
    endloop
  endfacet
  facet normal  -0.000000e+000  6.273122e-001  7.787679e-001
    outer loop
      vertex  3.800000e+001  1.443692e+001  8.080901e+000
      vertex  3.400000e+001  1.443692e+001  8.080901e+000
      vertex  3.800000e+001  1.324483e+001  9.041149e+000
    endloop
  endfacet
  facet normal  0.000000e+000  6.273122e-001  7.787679e-001
    outer loop
      vertex  3.800000e+001  1.324483e+001  9.041149e+000
      vertex  3.400000e+001  1.443692e+001  8.080901e+000
      vertex  3.400000e+001  1.324483e+001  9.041149e+000
    endloop
  endfacet
  facet normal -1.000000e+000  0.000000e+000  0.000000e+000
    outer loop
      vertex  3.400000e+001  3.850000e+001  9.500000e+000
      vertex  3.400000e+001  3.783156e+001  7.442751e+000
      vertex  3.400000e+001  3.595885e+001  8.244835e+000
    endloop
  endfacet
  facet normal -9.999999e-001  0.000000e+000  0.000000e+000
    outer loop
      vertex  3.400000e+001  3.850000e+001  9.500000e+000
      vertex  3.400000e+001  3.595885e+001  8.244835e+000
      vertex  3.400000e+001  3.691910e+001  9.436921e+000
    endloop
  endfacet
  facet normal -1.000000e+000  0.000000e+000  0.000000e+000
    outer loop
      vertex  3.400000e+001  3.850000e+001  9.500000e+000
      vertex  3.400000e+001  3.691910e+001  9.436921e+000
      vertex  3.400000e+001  3.675517e+001  1.095885e+001
    endloop
  endfacet
  facet normal -9.999999e-001  0.000000e+000  0.000000e+000
    outer loop
      vertex  3.400000e+001  3.850000e+001  9.500000e+000
      vertex  3.400000e+001  3.675517e+001  1.095885e+001
      vertex  3.400000e+001  3.850000e+001  1.600000e+001
    endloop
  endfacet
  facet normal -1.000000e+000  0.000000e+000  0.000000e+000
    outer loop
      vertex  3.400000e+001  3.391844e+001  6.171302e+000
      vertex  3.400000e+001  3.216844e+001  7.442751e+000
      vertex  3.400000e+001  3.608156e+001  6.171302e+000
    endloop
  endfacet
  facet normal -1.000000e+000  0.000000e+000  0.000000e+000
    outer loop
      vertex  3.400000e+001  3.608156e+001  6.171302e+000
      vertex  3.400000e+001  3.216844e+001  7.442751e+000
      vertex  3.400000e+001  3.443692e+001  8.080901e+000
    endloop
  endfacet
  facet normal -1.000000e+000  0.000000e+000  0.000000e+000
    outer loop
      vertex  3.400000e+001  3.608156e+001  6.171302e+000
      vertex  3.400000e+001  3.443692e+001  8.080901e+000
      vertex  3.400000e+001  3.783156e+001  7.442751e+000
    endloop
  endfacet
  facet normal -1.000000e+000  0.000000e+000  0.000000e+000
    outer loop
      vertex  3.400000e+001  3.783156e+001  7.442751e+000
      vertex  3.400000e+001  3.443692e+001  8.080901e+000
      vertex  3.400000e+001  3.595885e+001  8.244835e+000
    endloop
  endfacet
  facet normal -1.000000e+000  0.000000e+000  0.000000e+000
    outer loop
      vertex  3.400000e+001  3.308090e+001  1.056308e+001
      vertex  3.400000e+001  3.150000e+001  9.500000e+000
      vertex  3.400000e+001  3.404115e+001  1.175517e+001
    endloop
  endfacet
  facet normal -1.000000e+000  -0.000000e+000  0.000000e+000
    outer loop
      vertex  3.400000e+001  3.404115e+001  1.175517e+001
      vertex  3.400000e+001  3.150000e+001  9.500000e+000
      vertex  3.400000e+001  3.150000e+001  1.600000e+001
    endloop
  endfacet
  facet normal -1.000000e+000  0.000000e+000  0.000000e+000
    outer loop
      vertex  3.400000e+001  3.404115e+001  1.175517e+001
      vertex  3.400000e+001  3.150000e+001  1.600000e+001
      vertex  3.400000e+001  3.556308e+001  1.191910e+001
    endloop
  endfacet
  facet normal -9.999999e-001  0.000000e+000  0.000000e+000
    outer loop
      vertex  3.400000e+001  3.556308e+001  1.191910e+001
      vertex  3.400000e+001  3.150000e+001  1.600000e+001
      vertex  3.400000e+001  3.850000e+001  1.600000e+001
    endloop
  endfacet
  facet normal -1.000000e+000  0.000000e+000  0.000000e+000
    outer loop
      vertex  3.400000e+001  3.556308e+001  1.191910e+001
      vertex  3.400000e+001  3.850000e+001  1.600000e+001
      vertex  3.400000e+001  3.675517e+001  1.095885e+001
    endloop
  endfacet
  facet normal -9.999999e-001  0.000000e+000  0.000000e+000
    outer loop
      vertex  3.400000e+001  3.443692e+001  8.080901e+000
      vertex  3.400000e+001  3.216844e+001  7.442751e+000
      vertex  3.400000e+001  3.324483e+001  9.041149e+000
    endloop
  endfacet
  facet normal -1.000000e+000  -0.000000e+000  0.000000e+000
    outer loop
      vertex  3.400000e+001  3.324483e+001  9.041149e+000
      vertex  3.400000e+001  3.216844e+001  7.442751e+000
      vertex  3.400000e+001  3.150000e+001  9.500000e+000
    endloop
  endfacet
  facet normal -1.000000e+000  0.000000e+000  0.000000e+000
    outer loop
      vertex  3.400000e+001  3.324483e+001  9.041149e+000
      vertex  3.400000e+001  3.150000e+001  9.500000e+000
      vertex  3.400000e+001  3.308090e+001  1.056308e+001
    endloop
  endfacet
  facet normal  -0.000000e+000  9.942488e-001  1.070943e-001
    outer loop
      vertex  3.800000e+001  3.324483e+001  9.041149e+000
      vertex  3.400000e+001  3.324483e+001  9.041149e+000
      vertex  3.800000e+001  3.308090e+001  1.056308e+001
    endloop
  endfacet
  facet normal  0.000000e+000  9.942488e-001  1.070943e-001
    outer loop
      vertex  3.800000e+001  3.308090e+001  1.056308e+001
      vertex  3.400000e+001  3.324483e+001  9.041149e+000
      vertex  3.400000e+001  3.308090e+001  1.056308e+001
    endloop
  endfacet
  facet normal  0.000000e+000  7.787682e-001 -6.273119e-001
    outer loop
      vertex  3.800000e+001  3.308090e+001  1.056308e+001
      vertex  3.400000e+001  3.308090e+001  1.056308e+001
      vertex  3.800000e+001  3.404115e+001  1.175517e+001
    endloop
  endfacet
  facet normal  0.000000e+000  7.787682e-001 -6.273119e-001
    outer loop
      vertex  3.800000e+001  3.404115e+001  1.175517e+001
      vertex  3.400000e+001  3.308090e+001  1.056308e+001
      vertex  3.400000e+001  3.404115e+001  1.175517e+001
    endloop
  endfacet
  facet normal  0.000000e+000  1.070949e-001 -9.942488e-001
    outer loop
      vertex  3.800000e+001  3.404115e+001  1.175517e+001
      vertex  3.400000e+001  3.404115e+001  1.175517e+001
      vertex  3.800000e+001  3.556308e+001  1.191910e+001
    endloop
  endfacet
  facet normal  0.000000e+000  1.070949e-001 -9.942488e-001
    outer loop
      vertex  3.800000e+001  3.556308e+001  1.191910e+001
      vertex  3.400000e+001  3.404115e+001  1.175517e+001
      vertex  3.400000e+001  3.556308e+001  1.191910e+001
    endloop
  endfacet
  facet normal  0.000000e+000 -6.273125e-001 -7.787676e-001
    outer loop
      vertex  3.800000e+001  3.556308e+001  1.191910e+001
      vertex  3.400000e+001  3.556308e+001  1.191910e+001
      vertex  3.800000e+001  3.675517e+001  1.095885e+001
    endloop
  endfacet
  facet normal  -0.000000e+000 -6.273125e-001 -7.787676e-001
    outer loop
      vertex  3.800000e+001  3.675517e+001  1.095885e+001
      vertex  3.400000e+001  3.556308e+001  1.191910e+001
      vertex  3.400000e+001  3.675517e+001  1.095885e+001
    endloop
  endfacet
  facet normal  0.000000e+000 -9.942488e-001 -1.070943e-001
    outer loop
      vertex  3.800000e+001  3.675517e+001  1.095885e+001
      vertex  3.400000e+001  3.675517e+001  1.095885e+001
      vertex  3.800000e+001  3.691910e+001  9.436921e+000
    endloop
  endfacet
  facet normal  -0.000000e+000 -9.942488e-001 -1.070943e-001
    outer loop
      vertex  3.800000e+001  3.691910e+001  9.436921e+000
      vertex  3.400000e+001  3.675517e+001  1.095885e+001
      vertex  3.400000e+001  3.691910e+001  9.436921e+000
    endloop
  endfacet
  facet normal  0.000000e+000 -7.787682e-001  6.273119e-001
    outer loop
      vertex  3.800000e+001  3.691910e+001  9.436921e+000
      vertex  3.400000e+001  3.691910e+001  9.436921e+000
      vertex  3.800000e+001  3.595885e+001  8.244835e+000
    endloop
  endfacet
  facet normal  0.000000e+000 -7.787682e-001  6.273119e-001
    outer loop
      vertex  3.800000e+001  3.595885e+001  8.244835e+000
      vertex  3.400000e+001  3.691910e+001  9.436921e+000
      vertex  3.400000e+001  3.595885e+001  8.244835e+000
    endloop
  endfacet
  facet normal  0.000000e+000 -1.070949e-001  9.942488e-001
    outer loop
      vertex  3.800000e+001  3.595885e+001  8.244835e+000
      vertex  3.400000e+001  3.595885e+001  8.244835e+000
      vertex  3.800000e+001  3.443692e+001  8.080901e+000
    endloop
  endfacet
  facet normal  0.000000e+000 -1.070949e-001  9.942488e-001
    outer loop
      vertex  3.800000e+001  3.443692e+001  8.080901e+000
      vertex  3.400000e+001  3.595885e+001  8.244835e+000
      vertex  3.400000e+001  3.443692e+001  8.080901e+000
    endloop
  endfacet
  facet normal  -0.000000e+000  6.273125e-001  7.787676e-001
    outer loop
      vertex  3.800000e+001  3.443692e+001  8.080901e+000
      vertex  3.400000e+001  3.443692e+001  8.080901e+000
      vertex  3.800000e+001  3.324483e+001  9.041149e+000
    endloop
  endfacet
  facet normal  0.000000e+000  6.273125e-001  7.787676e-001
    outer loop
      vertex  3.800000e+001  3.324483e+001  9.041149e+000
      vertex  3.400000e+001  3.443692e+001  8.080901e+000
      vertex  3.400000e+001  3.324483e+001  9.041149e+000
    endloop
  endfacet
  facet normal -9.034601e-001 -4.280690e-001  2.273005e-002
    outer loop
      vertex  1.274482e+001  1.040583e+001  8.000000e+000
      vertex  1.190860e+001  1.174592e+001  0.000000e+000
      vertex  1.296711e+001  9.511867e+000  0.000000e+000
    endloop
  endfacet
  facet normal -8.397818e-001 -5.429146e-001 -3.164081e-003
    outer loop
      vertex  1.190860e+001  1.174592e+001  0.000000e+000
      vertex  1.274482e+001  1.040583e+001  8.000000e+000
      vertex  1.181910e+001  1.183772e+001  8.000000e+000
    endloop
  endfacet
  facet normal -4.788420e-001 -8.765149e-001  4.931448e-002
    outer loop
      vertex  1.000000e+001  1.287298e+001  1.500000e+000
      vertex  9.739092e+000  1.293112e+001  0.000000e+000
      vertex  1.190860e+001  1.174592e+001  0.000000e+000
    endloop
  endfacet
  facet normal -5.060049e-001 -8.625202e-001  4.237285e-003
    outer loop
      vertex  1.000000e+001  1.287298e+001  1.500000e+000
      vertex  1.190860e+001  1.174592e+001  0.000000e+000
      vertex  1.181910e+001  1.183772e+001  8.000000e+000
    endloop
  endfacet
  facet normal -6.266536e-001 -7.775925e-001  5.152877e-002
    outer loop
      vertex  1.000000e+001  1.287298e+001  1.500000e+000
      vertex  1.181910e+001  1.183772e+001  8.000000e+000
      vertex  1.087541e+001  1.253311e+001  7.017172e+000
    endloop
  endfacet
  facet normal -3.619275e-001 -9.322062e-001  0.000000e+000
    outer loop
      vertex  1.000000e+001  1.287298e+001  1.500000e+000
      vertex  1.087541e+001  1.253311e+001  7.017172e+000
      vertex  1.000000e+001  1.287298e+001  6.720468e+000
    endloop
  endfacet
  facet normal  4.462095e-001 -8.949285e-001  0.000000e+000
    outer loop
      vertex  8.000000e+000  1.287298e+001  1.500000e+000
      vertex  8.000000e+000  1.287298e+001  6.720468e+000
      vertex  6.508630e+000  1.212939e+001  7.497604e+000
    endloop
  endfacet
  facet normal  3.785726e-001 -9.253426e-001 -2.058947e-002
    outer loop
      vertex  8.000000e+000  1.287298e+001  1.500000e+000
      vertex  6.508630e+000  1.212939e+001  7.497604e+000
      vertex  7.287280e+000  1.261477e+001  0.000000e+000
    endloop
  endfacet
  facet normal  1.272005e-001 -9.858406e-001  1.092632e-001
    outer loop
      vertex  8.000000e+000  1.287298e+001  1.500000e+000
      vertex  7.287280e+000  1.261477e+001  0.000000e+000
      vertex  9.739092e+000  1.293112e+001  0.000000e+000
    endloop
  endfacet
  facet normal  0.000000e+000 -9.992496e-001 -3.873206e-002
    outer loop
      vertex  8.000000e+000  1.287298e+001  1.500000e+000
      vertex  9.739092e+000  1.293112e+001  0.000000e+000
      vertex  1.000000e+001  1.287298e+001  1.500000e+000
    endloop
  endfacet
  facet normal -9.827813e-001  1.847727e-001  0.000000e+000
    outer loop
      vertex  1.251033e+001  7.082298e+000  0.000000e+000
      vertex  1.251033e+001  7.082298e+000  8.000000e+000
      vertex  1.296711e+001  9.511867e+000  0.000000e+000
    endloop
  endfacet
  facet normal -9.591495e-001  2.812351e-001  3.064457e-002
    outer loop
      vertex  1.296711e+001  9.511867e+000  0.000000e+000
      vertex  1.251033e+001  7.082298e+000  8.000000e+000
      vertex  1.299008e+001  8.718486e+000  8.000000e+000
    endloop
  endfacet
  facet normal -9.895357e-001 -1.438349e-001 -1.142349e-002
    outer loop
      vertex  1.296711e+001  9.511867e+000  0.000000e+000
      vertex  1.299008e+001  8.718486e+000  8.000000e+000
      vertex  1.274482e+001  1.040583e+001  8.000000e+000
    endloop
  endfacet
  facet normal  7.994937e-001 -6.006745e-001  0.000000e+000
    outer loop
      vertex  5.489670e+000  1.091770e+001  8.000000e+000
      vertex  5.489670e+000  1.091770e+001  0.000000e+000
      vertex  6.180899e+000  1.183772e+001  8.000000e+000
    endloop
  endfacet
  facet normal  6.862773e-001 -7.269339e-001  2.430247e-002
    outer loop
      vertex  6.180899e+000  1.183772e+001  8.000000e+000
      vertex  5.489670e+000  1.091770e+001  0.000000e+000
      vertex  7.287280e+000  1.261477e+001  0.000000e+000
    endloop
  endfacet
  facet normal  6.848803e-001 -7.282609e-001  2.398038e-002
    outer loop
      vertex  6.180899e+000  1.183772e+001  8.000000e+000
      vertex  7.287280e+000  1.261477e+001  0.000000e+000
      vertex  6.508630e+000  1.212939e+001  7.497604e+000
    endloop
  endfacet
  facet normal  0.000000e+000  8.813881e-001  4.723930e-001
    outer loop
      vertex -4.656577e-016  1.183772e+001  8.000000e+000
      vertex  6.180899e+000  1.183772e+001  8.000000e+000
      vertex -3.552714e-015  1.200000e+001  7.697224e+000
    endloop
  endfacet
  facet normal -1.831411e-003  8.653415e-001  5.011793e-001
    outer loop
      vertex -3.552714e-015  1.200000e+001  7.697224e+000
      vertex  6.180899e+000  1.183772e+001  8.000000e+000
      vertex  6.508630e+000  1.212939e+001  7.497604e+000
    endloop
  endfacet
  facet normal  8.241439e-003  6.948566e-001  7.191011e-001
    outer loop
      vertex -3.552714e-015  1.200000e+001  7.697224e+000
      vertex  6.508630e+000  1.212939e+001  7.497604e+000
      vertex  1.265185e+000  1.326519e+001  6.460195e+000
    endloop
  endfacet
  facet normal  1.402823e-002  7.088723e-001  7.051975e-001
    outer loop
      vertex  1.265185e+000  1.326519e+001  6.460195e+000
      vertex  6.508630e+000  1.212939e+001  7.497604e+000
      vertex  8.000000e+000  1.287298e+001  6.720468e+000
    endloop
  endfacet
  facet normal -2.106493e-002  2.759722e-001  9.609348e-001
    outer loop
      vertex  1.265185e+000  1.326519e+001  6.460195e+000
      vertex  8.000000e+000  1.287298e+001  6.720468e+000
      vertex  3.000000e+000  1.500000e+001  6.000000e+000
    endloop
  endfacet
  facet normal  -0.000000e+000  3.208176e-001  9.471411e-001
    outer loop
      vertex  3.000000e+000  1.500000e+001  6.000000e+000
      vertex  8.000000e+000  1.287298e+001  6.720468e+000
      vertex  8.000000e+000  1.500000e+001  6.000000e+000
    endloop
  endfacet
  facet normal -3.800462e-002 -5.873605e-001  8.084326e-001
    outer loop
      vertex  3.000000e+001  1.675000e+001  6.468911e+000
      vertex  3.400000e+001  1.608156e+001  6.171302e+000
      vertex  3.400000e+001  1.783156e+001  7.442751e+000
    endloop
  endfacet
  facet normal -3.663759e-003  6.522649e-001  7.579823e-001
    outer loop
      vertex  1.000000e+001  1.287298e+001  6.720468e+000
      vertex  1.087541e+001  1.253311e+001  7.017172e+000
      vertex  3.400000e+001  1.216844e+001  7.442751e+000
    endloop
  endfacet
  facet normal -7.092344e-003  5.877703e-001  8.089967e-001
    outer loop
      vertex  1.000000e+001  1.287298e+001  6.720468e+000
      vertex  3.400000e+001  1.216844e+001  7.442751e+000
      vertex  3.400000e+001  1.391844e+001  6.171302e+000
    endloop
  endfacet
  facet normal  7.697094e-003  3.208081e-001  9.471130e-001
    outer loop
      vertex  1.000000e+001  1.287298e+001  6.720468e+000
      vertex  3.400000e+001  1.391844e+001  6.171302e+000
      vertex  1.000000e+001  1.500000e+001  6.000000e+000
    endloop
  endfacet
  facet normal  -0.000000e+000  1.564346e-001  9.876883e-001
    outer loop
      vertex  3.000000e+001  1.500000e+001  6.000000e+000
      vertex  1.000000e+001  1.500000e+001  6.000000e+000
      vertex  3.400000e+001  1.391844e+001  6.171302e+000
    endloop
  endfacet
  facet normal -4.278636e-002  0.000000e+000  9.990843e-001
    outer loop
      vertex  3.000000e+001  1.500000e+001  6.000000e+000
      vertex  3.400000e+001  1.391844e+001  6.171302e+000
      vertex  3.400000e+001  1.608156e+001  6.171302e+000
    endloop
  endfacet
  facet normal  2.860406e-002 -2.587132e-001  9.655306e-001
    outer loop
      vertex  3.000000e+001  1.500000e+001  6.000000e+000
      vertex  3.400000e+001  1.608156e+001  6.171302e+000
      vertex  3.000000e+001  1.675000e+001  6.468911e+000
    endloop
  endfacet
  facet normal  0.000000e+000  9.755787e-001  2.196501e-001
    outer loop
      vertex  3.000000e+001  1.150000e+001  9.500000e+000
      vertex  3.400000e+001  1.150000e+001  9.500000e+000
      vertex  3.000000e+001  1.183772e+001  8.000000e+000
    endloop
  endfacet
  facet normal -3.556054e-002  9.504550e-001  3.088216e-001
    outer loop
      vertex  3.000000e+001  1.183772e+001  8.000000e+000
      vertex  3.400000e+001  1.150000e+001  9.500000e+000
      vertex  3.400000e+001  1.216844e+001  7.442751e+000
    endloop
  endfacet
  facet normal  0.000000e+000  8.599552e-001  5.103695e-001
    outer loop
      vertex  3.000000e+001  1.183772e+001  8.000000e+000
      vertex  3.400000e+001  1.216844e+001  7.442751e+000
      vertex  1.181910e+001  1.183772e+001  8.000000e+000
    endloop
  endfacet
  facet normal  2.286800e-003  8.173641e-001  5.761169e-001
    outer loop
      vertex  1.181910e+001  1.183772e+001  8.000000e+000
      vertex  3.400000e+001  1.216844e+001  7.442751e+000
      vertex  1.087541e+001  1.253311e+001  7.017172e+000
    endloop
  endfacet
  facet normal  0.000000e+000 -9.510566e-001  3.090167e-001
    outer loop
      vertex  3.400000e+001  1.850000e+001  9.500000e+000
      vertex  3.000000e+001  1.850000e+001  9.500000e+000
      vertex  3.400000e+001  1.783156e+001  7.442751e+000
    endloop
  endfacet
  facet normal -2.829098e-002 -9.655393e-001  2.587150e-001
    outer loop
      vertex  3.400000e+001  1.783156e+001  7.442751e+000
      vertex  3.000000e+001  1.850000e+001  9.500000e+000
      vertex  3.000000e+001  1.803109e+001  7.750000e+000
    endloop
  endfacet
  facet normal  1.903878e-002 -7.069784e-001  7.069789e-001
    outer loop
      vertex  3.400000e+001  1.783156e+001  7.442751e+000
      vertex  3.000000e+001  1.803109e+001  7.750000e+000
      vertex  3.000000e+001  1.675000e+001  6.468911e+000
    endloop
  endfacet
  facet normal  0.000000e+000  1.000000e+000  0.000000e+000
    outer loop
      vertex  1.000000e+001  1.500000e+001  6.000000e+000
      vertex  3.000000e+001  1.500000e+001  6.000000e+000
      vertex  1.000000e+001  1.500000e+001  1.500000e+000
    endloop
  endfacet
  facet normal  -0.000000e+000  1.000000e+000  0.000000e+000
    outer loop
      vertex  1.000000e+001  1.500000e+001  1.500000e+000
      vertex  3.000000e+001  1.500000e+001  6.000000e+000
      vertex  3.000000e+001  1.500000e+001  0.000000e+000
    endloop
  endfacet
  facet normal  0.000000e+000  1.000000e+000  0.000000e+000
    outer loop
      vertex  1.000000e+001  1.500000e+001  1.500000e+000
      vertex  3.000000e+001  1.500000e+001  0.000000e+000
      vertex  8.000000e+000  1.500000e+001  1.500000e+000
    endloop
  endfacet
  facet normal  0.000000e+000  1.000000e+000  0.000000e+000
    outer loop
      vertex  8.000000e+000  1.500000e+001  1.500000e+000
      vertex  3.000000e+001  1.500000e+001  0.000000e+000
      vertex  3.000000e+000  1.500000e+001  0.000000e+000
    endloop
  endfacet
  facet normal  0.000000e+000  1.000000e+000  0.000000e+000
    outer loop
      vertex  8.000000e+000  1.500000e+001  1.500000e+000
      vertex  3.000000e+000  1.500000e+001  0.000000e+000
      vertex  8.000000e+000  1.500000e+001  6.000000e+000
    endloop
  endfacet
  facet normal  0.000000e+000  1.000000e+000  0.000000e+000
    outer loop
      vertex  8.000000e+000  1.500000e+001  6.000000e+000
      vertex  3.000000e+000  1.500000e+001  0.000000e+000
      vertex  3.000000e+000  1.500000e+001  6.000000e+000
    endloop
  endfacet
  facet normal  1.000000e+000  0.000000e+000  0.000000e+000
    outer loop
      vertex  8.000000e+000  1.500000e+001  6.000000e+000
      vertex  8.000000e+000  1.287298e+001  6.720468e+000
      vertex  8.000000e+000  1.500000e+001  1.500000e+000
    endloop
  endfacet
  facet normal  9.999999e-001  0.000000e+000  0.000000e+000
    outer loop
      vertex  8.000000e+000  1.500000e+001  1.500000e+000
      vertex  8.000000e+000  1.287298e+001  6.720468e+000
      vertex  8.000000e+000  1.287298e+001  1.500000e+000
    endloop
  endfacet
  facet normal -9.999999e-001  -0.000000e+000  0.000000e+000
    outer loop
      vertex  1.000000e+001  1.287298e+001  6.720468e+000
      vertex  1.000000e+001  1.500000e+001  6.000000e+000
      vertex  1.000000e+001  1.287298e+001  1.500000e+000
    endloop
  endfacet
  facet normal -1.000000e+000  0.000000e+000  0.000000e+000
    outer loop
      vertex  1.000000e+001  1.287298e+001  1.500000e+000
      vertex  1.000000e+001  1.500000e+001  6.000000e+000
      vertex  1.000000e+001  1.500000e+001  1.500000e+000
    endloop
  endfacet
  facet normal  0.000000e+000  0.000000e+000  1.000000e+000
    outer loop
      vertex  8.000000e+000  1.287298e+001  1.500000e+000
      vertex  1.000000e+001  1.287298e+001  1.500000e+000
      vertex  8.000000e+000  1.500000e+001  1.500000e+000
    endloop
  endfacet
  facet normal  -0.000000e+000  0.000000e+000  1.000000e+000
    outer loop
      vertex  8.000000e+000  1.500000e+001  1.500000e+000
      vertex  1.000000e+001  1.287298e+001  1.500000e+000
      vertex  1.000000e+001  1.500000e+001  1.500000e+000
    endloop
  endfacet
  facet normal  0.000000e+000  -0.000000e+000 -1.000000e+000
    outer loop
      vertex -4.656577e-016  1.200000e+001  0.000000e+000
      vertex  3.000000e+000  1.500000e+001  0.000000e+000
      vertex  9.739092e+000  1.293112e+001  0.000000e+000
    endloop
  endfacet
  facet normal  0.000000e+000  0.000000e+000 -1.000000e+000
    outer loop
      vertex -4.656577e-016  1.200000e+001  0.000000e+000
      vertex  9.739092e+000  1.293112e+001  0.000000e+000
      vertex  7.287280e+000  1.261477e+001  0.000000e+000
    endloop
  endfacet
  facet normal  0.000000e+000  0.000000e+000 -1.000000e+000
    outer loop
      vertex -4.656577e-016  1.200000e+001  0.000000e+000
      vertex  7.287280e+000  1.261477e+001  0.000000e+000
      vertex  5.489670e+000  1.091770e+001  0.000000e+000
    endloop
  endfacet
  facet normal  -0.000000e+000  0.000000e+000 -9.999999e-001
    outer loop
      vertex -4.656577e-016  1.200000e+001  0.000000e+000
      vertex  5.489670e+000  1.091770e+001  0.000000e+000
      vertex -4.656577e-016  5.000000e+000  0.000000e+000
    endloop
  endfacet
  facet normal  0.000000e+000  0.000000e+000 -1.000000e+000
    outer loop
      vertex  3.800000e+001  6.000000e+000  0.000000e+000
      vertex  3.200000e+001  8.014422e-016  0.000000e+000
      vertex  1.071272e+001  5.385226e+000  0.000000e+000
    endloop
  endfacet
  facet normal  0.000000e+000  0.000000e+000 -1.000000e+000
    outer loop
      vertex  3.800000e+001  6.000000e+000  0.000000e+000
      vertex  1.071272e+001  5.385226e+000  0.000000e+000
      vertex  1.251033e+001  7.082298e+000  0.000000e+000
    endloop
  endfacet
  facet normal  0.000000e+000  0.000000e+000 -1.000000e+000
    outer loop
      vertex  3.800000e+001  6.000000e+000  0.000000e+000
      vertex  1.251033e+001  7.082298e+000  0.000000e+000
      vertex  1.296711e+001  9.511867e+000  0.000000e+000
    endloop
  endfacet
  facet normal  0.000000e+000  0.000000e+000 -1.000000e+000
    outer loop
      vertex  3.800000e+001  6.000000e+000  0.000000e+000
      vertex  1.296711e+001  9.511867e+000  0.000000e+000
      vertex  1.190860e+001  1.174592e+001  0.000000e+000
    endloop
  endfacet
  facet normal  0.000000e+000  0.000000e+000 -1.000000e+000
    outer loop
      vertex  3.800000e+001  6.000000e+000  0.000000e+000
      vertex  1.190860e+001  1.174592e+001  0.000000e+000
      vertex  9.739092e+000  1.293112e+001  0.000000e+000
    endloop
  endfacet
  facet normal  0.000000e+000  0.000000e+000 -1.000000e+000
    outer loop
      vertex  3.800000e+001  6.000000e+000  0.000000e+000
      vertex  9.739092e+000  1.293112e+001  0.000000e+000
      vertex  3.000000e+000  1.500000e+001  0.000000e+000
    endloop
  endfacet
  facet normal  0.000000e+000  0.000000e+000 -9.999999e-001
    outer loop
      vertex  3.800000e+001  6.000000e+000  0.000000e+000
      vertex  3.000000e+000  1.500000e+001  0.000000e+000
      vertex  3.000000e+001  1.500000e+001  0.000000e+000
    endloop
  endfacet
  facet normal  0.000000e+000  0.000000e+000 -1.000000e+000
    outer loop
      vertex  3.800000e+001  6.000000e+000  0.000000e+000
      vertex  3.000000e+001  1.500000e+001  0.000000e+000
      vertex  3.000000e+001  3.800000e+001  0.000000e+000
    endloop
  endfacet
  facet normal  0.000000e+000  0.000000e+000 -1.000000e+000
    outer loop
      vertex  3.800000e+001  6.000000e+000  0.000000e+000
      vertex  3.000000e+001  3.800000e+001  0.000000e+000
      vertex  3.707107e+001  4.507107e+001  0.000000e+000
    endloop
  endfacet
  facet normal  0.000000e+000  0.000000e+000 -1.000000e+000
    outer loop
      vertex  3.800000e+001  6.000000e+000  0.000000e+000
      vertex  3.707107e+001  4.507107e+001  0.000000e+000
      vertex  3.800000e+001  4.414214e+001  0.000000e+000
    endloop
  endfacet
  facet normal  0.000000e+000  0.000000e+000 -1.000000e+000
    outer loop
      vertex -4.656577e-016  5.000000e+000  0.000000e+000
      vertex  5.489670e+000  1.091770e+001  0.000000e+000
      vertex  5.032886e+000  8.488133e+000  0.000000e+000
    endloop
  endfacet
  facet normal  0.000000e+000  -0.000000e+000 -1.000000e+000
    outer loop
      vertex -4.656577e-016  5.000000e+000  0.000000e+000
      vertex  5.032886e+000  8.488133e+000  0.000000e+000
      vertex  6.091405e+000  6.254080e+000  0.000000e+000
    endloop
  endfacet
  facet normal  0.000000e+000  -0.000000e+000 -1.000000e+000
    outer loop
      vertex -4.656577e-016  5.000000e+000  0.000000e+000
      vertex  6.091405e+000  6.254080e+000  0.000000e+000
      vertex  8.260908e+000  5.068875e+000  0.000000e+000
    endloop
  endfacet
  facet normal  0.000000e+000  0.000000e+000 -1.000000e+000
    outer loop
      vertex -4.656577e-016  5.000000e+000  0.000000e+000
      vertex  8.260908e+000  5.068875e+000  0.000000e+000
      vertex  5.000000e+000  8.881784e-016  0.000000e+000
    endloop
  endfacet
  facet normal  0.000000e+000  -0.000000e+000 -9.999999e-001
    outer loop
      vertex  5.000000e+000  8.881784e-016  0.000000e+000
      vertex  8.260908e+000  5.068875e+000  0.000000e+000
      vertex  3.200000e+001  8.014422e-016  0.000000e+000
    endloop
  endfacet
  facet normal  0.000000e+000  0.000000e+000 -1.000000e+000
    outer loop
      vertex  3.200000e+001  8.014422e-016  0.000000e+000
      vertex  8.260908e+000  5.068875e+000  0.000000e+000
      vertex  1.071272e+001  5.385226e+000  0.000000e+000
    endloop
  endfacet
  facet normal  0.000000e+000  0.000000e+000  1.000000e+000
    outer loop
      vertex  1.063496e+001  5.000000e+000  8.000000e+000
      vertex  3.000000e+001  5.000000e+000  8.000000e+000
      vertex  8.260908e+000  5.068875e+000  8.000000e+000
    endloop
  endfacet
  facet normal  0.000000e+000  0.000000e+000  1.000000e+000
    outer loop
      vertex  1.063496e+001  5.000000e+000  8.000000e+000
      vertex  8.260908e+000  5.068875e+000  8.000000e+000
      vertex -4.656577e-016  5.000000e+000  8.000000e+000
    endloop
  endfacet
  facet normal  -0.000000e+000  0.000000e+000  1.000000e+000
    outer loop
      vertex  1.063496e+001  5.000000e+000  8.000000e+000
      vertex -4.656577e-016  5.000000e+000  8.000000e+000
      vertex  5.000000e+000  8.014422e-016  8.000000e+000
    endloop
  endfacet
  facet normal  0.000000e+000  0.000000e+000  1.000000e+000
    outer loop
      vertex  1.063496e+001  5.000000e+000  8.000000e+000
      vertex  5.000000e+000  8.014422e-016  8.000000e+000
      vertex  1.063496e+001  8.014422e-016  8.000000e+000
    endloop
  endfacet
  facet normal  0.000000e+000  0.000000e+000  1.000000e+000
    outer loop
      vertex  3.000000e+001  5.000000e+000  8.000000e+000
      vertex  3.000000e+001  1.183772e+001  8.000000e+000
      vertex  1.181910e+001  1.183772e+001  8.000000e+000
    endloop
  endfacet
  facet normal  0.000000e+000  0.000000e+000  1.000000e+000
    outer loop
      vertex  3.000000e+001  5.000000e+000  8.000000e+000
      vertex  1.181910e+001  1.183772e+001  8.000000e+000
      vertex  1.274482e+001  1.040583e+001  8.000000e+000
    endloop
  endfacet
  facet normal  0.000000e+000  0.000000e+000  1.000000e+000
    outer loop
      vertex  3.000000e+001  5.000000e+000  8.000000e+000
      vertex  1.274482e+001  1.040583e+001  8.000000e+000
      vertex  1.299008e+001  8.718486e+000  8.000000e+000
    endloop
  endfacet
  facet normal  0.000000e+000  0.000000e+000  1.000000e+000
    outer loop
      vertex  3.000000e+001  5.000000e+000  8.000000e+000
      vertex  1.299008e+001  8.718486e+000  8.000000e+000
      vertex  1.251033e+001  7.082298e+000  8.000000e+000
    endloop
  endfacet
  facet normal  0.000000e+000  0.000000e+000  1.000000e+000
    outer loop
      vertex  3.000000e+001  5.000000e+000  8.000000e+000
      vertex  1.251033e+001  7.082298e+000  8.000000e+000
      vertex  1.071272e+001  5.385226e+000  8.000000e+000
    endloop
  endfacet
  facet normal  0.000000e+000  0.000000e+000  1.000000e+000
    outer loop
      vertex  3.000000e+001  5.000000e+000  8.000000e+000
      vertex  1.071272e+001  5.385226e+000  8.000000e+000
      vertex  8.260908e+000  5.068875e+000  8.000000e+000
    endloop
  endfacet
  facet normal  0.000000e+000  0.000000e+000  1.000000e+000
    outer loop
      vertex -4.656577e-016  5.000000e+000  8.000000e+000
      vertex  8.260908e+000  5.068875e+000  8.000000e+000
      vertex  6.091405e+000  6.254080e+000  8.000000e+000
    endloop
  endfacet
  facet normal  0.000000e+000  0.000000e+000  1.000000e+000
    outer loop
      vertex -4.656577e-016  5.000000e+000  8.000000e+000
      vertex  6.091405e+000  6.254080e+000  8.000000e+000
      vertex  5.032886e+000  8.488133e+000  8.000000e+000
    endloop
  endfacet
  facet normal  0.000000e+000  -0.000000e+000  1.000000e+000
    outer loop
      vertex -4.656577e-016  5.000000e+000  8.000000e+000
      vertex  5.032886e+000  8.488133e+000  8.000000e+000
      vertex  5.489670e+000  1.091770e+001  8.000000e+000
    endloop
  endfacet
  facet normal  0.000000e+000  -0.000000e+000  1.000000e+000
    outer loop
      vertex -4.656577e-016  5.000000e+000  8.000000e+000
      vertex  5.489670e+000  1.091770e+001  8.000000e+000
      vertex  6.180899e+000  1.183772e+001  8.000000e+000
    endloop
  endfacet
  facet normal  0.000000e+000  0.000000e+000  1.000000e+000
    outer loop
      vertex -4.656577e-016  5.000000e+000  8.000000e+000
      vertex  6.180899e+000  1.183772e+001  8.000000e+000
      vertex -4.656577e-016  1.183772e+001  8.000000e+000
    endloop
  endfacet
  facet normal  9.827812e-001 -1.847730e-001  0.000000e+000
    outer loop
      vertex  5.489670e+000  1.091770e+001  0.000000e+000
      vertex  5.489670e+000  1.091770e+001  8.000000e+000
      vertex  5.032886e+000  8.488133e+000  0.000000e+000
    endloop
  endfacet
  facet normal  9.827812e-001 -1.847730e-001  0.000000e+000
    outer loop
      vertex  5.032886e+000  8.488133e+000  0.000000e+000
      vertex  5.489670e+000  1.091770e+001  8.000000e+000
      vertex  5.032886e+000  8.488133e+000  8.000000e+000
    endloop
  endfacet
  facet normal  9.036935e-001  4.281801e-001  0.000000e+000
    outer loop
      vertex  5.032886e+000  8.488133e+000  0.000000e+000
      vertex  5.032886e+000  8.488133e+000  8.000000e+000
      vertex  6.091405e+000  6.254080e+000  0.000000e+000
    endloop
  endfacet
  facet normal  9.036935e-001  4.281801e-001  -0.000000e+000
    outer loop
      vertex  6.091405e+000  6.254080e+000  0.000000e+000
      vertex  5.032886e+000  8.488133e+000  8.000000e+000
      vertex  6.091405e+000  6.254080e+000  8.000000e+000
    endloop
  endfacet
  facet normal  4.794258e-001  8.775824e-001  0.000000e+000
    outer loop
      vertex  6.091405e+000  6.254080e+000  0.000000e+000
      vertex  6.091405e+000  6.254080e+000  8.000000e+000
      vertex  8.260908e+000  5.068875e+000  0.000000e+000
    endloop
  endfacet
  facet normal  4.794258e-001  8.775824e-001  -0.000000e+000
    outer loop
      vertex  8.260908e+000  5.068875e+000  0.000000e+000
      vertex  6.091405e+000  6.254080e+000  8.000000e+000
      vertex  8.260908e+000  5.068875e+000  8.000000e+000
    endloop
  endfacet
  facet normal -1.279668e-001  9.917785e-001  0.000000e+000
    outer loop
      vertex  8.260908e+000  5.068875e+000  0.000000e+000
      vertex  8.260908e+000  5.068875e+000  8.000000e+000
      vertex  1.071272e+001  5.385226e+000  0.000000e+000
    endloop
  endfacet
  facet normal -1.279668e-001  9.917785e-001  0.000000e+000
    outer loop
      vertex  1.071272e+001  5.385226e+000  0.000000e+000
      vertex  8.260908e+000  5.068875e+000  8.000000e+000
      vertex  1.071272e+001  5.385226e+000  8.000000e+000
    endloop
  endfacet
  facet normal -6.864800e-001  7.271488e-001  0.000000e+000
    outer loop
      vertex  1.071272e+001  5.385226e+000  0.000000e+000
      vertex  1.071272e+001  5.385226e+000  8.000000e+000
      vertex  1.251033e+001  7.082298e+000  0.000000e+000
    endloop
  endfacet
  facet normal -6.864800e-001  7.271488e-001  0.000000e+000
    outer loop
      vertex  1.251033e+001  7.082298e+000  0.000000e+000
      vertex  1.071272e+001  5.385226e+000  8.000000e+000
      vertex  1.251033e+001  7.082298e+000  8.000000e+000
    endloop
  endfacet
  facet normal -1.000000e+000  0.000000e+000  0.000000e+000
    outer loop
      vertex -4.656577e-016  5.000000e+000  0.000000e+000
      vertex -4.656577e-016  5.000000e+000  8.000000e+000
      vertex -4.656577e-016  1.200000e+001  0.000000e+000
    endloop
  endfacet
  facet normal -1.000000e+000  0.000000e+000  0.000000e+000
    outer loop
      vertex -4.656577e-016  1.200000e+001  0.000000e+000
      vertex -4.656577e-016  5.000000e+000  8.000000e+000
      vertex -4.656577e-016  1.183772e+001  8.000000e+000
    endloop
  endfacet
  facet normal -1.000000e+000 -1.977164e-014 -4.010610e-016
    outer loop
      vertex -4.656577e-016  1.200000e+001  0.000000e+000
      vertex -4.656577e-016  1.183772e+001  8.000000e+000
      vertex -3.552714e-015  1.200000e+001  7.697224e+000
    endloop
  endfacet
  facet normal -1.000000e+000  -0.000000e+000  0.000000e+000
    outer loop
      vertex  3.000000e+001  5.000000e+000  1.200000e+001
      vertex  3.000000e+001  1.150000e+001  1.200000e+001
      vertex  3.000000e+001  5.000000e+000  8.000000e+000
    endloop
  endfacet
  facet normal -1.000000e+000  0.000000e+000  0.000000e+000
    outer loop
      vertex  3.000000e+001  5.000000e+000  8.000000e+000
      vertex  3.000000e+001  1.150000e+001  1.200000e+001
      vertex  3.000000e+001  1.150000e+001  9.500000e+000
    endloop
  endfacet
  facet normal -1.000000e+000  0.000000e+000  -0.000000e+000
    outer loop
      vertex  3.000000e+001  5.000000e+000  8.000000e+000
      vertex  3.000000e+001  1.150000e+001  9.500000e+000
      vertex  3.000000e+001  1.183772e+001  8.000000e+000
    endloop
  endfacet
  facet normal  0.000000e+000  1.000000e+000  0.000000e+000
    outer loop
      vertex  1.063496e+001  5.000000e+000  8.000000e+000
      vertex  1.463496e+001  5.000000e+000  1.200000e+001
      vertex  3.000000e+001  5.000000e+000  8.000000e+000
    endloop
  endfacet
  facet normal  0.000000e+000  1.000000e+000  -0.000000e+000
    outer loop
      vertex  3.000000e+001  5.000000e+000  8.000000e+000
      vertex  1.463496e+001  5.000000e+000  1.200000e+001
      vertex  3.000000e+001  5.000000e+000  1.200000e+001
    endloop
  endfacet
  facet normal  0.000000e+000  1.000000e+000  0.000000e+000
    outer loop
      vertex  3.000000e+001  1.150000e+001  9.500000e+000
      vertex  3.000000e+001  1.150000e+001  1.200000e+001
      vertex  3.400000e+001  1.150000e+001  9.500000e+000
    endloop
  endfacet
  facet normal  0.000000e+000  1.000000e+000  -0.000000e+000
    outer loop
      vertex  3.400000e+001  1.150000e+001  9.500000e+000
      vertex  3.000000e+001  1.150000e+001  1.200000e+001
      vertex  3.400000e+001  1.150000e+001  1.600000e+001
    endloop
  endfacet
  facet normal -7.071068e-001  0.000000e+000  7.071068e-001
    outer loop
      vertex  1.063496e+001  8.014422e-016  8.000000e+000
      vertex  1.463496e+001  8.014422e-016  1.200000e+001
      vertex  1.063496e+001  5.000000e+000  8.000000e+000
    endloop
  endfacet
  facet normal -7.071068e-001  0.000000e+000  7.071068e-001
    outer loop
      vertex  1.063496e+001  5.000000e+000  8.000000e+000
      vertex  1.463496e+001  8.014422e-016  1.200000e+001
      vertex  1.463496e+001  5.000000e+000  1.200000e+001
    endloop
  endfacet
  facet normal  0.000000e+000  0.000000e+000  1.000000e+000
    outer loop
      vertex  1.463496e+001  8.014422e-016  1.200000e+001
      vertex  3.000000e+001  8.014422e-016  1.200000e+001
      vertex  1.463496e+001  5.000000e+000  1.200000e+001
    endloop
  endfacet
  facet normal  -0.000000e+000  0.000000e+000  1.000000e+000
    outer loop
      vertex  1.463496e+001  5.000000e+000  1.200000e+001
      vertex  3.000000e+001  8.014422e-016  1.200000e+001
      vertex  3.000000e+001  5.000000e+000  1.200000e+001
    endloop
  endfacet
  facet normal -7.071071e-001 -5.394799e-007  7.071064e-001
    outer loop
      vertex  3.000000e+001  8.014422e-016  1.200000e+001
      vertex  3.200000e+001  1.023487e-015  1.400000e+001
      vertex  3.000000e+001  5.000000e+000  1.200000e+001
    endloop
  endfacet
  facet normal -7.071069e-001 -3.853425e-007  7.071066e-001
    outer loop
      vertex  3.000000e+001  5.000000e+000  1.200000e+001
      vertex  3.200000e+001  1.023487e-015  1.400000e+001
      vertex  3.400000e+001  2.000000e+000  1.600000e+001
    endloop
  endfacet
  facet normal -7.071067e-001  0.000000e+000  7.071067e-001
    outer loop
      vertex  3.000000e+001  5.000000e+000  1.200000e+001
      vertex  3.400000e+001  2.000000e+000  1.600000e+001
      vertex  3.000000e+001  1.150000e+001  1.200000e+001
    endloop
  endfacet
  facet normal -7.071068e-001  0.000000e+000  7.071068e-001
    outer loop
      vertex  3.000000e+001  1.150000e+001  1.200000e+001
      vertex  3.400000e+001  2.000000e+000  1.600000e+001
      vertex  3.400000e+001  1.150000e+001  1.600000e+001
    endloop
  endfacet
  facet normal -7.071071e-001  0.000000e+000  7.071065e-001
    outer loop
      vertex  3.000000e+001  1.850000e+001  1.200000e+001
      vertex  3.400000e+001  1.850000e+001  1.600000e+001
      vertex  3.000000e+001  3.150000e+001  1.200000e+001
    endloop
  endfacet
  facet normal -7.071071e-001  0.000000e+000  7.071065e-001
    outer loop
      vertex  3.000000e+001  3.150000e+001  1.200000e+001
      vertex  3.400000e+001  1.850000e+001  1.600000e+001
      vertex  3.400000e+001  3.150000e+001  1.600000e+001
    endloop
  endfacet
  facet normal -7.071068e-001 -7.071068e-001  0.000000e+000
    outer loop
      vertex -4.656577e-016  5.000000e+000  0.000000e+000
      vertex  5.000000e+000  8.881784e-016  0.000000e+000
      vertex -4.656577e-016  5.000000e+000  8.000000e+000
    endloop
  endfacet
  facet normal -7.071068e-001 -7.071068e-001  0.000000e+000
    outer loop
      vertex -4.656577e-016  5.000000e+000  8.000000e+000
      vertex  5.000000e+000  8.881784e-016  0.000000e+000
      vertex  5.000000e+000  8.014422e-016  8.000000e+000
    endloop
  endfacet
  facet normal  9.516217e-017 -1.000000e+000  1.586033e-017
    outer loop
      vertex  3.000000e+001  8.014422e-016  1.200000e+001
      vertex  3.200000e+001  8.014422e-016  0.000000e+000
      vertex  3.200000e+001  1.023487e-015  1.400000e+001
    endloop
  endfacet
  facet normal  0.000000e+000 -1.000000e+000  0.000000e+000
    outer loop
      vertex  3.000000e+001  8.014422e-016  1.200000e+001
      vertex  1.463496e+001  8.014422e-016  1.200000e+001
      vertex  3.200000e+001  8.014422e-016  0.000000e+000
    endloop
  endfacet
  facet normal  0.000000e+000 -9.999999e-001  0.000000e+000
    outer loop
      vertex  3.200000e+001  8.014422e-016  0.000000e+000
      vertex  1.463496e+001  8.014422e-016  1.200000e+001
      vertex  1.063496e+001  8.014422e-016  8.000000e+000
    endloop
  endfacet
  facet normal -3.212451e-018 -1.000000e+000 -8.579268e-018
    outer loop
      vertex  3.200000e+001  8.014422e-016  0.000000e+000
      vertex  1.063496e+001  8.014422e-016  8.000000e+000
      vertex  5.000000e+000  8.881784e-016  0.000000e+000
    endloop
  endfacet
  facet normal  0.000000e+000 -1.000000e+000 -1.084202e-017
    outer loop
      vertex  5.000000e+000  8.881784e-016  0.000000e+000
      vertex  1.063496e+001  8.014422e-016  8.000000e+000
      vertex  5.000000e+000  8.014422e-016  8.000000e+000
    endloop
  endfacet
  facet normal  7.071067e-001 -7.071067e-001  0.000000e+000
    outer loop
      vertex  3.200000e+001  8.014422e-016  0.000000e+000
      vertex  3.800000e+001  6.000000e+000  0.000000e+000
      vertex  3.200000e+001  1.023487e-015  1.400000e+001
    endloop
  endfacet
  facet normal  7.071068e-001 -7.071068e-001  0.000000e+000
    outer loop
      vertex  3.200000e+001  1.023487e-015  1.400000e+001
      vertex  3.800000e+001  6.000000e+000  0.000000e+000
      vertex  3.800000e+001  6.000000e+000  1.600000e+001
    endloop
  endfacet
  facet normal  7.071067e-001 -7.071067e-001  0.000000e+000
    outer loop
      vertex  3.200000e+001  1.023487e-015  1.400000e+001
      vertex  3.800000e+001  6.000000e+000  1.600000e+001
      vertex  3.400000e+001  2.000000e+000  1.600000e+001
    endloop
  endfacet
  facet normal  0.000000e+000  0.000000e+000  1.000000e+000
    outer loop
      vertex  3.800000e+001  6.000000e+000  1.600000e+001
      vertex  3.800000e+001  4.414214e+001  1.600000e+001
      vertex  3.707107e+001  4.507107e+001  1.600000e+001
    endloop
  endfacet
  facet normal  0.000000e+000  0.000000e+000  1.000000e+000
    outer loop
      vertex  3.800000e+001  6.000000e+000  1.600000e+001
      vertex  3.707107e+001  4.507107e+001  1.600000e+001
      vertex  3.400000e+001  4.200000e+001  1.600000e+001
    endloop
  endfacet
  facet normal  0.000000e+000  0.000000e+000  1.000000e+000
    outer loop
      vertex  3.800000e+001  6.000000e+000  1.600000e+001
      vertex  3.400000e+001  4.200000e+001  1.600000e+001
      vertex  3.400000e+001  3.850000e+001  1.600000e+001
    endloop
  endfacet
  facet normal  0.000000e+000  0.000000e+000  1.000000e+000
    outer loop
      vertex  3.800000e+001  6.000000e+000  1.600000e+001
      vertex  3.400000e+001  3.850000e+001  1.600000e+001
      vertex  3.400000e+001  3.150000e+001  1.600000e+001
    endloop
  endfacet
  facet normal  0.000000e+000  0.000000e+000  1.000000e+000
    outer loop
      vertex  3.800000e+001  6.000000e+000  1.600000e+001
      vertex  3.400000e+001  3.150000e+001  1.600000e+001
      vertex  3.400000e+001  1.850000e+001  1.600000e+001
    endloop
  endfacet
  facet normal  0.000000e+000  0.000000e+000  1.000000e+000
    outer loop
      vertex  3.800000e+001  6.000000e+000  1.600000e+001
      vertex  3.400000e+001  1.850000e+001  1.600000e+001
      vertex  3.400000e+001  1.150000e+001  1.600000e+001
    endloop
  endfacet
  facet normal  0.000000e+000  0.000000e+000  1.000000e+000
    outer loop
      vertex  3.800000e+001  6.000000e+000  1.600000e+001
      vertex  3.400000e+001  1.150000e+001  1.600000e+001
      vertex  3.400000e+001  2.000000e+000  1.600000e+001
    endloop
  endfacet
  facet normal -1.000000e+000  3.093802e-007 -8.289802e-008
    outer loop
      vertex  3.000000e+001  3.150000e+001  1.200000e+001
      vertex  3.000000e+001  1.803109e+001  7.750000e+000
      vertex  3.000000e+001  1.850000e+001  9.500000e+000
    endloop
  endfacet
  facet normal -1.000000e+000  0.000000e+000  1.525879e-006
    outer loop
      vertex  3.000000e+001  1.850000e+001  1.200000e+001
      vertex  3.000000e+001  3.150000e+001  1.200000e+001
      vertex  3.000000e+001  1.850000e+001  9.500000e+000
    endloop
  endfacet
  facet normal -1.000000e+000  0.000000e+000  -0.000000e+000
    outer loop
      vertex  3.000000e+001  3.629684e+001  6.249120e+000
      vertex  3.000000e+001  3.800000e+001  7.697224e+000
      vertex  3.000000e+001  3.800000e+001  0.000000e+000
    endloop
  endfacet
  facet normal -1.000000e+000  0.000000e+000  0.000000e+000
    outer loop
      vertex  3.000000e+001  1.500000e+001  0.000000e+000
      vertex  3.000000e+001  1.500000e+001  6.000000e+000
      vertex  3.000000e+001  1.675000e+001  6.468911e+000
    endloop
  endfacet
  facet normal -1.000000e+000  0.000000e+000  -0.000000e+000
    outer loop
      vertex  3.000000e+001  1.500000e+001  0.000000e+000
      vertex  3.000000e+001  1.675000e+001  6.468911e+000
      vertex  3.000000e+001  1.803109e+001  7.750000e+000
    endloop
  endfacet
  facet normal -1.000000e+000  3.230960e-007 -1.263655e-007
    outer loop
      vertex  3.000000e+001  1.500000e+001  0.000000e+000
      vertex  3.000000e+001  1.803109e+001  7.750000e+000
      vertex  3.000000e+001  3.150000e+001  1.200000e+001
    endloop
  endfacet
  facet normal -9.999999e-001 -8.785363e-007  1.525879e-006
    outer loop
      vertex  3.000000e+001  1.500000e+001  0.000000e+000
      vertex  3.000000e+001  3.150000e+001  1.200000e+001
      vertex  3.000000e+001  3.150000e+001  9.500000e+000
    endloop
  endfacet
  facet normal -1.000000e+000  0.000000e+000  -0.000000e+000
    outer loop
      vertex  3.000000e+001  1.500000e+001  0.000000e+000
      vertex  3.000000e+001  3.150000e+001  9.500000e+000
      vertex  3.000000e+001  3.221397e+001  7.381504e+000
    endloop
  endfacet
  facet normal -1.000000e+000  0.000000e+000  -0.000000e+000
    outer loop
      vertex  3.000000e+001  1.500000e+001  0.000000e+000
      vertex  3.000000e+001  3.221397e+001  7.381504e+000
      vertex  3.000000e+001  3.406459e+001  6.127316e+000
    endloop
  endfacet
  facet normal -1.000000e+000  0.000000e+000  -0.000000e+000
    outer loop
      vertex  3.000000e+001  1.500000e+001  0.000000e+000
      vertex  3.000000e+001  3.406459e+001  6.127316e+000
      vertex  3.000000e+001  3.629684e+001  6.249120e+000
    endloop
  endfacet
  facet normal -1.000000e+000  0.000000e+000  -0.000000e+000
    outer loop
      vertex  3.000000e+001  1.500000e+001  0.000000e+000
      vertex  3.000000e+001  3.629684e+001  6.249120e+000
      vertex  3.000000e+001  3.800000e+001  0.000000e+000
    endloop
  endfacet
  facet normal -7.071068e-001  7.071068e-001  0.000000e+000
    outer loop
      vertex  3.707107e+001  4.507107e+001  1.600000e+001
      vertex  3.707107e+001  4.507107e+001  0.000000e+000
      vertex  3.000000e+001  3.800000e+001  0.000000e+000
    endloop
  endfacet
  facet normal -7.071068e-001  7.071068e-001  0.000000e+000
    outer loop
      vertex  3.707107e+001  4.507107e+001  1.600000e+001
      vertex  3.000000e+001  3.800000e+001  0.000000e+000
      vertex  3.000000e+001  3.800000e+001  7.697224e+000
    endloop
  endfacet
  facet normal -7.071068e-001  7.071068e-001  0.000000e+000
    outer loop
      vertex  3.707107e+001  4.507107e+001  1.600000e+001
      vertex  3.000000e+001  3.800000e+001  7.697224e+000
      vertex  3.030920e+001  3.830920e+001  8.360188e+000
    endloop
  endfacet
  facet normal -7.071068e-001  7.071068e-001  0.000000e+000
    outer loop
      vertex  3.707107e+001  4.507107e+001  1.600000e+001
      vertex  3.030920e+001  3.830920e+001  8.360188e+000
      vertex  3.050000e+001  3.850000e+001  9.500000e+000
    endloop
  endfacet
  facet normal -7.071068e-001  7.071068e-001  0.000000e+000
    outer loop
      vertex  3.707107e+001  4.507107e+001  1.600000e+001
      vertex  3.050000e+001  3.850000e+001  9.500000e+000
      vertex  3.050000e+001  3.850000e+001  1.250000e+001
    endloop
  endfacet
  facet normal -7.071068e-001  7.071068e-001  0.000000e+000
    outer loop
      vertex  3.707107e+001  4.507107e+001  1.600000e+001
      vertex  3.050000e+001  3.850000e+001  1.250000e+001
      vertex  3.400000e+001  4.200000e+001  1.600000e+001
    endloop
  endfacet
  facet normal  0.000000e+000 -1.000000e+000  0.000000e+000
    outer loop
      vertex  3.050000e+001  3.850000e+001  1.250000e+001
      vertex  3.050000e+001  3.850000e+001  9.500000e+000
      vertex  3.400000e+001  3.850000e+001  1.600000e+001
    endloop
  endfacet
  facet normal  0.000000e+000 -1.000000e+000  -0.000000e+000
    outer loop
      vertex  3.400000e+001  3.850000e+001  1.600000e+001
      vertex  3.050000e+001  3.850000e+001  9.500000e+000
      vertex  3.400000e+001  3.850000e+001  9.500000e+000
    endloop
  endfacet
  facet normal  0.000000e+000  1.000000e+000  0.000000e+000
    outer loop
      vertex  3.000000e+001  3.150000e+001  9.500000e+000
      vertex  3.000000e+001  3.150000e+001  1.200000e+001
      vertex  3.400000e+001  3.150000e+001  9.500000e+000
    endloop
  endfacet
  facet normal  0.000000e+000  9.999999e-001  -0.000000e+000
    outer loop
      vertex  3.400000e+001  3.150000e+001  9.500000e+000
      vertex  3.000000e+001  3.150000e+001  1.200000e+001
      vertex  3.400000e+001  3.150000e+001  1.600000e+001
    endloop
  endfacet
  facet normal  0.000000e+000 -1.000000e+000  0.000000e+000
    outer loop
      vertex  3.000000e+001  1.850000e+001  1.200000e+001
      vertex  3.000000e+001  1.850000e+001  9.500000e+000
      vertex  3.400000e+001  1.850000e+001  1.600000e+001
    endloop
  endfacet
  facet normal  0.000000e+000 -1.000000e+000  -0.000000e+000
    outer loop
      vertex  3.400000e+001  1.850000e+001  1.600000e+001
      vertex  3.000000e+001  1.850000e+001  9.500000e+000
      vertex  3.400000e+001  1.850000e+001  9.500000e+000
    endloop
  endfacet
  facet normal -7.071070e-001  0.000000e+000  7.071065e-001
    outer loop
      vertex  3.400000e+001  3.850000e+001  1.600000e+001
      vertex  3.400000e+001  4.200000e+001  1.600000e+001
      vertex  3.050000e+001  3.850000e+001  1.250000e+001
    endloop
  endfacet
  facet normal -7.071068e-001  7.071069e-001  0.000000e+000
    outer loop
      vertex  3.000000e+000  1.500000e+001  6.000000e+000
      vertex  3.000000e+000  1.500000e+001  0.000000e+000
      vertex  1.265185e+000  1.326519e+001  6.460195e+000
    endloop
  endfacet
  facet normal -7.071068e-001  7.071068e-001 -2.609633e-008
    outer loop
      vertex  1.265185e+000  1.326519e+001  6.460195e+000
      vertex  3.000000e+000  1.500000e+001  0.000000e+000
      vertex -4.656577e-016  1.200000e+001  0.000000e+000
    endloop
  endfacet
  facet normal -7.071068e-001  7.071067e-001 -2.835929e-016
    outer loop
      vertex  1.265185e+000  1.326519e+001  6.460195e+000
      vertex -4.656577e-016  1.200000e+001  0.000000e+000
      vertex -3.552714e-015  1.200000e+001  7.697224e+000
    endloop
  endfacet
  facet normal  1.649098e-002 -5.447743e-002  9.983789e-001
    outer loop
      vertex  3.400000e+001  3.608156e+001  6.171302e+000
      vertex  3.000000e+001  3.629684e+001  6.249120e+000
      vertex  3.000000e+001  3.406459e+001  6.127316e+000
    endloop
  endfacet
  facet normal -1.589338e-002 -5.877109e-001  8.089148e-001
    outer loop
      vertex  3.000000e+001  3.629684e+001  6.249120e+000
      vertex  3.400000e+001  3.608156e+001  6.171302e+000
      vertex  3.400000e+001  3.783156e+001  7.442751e+000
    endloop
  endfacet
  facet normal  2.118530e-002 -6.476108e-001  7.616767e-001
    outer loop
      vertex  3.000000e+001  3.629684e+001  6.249120e+000
      vertex  3.400000e+001  3.783156e+001  7.442751e+000
      vertex  3.000000e+001  3.800000e+001  7.697224e+000
    endloop
  endfacet
  facet normal  0.000000e+000  9.476312e-001  3.193666e-001
    outer loop
      vertex  3.000000e+001  3.150000e+001  9.500000e+000
      vertex  3.400000e+001  3.150000e+001  9.500000e+000
      vertex  3.000000e+001  3.221397e+001  7.381504e+000
    endloop
  endfacet
  facet normal  6.092376e-003  9.510387e-001  3.090118e-001
    outer loop
      vertex  3.000000e+001  3.221397e+001  7.381504e+000
      vertex  3.400000e+001  3.150000e+001  9.500000e+000
      vertex  3.400000e+001  3.216844e+001  7.442751e+000
    endloop
  endfacet
  facet normal -6.290116e-003  5.610034e-001  8.277896e-001
    outer loop
      vertex  3.000000e+001  3.221397e+001  7.381504e+000
      vertex  3.400000e+001  3.216844e+001  7.442751e+000
      vertex  3.000000e+001  3.406459e+001  6.127316e+000
    endloop
  endfacet
  facet normal  1.257793e-002  5.877387e-001  8.089532e-001
    outer loop
      vertex  3.000000e+001  3.406459e+001  6.127316e+000
      vertex  3.400000e+001  3.216844e+001  7.442751e+000
      vertex  3.400000e+001  3.391844e+001  6.171302e+000
    endloop
  endfacet
  facet normal -1.099603e-002  0.000000e+000  9.999395e-001
    outer loop
      vertex  3.000000e+001  3.406459e+001  6.127316e+000
      vertex  3.400000e+001  3.391844e+001  6.171302e+000
      vertex  3.400000e+001  3.608156e+001  6.171302e+000
    endloop
  endfacet
  facet normal -1.092412e-002 -9.042616e-001  4.268392e-001
    outer loop
      vertex  3.000000e+001  3.800000e+001  7.697224e+000
      vertex  3.400000e+001  3.783156e+001  7.442751e+000
      vertex  3.030920e+001  3.830920e+001  8.360188e+000
    endloop
  endfacet
  facet normal -4.621810e-002 -9.500400e-001  3.086873e-001
    outer loop
      vertex  3.030920e+001  3.830920e+001  8.360188e+000
      vertex  3.400000e+001  3.783156e+001  7.442751e+000
      vertex  3.400000e+001  3.850000e+001  9.500000e+000
    endloop
  endfacet
  facet normal  0.000000e+000 -9.862776e-001  1.650955e-001
    outer loop
      vertex  3.030920e+001  3.830920e+001  8.360188e+000
      vertex  3.400000e+001  3.850000e+001  9.500000e+000
      vertex  3.050000e+001  3.850000e+001  9.500000e+000
    endloop
  endfacet
  facet normal  7.071067e-001  7.071067e-001  0.000000e+000
    outer loop
      vertex  3.800000e+001  4.414214e+001  0.000000e+000
      vertex  3.707107e+001  4.507107e+001  0.000000e+000
      vertex  3.800000e+001  4.414214e+001  1.600000e+001
    endloop
  endfacet
  facet normal  7.071067e-001  7.071067e-001  0.000000e+000
    outer loop
      vertex  3.800000e+001  4.414214e+001  1.600000e+001
      vertex  3.707107e+001  4.507107e+001  0.000000e+000
      vertex  3.707107e+001  4.507107e+001  1.600000e+001
    endloop
  endfacet
endsolid CATIA STL
