solid CATIA STL
  facet normal  -0.000000e+000  -0.000000e+000  1.000000e+000
    outer loop
      vertex -1.081560e+000  3.328698e+000  3.000000e+001
      vertex -5.912330e-001  2.015054e+000  3.000000e+001
      vertex  1.006794e+000  1.842923e+000  3.000000e+001
    endloop
  endfacet
  facet normal  0.000000e+000  0.000000e+000  1.000000e+000
    outer loop
      vertex  2.831559e+000 -2.057248e+000  3.000000e+001
      vertex  1.299389e+000 -1.649723e+000  3.000000e+001
      vertex  5.702775e-001 -2.021085e+000  3.000000e+001
    endloop
  endfacet
  facet normal  -0.000000e+000  0.000000e+000  9.999999e-001
    outer loop
      vertex -1.542878e+000 -1.424615e+000  3.000000e+001
      vertex -2.831559e+000 -2.057248e+000  3.000000e+001
      vertex -2.454107e-001 -2.085611e+000  3.000000e+001
    endloop
  endfacet
  facet normal  0.000000e+000  0.000000e+000  1.000000e+000
    outer loop
      vertex -2.454107e-001 -2.085611e+000  3.000000e+001
      vertex -2.831559e+000 -2.057248e+000  3.000000e+001
      vertex -1.081560e+000 -3.328698e+000  3.000000e+001
    endloop
  endfacet
  facet normal  0.000000e+000  0.000000e+000  9.999999e-001
    outer loop
      vertex -2.454107e-001 -2.085611e+000  3.000000e+001
      vertex -1.081560e+000 -3.328698e+000  3.000000e+001
      vertex  5.702775e-001 -2.021085e+000  3.000000e+001
    endloop
  endfacet
  facet normal  0.000000e+000  0.000000e+000  9.999999e-001
    outer loop
      vertex  5.702775e-001 -2.021085e+000  3.000000e+001
      vertex -1.081560e+000 -3.328698e+000  3.000000e+001
      vertex  1.081560e+000 -3.328698e+000  3.000000e+001
    endloop
  endfacet
  facet normal  0.000000e+000  -0.000000e+000  1.000000e+000
    outer loop
      vertex  5.702775e-001 -2.021085e+000  3.000000e+001
      vertex  1.081560e+000 -3.328698e+000  3.000000e+001
      vertex  2.831559e+000 -2.057248e+000  3.000000e+001
    endloop
  endfacet
  facet normal  -0.000000e+000  0.000000e+000  1.000000e+000
    outer loop
      vertex  1.081559e+000  3.328698e+000  3.000000e+001
      vertex -1.081560e+000  3.328698e+000  3.000000e+001
      vertex  2.831559e+000  2.057249e+000  3.000000e+001
    endloop
  endfacet
  facet normal  0.000000e+000  0.000000e+000  1.000000e+000
    outer loop
      vertex  2.831559e+000  2.057249e+000  3.000000e+001
      vertex -1.081560e+000  3.328698e+000  3.000000e+001
      vertex  1.006794e+000  1.842923e+000  3.000000e+001
    endloop
  endfacet
  facet normal  -0.000000e+000  0.000000e+000  1.000000e+000
    outer loop
      vertex  2.831559e+000  2.057249e+000  3.000000e+001
      vertex  1.006794e+000  1.842923e+000  3.000000e+001
      vertex  3.500000e+000  5.096428e-016  3.000000e+001
    endloop
  endfacet
  facet normal  0.000000e+000  0.000000e+000  1.000000e+000
    outer loop
      vertex  3.500000e+000  5.096428e-016  3.000000e+001
      vertex  1.006794e+000  1.842923e+000  3.000000e+001
      vertex  2.015054e+000  5.912330e-001  3.000000e+001
    endloop
  endfacet
  facet normal  0.000000e+000  0.000000e+000  9.999999e-001
    outer loop
      vertex  3.500000e+000  5.096428e-016  3.000000e+001
      vertex  2.015054e+000  5.912330e-001  3.000000e+001
      vertex  2.831559e+000 -2.057248e+000  3.000000e+001
    endloop
  endfacet
  facet normal  0.000000e+000  0.000000e+000  1.000000e+000
    outer loop
      vertex  2.831559e+000 -2.057248e+000  3.000000e+001
      vertex  2.015054e+000  5.912330e-001  3.000000e+001
      vertex  1.842923e+000 -1.006794e+000  3.000000e+001
    endloop
  endfacet
  facet normal  0.000000e+000  0.000000e+000  1.000000e+000
    outer loop
      vertex  2.831559e+000 -2.057248e+000  3.000000e+001
      vertex  1.842923e+000 -1.006794e+000  3.000000e+001
      vertex  1.299389e+000 -1.649723e+000  3.000000e+001
    endloop
  endfacet
  facet normal  0.000000e+000  0.000000e+000  1.000000e+000
    outer loop
      vertex -3.500000e+000 -8.470385e-007  3.000000e+001
      vertex -1.842923e+000  1.006794e+000  3.000000e+001
      vertex -2.831560e+000  2.057248e+000  3.000000e+001
    endloop
  endfacet
  facet normal  0.000000e+000  0.000000e+000  1.000000e+000
    outer loop
      vertex -2.831560e+000  2.057248e+000  3.000000e+001
      vertex -1.842923e+000  1.006794e+000  3.000000e+001
      vertex -5.912330e-001  2.015054e+000  3.000000e+001
    endloop
  endfacet
  facet normal  0.000000e+000  0.000000e+000  1.000000e+000
    outer loop
      vertex -2.831560e+000  2.057248e+000  3.000000e+001
      vertex -5.912330e-001  2.015054e+000  3.000000e+001
      vertex -1.081560e+000  3.328698e+000  3.000000e+001
    endloop
  endfacet
  facet normal  0.000000e+000  0.000000e+000  1.000000e+000
    outer loop
      vertex -2.831559e+000 -2.057248e+000  3.000000e+001
      vertex -1.542878e+000 -1.424615e+000  3.000000e+001
      vertex -3.500000e+000 -8.470385e-007  3.000000e+001
    endloop
  endfacet
  facet normal  0.000000e+000  0.000000e+000  9.999999e-001
    outer loop
      vertex -3.500000e+000 -8.470385e-007  3.000000e+001
      vertex -1.542878e+000 -1.424615e+000  3.000000e+001
      vertex -2.092036e+000 -1.827100e-001  3.000000e+001
    endloop
  endfacet
  facet normal  0.000000e+000  -0.000000e+000  1.000000e+000
    outer loop
      vertex -3.500000e+000 -8.470385e-007  3.000000e+001
      vertex -2.092036e+000 -1.827100e-001  3.000000e+001
      vertex -1.842923e+000  1.006794e+000  3.000000e+001
    endloop
  endfacet
  facet normal  9.942488e-001 -1.070951e-001  0.000000e+000
    outer loop
      vertex -1.404132e+000  7.670808e-001  3.000000e+000
      vertex -1.404132e+000  7.670808e-001  2.950000e+001
      vertex -1.535279e+000 -4.504632e-001  3.000000e+000
    endloop
  endfacet
  facet normal  9.942488e-001 -1.070951e-001  0.000000e+000
    outer loop
      vertex -1.535279e+000 -4.504632e-001  3.000000e+000
      vertex -1.404132e+000  7.670808e-001  2.950000e+001
      vertex -1.535279e+000 -4.504632e-001  2.950000e+001
    endloop
  endfacet
  facet normal  7.787678e-001  6.273123e-001  0.000000e+000
    outer loop
      vertex -1.535279e+000 -4.504632e-001  3.000000e+000
      vertex -1.535279e+000 -4.504632e-001  2.950000e+001
      vertex -7.670808e-001 -1.404132e+000  3.000000e+000
    endloop
  endfacet
  facet normal  7.787678e-001  6.273123e-001  -0.000000e+000
    outer loop
      vertex -7.670808e-001 -1.404132e+000  3.000000e+000
      vertex -1.535279e+000 -4.504632e-001  2.950000e+001
      vertex -7.670808e-001 -1.404132e+000  2.950000e+001
    endloop
  endfacet
  facet normal  1.070951e-001  9.942488e-001  0.000000e+000
    outer loop
      vertex -7.670808e-001 -1.404132e+000  3.000000e+000
      vertex -7.670808e-001 -1.404132e+000  2.950000e+001
      vertex  4.504632e-001 -1.535279e+000  3.000000e+000
    endloop
  endfacet
  facet normal  1.070951e-001  9.942488e-001  -0.000000e+000
    outer loop
      vertex  4.504632e-001 -1.535279e+000  3.000000e+000
      vertex -7.670808e-001 -1.404132e+000  2.950000e+001
      vertex  4.504632e-001 -1.535279e+000  2.950000e+001
    endloop
  endfacet
  facet normal -6.273123e-001  7.787678e-001  0.000000e+000
    outer loop
      vertex  4.504632e-001 -1.535279e+000  3.000000e+000
      vertex  4.504632e-001 -1.535279e+000  2.950000e+001
      vertex  1.404132e+000 -7.670808e-001  3.000000e+000
    endloop
  endfacet
  facet normal -6.273123e-001  7.787678e-001  0.000000e+000
    outer loop
      vertex  1.404132e+000 -7.670808e-001  3.000000e+000
      vertex  4.504632e-001 -1.535279e+000  2.950000e+001
      vertex  1.404132e+000 -7.670808e-001  2.950000e+001
    endloop
  endfacet
  facet normal -9.942488e-001  1.070951e-001  0.000000e+000
    outer loop
      vertex  1.404132e+000 -7.670808e-001  3.000000e+000
      vertex  1.404132e+000 -7.670808e-001  2.950000e+001
      vertex  1.535279e+000  4.504632e-001  3.000000e+000
    endloop
  endfacet
  facet normal -9.942488e-001  1.070951e-001  0.000000e+000
    outer loop
      vertex  1.535279e+000  4.504632e-001  3.000000e+000
      vertex  1.404132e+000 -7.670808e-001  2.950000e+001
      vertex  1.535279e+000  4.504632e-001  2.950000e+001
    endloop
  endfacet
  facet normal -7.787678e-001 -6.273123e-001  -0.000000e+000
    outer loop
      vertex  1.535279e+000  4.504632e-001  3.000000e+000
      vertex  1.535279e+000  4.504632e-001  2.950000e+001
      vertex  7.670808e-001  1.404132e+000  3.000000e+000
    endloop
  endfacet
  facet normal -7.787678e-001 -6.273123e-001  0.000000e+000
    outer loop
      vertex  7.670808e-001  1.404132e+000  3.000000e+000
      vertex  1.535279e+000  4.504632e-001  2.950000e+001
      vertex  7.670808e-001  1.404132e+000  2.950000e+001
    endloop
  endfacet
  facet normal -1.070951e-001 -9.942488e-001  -0.000000e+000
    outer loop
      vertex  7.670808e-001  1.404132e+000  3.000000e+000
      vertex  7.670808e-001  1.404132e+000  2.950000e+001
      vertex -4.504632e-001  1.535279e+000  3.000000e+000
    endloop
  endfacet
  facet normal -1.070951e-001 -9.942488e-001  0.000000e+000
    outer loop
      vertex -4.504632e-001  1.535279e+000  3.000000e+000
      vertex  7.670808e-001  1.404132e+000  2.950000e+001
      vertex -4.504632e-001  1.535279e+000  2.950000e+001
    endloop
  endfacet
  facet normal  6.273123e-001 -7.787678e-001  0.000000e+000
    outer loop
      vertex -4.504632e-001  1.535279e+000  3.000000e+000
      vertex -4.504632e-001  1.535279e+000  2.950000e+001
      vertex -1.404132e+000  7.670808e-001  3.000000e+000
    endloop
  endfacet
  facet normal  6.273123e-001 -7.787678e-001  0.000000e+000
    outer loop
      vertex -1.404132e+000  7.670808e-001  3.000000e+000
      vertex -4.504632e-001  1.535279e+000  2.950000e+001
      vertex -1.404132e+000  7.670808e-001  2.950000e+001
    endloop
  endfacet
  facet normal -5.148243e-001  5.545410e-002  8.555004e-001
    outer loop
      vertex  1.842923e+000 -1.006794e+000  3.000000e+001
      vertex  2.015054e+000  5.912330e-001  3.000000e+001
      vertex  1.732088e+000  2.234870e-001  2.985355e+001
    endloop
  endfacet
  facet normal -3.924259e-001  7.378004e-002  9.168198e-001
    outer loop
      vertex  1.842923e+000 -1.006794e+000  3.000000e+001
      vertex  1.732088e+000  2.234870e-001  2.985355e+001
      vertex  1.532651e+000 -8.372911e-001  2.985355e+001
    endloop
  endfacet
  facet normal  2.741124e-001 -2.903515e-001  9.168198e-001
    outer loop
      vertex -1.842923e+000  1.006794e+000  3.000000e+001
      vertex -1.532651e+000  8.372912e-001  2.985355e+001
      vertex -7.477934e-001  1.578252e+000  2.985355e+001
    endloop
  endfacet
  facet normal  3.248238e-001 -4.032478e-001  8.555003e-001
    outer loop
      vertex -1.842923e+000  1.006794e+000  3.000000e+001
      vertex -7.477934e-001  1.578252e+000  2.985355e+001
      vertex -5.912330e-001  2.015054e+000  3.000000e+001
    endloop
  endfacet
  facet normal  5.326265e-001 -6.612214e-001  5.282948e-001
    outer loop
      vertex -1.404132e+000  7.670808e-001  2.950000e+001
      vertex -4.504632e-001  1.535279e+000  2.950000e+001
      vertex -7.477934e-001  1.578252e+000  2.985355e+001
    endloop
  endfacet
  facet normal  6.387066e-001 -6.765451e-001  3.665251e-001
    outer loop
      vertex -1.404132e+000  7.670808e-001  2.950000e+001
      vertex -7.477934e-001  1.578252e+000  2.985355e+001
      vertex -1.532651e+000  8.372912e-001  2.985355e+001
    endloop
  endfacet
  facet normal -9.143877e-001  1.719141e-001  3.665250e-001
    outer loop
      vertex  1.404132e+000 -7.670808e-001  2.950000e+001
      vertex  1.532651e+000 -8.372911e-001  2.985355e+001
      vertex  1.732088e+000  2.234870e-001  2.985355e+001
    endloop
  endfacet
  facet normal -8.441780e-001  9.093029e-002  5.282947e-001
    outer loop
      vertex  1.404132e+000 -7.670808e-001  2.950000e+001
      vertex  1.732088e+000  2.234870e-001  2.985355e+001
      vertex  1.535279e+000  4.504632e-001  2.950000e+001
    endloop
  endfacet
  facet normal -3.019025e-001 -1.430447e-001  9.425461e-001
    outer loop
      vertex  2.015054e+000  5.912330e-001  3.000000e+001
      vertex  1.269926e+000  1.198901e+000  2.985355e+001
      vertex  1.732088e+000  2.234870e-001  2.985355e+001
    endloop
  endfacet
  facet normal -1.517034e-001 -2.776912e-001  9.486168e-001
    outer loop
      vertex  1.006794e+000  1.842923e+000  3.000000e+001
      vertex  3.226959e-001  1.716375e+000  2.985355e+001
      vertex  1.269926e+000  1.198901e+000  2.985355e+001
    endloop
  endfacet
  facet normal -4.614590e-001 -3.717141e-001  8.055335e-001
    outer loop
      vertex  1.006794e+000  1.842923e+000  3.000000e+001
      vertex  1.269926e+000  1.198901e+000  2.985355e+001
      vertex  2.015054e+000  5.912330e-001  3.000000e+001
    endloop
  endfacet
  facet normal -6.249684e-001 -5.034240e-001  5.966395e-001
    outer loop
      vertex  1.269926e+000  1.198901e+000  2.985355e+001
      vertex  7.670808e-001  1.404132e+000  2.950000e+001
      vertex  1.535279e+000  4.504632e-001  2.950000e+001
    endloop
  endfacet
  facet normal -8.810514e-001 -4.174518e-001  2.224468e-001
    outer loop
      vertex  1.269926e+000  1.198901e+000  2.985355e+001
      vertex  1.535279e+000  4.504632e-001  2.950000e+001
      vertex  1.732088e+000  2.234870e-001  2.985355e+001
    endloop
  endfacet
  facet normal  4.275063e-002 -3.313296e-001  9.425460e-001
    outer loop
      vertex -5.912330e-001  2.015054e+000  3.000000e+001
      vertex -7.477934e-001  1.578252e+000  2.985355e+001
      vertex  3.226959e-001  1.716375e+000  2.985355e+001
    endloop
  endfacet
  facet normal -6.345924e-002 -5.891423e-001  8.055335e-001
    outer loop
      vertex -5.912330e-001  2.015054e+000  3.000000e+001
      vertex  3.226959e-001  1.716375e+000  2.985355e+001
      vertex  1.006794e+000  1.842923e+000  3.000000e+001
    endloop
  endfacet
  facet normal -8.594483e-002 -7.978941e-001  5.966395e-001
    outer loop
      vertex  3.226959e-001  1.716375e+000  2.985355e+001
      vertex -4.504632e-001  1.535279e+000  2.950000e+001
      vertex  7.670808e-001  1.404132e+000  2.950000e+001
    endloop
  endfacet
  facet normal -4.724521e-001 -8.648178e-001  1.699390e-001
    outer loop
      vertex  3.226959e-001  1.716375e+000  2.985355e+001
      vertex  7.670808e-001  1.404132e+000  2.950000e+001
      vertex  1.269926e+000  1.198901e+000  2.985355e+001
    endloop
  endfacet
  facet normal  1.247605e-001 -9.669293e-001  2.224469e-001
    outer loop
      vertex -7.477934e-001  1.578252e+000  2.985355e+001
      vertex -4.504632e-001  1.535279e+000  2.950000e+001
      vertex  3.226959e-001  1.716375e+000  2.985355e+001
    endloop
  endfacet
  facet normal -5.326265e-001  6.612214e-001  5.282947e-001
    outer loop
      vertex  1.404132e+000 -7.670808e-001  2.950000e+001
      vertex  4.504632e-001 -1.535279e+000  2.950000e+001
      vertex  7.477934e-001 -1.578252e+000  2.985355e+001
    endloop
  endfacet
  facet normal -6.387066e-001  6.765451e-001  3.665251e-001
    outer loop
      vertex  1.404132e+000 -7.670808e-001  2.950000e+001
      vertex  7.477934e-001 -1.578252e+000  2.985355e+001
      vertex  1.532651e+000 -8.372911e-001  2.985355e+001
    endloop
  endfacet
  facet normal  9.143877e-001 -1.719141e-001  3.665250e-001
    outer loop
      vertex -1.404132e+000  7.670808e-001  2.950000e+001
      vertex -1.532651e+000  8.372912e-001  2.985355e+001
      vertex -1.732088e+000 -2.234869e-001  2.985355e+001
    endloop
  endfacet
  facet normal  8.441780e-001 -9.093029e-002  5.282947e-001
    outer loop
      vertex -1.404132e+000  7.670808e-001  2.950000e+001
      vertex -1.732088e+000 -2.234869e-001  2.985355e+001
      vertex -1.535279e+000 -4.504632e-001  2.950000e+001
    endloop
  endfacet
  facet normal  6.249684e-001  5.034240e-001  5.966395e-001
    outer loop
      vertex -1.269926e+000 -1.198901e+000  2.985355e+001
      vertex -7.670808e-001 -1.404132e+000  2.950000e+001
      vertex -1.535279e+000 -4.504632e-001  2.950000e+001
    endloop
  endfacet
  facet normal  8.810514e-001  4.174518e-001  2.224468e-001
    outer loop
      vertex -1.269926e+000 -1.198901e+000  2.985355e+001
      vertex -1.535279e+000 -4.504632e-001  2.950000e+001
      vertex -1.732088e+000 -2.234869e-001  2.985355e+001
    endloop
  endfacet
  facet normal  8.594483e-002  7.978941e-001  5.966395e-001
    outer loop
      vertex -3.226959e-001 -1.716375e+000  2.985355e+001
      vertex  4.504632e-001 -1.535279e+000  2.950000e+001
      vertex -7.670808e-001 -1.404132e+000  2.950000e+001
    endloop
  endfacet
  facet normal  4.724521e-001  8.648178e-001  1.699390e-001
    outer loop
      vertex -3.226959e-001 -1.716375e+000  2.985355e+001
      vertex -7.670808e-001 -1.404132e+000  2.950000e+001
      vertex -1.269926e+000 -1.198901e+000  2.985355e+001
    endloop
  endfacet
  facet normal -2.210233e-001  2.341172e-001  9.467512e-001
    outer loop
      vertex  1.299389e+000 -1.649723e+000  3.000000e+001
      vertex  1.532651e+000 -8.372911e-001  2.985355e+001
      vertex  7.477934e-001 -1.578252e+000  2.985355e+001
    endloop
  endfacet
  facet normal -1.247605e-001  9.669293e-001  2.224469e-001
    outer loop
      vertex  7.477934e-001 -1.578252e+000  2.985355e+001
      vertex  4.504632e-001 -1.535279e+000  2.950000e+001
      vertex -3.226959e-001 -1.716375e+000  2.985355e+001
    endloop
  endfacet
  facet normal -2.973871e-001  2.514116e-001  9.210608e-001
    outer loop
      vertex  1.842923e+000 -1.006794e+000  3.000000e+001
      vertex  1.532651e+000 -8.372911e-001  2.985355e+001
      vertex  1.299389e+000 -1.649723e+000  3.000000e+001
    endloop
  endfacet
  facet normal  3.924259e-001 -7.378004e-002  9.168198e-001
    outer loop
      vertex -1.532651e+000  8.372912e-001  2.985355e+001
      vertex -1.842923e+000  1.006794e+000  3.000000e+001
      vertex -1.732088e+000 -2.234869e-001  2.985355e+001
    endloop
  endfacet
  facet normal  3.682267e-001 -7.711627e-002  9.265323e-001
    outer loop
      vertex -1.732088e+000 -2.234869e-001  2.985355e+001
      vertex -1.842923e+000  1.006794e+000  3.000000e+001
      vertex -2.092036e+000 -1.827100e-001  3.000000e+001
    endloop
  endfacet
  facet normal  3.882338e-001  1.839494e-001  9.030156e-001
    outer loop
      vertex -1.732088e+000 -2.234869e-001  2.985355e+001
      vertex -2.092036e+000 -1.827100e-001  3.000000e+001
      vertex -1.269926e+000 -1.198901e+000  2.985355e+001
    endloop
  endfacet
  facet normal  3.609743e-001  1.596194e-001  9.188141e-001
    outer loop
      vertex -1.269926e+000 -1.198901e+000  2.985355e+001
      vertex -2.092036e+000 -1.827100e-001  3.000000e+001
      vertex -1.542878e+000 -1.424615e+000  3.000000e+001
    endloop
  endfacet
  facet normal  1.949904e-001  3.569275e-001  9.135543e-001
    outer loop
      vertex -1.269926e+000 -1.198901e+000  2.985355e+001
      vertex -1.542878e+000 -1.424615e+000  3.000000e+001
      vertex -3.226959e-001 -1.716375e+000  2.985355e+001
    endloop
  endfacet
  facet normal  2.024394e-001  3.973677e-001  8.950515e-001
    outer loop
      vertex -3.226959e-001 -1.716375e+000  2.985355e+001
      vertex -1.542878e+000 -1.424615e+000  3.000000e+001
      vertex -2.454107e-001 -2.085611e+000  3.000000e+001
    endloop
  endfacet
  facet normal -4.643306e-002  3.598695e-001  9.318465e-001
    outer loop
      vertex -3.226959e-001 -1.716375e+000  2.985355e+001
      vertex -2.454107e-001 -2.085611e+000  3.000000e+001
      vertex  7.477934e-001 -1.578252e+000  2.985355e+001
    endloop
  endfacet
  facet normal -2.555919e-002  3.230980e-001  9.460202e-001
    outer loop
      vertex  7.477934e-001 -1.578252e+000  2.985355e+001
      vertex -2.454107e-001 -2.085611e+000  3.000000e+001
      vertex  5.702775e-001 -2.021085e+000  3.000000e+001
    endloop
  endfacet
  facet normal -1.918196e-001  3.766087e-001  9.062952e-001
    outer loop
      vertex  7.477934e-001 -1.578252e+000  2.985355e+001
      vertex  5.702775e-001 -2.021085e+000  3.000000e+001
      vertex  1.299389e+000 -1.649723e+000  3.000000e+001
    endloop
  endfacet
  facet normal  9.510565e-001 -3.090170e-001 -1.081212e-017
    outer loop
      vertex  4.000000e+000  0.000000e+000  1.500000e+000
      vertex  4.000000e+000 -9.796851e-016  2.950000e+001
      vertex  3.236068e+000 -2.351141e+000  1.500000e+000
    endloop
  endfacet
  facet normal  9.510565e-001 -3.090170e-001  0.000000e+000
    outer loop
      vertex  3.236068e+000 -2.351141e+000  1.500000e+000
      vertex  4.000000e+000 -9.796851e-016  2.950000e+001
      vertex  3.236068e+000 -2.351141e+000  2.950000e+001
    endloop
  endfacet
  facet normal  5.877853e-001 -8.090169e-001  0.000000e+000
    outer loop
      vertex  3.236068e+000 -2.351141e+000  1.500000e+000
      vertex  3.236068e+000 -2.351141e+000  2.950000e+001
      vertex  1.236068e+000 -3.804226e+000  1.500000e+000
    endloop
  endfacet
  facet normal  5.877853e-001 -8.090169e-001  0.000000e+000
    outer loop
      vertex  1.236068e+000 -3.804226e+000  1.500000e+000
      vertex  3.236068e+000 -2.351141e+000  2.950000e+001
      vertex  1.236068e+000 -3.804226e+000  2.950000e+001
    endloop
  endfacet
  facet normal  0.000000e+000 -1.000000e+000  -0.000000e+000
    outer loop
      vertex  1.236068e+000 -3.804226e+000  1.500000e+000
      vertex  1.236068e+000 -3.804226e+000  2.950000e+001
      vertex -1.236068e+000 -3.804226e+000  1.500000e+000
    endloop
  endfacet
  facet normal  0.000000e+000 -1.000000e+000  0.000000e+000
    outer loop
      vertex -1.236068e+000 -3.804226e+000  1.500000e+000
      vertex  1.236068e+000 -3.804226e+000  2.950000e+001
      vertex -1.236068e+000 -3.804226e+000  2.950000e+001
    endloop
  endfacet
  facet normal -5.877853e-001 -8.090169e-001  -0.000000e+000
    outer loop
      vertex -1.236068e+000 -3.804226e+000  1.500000e+000
      vertex -1.236068e+000 -3.804226e+000  2.950000e+001
      vertex -3.236068e+000 -2.351141e+000  1.500000e+000
    endloop
  endfacet
  facet normal -5.877853e-001 -8.090169e-001  0.000000e+000
    outer loop
      vertex -3.236068e+000 -2.351141e+000  1.500000e+000
      vertex -1.236068e+000 -3.804226e+000  2.950000e+001
      vertex -3.236068e+000 -2.351141e+000  2.950000e+001
    endloop
  endfacet
  facet normal -9.510565e-001 -3.090170e-001  -0.000000e+000
    outer loop
      vertex -3.236068e+000 -2.351141e+000  1.500000e+000
      vertex -3.236068e+000 -2.351141e+000  2.950000e+001
      vertex -4.000000e+000  4.898425e-016  1.500000e+000
    endloop
  endfacet
  facet normal -9.510565e-001 -3.090170e-001  0.000000e+000
    outer loop
      vertex -4.000000e+000  4.898425e-016  1.500000e+000
      vertex -3.236068e+000 -2.351141e+000  2.950000e+001
      vertex -4.000000e+000  4.898425e-016  2.950000e+001
    endloop
  endfacet
  facet normal -9.510565e-001  3.090170e-001  0.000000e+000
    outer loop
      vertex -4.000000e+000  4.898425e-016  1.500000e+000
      vertex -4.000000e+000  4.898425e-016  2.950000e+001
      vertex -3.236068e+000  2.351141e+000  1.500000e+000
    endloop
  endfacet
  facet normal -9.510565e-001  3.090170e-001  0.000000e+000
    outer loop
      vertex -3.236068e+000  2.351141e+000  1.500000e+000
      vertex -4.000000e+000  4.898425e-016  2.950000e+001
      vertex -3.236068e+000  2.351141e+000  2.950000e+001
    endloop
  endfacet
  facet normal -5.877853e-001  8.090169e-001  0.000000e+000
    outer loop
      vertex -3.236068e+000  2.351141e+000  1.500000e+000
      vertex -3.236068e+000  2.351141e+000  2.950000e+001
      vertex -1.236068e+000  3.804226e+000  1.500000e+000
    endloop
  endfacet
  facet normal -5.877853e-001  8.090169e-001  0.000000e+000
    outer loop
      vertex -1.236068e+000  3.804226e+000  1.500000e+000
      vertex -3.236068e+000  2.351141e+000  2.950000e+001
      vertex -1.236068e+000  3.804226e+000  2.950000e+001
    endloop
  endfacet
  facet normal  0.000000e+000  1.000000e+000  0.000000e+000
    outer loop
      vertex -1.236068e+000  3.804226e+000  1.500000e+000
      vertex -1.236068e+000  3.804226e+000  2.950000e+001
      vertex  1.236068e+000  3.804226e+000  1.500000e+000
    endloop
  endfacet
  facet normal  0.000000e+000  1.000000e+000  -0.000000e+000
    outer loop
      vertex  1.236068e+000  3.804226e+000  1.500000e+000
      vertex -1.236068e+000  3.804226e+000  2.950000e+001
      vertex  1.236068e+000  3.804226e+000  2.950000e+001
    endloop
  endfacet
  facet normal  5.877853e-001  8.090169e-001  0.000000e+000
    outer loop
      vertex  1.236068e+000  3.804226e+000  1.500000e+000
      vertex  1.236068e+000  3.804226e+000  2.950000e+001
      vertex  3.236068e+000  2.351141e+000  1.500000e+000
    endloop
  endfacet
  facet normal  5.877853e-001  8.090169e-001  -0.000000e+000
    outer loop
      vertex  3.236068e+000  2.351141e+000  1.500000e+000
      vertex  1.236068e+000  3.804226e+000  2.950000e+001
      vertex  3.236068e+000  2.351141e+000  2.950000e+001
    endloop
  endfacet
  facet normal  9.510565e-001  3.090170e-001  0.000000e+000
    outer loop
      vertex  3.236068e+000  2.351141e+000  1.500000e+000
      vertex  3.236068e+000  2.351141e+000  2.950000e+001
      vertex  4.000000e+000  0.000000e+000  1.500000e+000
    endloop
  endfacet
  facet normal  9.510565e-001  3.090170e-001  1.081212e-017
    outer loop
      vertex  4.000000e+000  0.000000e+000  1.500000e+000
      vertex  3.236068e+000  2.351141e+000  2.950000e+001
      vertex  4.000000e+000 -9.796851e-016  2.950000e+001
    endloop
  endfacet
  facet normal -6.891518e-001 -2.239191e-001  6.891515e-001
    outer loop
      vertex -3.500000e+000 -8.470385e-007  3.000000e+001
      vertex -4.000000e+000  4.898425e-016  2.950000e+001
      vertex -2.831559e+000 -2.057248e+000  3.000000e+001
    endloop
  endfacet
  facet normal -6.891516e-001 -2.239189e-001  6.891518e-001
    outer loop
      vertex -2.831559e+000 -2.057248e+000  3.000000e+001
      vertex -4.000000e+000  4.898425e-016  2.950000e+001
      vertex -3.236068e+000 -2.351141e+000  2.950000e+001
    endloop
  endfacet
  facet normal -4.259192e-001 -5.862274e-001  6.891518e-001
    outer loop
      vertex -2.831559e+000 -2.057248e+000  3.000000e+001
      vertex -3.236068e+000 -2.351141e+000  2.950000e+001
      vertex -1.081560e+000 -3.328698e+000  3.000000e+001
    endloop
  endfacet
  facet normal -4.259192e-001 -5.862275e-001  6.891517e-001
    outer loop
      vertex -1.081560e+000 -3.328698e+000  3.000000e+001
      vertex -3.236068e+000 -2.351141e+000  2.950000e+001
      vertex -1.236068e+000 -3.804226e+000  2.950000e+001
    endloop
  endfacet
  facet normal  0.000000e+000 -7.246170e-001  6.891517e-001
    outer loop
      vertex -1.081560e+000 -3.328698e+000  3.000000e+001
      vertex -1.236068e+000 -3.804226e+000  2.950000e+001
      vertex  1.081560e+000 -3.328698e+000  3.000000e+001
    endloop
  endfacet
  facet normal  0.000000e+000 -7.246170e-001  6.891517e-001
    outer loop
      vertex  1.081560e+000 -3.328698e+000  3.000000e+001
      vertex -1.236068e+000 -3.804226e+000  2.950000e+001
      vertex  1.236068e+000 -3.804226e+000  2.950000e+001
    endloop
  endfacet
  facet normal  4.259193e-001 -5.862275e-001  6.891517e-001
    outer loop
      vertex  1.081560e+000 -3.328698e+000  3.000000e+001
      vertex  1.236068e+000 -3.804226e+000  2.950000e+001
      vertex  2.831559e+000 -2.057248e+000  3.000000e+001
    endloop
  endfacet
  facet normal  4.259192e-001 -5.862274e-001  6.891518e-001
    outer loop
      vertex  2.831559e+000 -2.057248e+000  3.000000e+001
      vertex  1.236068e+000 -3.804226e+000  2.950000e+001
      vertex  3.236068e+000 -2.351141e+000  2.950000e+001
    endloop
  endfacet
  facet normal  6.891516e-001 -2.239190e-001  6.891518e-001
    outer loop
      vertex  2.831559e+000 -2.057248e+000  3.000000e+001
      vertex  3.236068e+000 -2.351141e+000  2.950000e+001
      vertex  3.500000e+000  5.096428e-016  3.000000e+001
    endloop
  endfacet
  facet normal  6.891518e-001 -2.239190e-001  6.891518e-001
    outer loop
      vertex  3.500000e+000  5.096428e-016  3.000000e+001
      vertex  3.236068e+000 -2.351141e+000  2.950000e+001
      vertex  4.000000e+000 -9.796851e-016  2.950000e+001
    endloop
  endfacet
  facet normal  6.891518e-001  2.239190e-001  6.891518e-001
    outer loop
      vertex  3.500000e+000  5.096428e-016  3.000000e+001
      vertex  4.000000e+000 -9.796851e-016  2.950000e+001
      vertex  2.831559e+000  2.057249e+000  3.000000e+001
    endloop
  endfacet
  facet normal  6.891518e-001  2.239190e-001  6.891518e-001
    outer loop
      vertex  2.831559e+000  2.057249e+000  3.000000e+001
      vertex  4.000000e+000 -9.796851e-016  2.950000e+001
      vertex  3.236068e+000  2.351141e+000  2.950000e+001
    endloop
  endfacet
  facet normal  4.259192e-001  5.862276e-001  6.891516e-001
    outer loop
      vertex  2.831559e+000  2.057249e+000  3.000000e+001
      vertex  3.236068e+000  2.351141e+000  2.950000e+001
      vertex  1.081559e+000  3.328698e+000  3.000000e+001
    endloop
  endfacet
  facet normal  4.259192e-001  5.862274e-001  6.891519e-001
    outer loop
      vertex  1.081559e+000  3.328698e+000  3.000000e+001
      vertex  3.236068e+000  2.351141e+000  2.950000e+001
      vertex  1.236068e+000  3.804226e+000  2.950000e+001
    endloop
  endfacet
  facet normal -7.986716e-008  7.246171e-001  6.891517e-001
    outer loop
      vertex  1.081559e+000  3.328698e+000  3.000000e+001
      vertex  1.236068e+000  3.804226e+000  2.950000e+001
      vertex -1.081560e+000  3.328698e+000  3.000000e+001
    endloop
  endfacet
  facet normal  0.000000e+000  7.246169e-001  6.891519e-001
    outer loop
      vertex -1.081560e+000  3.328698e+000  3.000000e+001
      vertex  1.236068e+000  3.804226e+000  2.950000e+001
      vertex -1.236068e+000  3.804226e+000  2.950000e+001
    endloop
  endfacet
  facet normal -4.259194e-001  5.862275e-001  6.891516e-001
    outer loop
      vertex -1.081560e+000  3.328698e+000  3.000000e+001
      vertex -1.236068e+000  3.804226e+000  2.950000e+001
      vertex -2.831560e+000  2.057248e+000  3.000000e+001
    endloop
  endfacet
  facet normal -4.259192e-001  5.862274e-001  6.891519e-001
    outer loop
      vertex -2.831560e+000  2.057248e+000  3.000000e+001
      vertex -1.236068e+000  3.804226e+000  2.950000e+001
      vertex -3.236068e+000  2.351141e+000  2.950000e+001
    endloop
  endfacet
  facet normal -6.891519e-001  2.239189e-001  6.891515e-001
    outer loop
      vertex -2.831560e+000  2.057248e+000  3.000000e+001
      vertex -3.236068e+000  2.351141e+000  2.950000e+001
      vertex -3.500000e+000 -8.470385e-007  3.000000e+001
    endloop
  endfacet
  facet normal -6.891515e-001  2.239189e-001  6.891519e-001
    outer loop
      vertex -3.500000e+000 -8.470385e-007  3.000000e+001
      vertex -3.236068e+000  2.351141e+000  2.950000e+001
      vertex -4.000000e+000  4.898425e-016  2.950000e+001
    endloop
  endfacet
  facet normal -9.942488e-001  1.070951e-001  0.000000e+000
    outer loop
      vertex  1.009220e+000 -5.513394e-001  0.000000e+000
      vertex  1.009220e+000 -5.513394e-001  3.000000e+000
      vertex  1.103482e+000  3.237705e-001  0.000000e+000
    endloop
  endfacet
  facet normal -9.942488e-001  1.070951e-001  0.000000e+000
    outer loop
      vertex  1.103482e+000  3.237705e-001  0.000000e+000
      vertex  1.009220e+000 -5.513394e-001  3.000000e+000
      vertex  1.103482e+000  3.237705e-001  3.000000e+000
    endloop
  endfacet
  facet normal -7.787677e-001 -6.273124e-001  -0.000000e+000
    outer loop
      vertex  1.103482e+000  3.237705e-001  0.000000e+000
      vertex  1.103482e+000  3.237705e-001  3.000000e+000
      vertex  5.513394e-001  1.009220e+000  0.000000e+000
    endloop
  endfacet
  facet normal -7.787677e-001 -6.273124e-001  0.000000e+000
    outer loop
      vertex  5.513394e-001  1.009220e+000  0.000000e+000
      vertex  1.103482e+000  3.237705e-001  3.000000e+000
      vertex  5.513394e-001  1.009220e+000  3.000000e+000
    endloop
  endfacet
  facet normal -1.070951e-001 -9.942488e-001  -0.000000e+000
    outer loop
      vertex  5.513394e-001  1.009220e+000  0.000000e+000
      vertex  5.513394e-001  1.009220e+000  3.000000e+000
      vertex -3.237705e-001  1.103482e+000  0.000000e+000
    endloop
  endfacet
  facet normal -1.070951e-001 -9.942488e-001  0.000000e+000
    outer loop
      vertex -3.237705e-001  1.103482e+000  0.000000e+000
      vertex  5.513394e-001  1.009220e+000  3.000000e+000
      vertex -3.237705e-001  1.103482e+000  3.000000e+000
    endloop
  endfacet
  facet normal  6.273124e-001 -7.787677e-001  0.000000e+000
    outer loop
      vertex -3.237705e-001  1.103482e+000  0.000000e+000
      vertex -3.237705e-001  1.103482e+000  3.000000e+000
      vertex -1.009220e+000  5.513394e-001  0.000000e+000
    endloop
  endfacet
  facet normal  6.273124e-001 -7.787677e-001  0.000000e+000
    outer loop
      vertex -1.009220e+000  5.513394e-001  0.000000e+000
      vertex -3.237705e-001  1.103482e+000  3.000000e+000
      vertex -1.009220e+000  5.513394e-001  3.000000e+000
    endloop
  endfacet
  facet normal  9.942488e-001 -1.070951e-001  0.000000e+000
    outer loop
      vertex -1.009220e+000  5.513394e-001  0.000000e+000
      vertex -1.009220e+000  5.513394e-001  3.000000e+000
      vertex -1.103482e+000 -3.237705e-001  0.000000e+000
    endloop
  endfacet
  facet normal  9.942488e-001 -1.070951e-001  0.000000e+000
    outer loop
      vertex -1.103482e+000 -3.237705e-001  0.000000e+000
      vertex -1.009220e+000  5.513394e-001  3.000000e+000
      vertex -1.103482e+000 -3.237705e-001  3.000000e+000
    endloop
  endfacet
  facet normal  7.787677e-001  6.273124e-001  0.000000e+000
    outer loop
      vertex -1.103482e+000 -3.237705e-001  0.000000e+000
      vertex -1.103482e+000 -3.237705e-001  3.000000e+000
      vertex -5.513394e-001 -1.009220e+000  0.000000e+000
    endloop
  endfacet
  facet normal  7.787677e-001  6.273124e-001  -0.000000e+000
    outer loop
      vertex -5.513394e-001 -1.009220e+000  0.000000e+000
      vertex -1.103482e+000 -3.237705e-001  3.000000e+000
      vertex -5.513394e-001 -1.009220e+000  3.000000e+000
    endloop
  endfacet
  facet normal  1.070951e-001  9.942488e-001  0.000000e+000
    outer loop
      vertex -5.513394e-001 -1.009220e+000  0.000000e+000
      vertex -5.513394e-001 -1.009220e+000  3.000000e+000
      vertex  3.237705e-001 -1.103482e+000  0.000000e+000
    endloop
  endfacet
  facet normal  1.070951e-001  9.942488e-001  -0.000000e+000
    outer loop
      vertex  3.237705e-001 -1.103482e+000  0.000000e+000
      vertex -5.513394e-001 -1.009220e+000  3.000000e+000
      vertex  3.237705e-001 -1.103482e+000  3.000000e+000
    endloop
  endfacet
  facet normal -6.273124e-001  7.787677e-001  0.000000e+000
    outer loop
      vertex  3.237705e-001 -1.103482e+000  0.000000e+000
      vertex  3.237705e-001 -1.103482e+000  3.000000e+000
      vertex  1.009220e+000 -5.513394e-001  0.000000e+000
    endloop
  endfacet
  facet normal -6.273124e-001  7.787677e-001  0.000000e+000
    outer loop
      vertex  1.009220e+000 -5.513394e-001  0.000000e+000
      vertex  3.237705e-001 -1.103482e+000  3.000000e+000
      vertex  1.009220e+000 -5.513394e-001  3.000000e+000
    endloop
  endfacet
  facet normal  0.000000e+000  0.000000e+000  1.000000e+000
    outer loop
      vertex  4.504632e-001 -1.535279e+000  3.000000e+000
      vertex  3.237705e-001 -1.103482e+000  3.000000e+000
      vertex -7.670808e-001 -1.404132e+000  3.000000e+000
    endloop
  endfacet
  facet normal  0.000000e+000  -0.000000e+000  9.999999e-001
    outer loop
      vertex  3.237705e-001 -1.103482e+000  3.000000e+000
      vertex  4.504632e-001 -1.535279e+000  3.000000e+000
      vertex  1.009220e+000 -5.513394e-001  3.000000e+000
    endloop
  endfacet
  facet normal  0.000000e+000  0.000000e+000  1.000000e+000
    outer loop
      vertex  1.009220e+000 -5.513394e-001  3.000000e+000
      vertex  4.504632e-001 -1.535279e+000  3.000000e+000
      vertex  1.404132e+000 -7.670808e-001  3.000000e+000
    endloop
  endfacet
  facet normal  0.000000e+000  0.000000e+000  9.999999e-001
    outer loop
      vertex  1.009220e+000 -5.513394e-001  3.000000e+000
      vertex  1.404132e+000 -7.670808e-001  3.000000e+000
      vertex  1.103482e+000  3.237705e-001  3.000000e+000
    endloop
  endfacet
  facet normal  -0.000000e+000  0.000000e+000  1.000000e+000
    outer loop
      vertex  1.103482e+000  3.237705e-001  3.000000e+000
      vertex  1.404132e+000 -7.670808e-001  3.000000e+000
      vertex  1.535279e+000  4.504632e-001  3.000000e+000
    endloop
  endfacet
  facet normal  0.000000e+000  0.000000e+000  9.999999e-001
    outer loop
      vertex  1.103482e+000  3.237705e-001  3.000000e+000
      vertex  1.535279e+000  4.504632e-001  3.000000e+000
      vertex  5.513394e-001  1.009220e+000  3.000000e+000
    endloop
  endfacet
  facet normal  -0.000000e+000  0.000000e+000  1.000000e+000
    outer loop
      vertex  5.513394e-001  1.009220e+000  3.000000e+000
      vertex  1.535279e+000  4.504632e-001  3.000000e+000
      vertex  7.670808e-001  1.404132e+000  3.000000e+000
    endloop
  endfacet
  facet normal  0.000000e+000  0.000000e+000  9.999999e-001
    outer loop
      vertex  5.513394e-001  1.009220e+000  3.000000e+000
      vertex  7.670808e-001  1.404132e+000  3.000000e+000
      vertex -3.237705e-001  1.103482e+000  3.000000e+000
    endloop
  endfacet
  facet normal  0.000000e+000  -0.000000e+000  1.000000e+000
    outer loop
      vertex -3.237705e-001  1.103482e+000  3.000000e+000
      vertex  7.670808e-001  1.404132e+000  3.000000e+000
      vertex -4.504632e-001  1.535279e+000  3.000000e+000
    endloop
  endfacet
  facet normal  0.000000e+000  0.000000e+000  9.999999e-001
    outer loop
      vertex -3.237705e-001  1.103482e+000  3.000000e+000
      vertex -4.504632e-001  1.535279e+000  3.000000e+000
      vertex -1.009220e+000  5.513394e-001  3.000000e+000
    endloop
  endfacet
  facet normal  0.000000e+000  -0.000000e+000  1.000000e+000
    outer loop
      vertex -1.009220e+000  5.513394e-001  3.000000e+000
      vertex -4.504632e-001  1.535279e+000  3.000000e+000
      vertex -1.404132e+000  7.670808e-001  3.000000e+000
    endloop
  endfacet
  facet normal  0.000000e+000  0.000000e+000  9.999999e-001
    outer loop
      vertex -1.009220e+000  5.513394e-001  3.000000e+000
      vertex -1.404132e+000  7.670808e-001  3.000000e+000
      vertex -1.103482e+000 -3.237705e-001  3.000000e+000
    endloop
  endfacet
  facet normal  0.000000e+000  0.000000e+000  1.000000e+000
    outer loop
      vertex -1.103482e+000 -3.237705e-001  3.000000e+000
      vertex -1.404132e+000  7.670808e-001  3.000000e+000
      vertex -1.535279e+000 -4.504632e-001  3.000000e+000
    endloop
  endfacet
  facet normal  -0.000000e+000  0.000000e+000  9.999999e-001
    outer loop
      vertex -1.103482e+000 -3.237705e-001  3.000000e+000
      vertex -1.535279e+000 -4.504632e-001  3.000000e+000
      vertex -5.513394e-001 -1.009220e+000  3.000000e+000
    endloop
  endfacet
  facet normal  0.000000e+000  0.000000e+000  1.000000e+000
    outer loop
      vertex -5.513394e-001 -1.009220e+000  3.000000e+000
      vertex -1.535279e+000 -4.504632e-001  3.000000e+000
      vertex -7.670808e-001 -1.404132e+000  3.000000e+000
    endloop
  endfacet
  facet normal  0.000000e+000  0.000000e+000  9.999999e-001
    outer loop
      vertex -5.513394e-001 -1.009220e+000  3.000000e+000
      vertex -7.670808e-001 -1.404132e+000  3.000000e+000
      vertex  3.237705e-001 -1.103482e+000  3.000000e+000
    endloop
  endfacet
  facet normal  0.000000e+000  0.000000e+000 -9.999999e-001
    outer loop
      vertex  2.427051e+000 -1.763356e+000  0.000000e+000
      vertex  9.270510e-001 -2.853169e+000  0.000000e+000
      vertex  3.237705e-001 -1.103482e+000  0.000000e+000
    endloop
  endfacet
  facet normal  0.000000e+000  -0.000000e+000 -1.000000e+000
    outer loop
      vertex  3.237705e-001 -1.103482e+000  0.000000e+000
      vertex  9.270510e-001 -2.853169e+000  0.000000e+000
      vertex -9.270510e-001 -2.853169e+000  0.000000e+000
    endloop
  endfacet
  facet normal  0.000000e+000  0.000000e+000 -1.000000e+000
    outer loop
      vertex  3.237705e-001 -1.103482e+000  0.000000e+000
      vertex -9.270510e-001 -2.853169e+000  0.000000e+000
      vertex -5.513394e-001 -1.009220e+000  0.000000e+000
    endloop
  endfacet
  facet normal  0.000000e+000  0.000000e+000 -9.999999e-001
    outer loop
      vertex -5.513394e-001 -1.009220e+000  0.000000e+000
      vertex -9.270510e-001 -2.853169e+000  0.000000e+000
      vertex -2.427051e+000 -1.763356e+000  0.000000e+000
    endloop
  endfacet
  facet normal  0.000000e+000  0.000000e+000 -1.000000e+000
    outer loop
      vertex -5.513394e-001 -1.009220e+000  0.000000e+000
      vertex -2.427051e+000 -1.763356e+000  0.000000e+000
      vertex -1.103482e+000 -3.237705e-001  0.000000e+000
    endloop
  endfacet
  facet normal  -0.000000e+000  0.000000e+000 -1.000000e+000
    outer loop
      vertex -1.103482e+000 -3.237705e-001  0.000000e+000
      vertex -2.427051e+000 -1.763356e+000  0.000000e+000
      vertex -3.000000e+000 -3.673819e-016  0.000000e+000
    endloop
  endfacet
  facet normal  0.000000e+000  0.000000e+000 -1.000000e+000
    outer loop
      vertex -1.103482e+000 -3.237705e-001  0.000000e+000
      vertex -3.000000e+000 -3.673819e-016  0.000000e+000
      vertex -1.009220e+000  5.513394e-001  0.000000e+000
    endloop
  endfacet
  facet normal  -0.000000e+000  0.000000e+000 -1.000000e+000
    outer loop
      vertex -9.270510e-001  2.853169e+000  0.000000e+000
      vertex  9.270510e-001  2.853169e+000  0.000000e+000
      vertex  5.513394e-001  1.009220e+000  0.000000e+000
    endloop
  endfacet
  facet normal  0.000000e+000  0.000000e+000 -9.999999e-001
    outer loop
      vertex  5.513394e-001  1.009220e+000  0.000000e+000
      vertex  9.270510e-001  2.853169e+000  0.000000e+000
      vertex  2.427051e+000  1.763356e+000  0.000000e+000
    endloop
  endfacet
  facet normal  0.000000e+000  0.000000e+000 -1.000000e+000
    outer loop
      vertex  5.513394e-001  1.009220e+000  0.000000e+000
      vertex  2.427051e+000  1.763356e+000  0.000000e+000
      vertex  1.103482e+000  3.237705e-001  0.000000e+000
    endloop
  endfacet
  facet normal  0.000000e+000  0.000000e+000 -1.000000e+000
    outer loop
      vertex  1.103482e+000  3.237705e-001  0.000000e+000
      vertex  2.427051e+000  1.763356e+000  0.000000e+000
      vertex  3.000000e+000  0.000000e+000  0.000000e+000
    endloop
  endfacet
  facet normal  -0.000000e+000  0.000000e+000 -1.000000e+000
    outer loop
      vertex  1.103482e+000  3.237705e-001  0.000000e+000
      vertex  3.000000e+000  0.000000e+000  0.000000e+000
      vertex  1.009220e+000 -5.513394e-001  0.000000e+000
    endloop
  endfacet
  facet normal  0.000000e+000  0.000000e+000 -1.000000e+000
    outer loop
      vertex  1.009220e+000 -5.513394e-001  0.000000e+000
      vertex  3.000000e+000  0.000000e+000  0.000000e+000
      vertex  2.427051e+000 -1.763356e+000  0.000000e+000
    endloop
  endfacet
  facet normal  0.000000e+000  0.000000e+000 -1.000000e+000
    outer loop
      vertex  1.009220e+000 -5.513394e-001  0.000000e+000
      vertex  2.427051e+000 -1.763356e+000  0.000000e+000
      vertex  3.237705e-001 -1.103482e+000  0.000000e+000
    endloop
  endfacet
  facet normal  0.000000e+000  0.000000e+000 -1.000000e+000
    outer loop
      vertex -1.009220e+000  5.513394e-001  0.000000e+000
      vertex -3.000000e+000 -3.673819e-016  0.000000e+000
      vertex -3.237705e-001  1.103482e+000  0.000000e+000
    endloop
  endfacet
  facet normal  -0.000000e+000  0.000000e+000 -1.000000e+000
    outer loop
      vertex -3.237705e-001  1.103482e+000  0.000000e+000
      vertex -3.000000e+000 -3.673819e-016  0.000000e+000
      vertex -2.427051e+000  1.763356e+000  0.000000e+000
    endloop
  endfacet
  facet normal  0.000000e+000  0.000000e+000 -1.000000e+000
    outer loop
      vertex -3.237705e-001  1.103482e+000  0.000000e+000
      vertex -2.427051e+000  1.763356e+000  0.000000e+000
      vertex  5.513394e-001  1.009220e+000  0.000000e+000
    endloop
  endfacet
  facet normal  0.000000e+000  0.000000e+000 -1.000000e+000
    outer loop
      vertex  5.513394e-001  1.009220e+000  0.000000e+000
      vertex -2.427051e+000  1.763356e+000  0.000000e+000
      vertex -9.270510e-001  2.853169e+000  0.000000e+000
    endloop
  endfacet
  facet normal  0.000000e+000  0.000000e+000 -1.000000e+000
    outer loop
      vertex -2.427051e+000  1.763356e+000  1.500000e+000
      vertex -3.236068e+000  2.351141e+000  1.500000e+000
      vertex -9.270510e-001  2.853169e+000  1.500000e+000
    endloop
  endfacet
  facet normal  -0.000000e+000  0.000000e+000 -1.000000e+000
    outer loop
      vertex -9.270510e-001  2.853169e+000  1.500000e+000
      vertex -3.236068e+000  2.351141e+000  1.500000e+000
      vertex -1.236068e+000  3.804226e+000  1.500000e+000
    endloop
  endfacet
  facet normal  0.000000e+000  0.000000e+000 -1.000000e+000
    outer loop
      vertex -9.270510e-001  2.853169e+000  1.500000e+000
      vertex -1.236068e+000  3.804226e+000  1.500000e+000
      vertex  9.270510e-001  2.853169e+000  1.500000e+000
    endloop
  endfacet
  facet normal  0.000000e+000  0.000000e+000 -1.000000e+000
    outer loop
      vertex  9.270510e-001  2.853169e+000  1.500000e+000
      vertex -1.236068e+000  3.804226e+000  1.500000e+000
      vertex  1.236068e+000  3.804226e+000  1.500000e+000
    endloop
  endfacet
  facet normal  0.000000e+000  -0.000000e+000 -1.000000e+000
    outer loop
      vertex  9.270510e-001  2.853169e+000  1.500000e+000
      vertex  1.236068e+000  3.804226e+000  1.500000e+000
      vertex  3.236068e+000  2.351141e+000  1.500000e+000
    endloop
  endfacet
  facet normal  -0.000000e+000  0.000000e+000 -1.000000e+000
    outer loop
      vertex  2.427051e+000 -1.763356e+000  1.500000e+000
      vertex  3.236068e+000 -2.351141e+000  1.500000e+000
      vertex  9.270510e-001 -2.853169e+000  1.500000e+000
    endloop
  endfacet
  facet normal  0.000000e+000  0.000000e+000 -1.000000e+000
    outer loop
      vertex  9.270510e-001 -2.853169e+000  1.500000e+000
      vertex  3.236068e+000 -2.351141e+000  1.500000e+000
      vertex  1.236068e+000 -3.804226e+000  1.500000e+000
    endloop
  endfacet
  facet normal  0.000000e+000  0.000000e+000 -1.000000e+000
    outer loop
      vertex  9.270510e-001 -2.853169e+000  1.500000e+000
      vertex  1.236068e+000 -3.804226e+000  1.500000e+000
      vertex -9.270510e-001 -2.853169e+000  1.500000e+000
    endloop
  endfacet
  facet normal  0.000000e+000  -0.000000e+000 -1.000000e+000
    outer loop
      vertex -9.270510e-001 -2.853169e+000  1.500000e+000
      vertex  1.236068e+000 -3.804226e+000  1.500000e+000
      vertex -1.236068e+000 -3.804226e+000  1.500000e+000
    endloop
  endfacet
  facet normal  0.000000e+000  0.000000e+000 -1.000000e+000
    outer loop
      vertex -9.270510e-001 -2.853169e+000  1.500000e+000
      vertex -1.236068e+000 -3.804226e+000  1.500000e+000
      vertex -3.236068e+000 -2.351141e+000  1.500000e+000
    endloop
  endfacet
  facet normal  -0.000000e+000  0.000000e+000 -1.000000e+000
    outer loop
      vertex -3.236068e+000  2.351141e+000  1.500000e+000
      vertex -2.427051e+000  1.763356e+000  1.500000e+000
      vertex -4.000000e+000  4.898425e-016  1.500000e+000
    endloop
  endfacet
  facet normal  0.000000e+000  0.000000e+000 -9.999999e-001
    outer loop
      vertex -4.000000e+000  4.898425e-016  1.500000e+000
      vertex -2.427051e+000  1.763356e+000  1.500000e+000
      vertex -3.000000e+000 -3.673819e-016  1.500000e+000
    endloop
  endfacet
  facet normal  -0.000000e+000  0.000000e+000 -1.000000e+000
    outer loop
      vertex -4.000000e+000  4.898425e-016  1.500000e+000
      vertex -3.000000e+000 -3.673819e-016  1.500000e+000
      vertex -3.236068e+000 -2.351141e+000  1.500000e+000
    endloop
  endfacet
  facet normal  0.000000e+000  0.000000e+000 -1.000000e+000
    outer loop
      vertex -3.236068e+000 -2.351141e+000  1.500000e+000
      vertex -3.000000e+000 -3.673819e-016  1.500000e+000
      vertex -2.427051e+000 -1.763356e+000  1.500000e+000
    endloop
  endfacet
  facet normal  0.000000e+000  -0.000000e+000 -1.000000e+000
    outer loop
      vertex -3.236068e+000 -2.351141e+000  1.500000e+000
      vertex -2.427051e+000 -1.763356e+000  1.500000e+000
      vertex -9.270510e-001 -2.853169e+000  1.500000e+000
    endloop
  endfacet
  facet normal  0.000000e+000  0.000000e+000 -1.000000e+000
    outer loop
      vertex  3.236068e+000 -2.351141e+000  1.500000e+000
      vertex  2.427051e+000 -1.763356e+000  1.500000e+000
      vertex  4.000000e+000  0.000000e+000  1.500000e+000
    endloop
  endfacet
  facet normal  -0.000000e+000  0.000000e+000 -9.999999e-001
    outer loop
      vertex  4.000000e+000  0.000000e+000  1.500000e+000
      vertex  2.427051e+000 -1.763356e+000  1.500000e+000
      vertex  3.000000e+000  0.000000e+000  1.500000e+000
    endloop
  endfacet
  facet normal  0.000000e+000  0.000000e+000 -1.000000e+000
    outer loop
      vertex  4.000000e+000  0.000000e+000  1.500000e+000
      vertex  3.000000e+000  0.000000e+000  1.500000e+000
      vertex  3.236068e+000  2.351141e+000  1.500000e+000
    endloop
  endfacet
  facet normal  0.000000e+000  0.000000e+000 -1.000000e+000
    outer loop
      vertex  3.236068e+000  2.351141e+000  1.500000e+000
      vertex  3.000000e+000  0.000000e+000  1.500000e+000
      vertex  2.427051e+000  1.763356e+000  1.500000e+000
    endloop
  endfacet
  facet normal  0.000000e+000  0.000000e+000 -1.000000e+000
    outer loop
      vertex  3.236068e+000  2.351141e+000  1.500000e+000
      vertex  2.427051e+000  1.763356e+000  1.500000e+000
      vertex  9.270510e-001  2.853169e+000  1.500000e+000
    endloop
  endfacet
  facet normal -9.510565e-001 -3.090169e-001  0.000000e+000
    outer loop
      vertex -3.000000e+000 -3.673819e-016  1.500000e+000
      vertex -3.000000e+000 -3.673819e-016  0.000000e+000
      vertex -2.427051e+000 -1.763356e+000  1.500000e+000
    endloop
  endfacet
  facet normal -9.510565e-001 -3.090169e-001  -0.000000e+000
    outer loop
      vertex -2.427051e+000 -1.763356e+000  1.500000e+000
      vertex -3.000000e+000 -3.673819e-016  0.000000e+000
      vertex -2.427051e+000 -1.763356e+000  0.000000e+000
    endloop
  endfacet
  facet normal -5.877852e-001 -8.090170e-001  0.000000e+000
    outer loop
      vertex -2.427051e+000 -1.763356e+000  1.500000e+000
      vertex -2.427051e+000 -1.763356e+000  0.000000e+000
      vertex -9.270510e-001 -2.853169e+000  1.500000e+000
    endloop
  endfacet
  facet normal -5.877852e-001 -8.090170e-001  -0.000000e+000
    outer loop
      vertex -9.270510e-001 -2.853169e+000  1.500000e+000
      vertex -2.427051e+000 -1.763356e+000  0.000000e+000
      vertex -9.270510e-001 -2.853169e+000  0.000000e+000
    endloop
  endfacet
  facet normal  0.000000e+000 -1.000000e+000  0.000000e+000
    outer loop
      vertex -9.270510e-001 -2.853169e+000  1.500000e+000
      vertex -9.270510e-001 -2.853169e+000  0.000000e+000
      vertex  9.270510e-001 -2.853169e+000  1.500000e+000
    endloop
  endfacet
  facet normal  0.000000e+000 -1.000000e+000  -0.000000e+000
    outer loop
      vertex  9.270510e-001 -2.853169e+000  1.500000e+000
      vertex -9.270510e-001 -2.853169e+000  0.000000e+000
      vertex  9.270510e-001 -2.853169e+000  0.000000e+000
    endloop
  endfacet
  facet normal  5.877852e-001 -8.090170e-001  0.000000e+000
    outer loop
      vertex  9.270510e-001 -2.853169e+000  1.500000e+000
      vertex  9.270510e-001 -2.853169e+000  0.000000e+000
      vertex  2.427051e+000 -1.763356e+000  1.500000e+000
    endloop
  endfacet
  facet normal  5.877852e-001 -8.090170e-001  0.000000e+000
    outer loop
      vertex  2.427051e+000 -1.763356e+000  1.500000e+000
      vertex  9.270510e-001 -2.853169e+000  0.000000e+000
      vertex  2.427051e+000 -1.763356e+000  0.000000e+000
    endloop
  endfacet
  facet normal  9.510565e-001 -3.090169e-001  0.000000e+000
    outer loop
      vertex  2.427051e+000 -1.763356e+000  1.500000e+000
      vertex  2.427051e+000 -1.763356e+000  0.000000e+000
      vertex  3.000000e+000  0.000000e+000  1.500000e+000
    endloop
  endfacet
  facet normal  9.510565e-001 -3.090169e-001  0.000000e+000
    outer loop
      vertex  3.000000e+000  0.000000e+000  1.500000e+000
      vertex  2.427051e+000 -1.763356e+000  0.000000e+000
      vertex  3.000000e+000  0.000000e+000  0.000000e+000
    endloop
  endfacet
  facet normal  9.510565e-001  3.090169e-001  -0.000000e+000
    outer loop
      vertex  3.000000e+000  0.000000e+000  1.500000e+000
      vertex  3.000000e+000  0.000000e+000  0.000000e+000
      vertex  2.427051e+000  1.763356e+000  1.500000e+000
    endloop
  endfacet
  facet normal  9.510565e-001  3.090169e-001  0.000000e+000
    outer loop
      vertex  2.427051e+000  1.763356e+000  1.500000e+000
      vertex  3.000000e+000  0.000000e+000  0.000000e+000
      vertex  2.427051e+000  1.763356e+000  0.000000e+000
    endloop
  endfacet
  facet normal  5.877852e-001  8.090170e-001  -0.000000e+000
    outer loop
      vertex  2.427051e+000  1.763356e+000  1.500000e+000
      vertex  2.427051e+000  1.763356e+000  0.000000e+000
      vertex  9.270510e-001  2.853169e+000  1.500000e+000
    endloop
  endfacet
  facet normal  5.877852e-001  8.090170e-001  0.000000e+000
    outer loop
      vertex  9.270510e-001  2.853169e+000  1.500000e+000
      vertex  2.427051e+000  1.763356e+000  0.000000e+000
      vertex  9.270510e-001  2.853169e+000  0.000000e+000
    endloop
  endfacet
  facet normal  0.000000e+000  1.000000e+000  -0.000000e+000
    outer loop
      vertex  9.270510e-001  2.853169e+000  1.500000e+000
      vertex  9.270510e-001  2.853169e+000  0.000000e+000
      vertex -9.270510e-001  2.853169e+000  1.500000e+000
    endloop
  endfacet
  facet normal  0.000000e+000  1.000000e+000  0.000000e+000
    outer loop
      vertex -9.270510e-001  2.853169e+000  1.500000e+000
      vertex  9.270510e-001  2.853169e+000  0.000000e+000
      vertex -9.270510e-001  2.853169e+000  0.000000e+000
    endloop
  endfacet
  facet normal -5.877852e-001  8.090170e-001  0.000000e+000
    outer loop
      vertex -9.270510e-001  2.853169e+000  1.500000e+000
      vertex -9.270510e-001  2.853169e+000  0.000000e+000
      vertex -2.427051e+000  1.763356e+000  1.500000e+000
    endloop
  endfacet
  facet normal -5.877852e-001  8.090170e-001  0.000000e+000
    outer loop
      vertex -2.427051e+000  1.763356e+000  1.500000e+000
      vertex -9.270510e-001  2.853169e+000  0.000000e+000
      vertex -2.427051e+000  1.763356e+000  0.000000e+000
    endloop
  endfacet
  facet normal -9.510565e-001  3.090169e-001  0.000000e+000
    outer loop
      vertex -2.427051e+000  1.763356e+000  1.500000e+000
      vertex -2.427051e+000  1.763356e+000  0.000000e+000
      vertex -3.000000e+000 -3.673819e-016  1.500000e+000
    endloop
  endfacet
  facet normal -9.510565e-001  3.090169e-001  0.000000e+000
    outer loop
      vertex -3.000000e+000 -3.673819e-016  1.500000e+000
      vertex -2.427051e+000  1.763356e+000  0.000000e+000
      vertex -3.000000e+000 -3.673819e-016  0.000000e+000
    endloop
  endfacet
endsolid CATIA STL
