solid CATIA STL
  facet normal  -0.000000e+000  0.000000e+000  1.000000e+000
    outer loop
      vertex -3.949121e+000  2.157415e+000  1.300000e+001
      vertex -1.480000e+001 -4.760103e-015  1.300000e+001
      vertex -4.498747e+000 -1.061846e-001  1.300000e+001
    endloop
  endfacet
  facet normal  0.000000e+000  -0.000000e+000  1.000000e+000
    outer loop
      vertex -1.421733e+001 -4.111884e+000  1.300000e+001
      vertex -1.251519e+001 -7.900000e+000  1.300000e+001
      vertex -2.157415e+000 -3.949121e+000  1.300000e+001
    endloop
  endfacet
  facet normal  0.000000e+000  0.000000e+000  1.000000e+000
    outer loop
      vertex -1.421733e+001 -4.111884e+000  1.300000e+001
      vertex -2.157415e+000 -3.949121e+000  1.300000e+001
      vertex -3.842937e+000 -2.341332e+000  1.300000e+001
    endloop
  endfacet
  facet normal  0.000000e+000  0.000000e+000  1.000000e+000
    outer loop
      vertex -1.421733e+001 -4.111884e+000  1.300000e+001
      vertex -3.842937e+000 -2.341332e+000  1.300000e+001
      vertex -4.498747e+000 -1.061846e-001  1.300000e+001
    endloop
  endfacet
  facet normal  0.000000e+000  0.000000e+000  1.000000e+000
    outer loop
      vertex -1.421733e+001 -4.111884e+000  1.300000e+001
      vertex -4.498747e+000 -1.061846e-001  1.300000e+001
      vertex -1.480000e+001 -4.760103e-015  1.300000e+001
    endloop
  endfacet
  facet normal  0.000000e+000  0.000000e+000  1.000000e+000
    outer loop
      vertex -2.157415e+000 -3.949121e+000  1.300000e+001
      vertex -1.251519e+001 -7.900000e+000  1.300000e+001
      vertex  1.061846e-001 -4.498747e+000  1.300000e+001
    endloop
  endfacet
  facet normal  0.000000e+000  0.000000e+000  1.000000e+000
    outer loop
      vertex  1.061846e-001 -4.498747e+000  1.300000e+001
      vertex -1.251519e+001 -7.900000e+000  1.300000e+001
      vertex  1.251519e+001 -7.900000e+000  1.300000e+001
    endloop
  endfacet
  facet normal  0.000000e+000  0.000000e+000  9.999999e-001
    outer loop
      vertex  1.061846e-001 -4.498747e+000  1.300000e+001
      vertex  1.251519e+001 -7.900000e+000  1.300000e+001
      vertex  2.341332e+000 -3.842937e+000  1.300000e+001
    endloop
  endfacet
  facet normal  0.000000e+000  0.000000e+000  1.000000e+000
    outer loop
      vertex  2.341332e+000 -3.842937e+000  1.300000e+001
      vertex  1.251519e+001 -7.900000e+000  1.300000e+001
      vertex  1.421733e+001 -4.111884e+000  1.300000e+001
    endloop
  endfacet
  facet normal  0.000000e+000  0.000000e+000  1.000000e+000
    outer loop
      vertex  2.341332e+000 -3.842937e+000  1.300000e+001
      vertex  1.421733e+001 -4.111884e+000  1.300000e+001
      vertex  3.949121e+000 -2.157415e+000  1.300000e+001
    endloop
  endfacet
  facet normal  0.000000e+000  0.000000e+000  1.000000e+000
    outer loop
      vertex -1.251519e+001  7.900000e+000  1.300000e+001
      vertex -1.421733e+001  4.111884e+000  1.300000e+001
      vertex  1.251519e+001  7.900000e+000  1.300000e+001
    endloop
  endfacet
  facet normal  0.000000e+000  0.000000e+000  1.000000e+000
    outer loop
      vertex  1.251519e+001  7.900000e+000  1.300000e+001
      vertex -1.421733e+001  4.111884e+000  1.300000e+001
      vertex -1.061846e-001  4.498747e+000  1.300000e+001
    endloop
  endfacet
  facet normal  -0.000000e+000  0.000000e+000  1.000000e+000
    outer loop
      vertex  1.251519e+001  7.900000e+000  1.300000e+001
      vertex -1.061846e-001  4.498747e+000  1.300000e+001
      vertex  1.421733e+001  4.111884e+000  1.300000e+001
    endloop
  endfacet
  facet normal  0.000000e+000  0.000000e+000  9.999999e-001
    outer loop
      vertex  1.421733e+001  4.111884e+000  1.300000e+001
      vertex -1.061846e-001  4.498747e+000  1.300000e+001
      vertex  2.157415e+000  3.949121e+000  1.300000e+001
    endloop
  endfacet
  facet normal  -0.000000e+000  0.000000e+000  1.000000e+000
    outer loop
      vertex  1.421733e+001  4.111884e+000  1.300000e+001
      vertex  2.157415e+000  3.949121e+000  1.300000e+001
      vertex  1.480000e+001  9.520206e-015  1.300000e+001
    endloop
  endfacet
  facet normal  0.000000e+000  0.000000e+000  1.000000e+000
    outer loop
      vertex  1.480000e+001  9.520206e-015  1.300000e+001
      vertex  2.157415e+000  3.949121e+000  1.300000e+001
      vertex  3.842937e+000  2.341332e+000  1.300000e+001
    endloop
  endfacet
  facet normal  0.000000e+000  0.000000e+000  1.000000e+000
    outer loop
      vertex  1.480000e+001  9.520206e-015  1.300000e+001
      vertex  3.842937e+000  2.341332e+000  1.300000e+001
      vertex  4.498747e+000  1.061846e-001  1.300000e+001
    endloop
  endfacet
  facet normal  0.000000e+000  0.000000e+000  1.000000e+000
    outer loop
      vertex -1.480000e+001 -4.760103e-015  1.300000e+001
      vertex -3.949121e+000  2.157415e+000  1.300000e+001
      vertex -1.421733e+001  4.111884e+000  1.300000e+001
    endloop
  endfacet
  facet normal  0.000000e+000  0.000000e+000  1.000000e+000
    outer loop
      vertex -1.421733e+001  4.111884e+000  1.300000e+001
      vertex -3.949121e+000  2.157415e+000  1.300000e+001
      vertex -2.341332e+000  3.842937e+000  1.300000e+001
    endloop
  endfacet
  facet normal  0.000000e+000  -0.000000e+000  1.000000e+000
    outer loop
      vertex -1.421733e+001  4.111884e+000  1.300000e+001
      vertex -2.341332e+000  3.842937e+000  1.300000e+001
      vertex -1.061846e-001  4.498747e+000  1.300000e+001
    endloop
  endfacet
  facet normal  0.000000e+000  0.000000e+000  9.999999e-001
    outer loop
      vertex  3.949121e+000 -2.157415e+000  1.300000e+001
      vertex  1.421733e+001 -4.111884e+000  1.300000e+001
      vertex  4.498747e+000  1.061846e-001  1.300000e+001
    endloop
  endfacet
  facet normal  0.000000e+000  0.000000e+000  1.000000e+000
    outer loop
      vertex  4.498747e+000  1.061846e-001  1.300000e+001
      vertex  1.421733e+001 -4.111884e+000  1.300000e+001
      vertex  1.480000e+001  9.520206e-015  1.300000e+001
    endloop
  endfacet
  facet normal  9.827812e-001 -1.847729e-001  0.000000e+000
    outer loop
      vertex -3.510330e+000  1.917702e+000  1.500000e+000
      vertex -3.510330e+000  1.917702e+000  1.250000e+001
      vertex -3.967114e+000 -5.118667e-001  1.500000e+000
    endloop
  endfacet
  facet normal  9.827812e-001 -1.847729e-001  0.000000e+000
    outer loop
      vertex -3.967114e+000 -5.118667e-001  1.500000e+000
      vertex -3.510330e+000  1.917702e+000  1.250000e+001
      vertex -3.967114e+000 -5.118667e-001  1.250000e+001
    endloop
  endfacet
  facet normal  9.036935e-001  4.281799e-001  0.000000e+000
    outer loop
      vertex -3.967114e+000 -5.118667e-001  1.500000e+000
      vertex -3.967114e+000 -5.118667e-001  1.250000e+001
      vertex -2.908595e+000 -2.745920e+000  1.500000e+000
    endloop
  endfacet
  facet normal  9.036935e-001  4.281799e-001  -0.000000e+000
    outer loop
      vertex -2.908595e+000 -2.745920e+000  1.500000e+000
      vertex -3.967114e+000 -5.118667e-001  1.250000e+001
      vertex -2.908595e+000 -2.745920e+000  1.250000e+001
    endloop
  endfacet
  facet normal  4.794255e-001  8.775826e-001  0.000000e+000
    outer loop
      vertex -2.908595e+000 -2.745920e+000  1.500000e+000
      vertex -2.908595e+000 -2.745920e+000  1.250000e+001
      vertex -7.390915e-001 -3.931125e+000  1.500000e+000
    endloop
  endfacet
  facet normal  4.794255e-001  8.775826e-001  -0.000000e+000
    outer loop
      vertex -7.390915e-001 -3.931125e+000  1.500000e+000
      vertex -2.908595e+000 -2.745920e+000  1.250000e+001
      vertex -7.390915e-001 -3.931125e+000  1.250000e+001
    endloop
  endfacet
  facet normal -1.279666e-001  9.917785e-001  0.000000e+000
    outer loop
      vertex -7.390915e-001 -3.931125e+000  1.500000e+000
      vertex -7.390915e-001 -3.931125e+000  1.250000e+001
      vertex  1.712720e+000 -3.614774e+000  1.500000e+000
    endloop
  endfacet
  facet normal -1.279666e-001  9.917785e-001  0.000000e+000
    outer loop
      vertex  1.712720e+000 -3.614774e+000  1.500000e+000
      vertex -7.390915e-001 -3.931125e+000  1.250000e+001
      vertex  1.712720e+000 -3.614774e+000  1.250000e+001
    endloop
  endfacet
  facet normal -6.864799e-001  7.271487e-001  0.000000e+000
    outer loop
      vertex  1.712720e+000 -3.614774e+000  1.500000e+000
      vertex  1.712720e+000 -3.614774e+000  1.250000e+001
      vertex  3.510330e+000 -1.917702e+000  1.500000e+000
    endloop
  endfacet
  facet normal -6.864799e-001  7.271487e-001  0.000000e+000
    outer loop
      vertex  3.510330e+000 -1.917702e+000  1.500000e+000
      vertex  1.712720e+000 -3.614774e+000  1.250000e+001
      vertex  3.510330e+000 -1.917702e+000  1.250000e+001
    endloop
  endfacet
  facet normal -9.827812e-001  1.847729e-001  0.000000e+000
    outer loop
      vertex  3.510330e+000 -1.917702e+000  1.500000e+000
      vertex  3.510330e+000 -1.917702e+000  1.250000e+001
      vertex  3.967114e+000  5.118667e-001  1.500000e+000
    endloop
  endfacet
  facet normal -9.827812e-001  1.847729e-001  0.000000e+000
    outer loop
      vertex  3.967114e+000  5.118667e-001  1.500000e+000
      vertex  3.510330e+000 -1.917702e+000  1.250000e+001
      vertex  3.967114e+000  5.118667e-001  1.250000e+001
    endloop
  endfacet
  facet normal -9.036935e-001 -4.281799e-001  -0.000000e+000
    outer loop
      vertex  3.967114e+000  5.118667e-001  1.500000e+000
      vertex  3.967114e+000  5.118667e-001  1.250000e+001
      vertex  2.908595e+000  2.745920e+000  1.500000e+000
    endloop
  endfacet
  facet normal -9.036935e-001 -4.281799e-001  0.000000e+000
    outer loop
      vertex  2.908595e+000  2.745920e+000  1.500000e+000
      vertex  3.967114e+000  5.118667e-001  1.250000e+001
      vertex  2.908595e+000  2.745920e+000  1.250000e+001
    endloop
  endfacet
  facet normal -4.794255e-001 -8.775826e-001  -0.000000e+000
    outer loop
      vertex  2.908595e+000  2.745920e+000  1.500000e+000
      vertex  2.908595e+000  2.745920e+000  1.250000e+001
      vertex  7.390915e-001  3.931125e+000  1.500000e+000
    endloop
  endfacet
  facet normal -4.794255e-001 -8.775826e-001  0.000000e+000
    outer loop
      vertex  7.390915e-001  3.931125e+000  1.500000e+000
      vertex  2.908595e+000  2.745920e+000  1.250000e+001
      vertex  7.390915e-001  3.931125e+000  1.250000e+001
    endloop
  endfacet
  facet normal  1.279666e-001 -9.917785e-001  0.000000e+000
    outer loop
      vertex  7.390915e-001  3.931125e+000  1.500000e+000
      vertex  7.390915e-001  3.931125e+000  1.250000e+001
      vertex -1.712720e+000  3.614774e+000  1.500000e+000
    endloop
  endfacet
  facet normal  1.279666e-001 -9.917785e-001  0.000000e+000
    outer loop
      vertex -1.712720e+000  3.614774e+000  1.500000e+000
      vertex  7.390915e-001  3.931125e+000  1.250000e+001
      vertex -1.712720e+000  3.614774e+000  1.250000e+001
    endloop
  endfacet
  facet normal  6.864799e-001 -7.271487e-001  0.000000e+000
    outer loop
      vertex -1.712720e+000  3.614774e+000  1.500000e+000
      vertex -1.712720e+000  3.614774e+000  1.250000e+001
      vertex -3.510330e+000  1.917702e+000  1.500000e+000
    endloop
  endfacet
  facet normal  6.864799e-001 -7.271487e-001  0.000000e+000
    outer loop
      vertex -3.510330e+000  1.917702e+000  1.500000e+000
      vertex -1.712720e+000  3.614774e+000  1.250000e+001
      vertex -3.510330e+000  1.917702e+000  1.250000e+001
    endloop
  endfacet
  facet normal  5.204492e-001 -4.964472e-001  6.947466e-001
    outer loop
      vertex -2.341332e+000  3.842937e+000  1.300000e+001
      vertex -3.949121e+000  2.157415e+000  1.300000e+001
      vertex -3.510330e+000  1.917702e+000  1.250000e+001
    endloop
  endfacet
  facet normal  4.405830e-001 -4.666842e-001  7.668718e-001
    outer loop
      vertex -1.712720e+000  3.614774e+000  1.250000e+001
      vertex -2.341332e+000  3.842937e+000  1.300000e+001
      vertex -3.510330e+000  1.917702e+000  1.250000e+001
    endloop
  endfacet
  facet normal -6.307494e-001  1.185873e-001  7.668718e-001
    outer loop
      vertex  4.498747e+000  1.061846e-001  1.300000e+001
      vertex  3.967114e+000  5.118667e-001  1.250000e+001
      vertex  3.510330e+000 -1.917702e+000  1.250000e+001
    endloop
  endfacet
  facet normal -6.989458e-001  1.697113e-001  6.947466e-001
    outer loop
      vertex  3.949121e+000 -2.157415e+000  1.300000e+001
      vertex  4.498747e+000  1.061846e-001  1.300000e+001
      vertex  3.510330e+000 -1.917702e+000  1.250000e+001
    endloop
  endfacet
  facet normal -7.522728e-001 -2.207228e-001  6.207795e-001
    outer loop
      vertex  4.498747e+000  1.061846e-001  1.300000e+001
      vertex  3.842937e+000  2.341332e+000  1.300000e+001
      vertex  3.967114e+000  5.118667e-001  1.250000e+001
    endloop
  endfacet
  facet normal -5.643126e-001 -5.915958e-001  5.758173e-001
    outer loop
      vertex  3.842937e+000  2.341332e+000  1.300000e+001
      vertex  2.157415e+000  3.949121e+000  1.300000e+001
      vertex  2.908595e+000  2.745920e+000  1.250000e+001
    endloop
  endfacet
  facet normal -5.399038e-001 -2.558124e-001  8.019127e-001
    outer loop
      vertex  3.967114e+000  5.118667e-001  1.250000e+001
      vertex  3.842937e+000  2.341332e+000  1.300000e+001
      vertex  2.908595e+000  2.745920e+000  1.250000e+001
    endloop
  endfacet
  facet normal -1.929112e-001 -7.944933e-001  5.758172e-001
    outer loop
      vertex  2.157415e+000  3.949121e+000  1.300000e+001
      vertex -1.061846e-001  4.498747e+000  1.300000e+001
      vertex  7.390915e-001  3.931125e+000  1.250000e+001
    endloop
  endfacet
  facet normal -2.797777e-001 -5.121297e-001  8.120638e-001
    outer loop
      vertex  2.908595e+000  2.745920e+000  1.250000e+001
      vertex  2.157415e+000  3.949121e+000  1.300000e+001
      vertex  7.390915e-001  3.931125e+000  1.250000e+001
    endloop
  endfacet
  facet normal  2.207227e-001 -7.522727e-001  6.207796e-001
    outer loop
      vertex -1.061846e-001  4.498747e+000  1.300000e+001
      vertex -2.341332e+000  3.842937e+000  1.300000e+001
      vertex -1.712720e+000  3.614774e+000  1.250000e+001
    endloop
  endfacet
  facet normal  7.645258e-002 -5.925295e-001  8.019126e-001
    outer loop
      vertex  7.390915e-001  3.931125e+000  1.250000e+001
      vertex -1.061846e-001  4.498747e+000  1.300000e+001
      vertex -1.712720e+000  3.614774e+000  1.250000e+001
    endloop
  endfacet
  facet normal -5.204493e-001  4.964472e-001  6.947466e-001
    outer loop
      vertex  2.341332e+000 -3.842937e+000  1.300000e+001
      vertex  3.949121e+000 -2.157415e+000  1.300000e+001
      vertex  3.510330e+000 -1.917702e+000  1.250000e+001
    endloop
  endfacet
  facet normal -4.405830e-001  4.666842e-001  7.668719e-001
    outer loop
      vertex  1.712720e+000 -3.614774e+000  1.250000e+001
      vertex  2.341332e+000 -3.842937e+000  1.300000e+001
      vertex  3.510330e+000 -1.917702e+000  1.250000e+001
    endloop
  endfacet
  facet normal  6.307494e-001 -1.185873e-001  7.668718e-001
    outer loop
      vertex -4.498747e+000 -1.061846e-001  1.300000e+001
      vertex -3.967114e+000 -5.118667e-001  1.250000e+001
      vertex -3.510330e+000  1.917702e+000  1.250000e+001
    endloop
  endfacet
  facet normal  6.989458e-001 -1.697113e-001  6.947466e-001
    outer loop
      vertex -3.949121e+000  2.157415e+000  1.300000e+001
      vertex -4.498747e+000 -1.061846e-001  1.300000e+001
      vertex -3.510330e+000  1.917702e+000  1.250000e+001
    endloop
  endfacet
  facet normal  7.522728e-001  2.207228e-001  6.207795e-001
    outer loop
      vertex -4.498747e+000 -1.061846e-001  1.300000e+001
      vertex -3.842937e+000 -2.341332e+000  1.300000e+001
      vertex -3.967114e+000 -5.118667e-001  1.250000e+001
    endloop
  endfacet
  facet normal  5.643126e-001  5.915958e-001  5.758173e-001
    outer loop
      vertex -3.842937e+000 -2.341332e+000  1.300000e+001
      vertex -2.157415e+000 -3.949121e+000  1.300000e+001
      vertex -2.908595e+000 -2.745920e+000  1.250000e+001
    endloop
  endfacet
  facet normal  5.399038e-001  2.558124e-001  8.019127e-001
    outer loop
      vertex -3.967114e+000 -5.118667e-001  1.250000e+001
      vertex -3.842937e+000 -2.341332e+000  1.300000e+001
      vertex -2.908595e+000 -2.745920e+000  1.250000e+001
    endloop
  endfacet
  facet normal  1.929112e-001  7.944934e-001  5.758173e-001
    outer loop
      vertex -2.157415e+000 -3.949121e+000  1.300000e+001
      vertex  1.061846e-001 -4.498747e+000  1.300000e+001
      vertex -7.390915e-001 -3.931125e+000  1.250000e+001
    endloop
  endfacet
  facet normal  2.797777e-001  5.121297e-001  8.120638e-001
    outer loop
      vertex -2.908595e+000 -2.745920e+000  1.250000e+001
      vertex -2.157415e+000 -3.949121e+000  1.300000e+001
      vertex -7.390915e-001 -3.931125e+000  1.250000e+001
    endloop
  endfacet
  facet normal -2.207227e-001  7.522727e-001  6.207796e-001
    outer loop
      vertex  1.061846e-001 -4.498747e+000  1.300000e+001
      vertex  2.341332e+000 -3.842937e+000  1.300000e+001
      vertex  1.712720e+000 -3.614774e+000  1.250000e+001
    endloop
  endfacet
  facet normal -7.645258e-002  5.925295e-001  8.019126e-001
    outer loop
      vertex -7.390915e-001 -3.931125e+000  1.250000e+001
      vertex  1.061846e-001 -4.498747e+000  1.300000e+001
      vertex  1.712720e+000 -3.614774e+000  1.250000e+001
    endloop
  endfacet
  facet normal  0.000000e+000  1.000000e+000  0.000000e+000
    outer loop
      vertex  8.072505e+000  7.900000e+000  4.014843e+000
      vertex  9.758125e+000  7.900000e+000  3.797352e+000
      vertex -1.251519e+001  7.900000e+000  0.000000e+000
    endloop
  endfacet
  facet normal  0.000000e+000  1.000000e+000  0.000000e+000
    outer loop
      vertex  6.836648e+000  7.900000e+000  5.181580e+000
      vertex  8.072505e+000  7.900000e+000  4.014843e+000
      vertex -1.251519e+001  7.900000e+000  0.000000e+000
    endloop
  endfacet
  facet normal  0.000000e+000  1.000000e+000  -0.000000e+000
    outer loop
      vertex  6.522609e+000  7.900000e+000  6.851908e+000
      vertex -6.522609e+000  7.900000e+000  6.851908e+000
      vertex -7.250341e+000  7.900000e+000  8.387820e+000
    endloop
  endfacet
  facet normal  0.000000e+000  1.000000e+000  0.000000e+000
    outer loop
      vertex  6.836648e+000  7.900000e+000  5.181580e+000
      vertex -1.251519e+001  7.900000e+000  0.000000e+000
      vertex -8.072505e+000  7.900000e+000  4.014843e+000
    endloop
  endfacet
  facet normal  0.000000e+000  1.000000e+000  0.000000e+000
    outer loop
      vertex  6.836648e+000  7.900000e+000  5.181580e+000
      vertex -8.072505e+000  7.900000e+000  4.014843e+000
      vertex -6.836648e+000  7.900000e+000  5.181580e+000
    endloop
  endfacet
  facet normal  0.000000e+000  1.000000e+000  0.000000e+000
    outer loop
      vertex  6.836648e+000  7.900000e+000  5.181580e+000
      vertex -6.836648e+000  7.900000e+000  5.181580e+000
      vertex -6.522609e+000  7.900000e+000  6.851908e+000
    endloop
  endfacet
  facet normal  -0.000000e+000  1.000000e+000  0.000000e+000
    outer loop
      vertex  6.836648e+000  7.900000e+000  5.181580e+000
      vertex -6.522609e+000  7.900000e+000  6.851908e+000
      vertex  6.522609e+000  7.900000e+000  6.851908e+000
    endloop
  endfacet
  facet normal  0.000000e+000  9.999999e-001  -0.000000e+000
    outer loop
      vertex  1.251519e+001  7.900000e+000  1.300000e+001
      vertex  1.251519e+001  7.900000e+000  0.000000e+000
      vertex  1.197739e+001  7.900000e+000  6.148092e+000
    endloop
  endfacet
  facet normal  0.000000e+000  1.000000e+000  -0.000000e+000
    outer loop
      vertex  1.251519e+001  7.900000e+000  1.300000e+001
      vertex  1.197739e+001  7.900000e+000  6.148092e+000
      vertex  1.166335e+001  7.900000e+000  7.818420e+000
    endloop
  endfacet
  facet normal  0.000000e+000  9.999999e-001  -0.000000e+000
    outer loop
      vertex  1.251519e+001  7.900000e+000  1.300000e+001
      vertex  1.166335e+001  7.900000e+000  7.818420e+000
      vertex  1.042750e+001  7.900000e+000  8.985157e+000
    endloop
  endfacet
  facet normal  0.000000e+000  9.999999e-001  -0.000000e+000
    outer loop
      vertex  1.251519e+001  7.900000e+000  1.300000e+001
      vertex  1.042750e+001  7.900000e+000  8.985157e+000
      vertex -1.251519e+001  7.900000e+000  1.300000e+001
    endloop
  endfacet
  facet normal  0.000000e+000  1.000000e+000  0.000000e+000
    outer loop
      vertex -1.251519e+001  7.900000e+000  1.300000e+001
      vertex  1.042750e+001  7.900000e+000  8.985157e+000
      vertex  8.741875e+000  7.900000e+000  9.202648e+000
    endloop
  endfacet
  facet normal  0.000000e+000  1.000000e+000  0.000000e+000
    outer loop
      vertex -1.251519e+001  7.900000e+000  1.300000e+001
      vertex  8.741875e+000  7.900000e+000  9.202648e+000
      vertex  7.250341e+000  7.900000e+000  8.387820e+000
    endloop
  endfacet
  facet normal  0.000000e+000  1.000000e+000  0.000000e+000
    outer loop
      vertex -1.251519e+001  7.900000e+000  1.300000e+001
      vertex  7.250341e+000  7.900000e+000  8.387820e+000
      vertex  6.522609e+000  7.900000e+000  6.851908e+000
    endloop
  endfacet
  facet normal  0.000000e+000  1.000000e+000  0.000000e+000
    outer loop
      vertex -1.251519e+001  7.900000e+000  1.300000e+001
      vertex  6.522609e+000  7.900000e+000  6.851908e+000
      vertex -7.250341e+000  7.900000e+000  8.387820e+000
    endloop
  endfacet
  facet normal  0.000000e+000  1.000000e+000  0.000000e+000
    outer loop
      vertex -1.251519e+001  7.900000e+000  1.300000e+001
      vertex -7.250341e+000  7.900000e+000  8.387820e+000
      vertex -8.741875e+000  7.900000e+000  9.202648e+000
    endloop
  endfacet
  facet normal  0.000000e+000  1.000000e+000  0.000000e+000
    outer loop
      vertex -1.251519e+001  7.900000e+000  1.300000e+001
      vertex -8.741875e+000  7.900000e+000  9.202648e+000
      vertex -1.042750e+001  7.900000e+000  8.985157e+000
    endloop
  endfacet
  facet normal  0.000000e+000  9.999999e-001  0.000000e+000
    outer loop
      vertex -1.251519e+001  7.900000e+000  1.300000e+001
      vertex -1.042750e+001  7.900000e+000  8.985157e+000
      vertex -1.166335e+001  7.900000e+000  7.818420e+000
    endloop
  endfacet
  facet normal  0.000000e+000  1.000000e+000  0.000000e+000
    outer loop
      vertex -1.251519e+001  7.900000e+000  1.300000e+001
      vertex -1.166335e+001  7.900000e+000  7.818420e+000
      vertex -1.197739e+001  7.900000e+000  6.148092e+000
    endloop
  endfacet
  facet normal  0.000000e+000  9.999999e-001  0.000000e+000
    outer loop
      vertex -1.251519e+001  7.900000e+000  1.300000e+001
      vertex -1.197739e+001  7.900000e+000  6.148092e+000
      vertex -1.251519e+001  7.900000e+000  0.000000e+000
    endloop
  endfacet
  facet normal  0.000000e+000  1.000000e+000  0.000000e+000
    outer loop
      vertex -1.251519e+001  7.900000e+000  0.000000e+000
      vertex -1.197739e+001  7.900000e+000  6.148092e+000
      vertex -1.124966e+001  7.900000e+000  4.612180e+000
    endloop
  endfacet
  facet normal  0.000000e+000  9.999999e-001  0.000000e+000
    outer loop
      vertex -1.251519e+001  7.900000e+000  0.000000e+000
      vertex -1.124966e+001  7.900000e+000  4.612180e+000
      vertex -9.758125e+000  7.900000e+000  3.797352e+000
    endloop
  endfacet
  facet normal  -0.000000e+000  1.000000e+000  0.000000e+000
    outer loop
      vertex -1.251519e+001  7.900000e+000  0.000000e+000
      vertex -9.758125e+000  7.900000e+000  3.797352e+000
      vertex -8.072505e+000  7.900000e+000  4.014843e+000
    endloop
  endfacet
  facet normal  0.000000e+000  1.000000e+000  0.000000e+000
    outer loop
      vertex  1.251519e+001  7.900000e+000  0.000000e+000
      vertex -1.251519e+001  7.900000e+000  0.000000e+000
      vertex  9.758125e+000  7.900000e+000  3.797352e+000
    endloop
  endfacet
  facet normal  -0.000000e+000  9.999999e-001  0.000000e+000
    outer loop
      vertex  1.251519e+001  7.900000e+000  0.000000e+000
      vertex  9.758125e+000  7.900000e+000  3.797352e+000
      vertex  1.124966e+001  7.900000e+000  4.612180e+000
    endloop
  endfacet
  facet normal  -0.000000e+000  1.000000e+000  0.000000e+000
    outer loop
      vertex  1.251519e+001  7.900000e+000  0.000000e+000
      vertex  1.124966e+001  7.900000e+000  4.612180e+000
      vertex  1.197739e+001  7.900000e+000  6.148092e+000
    endloop
  endfacet
  facet normal  9.827812e-001  0.000000e+000  1.847729e-001
    outer loop
      vertex  6.836648e+000 -4.100000e+000  5.181580e+000
      vertex  6.836648e+000  7.900000e+000  5.181580e+000
      vertex  6.522609e+000 -4.100000e+000  6.851908e+000
    endloop
  endfacet
  facet normal  9.827812e-001  -0.000000e+000  1.847729e-001
    outer loop
      vertex  6.522609e+000 -4.100000e+000  6.851908e+000
      vertex  6.836648e+000  7.900000e+000  5.181580e+000
      vertex  6.522609e+000  7.900000e+000  6.851908e+000
    endloop
  endfacet
  facet normal  9.036936e-001  0.000000e+000 -4.281798e-001
    outer loop
      vertex  6.522609e+000 -4.100000e+000  6.851908e+000
      vertex  6.522609e+000  7.900000e+000  6.851908e+000
      vertex  7.250341e+000 -4.100000e+000  8.387820e+000
    endloop
  endfacet
  facet normal  9.036936e-001  0.000000e+000 -4.281798e-001
    outer loop
      vertex  7.250341e+000 -4.100000e+000  8.387820e+000
      vertex  6.522609e+000  7.900000e+000  6.851908e+000
      vertex  7.250341e+000  7.900000e+000  8.387820e+000
    endloop
  endfacet
  facet normal  4.794252e-001  0.000000e+000 -8.775827e-001
    outer loop
      vertex  7.250341e+000 -4.100000e+000  8.387820e+000
      vertex  7.250341e+000  7.900000e+000  8.387820e+000
      vertex  8.741875e+000 -4.100000e+000  9.202648e+000
    endloop
  endfacet
  facet normal  4.794252e-001  0.000000e+000 -8.775827e-001
    outer loop
      vertex  8.741875e+000 -4.100000e+000  9.202648e+000
      vertex  7.250341e+000  7.900000e+000  8.387820e+000
      vertex  8.741875e+000  7.900000e+000  9.202648e+000
    endloop
  endfacet
  facet normal -1.279666e-001  -0.000000e+000 -9.917785e-001
    outer loop
      vertex  8.741875e+000 -4.100000e+000  9.202648e+000
      vertex  8.741875e+000  7.900000e+000  9.202648e+000
      vertex  1.042750e+001 -4.100000e+000  8.985157e+000
    endloop
  endfacet
  facet normal -1.279666e-001  0.000000e+000 -9.917785e-001
    outer loop
      vertex  1.042750e+001 -4.100000e+000  8.985157e+000
      vertex  8.741875e+000  7.900000e+000  9.202648e+000
      vertex  1.042750e+001  7.900000e+000  8.985157e+000
    endloop
  endfacet
  facet normal -6.864799e-001  -0.000000e+000 -7.271488e-001
    outer loop
      vertex  1.042750e+001 -4.100000e+000  8.985157e+000
      vertex  1.042750e+001  7.900000e+000  8.985157e+000
      vertex  1.166335e+001 -4.100000e+000  7.818420e+000
    endloop
  endfacet
  facet normal -6.864799e-001  0.000000e+000 -7.271488e-001
    outer loop
      vertex  1.166335e+001 -4.100000e+000  7.818420e+000
      vertex  1.042750e+001  7.900000e+000  8.985157e+000
      vertex  1.166335e+001  7.900000e+000  7.818420e+000
    endloop
  endfacet
  facet normal -9.827812e-001  -0.000000e+000 -1.847731e-001
    outer loop
      vertex  1.166335e+001 -4.100000e+000  7.818420e+000
      vertex  1.166335e+001  7.900000e+000  7.818420e+000
      vertex  1.197739e+001 -4.100000e+000  6.148092e+000
    endloop
  endfacet
  facet normal -9.827812e-001  0.000000e+000 -1.847731e-001
    outer loop
      vertex  1.197739e+001 -4.100000e+000  6.148092e+000
      vertex  1.166335e+001  7.900000e+000  7.818420e+000
      vertex  1.197739e+001  7.900000e+000  6.148092e+000
    endloop
  endfacet
  facet normal -9.036933e-001  0.000000e+000  4.281803e-001
    outer loop
      vertex  1.197739e+001 -4.100000e+000  6.148092e+000
      vertex  1.197739e+001  7.900000e+000  6.148092e+000
      vertex  1.124966e+001 -4.100000e+000  4.612180e+000
    endloop
  endfacet
  facet normal -9.036933e-001  0.000000e+000  4.281803e-001
    outer loop
      vertex  1.124966e+001 -4.100000e+000  4.612180e+000
      vertex  1.197739e+001  7.900000e+000  6.148092e+000
      vertex  1.124966e+001  7.900000e+000  4.612180e+000
    endloop
  endfacet
  facet normal -4.794257e-001  0.000000e+000  8.775825e-001
    outer loop
      vertex  1.124966e+001 -4.100000e+000  4.612180e+000
      vertex  1.124966e+001  7.900000e+000  4.612180e+000
      vertex  9.758125e+000 -4.100000e+000  3.797352e+000
    endloop
  endfacet
  facet normal -4.794257e-001  0.000000e+000  8.775825e-001
    outer loop
      vertex  9.758125e+000 -4.100000e+000  3.797352e+000
      vertex  1.124966e+001  7.900000e+000  4.612180e+000
      vertex  9.758125e+000  7.900000e+000  3.797352e+000
    endloop
  endfacet
  facet normal  1.279667e-001  0.000000e+000  9.917785e-001
    outer loop
      vertex  9.758125e+000 -4.100000e+000  3.797352e+000
      vertex  9.758125e+000  7.900000e+000  3.797352e+000
      vertex  8.072505e+000 -4.100000e+000  4.014843e+000
    endloop
  endfacet
  facet normal  1.279667e-001  -0.000000e+000  9.917785e-001
    outer loop
      vertex  8.072505e+000 -4.100000e+000  4.014843e+000
      vertex  9.758125e+000  7.900000e+000  3.797352e+000
      vertex  8.072505e+000  7.900000e+000  4.014843e+000
    endloop
  endfacet
  facet normal  6.864799e-001  0.000000e+000  7.271488e-001
    outer loop
      vertex  8.072505e+000 -4.100000e+000  4.014843e+000
      vertex  8.072505e+000  7.900000e+000  4.014843e+000
      vertex  6.836648e+000 -4.100000e+000  5.181580e+000
    endloop
  endfacet
  facet normal  6.864799e-001  -0.000000e+000  7.271488e-001
    outer loop
      vertex  6.836648e+000 -4.100000e+000  5.181580e+000
      vertex  8.072505e+000  7.900000e+000  4.014843e+000
      vertex  6.836648e+000  7.900000e+000  5.181580e+000
    endloop
  endfacet
  facet normal  0.000000e+000  1.000000e+000  0.000000e+000
    outer loop
      vertex  8.741875e+000 -4.100000e+000  9.202648e+000
      vertex  1.042750e+001 -4.100000e+000  8.985157e+000
      vertex  7.250341e+000 -4.100000e+000  8.387820e+000
    endloop
  endfacet
  facet normal  -0.000000e+000  1.000000e+000  0.000000e+000
    outer loop
      vertex  7.250341e+000 -4.100000e+000  8.387820e+000
      vertex  1.042750e+001 -4.100000e+000  8.985157e+000
      vertex  1.166335e+001 -4.100000e+000  7.818420e+000
    endloop
  endfacet
  facet normal  0.000000e+000  1.000000e+000  0.000000e+000
    outer loop
      vertex  7.250341e+000 -4.100000e+000  8.387820e+000
      vertex  1.166335e+001 -4.100000e+000  7.818420e+000
      vertex  6.522609e+000 -4.100000e+000  6.851908e+000
    endloop
  endfacet
  facet normal  -0.000000e+000  1.000000e+000  0.000000e+000
    outer loop
      vertex  6.522609e+000 -4.100000e+000  6.851908e+000
      vertex  1.166335e+001 -4.100000e+000  7.818420e+000
      vertex  1.197739e+001 -4.100000e+000  6.148092e+000
    endloop
  endfacet
  facet normal  0.000000e+000  1.000000e+000  0.000000e+000
    outer loop
      vertex  6.522609e+000 -4.100000e+000  6.851908e+000
      vertex  1.197739e+001 -4.100000e+000  6.148092e+000
      vertex  6.836648e+000 -4.100000e+000  5.181580e+000
    endloop
  endfacet
  facet normal  -0.000000e+000  1.000000e+000  0.000000e+000
    outer loop
      vertex  6.836648e+000 -4.100000e+000  5.181580e+000
      vertex  1.197739e+001 -4.100000e+000  6.148092e+000
      vertex  1.124966e+001 -4.100000e+000  4.612180e+000
    endloop
  endfacet
  facet normal  0.000000e+000  1.000000e+000  0.000000e+000
    outer loop
      vertex  6.836648e+000 -4.100000e+000  5.181580e+000
      vertex  1.124966e+001 -4.100000e+000  4.612180e+000
      vertex  8.072505e+000 -4.100000e+000  4.014843e+000
    endloop
  endfacet
  facet normal  -0.000000e+000  1.000000e+000  0.000000e+000
    outer loop
      vertex  8.072505e+000 -4.100000e+000  4.014843e+000
      vertex  1.124966e+001 -4.100000e+000  4.612180e+000
      vertex  9.758125e+000 -4.100000e+000  3.797352e+000
    endloop
  endfacet
  facet normal  0.000000e+000 -9.999999e-001  0.000000e+000
    outer loop
      vertex -1.251519e+001 -7.900000e+000  1.300000e+001
      vertex -1.251519e+001 -7.900000e+000  0.000000e+000
      vertex -1.197739e+001 -7.900000e+000  6.148092e+000
    endloop
  endfacet
  facet normal  0.000000e+000 -1.000000e+000  0.000000e+000
    outer loop
      vertex -1.251519e+001 -7.900000e+000  1.300000e+001
      vertex -1.197739e+001 -7.900000e+000  6.148092e+000
      vertex -1.166335e+001 -7.900000e+000  7.818420e+000
    endloop
  endfacet
  facet normal  0.000000e+000 -9.999999e-001  0.000000e+000
    outer loop
      vertex -1.251519e+001 -7.900000e+000  1.300000e+001
      vertex -1.166335e+001 -7.900000e+000  7.818420e+000
      vertex -1.042750e+001 -7.900000e+000  8.985157e+000
    endloop
  endfacet
  facet normal  0.000000e+000 -1.000000e+000  0.000000e+000
    outer loop
      vertex -1.251519e+001 -7.900000e+000  1.300000e+001
      vertex -1.042750e+001 -7.900000e+000  8.985157e+000
      vertex -8.741875e+000 -7.900000e+000  9.202648e+000
    endloop
  endfacet
  facet normal  0.000000e+000 -1.000000e+000  0.000000e+000
    outer loop
      vertex -1.251519e+001 -7.900000e+000  1.300000e+001
      vertex -8.741875e+000 -7.900000e+000  9.202648e+000
      vertex -7.250341e+000 -7.900000e+000  8.387820e+000
    endloop
  endfacet
  facet normal  0.000000e+000 -1.000000e+000  0.000000e+000
    outer loop
      vertex -1.251519e+001 -7.900000e+000  1.300000e+001
      vertex -7.250341e+000 -7.900000e+000  8.387820e+000
      vertex  1.251519e+001 -7.900000e+000  0.000000e+000
    endloop
  endfacet
  facet normal  0.000000e+000 -1.000000e+000  0.000000e+000
    outer loop
      vertex -1.251519e+001 -7.900000e+000  1.300000e+001
      vertex  1.251519e+001 -7.900000e+000  0.000000e+000
      vertex  1.251519e+001 -7.900000e+000  1.300000e+001
    endloop
  endfacet
  facet normal  0.000000e+000 -9.999999e-001  0.000000e+000
    outer loop
      vertex  1.251519e+001 -7.900000e+000  0.000000e+000
      vertex -7.250341e+000 -7.900000e+000  8.387820e+000
      vertex -6.522609e+000 -7.900000e+000  6.851908e+000
    endloop
  endfacet
  facet normal  0.000000e+000 -1.000000e+000  -0.000000e+000
    outer loop
      vertex  1.251519e+001 -7.900000e+000  0.000000e+000
      vertex -6.522609e+000 -7.900000e+000  6.851908e+000
      vertex -6.836648e+000 -7.900000e+000  5.181580e+000
    endloop
  endfacet
  facet normal  0.000000e+000 -1.000000e+000  -0.000000e+000
    outer loop
      vertex  1.251519e+001 -7.900000e+000  0.000000e+000
      vertex -6.836648e+000 -7.900000e+000  5.181580e+000
      vertex -8.072505e+000 -7.900000e+000  4.014843e+000
    endloop
  endfacet
  facet normal  0.000000e+000 -9.999999e-001  -0.000000e+000
    outer loop
      vertex  1.251519e+001 -7.900000e+000  0.000000e+000
      vertex -8.072505e+000 -7.900000e+000  4.014843e+000
      vertex -1.251519e+001 -7.900000e+000  0.000000e+000
    endloop
  endfacet
  facet normal  0.000000e+000 -1.000000e+000  0.000000e+000
    outer loop
      vertex -1.251519e+001 -7.900000e+000  0.000000e+000
      vertex -8.072505e+000 -7.900000e+000  4.014843e+000
      vertex -9.758125e+000 -7.900000e+000  3.797352e+000
    endloop
  endfacet
  facet normal  -0.000000e+000 -9.999999e-001  0.000000e+000
    outer loop
      vertex -1.251519e+001 -7.900000e+000  0.000000e+000
      vertex -9.758125e+000 -7.900000e+000  3.797352e+000
      vertex -1.124966e+001 -7.900000e+000  4.612180e+000
    endloop
  endfacet
  facet normal  -0.000000e+000 -1.000000e+000  0.000000e+000
    outer loop
      vertex -1.251519e+001 -7.900000e+000  0.000000e+000
      vertex -1.124966e+001 -7.900000e+000  4.612180e+000
      vertex -1.197739e+001 -7.900000e+000  6.148092e+000
    endloop
  endfacet
  facet normal  9.827812e-001  0.000000e+000 -1.847731e-001
    outer loop
      vertex -1.166335e+001  7.900000e+000  7.818420e+000
      vertex -1.166335e+001 -7.900000e+000  7.818420e+000
      vertex -1.197739e+001  7.900000e+000  6.148092e+000
    endloop
  endfacet
  facet normal  9.827812e-001  0.000000e+000 -1.847731e-001
    outer loop
      vertex -1.197739e+001  7.900000e+000  6.148092e+000
      vertex -1.166335e+001 -7.900000e+000  7.818420e+000
      vertex -1.197739e+001 -7.900000e+000  6.148092e+000
    endloop
  endfacet
  facet normal  9.036933e-001  -0.000000e+000  4.281803e-001
    outer loop
      vertex -1.197739e+001  7.900000e+000  6.148092e+000
      vertex -1.197739e+001 -7.900000e+000  6.148092e+000
      vertex -1.124966e+001  7.900000e+000  4.612180e+000
    endloop
  endfacet
  facet normal  9.036933e-001  0.000000e+000  4.281803e-001
    outer loop
      vertex -1.124966e+001  7.900000e+000  4.612180e+000
      vertex -1.197739e+001 -7.900000e+000  6.148092e+000
      vertex -1.124966e+001 -7.900000e+000  4.612180e+000
    endloop
  endfacet
  facet normal  4.794256e-001  -0.000000e+000  8.775825e-001
    outer loop
      vertex -1.124966e+001  7.900000e+000  4.612180e+000
      vertex -1.124966e+001 -7.900000e+000  4.612180e+000
      vertex -9.758125e+000  7.900000e+000  3.797352e+000
    endloop
  endfacet
  facet normal  4.794256e-001  0.000000e+000  8.775825e-001
    outer loop
      vertex -9.758125e+000  7.900000e+000  3.797352e+000
      vertex -1.124966e+001 -7.900000e+000  4.612180e+000
      vertex -9.758125e+000 -7.900000e+000  3.797352e+000
    endloop
  endfacet
  facet normal -1.279667e-001  0.000000e+000  9.917785e-001
    outer loop
      vertex -9.758125e+000  7.900000e+000  3.797352e+000
      vertex -9.758125e+000 -7.900000e+000  3.797352e+000
      vertex -8.072505e+000  7.900000e+000  4.014843e+000
    endloop
  endfacet
  facet normal -1.279667e-001  0.000000e+000  9.917785e-001
    outer loop
      vertex -8.072505e+000  7.900000e+000  4.014843e+000
      vertex -9.758125e+000 -7.900000e+000  3.797352e+000
      vertex -8.072505e+000 -7.900000e+000  4.014843e+000
    endloop
  endfacet
  facet normal -6.864800e-001  0.000000e+000  7.271488e-001
    outer loop
      vertex -8.072505e+000  7.900000e+000  4.014843e+000
      vertex -8.072505e+000 -7.900000e+000  4.014843e+000
      vertex -6.836648e+000  7.900000e+000  5.181580e+000
    endloop
  endfacet
  facet normal -6.864800e-001  0.000000e+000  7.271488e-001
    outer loop
      vertex -6.836648e+000  7.900000e+000  5.181580e+000
      vertex -8.072505e+000 -7.900000e+000  4.014843e+000
      vertex -6.836648e+000 -7.900000e+000  5.181580e+000
    endloop
  endfacet
  facet normal -9.827813e-001  0.000000e+000  1.847729e-001
    outer loop
      vertex -6.836648e+000  7.900000e+000  5.181580e+000
      vertex -6.836648e+000 -7.900000e+000  5.181580e+000
      vertex -6.522609e+000  7.900000e+000  6.851908e+000
    endloop
  endfacet
  facet normal -9.827813e-001  0.000000e+000  1.847729e-001
    outer loop
      vertex -6.522609e+000  7.900000e+000  6.851908e+000
      vertex -6.836648e+000 -7.900000e+000  5.181580e+000
      vertex -6.522609e+000 -7.900000e+000  6.851908e+000
    endloop
  endfacet
  facet normal -9.036936e-001  0.000000e+000 -4.281798e-001
    outer loop
      vertex -6.522609e+000  7.900000e+000  6.851908e+000
      vertex -6.522609e+000 -7.900000e+000  6.851908e+000
      vertex -7.250341e+000  7.900000e+000  8.387820e+000
    endloop
  endfacet
  facet normal -9.036936e-001  -0.000000e+000 -4.281798e-001
    outer loop
      vertex -7.250341e+000  7.900000e+000  8.387820e+000
      vertex -6.522609e+000 -7.900000e+000  6.851908e+000
      vertex -7.250341e+000 -7.900000e+000  8.387820e+000
    endloop
  endfacet
  facet normal -4.794252e-001  0.000000e+000 -8.775827e-001
    outer loop
      vertex -7.250341e+000  7.900000e+000  8.387820e+000
      vertex -7.250341e+000 -7.900000e+000  8.387820e+000
      vertex -8.741875e+000  7.900000e+000  9.202648e+000
    endloop
  endfacet
  facet normal -4.794252e-001  -0.000000e+000 -8.775827e-001
    outer loop
      vertex -8.741875e+000  7.900000e+000  9.202648e+000
      vertex -7.250341e+000 -7.900000e+000  8.387820e+000
      vertex -8.741875e+000 -7.900000e+000  9.202648e+000
    endloop
  endfacet
  facet normal  1.279666e-001  0.000000e+000 -9.917785e-001
    outer loop
      vertex -8.741875e+000  7.900000e+000  9.202648e+000
      vertex -8.741875e+000 -7.900000e+000  9.202648e+000
      vertex -1.042750e+001  7.900000e+000  8.985157e+000
    endloop
  endfacet
  facet normal  1.279666e-001  0.000000e+000 -9.917785e-001
    outer loop
      vertex -1.042750e+001  7.900000e+000  8.985157e+000
      vertex -8.741875e+000 -7.900000e+000  9.202648e+000
      vertex -1.042750e+001 -7.900000e+000  8.985157e+000
    endloop
  endfacet
  facet normal  6.864800e-001  0.000000e+000 -7.271488e-001
    outer loop
      vertex -1.042750e+001  7.900000e+000  8.985157e+000
      vertex -1.042750e+001 -7.900000e+000  8.985157e+000
      vertex -1.166335e+001  7.900000e+000  7.818420e+000
    endloop
  endfacet
  facet normal  6.864800e-001  0.000000e+000 -7.271488e-001
    outer loop
      vertex -1.166335e+001  7.900000e+000  7.818420e+000
      vertex -1.042750e+001 -7.900000e+000  8.985157e+000
      vertex -1.166335e+001 -7.900000e+000  7.818420e+000
    endloop
  endfacet
  facet normal -9.942487e-001  1.070951e-001  0.000000e+000
    outer loop
      vertex  2.193956e+000 -1.198564e+000  0.000000e+000
      vertex  2.193956e+000 -1.198564e+000  1.500000e+000
      vertex  2.398874e+000  7.038488e-001  0.000000e+000
    endloop
  endfacet
  facet normal -9.942487e-001  1.070951e-001  0.000000e+000
    outer loop
      vertex  2.398874e+000  7.038488e-001  0.000000e+000
      vertex  2.193956e+000 -1.198564e+000  1.500000e+000
      vertex  2.398874e+000  7.038488e-001  1.500000e+000
    endloop
  endfacet
  facet normal -7.787677e-001 -6.273123e-001  -0.000000e+000
    outer loop
      vertex  2.398874e+000  7.038488e-001  0.000000e+000
      vertex  2.398874e+000  7.038488e-001  1.500000e+000
      vertex  1.198564e+000  2.193956e+000  0.000000e+000
    endloop
  endfacet
  facet normal -7.787677e-001 -6.273123e-001  0.000000e+000
    outer loop
      vertex  1.198564e+000  2.193956e+000  0.000000e+000
      vertex  2.398874e+000  7.038488e-001  1.500000e+000
      vertex  1.198564e+000  2.193956e+000  1.500000e+000
    endloop
  endfacet
  facet normal -1.070951e-001 -9.942487e-001  -0.000000e+000
    outer loop
      vertex  1.198564e+000  2.193956e+000  0.000000e+000
      vertex  1.198564e+000  2.193956e+000  1.500000e+000
      vertex -7.038488e-001  2.398874e+000  0.000000e+000
    endloop
  endfacet
  facet normal -1.070951e-001 -9.942487e-001  0.000000e+000
    outer loop
      vertex -7.038488e-001  2.398874e+000  0.000000e+000
      vertex  1.198564e+000  2.193956e+000  1.500000e+000
      vertex -7.038488e-001  2.398874e+000  1.500000e+000
    endloop
  endfacet
  facet normal  6.273123e-001 -7.787677e-001  0.000000e+000
    outer loop
      vertex -7.038488e-001  2.398874e+000  0.000000e+000
      vertex -7.038488e-001  2.398874e+000  1.500000e+000
      vertex -2.193956e+000  1.198564e+000  0.000000e+000
    endloop
  endfacet
  facet normal  6.273123e-001 -7.787677e-001  0.000000e+000
    outer loop
      vertex -2.193956e+000  1.198564e+000  0.000000e+000
      vertex -7.038488e-001  2.398874e+000  1.500000e+000
      vertex -2.193956e+000  1.198564e+000  1.500000e+000
    endloop
  endfacet
  facet normal  9.942487e-001 -1.070951e-001  0.000000e+000
    outer loop
      vertex -2.193956e+000  1.198564e+000  0.000000e+000
      vertex -2.193956e+000  1.198564e+000  1.500000e+000
      vertex -2.398874e+000 -7.038488e-001  0.000000e+000
    endloop
  endfacet
  facet normal  9.942487e-001 -1.070951e-001  0.000000e+000
    outer loop
      vertex -2.398874e+000 -7.038488e-001  0.000000e+000
      vertex -2.193956e+000  1.198564e+000  1.500000e+000
      vertex -2.398874e+000 -7.038488e-001  1.500000e+000
    endloop
  endfacet
  facet normal  7.787677e-001  6.273123e-001  0.000000e+000
    outer loop
      vertex -2.398874e+000 -7.038488e-001  0.000000e+000
      vertex -2.398874e+000 -7.038488e-001  1.500000e+000
      vertex -1.198564e+000 -2.193956e+000  0.000000e+000
    endloop
  endfacet
  facet normal  7.787677e-001  6.273123e-001  -0.000000e+000
    outer loop
      vertex -1.198564e+000 -2.193956e+000  0.000000e+000
      vertex -2.398874e+000 -7.038488e-001  1.500000e+000
      vertex -1.198564e+000 -2.193956e+000  1.500000e+000
    endloop
  endfacet
  facet normal  1.070951e-001  9.942487e-001  0.000000e+000
    outer loop
      vertex -1.198564e+000 -2.193956e+000  0.000000e+000
      vertex -1.198564e+000 -2.193956e+000  1.500000e+000
      vertex  7.038488e-001 -2.398874e+000  0.000000e+000
    endloop
  endfacet
  facet normal  1.070951e-001  9.942487e-001  -0.000000e+000
    outer loop
      vertex  7.038488e-001 -2.398874e+000  0.000000e+000
      vertex -1.198564e+000 -2.193956e+000  1.500000e+000
      vertex  7.038488e-001 -2.398874e+000  1.500000e+000
    endloop
  endfacet
  facet normal -6.273123e-001  7.787677e-001  0.000000e+000
    outer loop
      vertex  7.038488e-001 -2.398874e+000  0.000000e+000
      vertex  7.038488e-001 -2.398874e+000  1.500000e+000
      vertex  2.193956e+000 -1.198564e+000  0.000000e+000
    endloop
  endfacet
  facet normal -6.273123e-001  7.787677e-001  0.000000e+000
    outer loop
      vertex  2.193956e+000 -1.198564e+000  0.000000e+000
      vertex  7.038488e-001 -2.398874e+000  1.500000e+000
      vertex  2.193956e+000 -1.198564e+000  1.500000e+000
    endloop
  endfacet
  facet normal  0.000000e+000  0.000000e+000  1.000000e+000
    outer loop
      vertex  3.510330e+000 -1.917702e+000  1.500000e+000
      vertex  3.967114e+000  5.118667e-001  1.500000e+000
      vertex  2.398874e+000  7.038488e-001  1.500000e+000
    endloop
  endfacet
  facet normal  0.000000e+000  0.000000e+000  1.000000e+000
    outer loop
      vertex  3.510330e+000 -1.917702e+000  1.500000e+000
      vertex  2.398874e+000  7.038488e-001  1.500000e+000
      vertex  2.193956e+000 -1.198564e+000  1.500000e+000
    endloop
  endfacet
  facet normal  0.000000e+000  0.000000e+000  1.000000e+000
    outer loop
      vertex  3.510330e+000 -1.917702e+000  1.500000e+000
      vertex  2.193956e+000 -1.198564e+000  1.500000e+000
      vertex  7.038488e-001 -2.398874e+000  1.500000e+000
    endloop
  endfacet
  facet normal  -0.000000e+000  0.000000e+000  1.000000e+000
    outer loop
      vertex  3.510330e+000 -1.917702e+000  1.500000e+000
      vertex  7.038488e-001 -2.398874e+000  1.500000e+000
      vertex  1.712720e+000 -3.614774e+000  1.500000e+000
    endloop
  endfacet
  facet normal  -0.000000e+000  0.000000e+000  1.000000e+000
    outer loop
      vertex -3.510330e+000  1.917702e+000  1.500000e+000
      vertex -3.967114e+000 -5.118667e-001  1.500000e+000
      vertex -2.398874e+000 -7.038488e-001  1.500000e+000
    endloop
  endfacet
  facet normal  0.000000e+000  -0.000000e+000  1.000000e+000
    outer loop
      vertex -3.510330e+000  1.917702e+000  1.500000e+000
      vertex -2.398874e+000 -7.038488e-001  1.500000e+000
      vertex -2.193956e+000  1.198564e+000  1.500000e+000
    endloop
  endfacet
  facet normal  0.000000e+000  -0.000000e+000  1.000000e+000
    outer loop
      vertex -3.510330e+000  1.917702e+000  1.500000e+000
      vertex -2.193956e+000  1.198564e+000  1.500000e+000
      vertex -7.038488e-001  2.398874e+000  1.500000e+000
    endloop
  endfacet
  facet normal  0.000000e+000  0.000000e+000  1.000000e+000
    outer loop
      vertex -3.510330e+000  1.917702e+000  1.500000e+000
      vertex -7.038488e-001  2.398874e+000  1.500000e+000
      vertex -1.712720e+000  3.614774e+000  1.500000e+000
    endloop
  endfacet
  facet normal  0.000000e+000  0.000000e+000  1.000000e+000
    outer loop
      vertex  2.398874e+000  7.038488e-001  1.500000e+000
      vertex  3.967114e+000  5.118667e-001  1.500000e+000
      vertex  1.198564e+000  2.193956e+000  1.500000e+000
    endloop
  endfacet
  facet normal  -0.000000e+000  0.000000e+000  1.000000e+000
    outer loop
      vertex  1.198564e+000  2.193956e+000  1.500000e+000
      vertex  3.967114e+000  5.118667e-001  1.500000e+000
      vertex  2.908595e+000  2.745920e+000  1.500000e+000
    endloop
  endfacet
  facet normal  0.000000e+000  0.000000e+000  9.999999e-001
    outer loop
      vertex  1.198564e+000  2.193956e+000  1.500000e+000
      vertex  2.908595e+000  2.745920e+000  1.500000e+000
      vertex -7.038488e-001  2.398874e+000  1.500000e+000
    endloop
  endfacet
  facet normal  0.000000e+000  0.000000e+000  1.000000e+000
    outer loop
      vertex -7.038488e-001  2.398874e+000  1.500000e+000
      vertex  2.908595e+000  2.745920e+000  1.500000e+000
      vertex  7.390915e-001  3.931125e+000  1.500000e+000
    endloop
  endfacet
  facet normal  0.000000e+000  0.000000e+000  1.000000e+000
    outer loop
      vertex -7.038488e-001  2.398874e+000  1.500000e+000
      vertex  7.390915e-001  3.931125e+000  1.500000e+000
      vertex -1.712720e+000  3.614774e+000  1.500000e+000
    endloop
  endfacet
  facet normal  0.000000e+000  0.000000e+000  1.000000e+000
    outer loop
      vertex  1.712720e+000 -3.614774e+000  1.500000e+000
      vertex  7.038488e-001 -2.398874e+000  1.500000e+000
      vertex -7.390915e-001 -3.931125e+000  1.500000e+000
    endloop
  endfacet
  facet normal  0.000000e+000  -0.000000e+000  1.000000e+000
    outer loop
      vertex -7.390915e-001 -3.931125e+000  1.500000e+000
      vertex  7.038488e-001 -2.398874e+000  1.500000e+000
      vertex -1.198564e+000 -2.193956e+000  1.500000e+000
    endloop
  endfacet
  facet normal  0.000000e+000  0.000000e+000  1.000000e+000
    outer loop
      vertex -7.390915e-001 -3.931125e+000  1.500000e+000
      vertex -1.198564e+000 -2.193956e+000  1.500000e+000
      vertex -2.908595e+000 -2.745920e+000  1.500000e+000
    endloop
  endfacet
  facet normal  0.000000e+000  0.000000e+000  1.000000e+000
    outer loop
      vertex -1.198564e+000 -2.193956e+000  1.500000e+000
      vertex -2.398874e+000 -7.038488e-001  1.500000e+000
      vertex -2.908595e+000 -2.745920e+000  1.500000e+000
    endloop
  endfacet
  facet normal  0.000000e+000  -0.000000e+000  1.000000e+000
    outer loop
      vertex -2.908595e+000 -2.745920e+000  1.500000e+000
      vertex -2.398874e+000 -7.038488e-001  1.500000e+000
      vertex -3.967114e+000 -5.118667e-001  1.500000e+000
    endloop
  endfacet
  facet normal  -0.000000e+000  -0.000000e+000 -1.000000e+000
    outer loop
      vertex -1.251519e+001  7.900000e+000  0.000000e+000
      vertex  1.251519e+001  7.900000e+000  0.000000e+000
      vertex  1.421733e+001  4.111884e+000  0.000000e+000
    endloop
  endfacet
  facet normal  -0.000000e+000  0.000000e+000 -1.000000e+000
    outer loop
      vertex -1.251519e+001  7.900000e+000  0.000000e+000
      vertex  1.421733e+001  4.111884e+000  0.000000e+000
      vertex  1.198564e+000  2.193956e+000  0.000000e+000
    endloop
  endfacet
  facet normal  0.000000e+000  0.000000e+000 -1.000000e+000
    outer loop
      vertex -1.251519e+001  7.900000e+000  0.000000e+000
      vertex  1.198564e+000  2.193956e+000  0.000000e+000
      vertex -7.038488e-001  2.398874e+000  0.000000e+000
    endloop
  endfacet
  facet normal  0.000000e+000  0.000000e+000 -1.000000e+000
    outer loop
      vertex -1.251519e+001  7.900000e+000  0.000000e+000
      vertex -7.038488e-001  2.398874e+000  0.000000e+000
      vertex -1.421733e+001  4.111884e+000  0.000000e+000
    endloop
  endfacet
  facet normal  0.000000e+000  0.000000e+000 -1.000000e+000
    outer loop
      vertex  1.421733e+001 -4.111884e+000  0.000000e+000
      vertex  1.251519e+001 -7.900000e+000  0.000000e+000
      vertex  7.038488e-001 -2.398874e+000  0.000000e+000
    endloop
  endfacet
  facet normal  0.000000e+000  -0.000000e+000 -1.000000e+000
    outer loop
      vertex  7.038488e-001 -2.398874e+000  0.000000e+000
      vertex  1.251519e+001 -7.900000e+000  0.000000e+000
      vertex -1.251519e+001 -7.900000e+000  0.000000e+000
    endloop
  endfacet
  facet normal  0.000000e+000  0.000000e+000 -1.000000e+000
    outer loop
      vertex  7.038488e-001 -2.398874e+000  0.000000e+000
      vertex -1.251519e+001 -7.900000e+000  0.000000e+000
      vertex -1.198564e+000 -2.193956e+000  0.000000e+000
    endloop
  endfacet
  facet normal  0.000000e+000  0.000000e+000 -1.000000e+000
    outer loop
      vertex -1.198564e+000 -2.193956e+000  0.000000e+000
      vertex -1.251519e+001 -7.900000e+000  0.000000e+000
      vertex -1.421733e+001 -4.111884e+000  0.000000e+000
    endloop
  endfacet
  facet normal  0.000000e+000  0.000000e+000 -1.000000e+000
    outer loop
      vertex -1.198564e+000 -2.193956e+000  0.000000e+000
      vertex -1.421733e+001 -4.111884e+000  0.000000e+000
      vertex -2.398874e+000 -7.038488e-001  0.000000e+000
    endloop
  endfacet
  facet normal  -0.000000e+000  0.000000e+000 -1.000000e+000
    outer loop
      vertex -2.398874e+000 -7.038488e-001  0.000000e+000
      vertex -1.421733e+001 -4.111884e+000  0.000000e+000
      vertex -1.480000e+001 -4.760103e-015  0.000000e+000
    endloop
  endfacet
  facet normal  0.000000e+000  0.000000e+000 -1.000000e+000
    outer loop
      vertex -2.398874e+000 -7.038488e-001  0.000000e+000
      vertex -1.480000e+001 -4.760103e-015  0.000000e+000
      vertex -2.193956e+000  1.198564e+000  0.000000e+000
    endloop
  endfacet
  facet normal  0.000000e+000  0.000000e+000 -1.000000e+000
    outer loop
      vertex -2.193956e+000  1.198564e+000  0.000000e+000
      vertex -1.480000e+001 -4.760103e-015  0.000000e+000
      vertex -7.038488e-001  2.398874e+000  0.000000e+000
    endloop
  endfacet
  facet normal  -0.000000e+000  0.000000e+000 -1.000000e+000
    outer loop
      vertex -7.038488e-001  2.398874e+000  0.000000e+000
      vertex -1.480000e+001 -4.760103e-015  0.000000e+000
      vertex -1.421733e+001  4.111884e+000  0.000000e+000
    endloop
  endfacet
  facet normal  0.000000e+000  0.000000e+000 -1.000000e+000
    outer loop
      vertex  1.198564e+000  2.193956e+000  0.000000e+000
      vertex  1.421733e+001  4.111884e+000  0.000000e+000
      vertex  2.398874e+000  7.038488e-001  0.000000e+000
    endloop
  endfacet
  facet normal  0.000000e+000  0.000000e+000 -1.000000e+000
    outer loop
      vertex  2.398874e+000  7.038488e-001  0.000000e+000
      vertex  1.421733e+001  4.111884e+000  0.000000e+000
      vertex  1.480000e+001  9.520206e-015  0.000000e+000
    endloop
  endfacet
  facet normal  -0.000000e+000  0.000000e+000 -1.000000e+000
    outer loop
      vertex  2.398874e+000  7.038488e-001  0.000000e+000
      vertex  1.480000e+001  9.520206e-015  0.000000e+000
      vertex  2.193956e+000 -1.198564e+000  0.000000e+000
    endloop
  endfacet
  facet normal  0.000000e+000  0.000000e+000 -9.999999e-001
    outer loop
      vertex  2.193956e+000 -1.198564e+000  0.000000e+000
      vertex  1.480000e+001  9.520206e-015  0.000000e+000
      vertex  1.421733e+001 -4.111884e+000  0.000000e+000
    endloop
  endfacet
  facet normal  0.000000e+000  0.000000e+000 -1.000000e+000
    outer loop
      vertex  2.193956e+000 -1.198564e+000  0.000000e+000
      vertex  1.421733e+001 -4.111884e+000  0.000000e+000
      vertex  7.038488e-001 -2.398874e+000  0.000000e+000
    endloop
  endfacet
  facet normal  9.121481e-001  4.098609e-001  0.000000e+000
    outer loop
      vertex  1.251519e+001  7.900000e+000  0.000000e+000
      vertex  1.251519e+001  7.900000e+000  1.300000e+001
      vertex  1.421733e+001  4.111884e+000  0.000000e+000
    endloop
  endfacet
  facet normal  9.121481e-001  4.098609e-001  -0.000000e+000
    outer loop
      vertex  1.421733e+001  4.111884e+000  0.000000e+000
      vertex  1.251519e+001  7.900000e+000  1.300000e+001
      vertex  1.421733e+001  4.111884e+000  1.300000e+001
    endloop
  endfacet
  facet normal  9.901087e-001  1.403028e-001  0.000000e+000
    outer loop
      vertex  1.421733e+001  4.111884e+000  0.000000e+000
      vertex  1.421733e+001  4.111884e+000  1.300000e+001
      vertex  1.480000e+001  9.520206e-015  0.000000e+000
    endloop
  endfacet
  facet normal  9.901087e-001  1.403028e-001  -0.000000e+000
    outer loop
      vertex  1.480000e+001  9.520206e-015  0.000000e+000
      vertex  1.421733e+001  4.111884e+000  1.300000e+001
      vertex  1.480000e+001  9.520206e-015  1.300000e+001
    endloop
  endfacet
  facet normal  9.901087e-001 -1.403028e-001  0.000000e+000
    outer loop
      vertex  1.480000e+001  9.520206e-015  0.000000e+000
      vertex  1.480000e+001  9.520206e-015  1.300000e+001
      vertex  1.421733e+001 -4.111884e+000  0.000000e+000
    endloop
  endfacet
  facet normal  9.901087e-001 -1.403028e-001  0.000000e+000
    outer loop
      vertex  1.421733e+001 -4.111884e+000  0.000000e+000
      vertex  1.480000e+001  9.520206e-015  1.300000e+001
      vertex  1.421733e+001 -4.111884e+000  1.300000e+001
    endloop
  endfacet
  facet normal  9.121481e-001 -4.098609e-001  0.000000e+000
    outer loop
      vertex  1.421733e+001 -4.111884e+000  0.000000e+000
      vertex  1.421733e+001 -4.111884e+000  1.300000e+001
      vertex  1.251519e+001 -7.900000e+000  0.000000e+000
    endloop
  endfacet
  facet normal  9.121481e-001 -4.098609e-001  0.000000e+000
    outer loop
      vertex  1.251519e+001 -7.900000e+000  0.000000e+000
      vertex  1.421733e+001 -4.111884e+000  1.300000e+001
      vertex  1.251519e+001 -7.900000e+000  1.300000e+001
    endloop
  endfacet
  facet normal -9.121481e-001 -4.098609e-001  -0.000000e+000
    outer loop
      vertex -1.251519e+001 -7.900000e+000  0.000000e+000
      vertex -1.251519e+001 -7.900000e+000  1.300000e+001
      vertex -1.421733e+001 -4.111884e+000  0.000000e+000
    endloop
  endfacet
  facet normal -9.121481e-001 -4.098609e-001  0.000000e+000
    outer loop
      vertex -1.421733e+001 -4.111884e+000  0.000000e+000
      vertex -1.251519e+001 -7.900000e+000  1.300000e+001
      vertex -1.421733e+001 -4.111884e+000  1.300000e+001
    endloop
  endfacet
  facet normal -9.901087e-001 -1.403028e-001  -0.000000e+000
    outer loop
      vertex -1.421733e+001 -4.111884e+000  0.000000e+000
      vertex -1.421733e+001 -4.111884e+000  1.300000e+001
      vertex -1.480000e+001 -4.760103e-015  0.000000e+000
    endloop
  endfacet
  facet normal -9.901087e-001 -1.403028e-001  0.000000e+000
    outer loop
      vertex -1.480000e+001 -4.760103e-015  0.000000e+000
      vertex -1.421733e+001 -4.111884e+000  1.300000e+001
      vertex -1.480000e+001 -4.760103e-015  1.300000e+001
    endloop
  endfacet
  facet normal -9.901087e-001  1.403028e-001  0.000000e+000
    outer loop
      vertex -1.480000e+001 -4.760103e-015  0.000000e+000
      vertex -1.480000e+001 -4.760103e-015  1.300000e+001
      vertex -1.421733e+001  4.111884e+000  0.000000e+000
    endloop
  endfacet
  facet normal -9.901087e-001  1.403028e-001  0.000000e+000
    outer loop
      vertex -1.421733e+001  4.111884e+000  0.000000e+000
      vertex -1.480000e+001 -4.760103e-015  1.300000e+001
      vertex -1.421733e+001  4.111884e+000  1.300000e+001
    endloop
  endfacet
  facet normal -9.121481e-001  4.098609e-001  0.000000e+000
    outer loop
      vertex -1.421733e+001  4.111884e+000  0.000000e+000
      vertex -1.421733e+001  4.111884e+000  1.300000e+001
      vertex -1.251519e+001  7.900000e+000  0.000000e+000
    endloop
  endfacet
  facet normal -9.121481e-001  4.098609e-001  0.000000e+000
    outer loop
      vertex -1.251519e+001  7.900000e+000  0.000000e+000
      vertex -1.421733e+001  4.111884e+000  1.300000e+001
      vertex -1.251519e+001  7.900000e+000  1.300000e+001
    endloop
  endfacet
endsolid CATIA STL
