solid CATIA STL
  facet normal  0.000000e+000  0.000000e+000  1.000000e+000
    outer loop
      vertex -8.775826e-001  4.794255e-001  5.000000e-001
      vertex -9.595496e-001 -2.815395e-001  5.000000e-001
      vertex -7.191383e-002 -1.316374e-001  5.000000e-001
    endloop
  endfacet
  facet normal  0.000000e+000  0.000000e+000  1.000000e+000
    outer loop
      vertex -8.775826e-001  4.794255e-001  5.000000e-001
      vertex -7.191383e-002 -1.316374e-001  5.000000e-001
      vertex -1.439324e-001 -4.223093e-002  5.000000e-001
    endloop
  endfacet
  facet normal  0.000000e+000  -0.000000e+000  1.000000e+000
    outer loop
      vertex -8.775826e-001  4.794255e-001  5.000000e-001
      vertex -1.439324e-001 -4.223093e-002  5.000000e-001
      vertex -1.316374e-001  7.191383e-002  5.000000e-001
    endloop
  endfacet
  facet normal  0.000000e+000  -0.000000e+000  1.000000e+000
    outer loop
      vertex -8.775826e-001  4.794255e-001  5.000000e-001
      vertex -1.316374e-001  7.191383e-002  5.000000e-001
      vertex -4.223093e-002  1.439324e-001  5.000000e-001
    endloop
  endfacet
  facet normal  -0.000000e+000  0.000000e+000  1.000000e+000
    outer loop
      vertex  9.595496e-001  2.815395e-001  5.000000e-001
      vertex  7.191383e-002  1.316374e-001  5.000000e-001
      vertex  1.439324e-001  4.223093e-002  5.000000e-001
    endloop
  endfacet
  facet normal  -0.000000e+000  0.000000e+000  1.000000e+000
    outer loop
      vertex  9.595496e-001  2.815395e-001  5.000000e-001
      vertex  1.439324e-001  4.223093e-002  5.000000e-001
      vertex  1.316374e-001 -7.191383e-002  5.000000e-001
    endloop
  endfacet
  facet normal  -0.000000e+000  0.000000e+000  1.000000e+000
    outer loop
      vertex  9.595496e-001  2.815395e-001  5.000000e-001
      vertex  1.316374e-001 -7.191383e-002  5.000000e-001
      vertex  4.223093e-002 -1.439324e-001  5.000000e-001
    endloop
  endfacet
  facet normal  -0.000000e+000  0.000000e+000  1.000000e+000
    outer loop
      vertex  9.595496e-001  2.815395e-001  5.000000e-001
      vertex  4.223093e-002 -1.439324e-001  5.000000e-001
      vertex  8.775826e-001 -4.794255e-001  5.000000e-001
    endloop
  endfacet
  facet normal  0.000000e+000  0.000000e+000  1.000000e+000
    outer loop
      vertex  9.595496e-001  2.815395e-001  5.000000e-001
      vertex  4.794255e-001  8.775826e-001  5.000000e-001
      vertex  7.191383e-002  1.316374e-001  5.000000e-001
    endloop
  endfacet
  facet normal  0.000000e+000  -0.000000e+000  1.000000e+000
    outer loop
      vertex  7.191383e-002  1.316374e-001  5.000000e-001
      vertex  4.794255e-001  8.775826e-001  5.000000e-001
      vertex -2.815395e-001  9.595496e-001  5.000000e-001
    endloop
  endfacet
  facet normal  0.000000e+000  0.000000e+000  1.000000e+000
    outer loop
      vertex  7.191383e-002  1.316374e-001  5.000000e-001
      vertex -2.815395e-001  9.595496e-001  5.000000e-001
      vertex -4.223093e-002  1.439324e-001  5.000000e-001
    endloop
  endfacet
  facet normal  0.000000e+000  0.000000e+000  1.000000e+000
    outer loop
      vertex -4.223093e-002  1.439324e-001  5.000000e-001
      vertex -2.815395e-001  9.595496e-001  5.000000e-001
      vertex -8.775826e-001  4.794255e-001  5.000000e-001
    endloop
  endfacet
  facet normal  0.000000e+000  0.000000e+000  1.000000e+000
    outer loop
      vertex  2.815395e-001 -9.595496e-001  5.000000e-001
      vertex  8.775826e-001 -4.794255e-001  5.000000e-001
      vertex -4.794255e-001 -8.775826e-001  5.000000e-001
    endloop
  endfacet
  facet normal  0.000000e+000  0.000000e+000  1.000000e+000
    outer loop
      vertex -4.794255e-001 -8.775826e-001  5.000000e-001
      vertex  8.775826e-001 -4.794255e-001  5.000000e-001
      vertex  4.223093e-002 -1.439324e-001  5.000000e-001
    endloop
  endfacet
  facet normal  0.000000e+000  0.000000e+000  9.999999e-001
    outer loop
      vertex -4.794255e-001 -8.775826e-001  5.000000e-001
      vertex  4.223093e-002 -1.439324e-001  5.000000e-001
      vertex -9.595496e-001 -2.815395e-001  5.000000e-001
    endloop
  endfacet
  facet normal  0.000000e+000  0.000000e+000  1.000000e+000
    outer loop
      vertex -9.595496e-001 -2.815395e-001  5.000000e-001
      vertex  4.223093e-002 -1.439324e-001  5.000000e-001
      vertex -7.191383e-002 -1.316374e-001  5.000000e-001
    endloop
  endfacet
  facet normal  -0.000000e+000  0.000000e+000 -1.000000e+000
    outer loop
      vertex -1.755165e+000  9.588511e-001  0.000000e+000
      vertex -4.223093e-002  1.439324e-001  0.000000e+000
      vertex -1.316374e-001  7.191383e-002  0.000000e+000
    endloop
  endfacet
  facet normal  -0.000000e+000  0.000000e+000 -1.000000e+000
    outer loop
      vertex -1.755165e+000  9.588511e-001  0.000000e+000
      vertex -1.316374e-001  7.191383e-002  0.000000e+000
      vertex -1.439324e-001 -4.223093e-002  0.000000e+000
    endloop
  endfacet
  facet normal  -0.000000e+000  -0.000000e+000 -1.000000e+000
    outer loop
      vertex -1.755165e+000  9.588511e-001  0.000000e+000
      vertex -1.439324e-001 -4.223093e-002  0.000000e+000
      vertex -7.191383e-002 -1.316374e-001  0.000000e+000
    endloop
  endfacet
  facet normal  -0.000000e+000  0.000000e+000 -1.000000e+000
    outer loop
      vertex -1.755165e+000  9.588511e-001  0.000000e+000
      vertex -7.191383e-002 -1.316374e-001  0.000000e+000
      vertex -1.919099e+000 -5.630791e-001  0.000000e+000
    endloop
  endfacet
  facet normal  0.000000e+000  0.000000e+000 -1.000000e+000
    outer loop
      vertex  1.919099e+000  5.630791e-001  0.000000e+000
      vertex  1.755165e+000 -9.588511e-001  0.000000e+000
      vertex  4.223093e-002 -1.439324e-001  0.000000e+000
    endloop
  endfacet
  facet normal  0.000000e+000  0.000000e+000 -1.000000e+000
    outer loop
      vertex  1.919099e+000  5.630791e-001  0.000000e+000
      vertex  4.223093e-002 -1.439324e-001  0.000000e+000
      vertex  1.316374e-001 -7.191383e-002  0.000000e+000
    endloop
  endfacet
  facet normal  0.000000e+000  0.000000e+000 -1.000000e+000
    outer loop
      vertex  1.919099e+000  5.630791e-001  0.000000e+000
      vertex  1.316374e-001 -7.191383e-002  0.000000e+000
      vertex  1.439324e-001  4.223093e-002  0.000000e+000
    endloop
  endfacet
  facet normal  0.000000e+000  0.000000e+000 -1.000000e+000
    outer loop
      vertex  1.919099e+000  5.630791e-001  0.000000e+000
      vertex  1.439324e-001  4.223093e-002  0.000000e+000
      vertex  7.191383e-002  1.316374e-001  0.000000e+000
    endloop
  endfacet
  facet normal  0.000000e+000  0.000000e+000 -1.000000e+000
    outer loop
      vertex  9.588511e-001  1.755165e+000  0.000000e+000
      vertex  1.919099e+000  5.630791e-001  0.000000e+000
      vertex -5.630791e-001  1.919099e+000  0.000000e+000
    endloop
  endfacet
  facet normal  0.000000e+000  0.000000e+000 -1.000000e+000
    outer loop
      vertex -5.630791e-001  1.919099e+000  0.000000e+000
      vertex  1.919099e+000  5.630791e-001  0.000000e+000
      vertex  7.191383e-002  1.316374e-001  0.000000e+000
    endloop
  endfacet
  facet normal  0.000000e+000  0.000000e+000 -1.000000e+000
    outer loop
      vertex -5.630791e-001  1.919099e+000  0.000000e+000
      vertex  7.191383e-002  1.316374e-001  0.000000e+000
      vertex -1.755165e+000  9.588511e-001  0.000000e+000
    endloop
  endfacet
  facet normal  0.000000e+000  0.000000e+000 -1.000000e+000
    outer loop
      vertex -1.755165e+000  9.588511e-001  0.000000e+000
      vertex  7.191383e-002  1.316374e-001  0.000000e+000
      vertex -4.223093e-002  1.439324e-001  0.000000e+000
    endloop
  endfacet
  facet normal  0.000000e+000  0.000000e+000 -1.000000e+000
    outer loop
      vertex  1.755165e+000 -9.588511e-001  0.000000e+000
      vertex  5.630791e-001 -1.919099e+000  0.000000e+000
      vertex  4.223093e-002 -1.439324e-001  0.000000e+000
    endloop
  endfacet
  facet normal  0.000000e+000  -0.000000e+000 -1.000000e+000
    outer loop
      vertex  4.223093e-002 -1.439324e-001  0.000000e+000
      vertex  5.630791e-001 -1.919099e+000  0.000000e+000
      vertex -9.588511e-001 -1.755165e+000  0.000000e+000
    endloop
  endfacet
  facet normal  0.000000e+000  0.000000e+000 -1.000000e+000
    outer loop
      vertex  4.223093e-002 -1.439324e-001  0.000000e+000
      vertex -9.588511e-001 -1.755165e+000  0.000000e+000
      vertex -7.191383e-002 -1.316374e-001  0.000000e+000
    endloop
  endfacet
  facet normal  0.000000e+000  0.000000e+000 -1.000000e+000
    outer loop
      vertex -7.191383e-002 -1.316374e-001  0.000000e+000
      vertex -9.588511e-001 -1.755165e+000  0.000000e+000
      vertex -1.919099e+000 -5.630791e-001  0.000000e+000
    endloop
  endfacet
  facet normal  0.000000e+000  0.000000e+000 -9.999999e-001
    outer loop
      vertex  1.150621e+000  2.106198e+000  4.700000e+000
      vertex -6.756949e-001  2.302919e+000  4.700000e+000
      vertex -4.158917e-001  3.223280e+000  4.700000e+000
    endloop
  endfacet
  facet normal  0.000000e+000  0.000000e+000 -1.000000e+000
    outer loop
      vertex  1.150621e+000  2.106198e+000  4.700000e+000
      vertex -4.158917e-001  3.223280e+000  4.700000e+000
      vertex  1.558133e+000  2.852143e+000  4.700000e+000
    endloop
  endfacet
  facet normal  0.000000e+000  -0.000000e+000 -1.000000e+000
    outer loop
      vertex  1.150621e+000  2.106198e+000  4.700000e+000
      vertex  1.558133e+000  2.852143e+000  4.700000e+000
      vertex  2.937004e+000  1.391585e+000  4.700000e+000
    endloop
  endfacet
  facet normal  -0.000000e+000  0.000000e+000 -1.000000e+000
    outer loop
      vertex  1.150621e+000  2.106198e+000  4.700000e+000
      vertex  2.937004e+000  1.391585e+000  4.700000e+000
      vertex  2.302919e+000  6.756949e-001  4.700000e+000
    endloop
  endfacet
  facet normal  -0.000000e+000  0.000000e+000 -9.999999e-001
    outer loop
      vertex -1.150621e+000 -2.106198e+000  4.700000e+000
      vertex  6.756949e-001 -2.302919e+000  4.700000e+000
      vertex  4.158917e-001 -3.223280e+000  4.700000e+000
    endloop
  endfacet
  facet normal  0.000000e+000  0.000000e+000 -1.000000e+000
    outer loop
      vertex -1.150621e+000 -2.106198e+000  4.700000e+000
      vertex  4.158917e-001 -3.223280e+000  4.700000e+000
      vertex -1.558133e+000 -2.852143e+000  4.700000e+000
    endloop
  endfacet
  facet normal  0.000000e+000  0.000000e+000 -1.000000e+000
    outer loop
      vertex -1.150621e+000 -2.106198e+000  4.700000e+000
      vertex -1.558133e+000 -2.852143e+000  4.700000e+000
      vertex -2.937004e+000 -1.391585e+000  4.700000e+000
    endloop
  endfacet
  facet normal  0.000000e+000  0.000000e+000 -1.000000e+000
    outer loop
      vertex -1.150621e+000 -2.106198e+000  4.700000e+000
      vertex -2.937004e+000 -1.391585e+000  4.700000e+000
      vertex -2.302919e+000 -6.756949e-001  4.700000e+000
    endloop
  endfacet
  facet normal  0.000000e+000  0.000000e+000 -1.000000e+000
    outer loop
      vertex -2.302919e+000 -6.756949e-001  4.700000e+000
      vertex -2.937004e+000 -1.391585e+000  4.700000e+000
      vertex -2.106198e+000  1.150621e+000  4.700000e+000
    endloop
  endfacet
  facet normal  0.000000e+000  0.000000e+000 -1.000000e+000
    outer loop
      vertex -2.106198e+000  1.150621e+000  4.700000e+000
      vertex -2.937004e+000 -1.391585e+000  4.700000e+000
      vertex -3.194039e+000  6.005118e-001  4.700000e+000
    endloop
  endfacet
  facet normal  0.000000e+000  0.000000e+000 -1.000000e+000
    outer loop
      vertex -2.106198e+000  1.150621e+000  4.700000e+000
      vertex -3.194039e+000  6.005118e-001  4.700000e+000
      vertex -6.756949e-001  2.302919e+000  4.700000e+000
    endloop
  endfacet
  facet normal  -0.000000e+000  0.000000e+000 -1.000000e+000
    outer loop
      vertex -6.756949e-001  2.302919e+000  4.700000e+000
      vertex -3.194039e+000  6.005118e-001  4.700000e+000
      vertex -2.231060e+000  2.363233e+000  4.700000e+000
    endloop
  endfacet
  facet normal  0.000000e+000  0.000000e+000 -1.000000e+000
    outer loop
      vertex -6.756949e-001  2.302919e+000  4.700000e+000
      vertex -2.231060e+000  2.363233e+000  4.700000e+000
      vertex -4.158917e-001  3.223280e+000  4.700000e+000
    endloop
  endfacet
  facet normal  0.000000e+000  0.000000e+000 -1.000000e+000
    outer loop
      vertex  2.302919e+000  6.756949e-001  4.700000e+000
      vertex  2.937004e+000  1.391585e+000  4.700000e+000
      vertex  2.106198e+000 -1.150621e+000  4.700000e+000
    endloop
  endfacet
  facet normal  0.000000e+000  0.000000e+000 -1.000000e+000
    outer loop
      vertex  2.106198e+000 -1.150621e+000  4.700000e+000
      vertex  2.937004e+000  1.391585e+000  4.700000e+000
      vertex  3.194039e+000 -6.005118e-001  4.700000e+000
    endloop
  endfacet
  facet normal  0.000000e+000  0.000000e+000 -1.000000e+000
    outer loop
      vertex  2.106198e+000 -1.150621e+000  4.700000e+000
      vertex  3.194039e+000 -6.005118e-001  4.700000e+000
      vertex  6.756949e-001 -2.302919e+000  4.700000e+000
    endloop
  endfacet
  facet normal  0.000000e+000  0.000000e+000 -1.000000e+000
    outer loop
      vertex  6.756949e-001 -2.302919e+000  4.700000e+000
      vertex  3.194039e+000 -6.005118e-001  4.700000e+000
      vertex  2.231060e+000 -2.363233e+000  4.700000e+000
    endloop
  endfacet
  facet normal  -0.000000e+000  0.000000e+000 -1.000000e+000
    outer loop
      vertex  6.756949e-001 -2.302919e+000  4.700000e+000
      vertex  2.231060e+000 -2.363233e+000  4.700000e+000
      vertex  4.158917e-001 -3.223280e+000  4.700000e+000
    endloop
  endfacet
  facet normal  0.000000e+000  0.000000e+000  1.000000e+000
    outer loop
      vertex  2.937004e+000  1.391585e+000  5.300000e+000
      vertex  1.558133e+000  2.852143e+000  5.300000e+000
      vertex  5.513394e-001  1.009220e+000  5.300000e+000
    endloop
  endfacet
  facet normal  0.000000e+000  -0.000000e+000  1.000000e+000
    outer loop
      vertex  5.513394e-001  1.009220e+000  5.300000e+000
      vertex  1.558133e+000  2.852143e+000  5.300000e+000
      vertex -4.158917e-001  3.223280e+000  5.300000e+000
    endloop
  endfacet
  facet normal  0.000000e+000  0.000000e+000  1.000000e+000
    outer loop
      vertex  5.513394e-001  1.009220e+000  5.300000e+000
      vertex -4.158917e-001  3.223280e+000  5.300000e+000
      vertex -3.237705e-001  1.103482e+000  5.300000e+000
    endloop
  endfacet
  facet normal  0.000000e+000  0.000000e+000  9.999999e-001
    outer loop
      vertex -3.237705e-001  1.103482e+000  5.300000e+000
      vertex -4.158917e-001  3.223280e+000  5.300000e+000
      vertex -2.231060e+000  2.363233e+000  5.300000e+000
    endloop
  endfacet
  facet normal  0.000000e+000  0.000000e+000  1.000000e+000
    outer loop
      vertex -3.237705e-001  1.103482e+000  5.300000e+000
      vertex -2.231060e+000  2.363233e+000  5.300000e+000
      vertex -1.009220e+000  5.513394e-001  5.300000e+000
    endloop
  endfacet
  facet normal  0.000000e+000  0.000000e+000  1.000000e+000
    outer loop
      vertex -1.009220e+000  5.513394e-001  5.300000e+000
      vertex -2.231060e+000  2.363233e+000  5.300000e+000
      vertex -3.194039e+000  6.005118e-001  5.300000e+000
    endloop
  endfacet
  facet normal  0.000000e+000  0.000000e+000  1.000000e+000
    outer loop
      vertex -1.009220e+000  5.513394e-001  5.300000e+000
      vertex -3.194039e+000  6.005118e-001  5.300000e+000
      vertex -1.103482e+000 -3.237705e-001  5.300000e+000
    endloop
  endfacet
  facet normal  0.000000e+000  0.000000e+000  1.000000e+000
    outer loop
      vertex  4.158917e-001 -3.223280e+000  5.300000e+000
      vertex  2.231060e+000 -2.363233e+000  5.300000e+000
      vertex -1.558133e+000 -2.852143e+000  5.300000e+000
    endloop
  endfacet
  facet normal  0.000000e+000  0.000000e+000  1.000000e+000
    outer loop
      vertex -1.558133e+000 -2.852143e+000  5.300000e+000
      vertex  2.231060e+000 -2.363233e+000  5.300000e+000
      vertex  3.237705e-001 -1.103482e+000  5.300000e+000
    endloop
  endfacet
  facet normal  0.000000e+000  0.000000e+000  1.000000e+000
    outer loop
      vertex -1.558133e+000 -2.852143e+000  5.300000e+000
      vertex  3.237705e-001 -1.103482e+000  5.300000e+000
      vertex -2.937004e+000 -1.391585e+000  5.300000e+000
    endloop
  endfacet
  facet normal  0.000000e+000  0.000000e+000  1.000000e+000
    outer loop
      vertex -2.937004e+000 -1.391585e+000  5.300000e+000
      vertex  3.237705e-001 -1.103482e+000  5.300000e+000
      vertex -5.513394e-001 -1.009220e+000  5.300000e+000
    endloop
  endfacet
  facet normal  0.000000e+000  0.000000e+000  1.000000e+000
    outer loop
      vertex -2.937004e+000 -1.391585e+000  5.300000e+000
      vertex -5.513394e-001 -1.009220e+000  5.300000e+000
      vertex -3.194039e+000  6.005118e-001  5.300000e+000
    endloop
  endfacet
  facet normal  0.000000e+000  0.000000e+000  1.000000e+000
    outer loop
      vertex -3.194039e+000  6.005118e-001  5.300000e+000
      vertex -5.513394e-001 -1.009220e+000  5.300000e+000
      vertex -1.103482e+000 -3.237705e-001  5.300000e+000
    endloop
  endfacet
  facet normal  0.000000e+000  0.000000e+000  1.000000e+000
    outer loop
      vertex  3.237705e-001 -1.103482e+000  5.300000e+000
      vertex  2.231060e+000 -2.363233e+000  5.300000e+000
      vertex  1.009220e+000 -5.513394e-001  5.300000e+000
    endloop
  endfacet
  facet normal  0.000000e+000  0.000000e+000  1.000000e+000
    outer loop
      vertex  1.009220e+000 -5.513394e-001  5.300000e+000
      vertex  2.231060e+000 -2.363233e+000  5.300000e+000
      vertex  3.194039e+000 -6.005118e-001  5.300000e+000
    endloop
  endfacet
  facet normal  0.000000e+000  0.000000e+000  1.000000e+000
    outer loop
      vertex  1.009220e+000 -5.513394e-001  5.300000e+000
      vertex  3.194039e+000 -6.005118e-001  5.300000e+000
      vertex  1.103482e+000  3.237705e-001  5.300000e+000
    endloop
  endfacet
  facet normal  -0.000000e+000  0.000000e+000  1.000000e+000
    outer loop
      vertex  1.103482e+000  3.237705e-001  5.300000e+000
      vertex  3.194039e+000 -6.005118e-001  5.300000e+000
      vertex  2.937004e+000  1.391585e+000  5.300000e+000
    endloop
  endfacet
  facet normal  0.000000e+000  0.000000e+000  1.000000e+000
    outer loop
      vertex  1.103482e+000  3.237705e-001  5.300000e+000
      vertex  2.937004e+000  1.391585e+000  5.300000e+000
      vertex  5.513394e-001  1.009220e+000  5.300000e+000
    endloop
  endfacet
  facet normal  0.000000e+000  0.000000e+000  1.000000e+000
    outer loop
      vertex -5.513394e-001 -1.009220e+000  8.200000e+000
      vertex  3.237705e-001 -1.103482e+000  8.200000e+000
      vertex  2.815395e-001 -9.595496e-001  8.200000e+000
    endloop
  endfacet
  facet normal  0.000000e+000  0.000000e+000  1.000000e+000
    outer loop
      vertex -5.513394e-001 -1.009220e+000  8.200000e+000
      vertex  2.815395e-001 -9.595496e-001  8.200000e+000
      vertex -4.794255e-001 -8.775826e-001  8.200000e+000
    endloop
  endfacet
  facet normal  0.000000e+000  0.000000e+000  9.999999e-001
    outer loop
      vertex -5.513394e-001 -1.009220e+000  8.200000e+000
      vertex -4.794255e-001 -8.775826e-001  8.200000e+000
      vertex -9.595496e-001 -2.815395e-001  8.200000e+000
    endloop
  endfacet
  facet normal  0.000000e+000  0.000000e+000  1.000000e+000
    outer loop
      vertex -5.513394e-001 -1.009220e+000  8.200000e+000
      vertex -9.595496e-001 -2.815395e-001  8.200000e+000
      vertex -1.103482e+000 -3.237705e-001  8.200000e+000
    endloop
  endfacet
  facet normal  0.000000e+000  -0.000000e+000  1.000000e+000
    outer loop
      vertex  2.815395e-001 -9.595496e-001  8.200000e+000
      vertex  3.237705e-001 -1.103482e+000  8.200000e+000
      vertex  8.775826e-001 -4.794255e-001  8.200000e+000
    endloop
  endfacet
  facet normal  0.000000e+000  0.000000e+000  9.999999e-001
    outer loop
      vertex  8.775826e-001 -4.794255e-001  8.200000e+000
      vertex  3.237705e-001 -1.103482e+000  8.200000e+000
      vertex  1.009220e+000 -5.513394e-001  8.200000e+000
    endloop
  endfacet
  facet normal  0.000000e+000  0.000000e+000  1.000000e+000
    outer loop
      vertex  8.775826e-001 -4.794255e-001  8.200000e+000
      vertex  1.009220e+000 -5.513394e-001  8.200000e+000
      vertex  9.595496e-001  2.815395e-001  8.200000e+000
    endloop
  endfacet
  facet normal  -0.000000e+000  0.000000e+000  1.000000e+000
    outer loop
      vertex  9.595496e-001  2.815395e-001  8.200000e+000
      vertex  1.009220e+000 -5.513394e-001  8.200000e+000
      vertex  1.103482e+000  3.237705e-001  8.200000e+000
    endloop
  endfacet
  facet normal  0.000000e+000  0.000000e+000  1.000000e+000
    outer loop
      vertex  9.595496e-001  2.815395e-001  8.200000e+000
      vertex  1.103482e+000  3.237705e-001  8.200000e+000
      vertex  4.794255e-001  8.775826e-001  8.200000e+000
    endloop
  endfacet
  facet normal  -0.000000e+000  0.000000e+000  9.999999e-001
    outer loop
      vertex  4.794255e-001  8.775826e-001  8.200000e+000
      vertex  1.103482e+000  3.237705e-001  8.200000e+000
      vertex  5.513394e-001  1.009220e+000  8.200000e+000
    endloop
  endfacet
  facet normal  0.000000e+000  0.000000e+000  1.000000e+000
    outer loop
      vertex  4.794255e-001  8.775826e-001  8.200000e+000
      vertex  5.513394e-001  1.009220e+000  8.200000e+000
      vertex -2.815395e-001  9.595496e-001  8.200000e+000
    endloop
  endfacet
  facet normal  0.000000e+000  -0.000000e+000  1.000000e+000
    outer loop
      vertex -2.815395e-001  9.595496e-001  8.200000e+000
      vertex  5.513394e-001  1.009220e+000  8.200000e+000
      vertex -3.237705e-001  1.103482e+000  8.200000e+000
    endloop
  endfacet
  facet normal  0.000000e+000  0.000000e+000  1.000000e+000
    outer loop
      vertex -2.815395e-001  9.595496e-001  8.200000e+000
      vertex -3.237705e-001  1.103482e+000  8.200000e+000
      vertex -8.775826e-001  4.794255e-001  8.200000e+000
    endloop
  endfacet
  facet normal  0.000000e+000  -0.000000e+000  9.999999e-001
    outer loop
      vertex -8.775826e-001  4.794255e-001  8.200000e+000
      vertex -3.237705e-001  1.103482e+000  8.200000e+000
      vertex -1.009220e+000  5.513394e-001  8.200000e+000
    endloop
  endfacet
  facet normal  0.000000e+000  0.000000e+000  1.000000e+000
    outer loop
      vertex -8.775826e-001  4.794255e-001  8.200000e+000
      vertex -1.009220e+000  5.513394e-001  8.200000e+000
      vertex -9.595496e-001 -2.815395e-001  8.200000e+000
    endloop
  endfacet
  facet normal  0.000000e+000  0.000000e+000  1.000000e+000
    outer loop
      vertex -9.595496e-001 -2.815395e-001  8.200000e+000
      vertex -1.009220e+000  5.513394e-001  8.200000e+000
      vertex -1.103482e+000 -3.237705e-001  8.200000e+000
    endloop
  endfacet
  facet normal  1.070952e-001  9.942487e-001  0.000000e+000
    outer loop
      vertex -7.191383e-002 -1.316374e-001  0.000000e+000
      vertex -7.191383e-002 -1.316374e-001  5.000000e-001
      vertex  4.223093e-002 -1.439324e-001  0.000000e+000
    endloop
  endfacet
  facet normal  1.070952e-001  9.942487e-001  -0.000000e+000
    outer loop
      vertex  4.223093e-002 -1.439324e-001  0.000000e+000
      vertex -7.191383e-002 -1.316374e-001  5.000000e-001
      vertex  4.223093e-002 -1.439324e-001  5.000000e-001
    endloop
  endfacet
  facet normal -6.273124e-001  7.787678e-001  0.000000e+000
    outer loop
      vertex  4.223093e-002 -1.439324e-001  0.000000e+000
      vertex  4.223093e-002 -1.439324e-001  5.000000e-001
      vertex  1.316374e-001 -7.191383e-002  0.000000e+000
    endloop
  endfacet
  facet normal -6.273124e-001  7.787678e-001  0.000000e+000
    outer loop
      vertex  1.316374e-001 -7.191383e-002  0.000000e+000
      vertex  4.223093e-002 -1.439324e-001  5.000000e-001
      vertex  1.316374e-001 -7.191383e-002  5.000000e-001
    endloop
  endfacet
  facet normal -9.942487e-001  1.070952e-001  0.000000e+000
    outer loop
      vertex  1.316374e-001 -7.191383e-002  0.000000e+000
      vertex  1.316374e-001 -7.191383e-002  5.000000e-001
      vertex  1.439324e-001  4.223093e-002  0.000000e+000
    endloop
  endfacet
  facet normal -9.942487e-001  1.070952e-001  0.000000e+000
    outer loop
      vertex  1.439324e-001  4.223093e-002  0.000000e+000
      vertex  1.316374e-001 -7.191383e-002  5.000000e-001
      vertex  1.439324e-001  4.223093e-002  5.000000e-001
    endloop
  endfacet
  facet normal -7.787678e-001 -6.273124e-001  -0.000000e+000
    outer loop
      vertex  1.439324e-001  4.223093e-002  0.000000e+000
      vertex  1.439324e-001  4.223093e-002  5.000000e-001
      vertex  7.191383e-002  1.316374e-001  0.000000e+000
    endloop
  endfacet
  facet normal -7.787678e-001 -6.273124e-001  0.000000e+000
    outer loop
      vertex  7.191383e-002  1.316374e-001  0.000000e+000
      vertex  1.439324e-001  4.223093e-002  5.000000e-001
      vertex  7.191383e-002  1.316374e-001  5.000000e-001
    endloop
  endfacet
  facet normal -1.070951e-001 -9.942488e-001  0.000000e+000
    outer loop
      vertex -9.588511e-001 -1.755165e+000  3.700000e+000
      vertex -9.588511e-001 -1.755165e+000  0.000000e+000
      vertex  5.630791e-001 -1.919099e+000  3.700000e+000
    endloop
  endfacet
  facet normal -1.070951e-001 -9.942488e-001  -0.000000e+000
    outer loop
      vertex  5.630791e-001 -1.919099e+000  3.700000e+000
      vertex -9.588511e-001 -1.755165e+000  0.000000e+000
      vertex  5.630791e-001 -1.919099e+000  0.000000e+000
    endloop
  endfacet
  facet normal  6.273124e-001 -7.787677e-001  0.000000e+000
    outer loop
      vertex  5.630791e-001 -1.919099e+000  3.700000e+000
      vertex  5.630791e-001 -1.919099e+000  0.000000e+000
      vertex  1.755165e+000 -9.588511e-001  3.700000e+000
    endloop
  endfacet
  facet normal  6.273124e-001 -7.787677e-001  0.000000e+000
    outer loop
      vertex  1.755165e+000 -9.588511e-001  3.700000e+000
      vertex  5.630791e-001 -1.919099e+000  0.000000e+000
      vertex  1.755165e+000 -9.588511e-001  0.000000e+000
    endloop
  endfacet
  facet normal  9.942488e-001 -1.070951e-001  0.000000e+000
    outer loop
      vertex  1.755165e+000 -9.588511e-001  3.700000e+000
      vertex  1.755165e+000 -9.588511e-001  0.000000e+000
      vertex  1.919099e+000  5.630791e-001  3.700000e+000
    endloop
  endfacet
  facet normal  9.942488e-001 -1.070951e-001  0.000000e+000
    outer loop
      vertex  1.919099e+000  5.630791e-001  3.700000e+000
      vertex  1.755165e+000 -9.588511e-001  0.000000e+000
      vertex  1.919099e+000  5.630791e-001  0.000000e+000
    endloop
  endfacet
  facet normal  7.787677e-001  6.273124e-001  -0.000000e+000
    outer loop
      vertex  1.919099e+000  5.630791e-001  3.700000e+000
      vertex  1.919099e+000  5.630791e-001  0.000000e+000
      vertex  9.588511e-001  1.755165e+000  3.700000e+000
    endloop
  endfacet
  facet normal  7.787677e-001  6.273124e-001  0.000000e+000
    outer loop
      vertex  9.588511e-001  1.755165e+000  3.700000e+000
      vertex  1.919099e+000  5.630791e-001  0.000000e+000
      vertex  9.588511e-001  1.755165e+000  0.000000e+000
    endloop
  endfacet
  facet normal -7.866244e-002 -7.302852e-001 -6.785985e-001
    outer loop
      vertex -1.150621e+000 -2.106198e+000  4.100000e+000
      vertex -9.588511e-001 -1.755165e+000  3.700000e+000
      vertex  6.756949e-001 -2.302919e+000  4.100000e+000
    endloop
  endfacet
  facet normal -7.866236e-002 -7.302850e-001 -6.785986e-001
    outer loop
      vertex  6.756949e-001 -2.302919e+000  4.100000e+000
      vertex -9.588511e-001 -1.755165e+000  3.700000e+000
      vertex  5.630791e-001 -1.919099e+000  3.700000e+000
    endloop
  endfacet
  facet normal  4.607668e-001 -5.720122e-001 -6.785985e-001
    outer loop
      vertex  6.756949e-001 -2.302919e+000  4.100000e+000
      vertex  5.630791e-001 -1.919099e+000  3.700000e+000
      vertex  2.106198e+000 -1.150621e+000  4.100000e+000
    endloop
  endfacet
  facet normal  4.607668e-001 -5.720122e-001 -6.785984e-001
    outer loop
      vertex  2.106198e+000 -1.150621e+000  4.100000e+000
      vertex  5.630791e-001 -1.919099e+000  3.700000e+000
      vertex  1.755165e+000 -9.588511e-001  3.700000e+000
    endloop
  endfacet
  facet normal  7.302852e-001 -7.866244e-002 -6.785985e-001
    outer loop
      vertex  2.106198e+000 -1.150621e+000  4.100000e+000
      vertex  1.755165e+000 -9.588511e-001  3.700000e+000
      vertex  2.302919e+000  6.756949e-001  4.100000e+000
    endloop
  endfacet
  facet normal  7.302850e-001 -7.866236e-002 -6.785986e-001
    outer loop
      vertex  2.302919e+000  6.756949e-001  4.100000e+000
      vertex  1.755165e+000 -9.588511e-001  3.700000e+000
      vertex  1.919099e+000  5.630791e-001  3.700000e+000
    endloop
  endfacet
  facet normal  5.720122e-001  4.607668e-001 -6.785985e-001
    outer loop
      vertex  2.302919e+000  6.756949e-001  4.100000e+000
      vertex  1.919099e+000  5.630791e-001  3.700000e+000
      vertex  1.150621e+000  2.106198e+000  4.100000e+000
    endloop
  endfacet
  facet normal  5.720122e-001  4.607668e-001 -6.785984e-001
    outer loop
      vertex  1.150621e+000  2.106198e+000  4.100000e+000
      vertex  1.919099e+000  5.630791e-001  3.700000e+000
      vertex  9.588511e-001  1.755165e+000  3.700000e+000
    endloop
  endfacet
  facet normal -1.070952e-001 -9.942488e-001  0.000000e+000
    outer loop
      vertex -1.150621e+000 -2.106198e+000  4.700000e+000
      vertex -1.150621e+000 -2.106198e+000  4.100000e+000
      vertex  6.756949e-001 -2.302919e+000  4.700000e+000
    endloop
  endfacet
  facet normal -1.070952e-001 -9.942488e-001  -0.000000e+000
    outer loop
      vertex  6.756949e-001 -2.302919e+000  4.700000e+000
      vertex -1.150621e+000 -2.106198e+000  4.100000e+000
      vertex  6.756949e-001 -2.302919e+000  4.100000e+000
    endloop
  endfacet
  facet normal  6.273124e-001 -7.787677e-001  0.000000e+000
    outer loop
      vertex  6.756949e-001 -2.302919e+000  4.700000e+000
      vertex  6.756949e-001 -2.302919e+000  4.100000e+000
      vertex  2.106198e+000 -1.150621e+000  4.700000e+000
    endloop
  endfacet
  facet normal  6.273124e-001 -7.787677e-001  0.000000e+000
    outer loop
      vertex  2.106198e+000 -1.150621e+000  4.700000e+000
      vertex  6.756949e-001 -2.302919e+000  4.100000e+000
      vertex  2.106198e+000 -1.150621e+000  4.100000e+000
    endloop
  endfacet
  facet normal  9.942488e-001 -1.070952e-001  0.000000e+000
    outer loop
      vertex  2.106198e+000 -1.150621e+000  4.700000e+000
      vertex  2.106198e+000 -1.150621e+000  4.100000e+000
      vertex  2.302919e+000  6.756949e-001  4.700000e+000
    endloop
  endfacet
  facet normal  9.942488e-001 -1.070952e-001  0.000000e+000
    outer loop
      vertex  2.302919e+000  6.756949e-001  4.700000e+000
      vertex  2.106198e+000 -1.150621e+000  4.100000e+000
      vertex  2.302919e+000  6.756949e-001  4.100000e+000
    endloop
  endfacet
  facet normal  7.787677e-001  6.273124e-001  -0.000000e+000
    outer loop
      vertex  2.302919e+000  6.756949e-001  4.700000e+000
      vertex  2.302919e+000  6.756949e-001  4.100000e+000
      vertex  1.150621e+000  2.106198e+000  4.700000e+000
    endloop
  endfacet
  facet normal  7.787677e-001  6.273124e-001  0.000000e+000
    outer loop
      vertex  1.150621e+000  2.106198e+000  4.700000e+000
      vertex  2.302919e+000  6.756949e-001  4.100000e+000
      vertex  1.150621e+000  2.106198e+000  4.100000e+000
    endloop
  endfacet
  facet normal -1.847728e-001 -9.827812e-001  0.000000e+000
    outer loop
      vertex -1.558133e+000 -2.852143e+000  5.300000e+000
      vertex -1.558133e+000 -2.852143e+000  4.700000e+000
      vertex  4.158917e-001 -3.223280e+000  5.300000e+000
    endloop
  endfacet
  facet normal -1.847728e-001 -9.827812e-001  -0.000000e+000
    outer loop
      vertex  4.158917e-001 -3.223280e+000  5.300000e+000
      vertex -1.558133e+000 -2.852143e+000  4.700000e+000
      vertex  4.158917e-001 -3.223280e+000  4.700000e+000
    endloop
  endfacet
  facet normal  4.281799e-001 -9.036936e-001  0.000000e+000
    outer loop
      vertex  4.158917e-001 -3.223280e+000  5.300000e+000
      vertex  4.158917e-001 -3.223280e+000  4.700000e+000
      vertex  2.231060e+000 -2.363233e+000  5.300000e+000
    endloop
  endfacet
  facet normal  4.281799e-001 -9.036936e-001  0.000000e+000
    outer loop
      vertex  2.231060e+000 -2.363233e+000  5.300000e+000
      vertex  4.158917e-001 -3.223280e+000  4.700000e+000
      vertex  2.231060e+000 -2.363233e+000  4.700000e+000
    endloop
  endfacet
  facet normal  8.775826e-001 -4.794255e-001  0.000000e+000
    outer loop
      vertex  2.231060e+000 -2.363233e+000  5.300000e+000
      vertex  2.231060e+000 -2.363233e+000  4.700000e+000
      vertex  3.194039e+000 -6.005118e-001  5.300000e+000
    endloop
  endfacet
  facet normal  8.775826e-001 -4.794255e-001  0.000000e+000
    outer loop
      vertex  3.194039e+000 -6.005118e-001  5.300000e+000
      vertex  2.231060e+000 -2.363233e+000  4.700000e+000
      vertex  3.194039e+000 -6.005118e-001  4.700000e+000
    endloop
  endfacet
  facet normal  9.917785e-001  1.279667e-001  -0.000000e+000
    outer loop
      vertex  3.194039e+000 -6.005118e-001  5.300000e+000
      vertex  3.194039e+000 -6.005118e-001  4.700000e+000
      vertex  2.937004e+000  1.391585e+000  5.300000e+000
    endloop
  endfacet
  facet normal  9.917785e-001  1.279667e-001  0.000000e+000
    outer loop
      vertex  2.937004e+000  1.391585e+000  5.300000e+000
      vertex  3.194039e+000 -6.005118e-001  4.700000e+000
      vertex  2.937004e+000  1.391585e+000  4.700000e+000
    endloop
  endfacet
  facet normal  7.271487e-001  6.864799e-001  -0.000000e+000
    outer loop
      vertex  2.937004e+000  1.391585e+000  5.300000e+000
      vertex  2.937004e+000  1.391585e+000  4.700000e+000
      vertex  1.558133e+000  2.852143e+000  5.300000e+000
    endloop
  endfacet
  facet normal  7.271487e-001  6.864799e-001  0.000000e+000
    outer loop
      vertex  1.558133e+000  2.852143e+000  5.300000e+000
      vertex  2.937004e+000  1.391585e+000  4.700000e+000
      vertex  1.558133e+000  2.852143e+000  4.700000e+000
    endloop
  endfacet
  facet normal -1.070951e-001 -9.942488e-001  0.000000e+000
    outer loop
      vertex -5.513394e-001 -1.009220e+000  8.200000e+000
      vertex -5.513394e-001 -1.009220e+000  5.300000e+000
      vertex  3.237705e-001 -1.103482e+000  8.200000e+000
    endloop
  endfacet
  facet normal -1.070951e-001 -9.942488e-001  -0.000000e+000
    outer loop
      vertex  3.237705e-001 -1.103482e+000  8.200000e+000
      vertex -5.513394e-001 -1.009220e+000  5.300000e+000
      vertex  3.237705e-001 -1.103482e+000  5.300000e+000
    endloop
  endfacet
  facet normal  6.273123e-001 -7.787678e-001  0.000000e+000
    outer loop
      vertex  3.237705e-001 -1.103482e+000  8.200000e+000
      vertex  3.237705e-001 -1.103482e+000  5.300000e+000
      vertex  1.009220e+000 -5.513394e-001  8.200000e+000
    endloop
  endfacet
  facet normal  6.273123e-001 -7.787678e-001  0.000000e+000
    outer loop
      vertex  1.009220e+000 -5.513394e-001  8.200000e+000
      vertex  3.237705e-001 -1.103482e+000  5.300000e+000
      vertex  1.009220e+000 -5.513394e-001  5.300000e+000
    endloop
  endfacet
  facet normal  9.942488e-001 -1.070951e-001  0.000000e+000
    outer loop
      vertex  1.009220e+000 -5.513394e-001  8.200000e+000
      vertex  1.009220e+000 -5.513394e-001  5.300000e+000
      vertex  1.103482e+000  3.237705e-001  8.200000e+000
    endloop
  endfacet
  facet normal  9.942488e-001 -1.070951e-001  0.000000e+000
    outer loop
      vertex  1.103482e+000  3.237705e-001  8.200000e+000
      vertex  1.009220e+000 -5.513394e-001  5.300000e+000
      vertex  1.103482e+000  3.237705e-001  5.300000e+000
    endloop
  endfacet
  facet normal  7.787678e-001  6.273123e-001  -0.000000e+000
    outer loop
      vertex  1.103482e+000  3.237705e-001  8.200000e+000
      vertex  1.103482e+000  3.237705e-001  5.300000e+000
      vertex  5.513394e-001  1.009220e+000  8.200000e+000
    endloop
  endfacet
  facet normal  7.787678e-001  6.273123e-001  0.000000e+000
    outer loop
      vertex  5.513394e-001  1.009220e+000  8.200000e+000
      vertex  1.103482e+000  3.237705e-001  5.300000e+000
      vertex  5.513394e-001  1.009220e+000  5.300000e+000
    endloop
  endfacet
  facet normal  1.070951e-001  9.942487e-001  0.000000e+000
    outer loop
      vertex -4.794255e-001 -8.775826e-001  5.000000e-001
      vertex -4.794255e-001 -8.775826e-001  8.200000e+000
      vertex  2.815395e-001 -9.595496e-001  5.000000e-001
    endloop
  endfacet
  facet normal  1.070951e-001  9.942487e-001  -0.000000e+000
    outer loop
      vertex  2.815395e-001 -9.595496e-001  5.000000e-001
      vertex -4.794255e-001 -8.775826e-001  8.200000e+000
      vertex  2.815395e-001 -9.595496e-001  8.200000e+000
    endloop
  endfacet
  facet normal -6.273124e-001  7.787678e-001  0.000000e+000
    outer loop
      vertex  2.815395e-001 -9.595496e-001  5.000000e-001
      vertex  2.815395e-001 -9.595496e-001  8.200000e+000
      vertex  8.775826e-001 -4.794255e-001  5.000000e-001
    endloop
  endfacet
  facet normal -6.273124e-001  7.787678e-001  0.000000e+000
    outer loop
      vertex  8.775826e-001 -4.794255e-001  5.000000e-001
      vertex  2.815395e-001 -9.595496e-001  8.200000e+000
      vertex  8.775826e-001 -4.794255e-001  8.200000e+000
    endloop
  endfacet
  facet normal -9.942487e-001  1.070951e-001  0.000000e+000
    outer loop
      vertex  8.775826e-001 -4.794255e-001  5.000000e-001
      vertex  8.775826e-001 -4.794255e-001  8.200000e+000
      vertex  9.595496e-001  2.815395e-001  5.000000e-001
    endloop
  endfacet
  facet normal -9.942487e-001  1.070951e-001  0.000000e+000
    outer loop
      vertex  9.595496e-001  2.815395e-001  5.000000e-001
      vertex  8.775826e-001 -4.794255e-001  8.200000e+000
      vertex  9.595496e-001  2.815395e-001  8.200000e+000
    endloop
  endfacet
  facet normal -7.787678e-001 -6.273124e-001  -0.000000e+000
    outer loop
      vertex  9.595496e-001  2.815395e-001  5.000000e-001
      vertex  9.595496e-001  2.815395e-001  8.200000e+000
      vertex  4.794255e-001  8.775826e-001  5.000000e-001
    endloop
  endfacet
  facet normal -7.787678e-001 -6.273124e-001  0.000000e+000
    outer loop
      vertex  4.794255e-001  8.775826e-001  5.000000e-001
      vertex  9.595496e-001  2.815395e-001  8.200000e+000
      vertex  4.794255e-001  8.775826e-001  8.200000e+000
    endloop
  endfacet
  facet normal -1.070952e-001 -9.942487e-001  -0.000000e+000
    outer loop
      vertex  7.191383e-002  1.316374e-001  0.000000e+000
      vertex  7.191383e-002  1.316374e-001  5.000000e-001
      vertex -4.223093e-002  1.439324e-001  0.000000e+000
    endloop
  endfacet
  facet normal -1.070952e-001 -9.942487e-001  0.000000e+000
    outer loop
      vertex -4.223093e-002  1.439324e-001  0.000000e+000
      vertex  7.191383e-002  1.316374e-001  5.000000e-001
      vertex -4.223093e-002  1.439324e-001  5.000000e-001
    endloop
  endfacet
  facet normal  6.273124e-001 -7.787678e-001  0.000000e+000
    outer loop
      vertex -4.223093e-002  1.439324e-001  0.000000e+000
      vertex -4.223093e-002  1.439324e-001  5.000000e-001
      vertex -1.316374e-001  7.191383e-002  0.000000e+000
    endloop
  endfacet
  facet normal  6.273124e-001 -7.787678e-001  0.000000e+000
    outer loop
      vertex -1.316374e-001  7.191383e-002  0.000000e+000
      vertex -4.223093e-002  1.439324e-001  5.000000e-001
      vertex -1.316374e-001  7.191383e-002  5.000000e-001
    endloop
  endfacet
  facet normal  9.942487e-001 -1.070952e-001  0.000000e+000
    outer loop
      vertex -1.316374e-001  7.191383e-002  0.000000e+000
      vertex -1.316374e-001  7.191383e-002  5.000000e-001
      vertex -1.439324e-001 -4.223093e-002  0.000000e+000
    endloop
  endfacet
  facet normal  9.942487e-001 -1.070952e-001  0.000000e+000
    outer loop
      vertex -1.439324e-001 -4.223093e-002  0.000000e+000
      vertex -1.316374e-001  7.191383e-002  5.000000e-001
      vertex -1.439324e-001 -4.223093e-002  5.000000e-001
    endloop
  endfacet
  facet normal  7.787678e-001  6.273124e-001  0.000000e+000
    outer loop
      vertex -1.439324e-001 -4.223093e-002  0.000000e+000
      vertex -1.439324e-001 -4.223093e-002  5.000000e-001
      vertex -7.191383e-002 -1.316374e-001  0.000000e+000
    endloop
  endfacet
  facet normal  7.787678e-001  6.273124e-001  -0.000000e+000
    outer loop
      vertex -7.191383e-002 -1.316374e-001  0.000000e+000
      vertex -1.439324e-001 -4.223093e-002  5.000000e-001
      vertex -7.191383e-002 -1.316374e-001  5.000000e-001
    endloop
  endfacet
  facet normal  1.070951e-001  9.942488e-001  -0.000000e+000
    outer loop
      vertex  9.588511e-001  1.755165e+000  3.700000e+000
      vertex  9.588511e-001  1.755165e+000  0.000000e+000
      vertex -5.630791e-001  1.919099e+000  3.700000e+000
    endloop
  endfacet
  facet normal  1.070951e-001  9.942488e-001  0.000000e+000
    outer loop
      vertex -5.630791e-001  1.919099e+000  3.700000e+000
      vertex  9.588511e-001  1.755165e+000  0.000000e+000
      vertex -5.630791e-001  1.919099e+000  0.000000e+000
    endloop
  endfacet
  facet normal -6.273124e-001  7.787677e-001  0.000000e+000
    outer loop
      vertex -5.630791e-001  1.919099e+000  3.700000e+000
      vertex -5.630791e-001  1.919099e+000  0.000000e+000
      vertex -1.755165e+000  9.588511e-001  3.700000e+000
    endloop
  endfacet
  facet normal -6.273124e-001  7.787677e-001  0.000000e+000
    outer loop
      vertex -1.755165e+000  9.588511e-001  3.700000e+000
      vertex -5.630791e-001  1.919099e+000  0.000000e+000
      vertex -1.755165e+000  9.588511e-001  0.000000e+000
    endloop
  endfacet
  facet normal -9.942488e-001  1.070951e-001  0.000000e+000
    outer loop
      vertex -1.755165e+000  9.588511e-001  3.700000e+000
      vertex -1.755165e+000  9.588511e-001  0.000000e+000
      vertex -1.919099e+000 -5.630791e-001  3.700000e+000
    endloop
  endfacet
  facet normal -9.942488e-001  1.070951e-001  0.000000e+000
    outer loop
      vertex -1.919099e+000 -5.630791e-001  3.700000e+000
      vertex -1.755165e+000  9.588511e-001  0.000000e+000
      vertex -1.919099e+000 -5.630791e-001  0.000000e+000
    endloop
  endfacet
  facet normal -7.787677e-001 -6.273124e-001  0.000000e+000
    outer loop
      vertex -1.919099e+000 -5.630791e-001  3.700000e+000
      vertex -1.919099e+000 -5.630791e-001  0.000000e+000
      vertex -9.588511e-001 -1.755165e+000  3.700000e+000
    endloop
  endfacet
  facet normal -7.787677e-001 -6.273124e-001  -0.000000e+000
    outer loop
      vertex -9.588511e-001 -1.755165e+000  3.700000e+000
      vertex -1.919099e+000 -5.630791e-001  0.000000e+000
      vertex -9.588511e-001 -1.755165e+000  0.000000e+000
    endloop
  endfacet
  facet normal  7.866244e-002  7.302852e-001 -6.785985e-001
    outer loop
      vertex  1.150621e+000  2.106198e+000  4.100000e+000
      vertex  9.588511e-001  1.755165e+000  3.700000e+000
      vertex -6.756949e-001  2.302919e+000  4.100000e+000
    endloop
  endfacet
  facet normal  7.866236e-002  7.302850e-001 -6.785986e-001
    outer loop
      vertex -6.756949e-001  2.302919e+000  4.100000e+000
      vertex  9.588511e-001  1.755165e+000  3.700000e+000
      vertex -5.630791e-001  1.919099e+000  3.700000e+000
    endloop
  endfacet
  facet normal -4.607668e-001  5.720122e-001 -6.785985e-001
    outer loop
      vertex -6.756949e-001  2.302919e+000  4.100000e+000
      vertex -5.630791e-001  1.919099e+000  3.700000e+000
      vertex -2.106198e+000  1.150621e+000  4.100000e+000
    endloop
  endfacet
  facet normal -4.607668e-001  5.720122e-001 -6.785984e-001
    outer loop
      vertex -2.106198e+000  1.150621e+000  4.100000e+000
      vertex -5.630791e-001  1.919099e+000  3.700000e+000
      vertex -1.755165e+000  9.588511e-001  3.700000e+000
    endloop
  endfacet
  facet normal -7.302852e-001  7.866244e-002 -6.785985e-001
    outer loop
      vertex -2.106198e+000  1.150621e+000  4.100000e+000
      vertex -1.755165e+000  9.588511e-001  3.700000e+000
      vertex -2.302919e+000 -6.756949e-001  4.100000e+000
    endloop
  endfacet
  facet normal -7.302850e-001  7.866236e-002 -6.785986e-001
    outer loop
      vertex -2.302919e+000 -6.756949e-001  4.100000e+000
      vertex -1.755165e+000  9.588511e-001  3.700000e+000
      vertex -1.919099e+000 -5.630791e-001  3.700000e+000
    endloop
  endfacet
  facet normal -5.720122e-001 -4.607668e-001 -6.785985e-001
    outer loop
      vertex -2.302919e+000 -6.756949e-001  4.100000e+000
      vertex -1.919099e+000 -5.630791e-001  3.700000e+000
      vertex -1.150621e+000 -2.106198e+000  4.100000e+000
    endloop
  endfacet
  facet normal -5.720122e-001 -4.607668e-001 -6.785984e-001
    outer loop
      vertex -1.150621e+000 -2.106198e+000  4.100000e+000
      vertex -1.919099e+000 -5.630791e-001  3.700000e+000
      vertex -9.588511e-001 -1.755165e+000  3.700000e+000
    endloop
  endfacet
  facet normal  1.070952e-001  9.942488e-001  -0.000000e+000
    outer loop
      vertex  1.150621e+000  2.106198e+000  4.700000e+000
      vertex  1.150621e+000  2.106198e+000  4.100000e+000
      vertex -6.756949e-001  2.302919e+000  4.700000e+000
    endloop
  endfacet
  facet normal  1.070952e-001  9.942488e-001  0.000000e+000
    outer loop
      vertex -6.756949e-001  2.302919e+000  4.700000e+000
      vertex  1.150621e+000  2.106198e+000  4.100000e+000
      vertex -6.756949e-001  2.302919e+000  4.100000e+000
    endloop
  endfacet
  facet normal -6.273124e-001  7.787677e-001  0.000000e+000
    outer loop
      vertex -6.756949e-001  2.302919e+000  4.700000e+000
      vertex -6.756949e-001  2.302919e+000  4.100000e+000
      vertex -2.106198e+000  1.150621e+000  4.700000e+000
    endloop
  endfacet
  facet normal -6.273124e-001  7.787677e-001  0.000000e+000
    outer loop
      vertex -2.106198e+000  1.150621e+000  4.700000e+000
      vertex -6.756949e-001  2.302919e+000  4.100000e+000
      vertex -2.106198e+000  1.150621e+000  4.100000e+000
    endloop
  endfacet
  facet normal -9.942488e-001  1.070952e-001  0.000000e+000
    outer loop
      vertex -2.106198e+000  1.150621e+000  4.700000e+000
      vertex -2.106198e+000  1.150621e+000  4.100000e+000
      vertex -2.302919e+000 -6.756949e-001  4.700000e+000
    endloop
  endfacet
  facet normal -9.942488e-001  1.070952e-001  0.000000e+000
    outer loop
      vertex -2.302919e+000 -6.756949e-001  4.700000e+000
      vertex -2.106198e+000  1.150621e+000  4.100000e+000
      vertex -2.302919e+000 -6.756949e-001  4.100000e+000
    endloop
  endfacet
  facet normal -7.787677e-001 -6.273124e-001  0.000000e+000
    outer loop
      vertex -2.302919e+000 -6.756949e-001  4.700000e+000
      vertex -2.302919e+000 -6.756949e-001  4.100000e+000
      vertex -1.150621e+000 -2.106198e+000  4.700000e+000
    endloop
  endfacet
  facet normal -7.787677e-001 -6.273124e-001  -0.000000e+000
    outer loop
      vertex -1.150621e+000 -2.106198e+000  4.700000e+000
      vertex -2.302919e+000 -6.756949e-001  4.100000e+000
      vertex -1.150621e+000 -2.106198e+000  4.100000e+000
    endloop
  endfacet
  facet normal  1.847728e-001  9.827812e-001  -0.000000e+000
    outer loop
      vertex  1.558133e+000  2.852143e+000  5.300000e+000
      vertex  1.558133e+000  2.852143e+000  4.700000e+000
      vertex -4.158917e-001  3.223280e+000  5.300000e+000
    endloop
  endfacet
  facet normal  1.847728e-001  9.827812e-001  0.000000e+000
    outer loop
      vertex -4.158917e-001  3.223280e+000  5.300000e+000
      vertex  1.558133e+000  2.852143e+000  4.700000e+000
      vertex -4.158917e-001  3.223280e+000  4.700000e+000
    endloop
  endfacet
  facet normal -4.281799e-001  9.036936e-001  0.000000e+000
    outer loop
      vertex -4.158917e-001  3.223280e+000  5.300000e+000
      vertex -4.158917e-001  3.223280e+000  4.700000e+000
      vertex -2.231060e+000  2.363233e+000  5.300000e+000
    endloop
  endfacet
  facet normal -4.281799e-001  9.036936e-001  0.000000e+000
    outer loop
      vertex -2.231060e+000  2.363233e+000  5.300000e+000
      vertex -4.158917e-001  3.223280e+000  4.700000e+000
      vertex -2.231060e+000  2.363233e+000  4.700000e+000
    endloop
  endfacet
  facet normal -8.775826e-001  4.794255e-001  0.000000e+000
    outer loop
      vertex -2.231060e+000  2.363233e+000  5.300000e+000
      vertex -2.231060e+000  2.363233e+000  4.700000e+000
      vertex -3.194039e+000  6.005118e-001  5.300000e+000
    endloop
  endfacet
  facet normal -8.775826e-001  4.794255e-001  0.000000e+000
    outer loop
      vertex -3.194039e+000  6.005118e-001  5.300000e+000
      vertex -2.231060e+000  2.363233e+000  4.700000e+000
      vertex -3.194039e+000  6.005118e-001  4.700000e+000
    endloop
  endfacet
  facet normal -9.917785e-001 -1.279667e-001  0.000000e+000
    outer loop
      vertex -3.194039e+000  6.005118e-001  5.300000e+000
      vertex -3.194039e+000  6.005118e-001  4.700000e+000
      vertex -2.937004e+000 -1.391585e+000  5.300000e+000
    endloop
  endfacet
  facet normal -9.917785e-001 -1.279667e-001  -0.000000e+000
    outer loop
      vertex -2.937004e+000 -1.391585e+000  5.300000e+000
      vertex -3.194039e+000  6.005118e-001  4.700000e+000
      vertex -2.937004e+000 -1.391585e+000  4.700000e+000
    endloop
  endfacet
  facet normal -7.271487e-001 -6.864799e-001  0.000000e+000
    outer loop
      vertex -2.937004e+000 -1.391585e+000  5.300000e+000
      vertex -2.937004e+000 -1.391585e+000  4.700000e+000
      vertex -1.558133e+000 -2.852143e+000  5.300000e+000
    endloop
  endfacet
  facet normal -7.271487e-001 -6.864799e-001  -0.000000e+000
    outer loop
      vertex -1.558133e+000 -2.852143e+000  5.300000e+000
      vertex -2.937004e+000 -1.391585e+000  4.700000e+000
      vertex -1.558133e+000 -2.852143e+000  4.700000e+000
    endloop
  endfacet
  facet normal  1.070951e-001  9.942488e-001  -0.000000e+000
    outer loop
      vertex  5.513394e-001  1.009220e+000  8.200000e+000
      vertex  5.513394e-001  1.009220e+000  5.300000e+000
      vertex -3.237705e-001  1.103482e+000  8.200000e+000
    endloop
  endfacet
  facet normal  1.070951e-001  9.942488e-001  0.000000e+000
    outer loop
      vertex -3.237705e-001  1.103482e+000  8.200000e+000
      vertex  5.513394e-001  1.009220e+000  5.300000e+000
      vertex -3.237705e-001  1.103482e+000  5.300000e+000
    endloop
  endfacet
  facet normal -6.273123e-001  7.787678e-001  0.000000e+000
    outer loop
      vertex -3.237705e-001  1.103482e+000  8.200000e+000
      vertex -3.237705e-001  1.103482e+000  5.300000e+000
      vertex -1.009220e+000  5.513394e-001  8.200000e+000
    endloop
  endfacet
  facet normal -6.273123e-001  7.787678e-001  0.000000e+000
    outer loop
      vertex -1.009220e+000  5.513394e-001  8.200000e+000
      vertex -3.237705e-001  1.103482e+000  5.300000e+000
      vertex -1.009220e+000  5.513394e-001  5.300000e+000
    endloop
  endfacet
  facet normal -9.942488e-001  1.070951e-001  0.000000e+000
    outer loop
      vertex -1.009220e+000  5.513394e-001  8.200000e+000
      vertex -1.009220e+000  5.513394e-001  5.300000e+000
      vertex -1.103482e+000 -3.237705e-001  8.200000e+000
    endloop
  endfacet
  facet normal -9.942488e-001  1.070951e-001  0.000000e+000
    outer loop
      vertex -1.103482e+000 -3.237705e-001  8.200000e+000
      vertex -1.009220e+000  5.513394e-001  5.300000e+000
      vertex -1.103482e+000 -3.237705e-001  5.300000e+000
    endloop
  endfacet
  facet normal -7.787678e-001 -6.273123e-001  0.000000e+000
    outer loop
      vertex -1.103482e+000 -3.237705e-001  8.200000e+000
      vertex -1.103482e+000 -3.237705e-001  5.300000e+000
      vertex -5.513394e-001 -1.009220e+000  8.200000e+000
    endloop
  endfacet
  facet normal -7.787678e-001 -6.273123e-001  -0.000000e+000
    outer loop
      vertex -5.513394e-001 -1.009220e+000  8.200000e+000
      vertex -1.103482e+000 -3.237705e-001  5.300000e+000
      vertex -5.513394e-001 -1.009220e+000  5.300000e+000
    endloop
  endfacet
  facet normal -1.070951e-001 -9.942487e-001  -0.000000e+000
    outer loop
      vertex  4.794255e-001  8.775826e-001  5.000000e-001
      vertex  4.794255e-001  8.775826e-001  8.200000e+000
      vertex -2.815395e-001  9.595496e-001  5.000000e-001
    endloop
  endfacet
  facet normal -1.070951e-001 -9.942487e-001  0.000000e+000
    outer loop
      vertex -2.815395e-001  9.595496e-001  5.000000e-001
      vertex  4.794255e-001  8.775826e-001  8.200000e+000
      vertex -2.815395e-001  9.595496e-001  8.200000e+000
    endloop
  endfacet
  facet normal  6.273124e-001 -7.787678e-001  0.000000e+000
    outer loop
      vertex -2.815395e-001  9.595496e-001  5.000000e-001
      vertex -2.815395e-001  9.595496e-001  8.200000e+000
      vertex -8.775826e-001  4.794255e-001  5.000000e-001
    endloop
  endfacet
  facet normal  6.273124e-001 -7.787678e-001  0.000000e+000
    outer loop
      vertex -8.775826e-001  4.794255e-001  5.000000e-001
      vertex -2.815395e-001  9.595496e-001  8.200000e+000
      vertex -8.775826e-001  4.794255e-001  8.200000e+000
    endloop
  endfacet
  facet normal  9.942487e-001 -1.070951e-001  0.000000e+000
    outer loop
      vertex -8.775826e-001  4.794255e-001  5.000000e-001
      vertex -8.775826e-001  4.794255e-001  8.200000e+000
      vertex -9.595496e-001 -2.815395e-001  5.000000e-001
    endloop
  endfacet
  facet normal  9.942487e-001 -1.070951e-001  0.000000e+000
    outer loop
      vertex -9.595496e-001 -2.815395e-001  5.000000e-001
      vertex -8.775826e-001  4.794255e-001  8.200000e+000
      vertex -9.595496e-001 -2.815395e-001  8.200000e+000
    endloop
  endfacet
  facet normal  7.787678e-001  6.273124e-001  0.000000e+000
    outer loop
      vertex -9.595496e-001 -2.815395e-001  5.000000e-001
      vertex -9.595496e-001 -2.815395e-001  8.200000e+000
      vertex -4.794255e-001 -8.775826e-001  5.000000e-001
    endloop
  endfacet
  facet normal  7.787678e-001  6.273124e-001  -0.000000e+000
    outer loop
      vertex -4.794255e-001 -8.775826e-001  5.000000e-001
      vertex -9.595496e-001 -2.815395e-001  8.200000e+000
      vertex -4.794255e-001 -8.775826e-001  8.200000e+000
    endloop
  endfacet
endsolid CATIA STL
